/* XPM */
static char *result[] = {
/* columns rows colors chars-per-pixel */
"72 70 202 2 ",
"   c gray5",
".  c gray6",
"X  c #101010",
"o  c #111111",
"O  c gray7",
"+  c #131313",
"@  c gray8",
"#  c #151515",
"$  c #161616",
"%  c gray9",
"&  c #181818",
"*  c #191919",
"=  c gray10",
"-  c #1B1B1B",
";  c gray11",
":  c #1D1D1D",
">  c #1E1E1E",
",  c gray12",
"<  c #202020",
"1  c gray13",
"2  c #222222",
"3  c #232323",
"4  c gray14",
"5  c #252525",
"6  c gray15",
"7  c #272727",
"8  c #282828",
"9  c gray16",
"0  c #2A2A2A",
"q  c gray17",
"w  c #2C2C2C",
"e  c #2D2D2D",
"r  c gray18",
"t  c #2F2F2F",
"y  c gray19",
"u  c #313131",
"i  c #323232",
"p  c gray20",
"a  c #343434",
"s  c #353535",
"d  c gray21",
"f  c #373737",
"g  c gray22",
"h  c #393939",
"j  c #3A3A3A",
"k  c gray23",
"l  c gray24",
"z  c #3E3E3E",
"x  c #3F3F3F",
"c  c gray25",
"v  c #414141",
"b  c gray26",
"n  c #434343",
"m  c #444444",
"M  c gray27",
"N  c #464646",
"B  c gray28",
"V  c #484848",
"C  c #494949",
"Z  c gray29",
"A  c #4B4B4B",
"S  c #4C4C4C",
"D  c gray30",
"F  c #4E4E4E",
"G  c gray31",
"H  c #505050",
"J  c #515151",
"K  c gray32",
"L  c #535353",
"P  c gray33",
"I  c #555555",
"U  c #565656",
"Y  c #585858",
"T  c gray35",
"R  c #5A5A5A",
"E  c #5B5B5B",
"W  c gray36",
"Q  c #5D5D5D",
"!  c gray37",
"~  c #5F5F5F",
"^  c #606060",
"/  c gray38",
"(  c #626262",
")  c #656565",
"_  c gray40",
"`  c #676767",
"'  c DimGray",
"]  c #6A6A6A",
"[  c gray42",
"{  c #6D6D6D",
"}  c gray43",
"|  c #6F6F6F",
" . c gray44",
".. c #717171",
"X. c #727272",
"o. c gray45",
"O. c #747474",
"+. c gray46",
"@. c #777777",
"#. c gray47",
"$. c #7C7C7C",
"%. c gray49",
"&. c #7E7E7E",
"*. c gray50",
"=. c #808080",
"-. c #818181",
";. c gray51",
":. c #838383",
">. c #848484",
",. c #868686",
"<. c gray53",
"1. c #888888",
"2. c #898989",
"3. c gray54",
"4. c #8B8B8B",
"5. c gray55",
"6. c #8D8D8D",
"7. c #8E8E8E",
"8. c gray56",
"9. c #909090",
"0. c gray57",
"q. c #929292",
"w. c #939393",
"e. c gray58",
"r. c #959595",
"t. c gray59",
"y. c #979797",
"u. c #989898",
"i. c gray60",
"p. c #9A9A9A",
"a. c #9B9B9B",
"s. c gray61",
"d. c gray62",
"f. c #9F9F9F",
"g. c #A0A0A0",
"h. c gray63",
"j. c #A2A2A2",
"k. c gray64",
"l. c #A4A4A4",
"z. c #A5A5A5",
"x. c gray65",
"c. c #A7A7A7",
"v. c gray66",
"b. c #AAAAAA",
"n. c #ACACAC",
"m. c gray68",
"M. c #AEAEAE",
"N. c #AFAFAF",
"B. c gray69",
"V. c #B1B1B1",
"C. c #B2B2B2",
"Z. c gray70",
"A. c gray71",
"S. c gray72",
"D. c #B9B9B9",
"F. c gray73",
"G. c #BCBCBC",
"H. c gray74",
"J. c gray",
"K. c gray75",
"L. c #C0C0C0",
"P. c #C1C1C1",
"I. c #C3C3C3",
"U. c gray77",
"Y. c #C6C6C6",
"T. c gray78",
"R. c #C8C8C8",
"E. c gray79",
"W. c #CACACA",
"Q. c #CBCBCB",
"!. c gray80",
"~. c #CDCDCD",
"^. c #CECECE",
"/. c gray81",
"(. c #D0D0D0",
"). c gray82",
"_. c gray83",
"`. c #D5D5D5",
"'. c #D7D7D7",
"]. c #D8D8D8",
"[. c gray85",
"{. c #DADADA",
"}. c gray86",
"|. c gainsboro",
" X c #DDDDDD",
".X c gray87",
"XX c #DFDFDF",
"oX c gray88",
"OX c #E1E1E1",
"+X c #E2E2E2",
"@X c gray89",
"#X c #E4E4E4",
"$X c gray90",
"%X c #E6E6E6",
"&X c #E7E7E7",
"*X c gray91",
"=X c #E9E9E9",
"-X c #EAEAEA",
";X c gray92",
":X c #ECECEC",
">X c gray93",
",X c None",
/* pixels */
",X,X,X,X,X,X,X,X,X,X,X,X,X,X,X,X,X,X,XO O O O O O O O O O O O O O O O O O O O O O O O O O O O O O O O O O O ,X,X,X,X,X,X,X,X,X,X,X,X,X,X,X,X,X,X",
",X,X,X,X,X,X,X,X,X,X,X,X,X,X,X,X,X,X,Xo o o o o O O O O O O O O O O O O O O O O O O O O O O O O O O O O O O ,X,X,X,X,X,X,X,X,X,X,X,X,X,X,X,X,X,X",
",X,X,X,X,X,X,X,X,X,X,X,X,X,X,X,X,X,X,X& & & % # + O O O O O O O O O O O O O O O O O O O O O O O O O O O O O ,X,X,X,X,X,X,X,X,X,X,X,X,X,X,X,X,X,X",
",X,X,X,X,X,X,X,X,X,X,X,X,X,X,X,X,X,Xy ~ ] ] ) z & o O O O O O O O O O O O O O O O O O O O O O O O O O O O O O ,X,X,X,X,X,X,X,X,X,X,X,X,X,X,X,X,X",
",X,X,X,X,X,X,X,X,X,X,X,X,X,X,XO O X g l._.'.Q.O.> X O O O O O O O O O O O O O O O O O O O O O O O O O O O O O O O O O ,X,X,X,X,X,X,X,X,X,X,X,X,X",
",X,X,X,X,X,X,X,X,X,X,X,X,X,X,XO O X g B.;X>XoX*.> X O O O O O O O O O O O O O O O O O O O O O O O O O O O O O O O O O ,X,X,X,X,X,X,X,X,X,X,X,X,X",
",X,X,X,X,X,X,X,X,X,X,X,X,X,X,XO O X g M.*X;X.X&.> X O O O O O O O O O O O O O O O O O O O O O O O O O O O O O O O O O ,X,X,X,X,X,X,X,X,X,X,X,X,X",
",X,X,X,X,X,X,X,X,X,X,X,X,X,X,XO O X g M.*X-X.X&., X O O O O O O O O O O O O O O O O O O O O O O O O O O O O O O O O O ,X,X,X,X,X,X,X,X,X,X,X,X,X",
",X,X,X,X,X,X,X,X,X,X,X,X,X,X,XO O X g N.*X-X.X&., X O O O O O O O O O O O O O O O O O O O O O O O O O O O O O O O O O ,X,X,X,X,X,X,X,X,X,X,X,X,X",
",X,X,X,X,X,X,X,X,X,X,X,X,X,X,XO O X g N.*X-X.X&., X O O O O O O O O O O O O O O O O O O O O O O O O O O O O O O O O O ,X,X,X,X,X,X,X,X,X,X,X,X,X",
",X,X,X,X,X,X,X,X,X,X,X,X,X,X,Xo o X f M.*X;X.X&.> . o O O O O O O O O O O O O O O O O O O O O O O O O O O O O O O O O ,X,X,X,X,X,X,X,X,X,X,X,X,X",
",X,X,X,X,X,X,X,X,X,X,X,X,X,X,X= = * z m.@X%X{.*.6 & = * @ O O O O O O O O O O O O O O O O O O O O O O O O O O O O O O ,X,X,X,X,X,X,X,X,X,X,X,X,X",
",X,X,X,X,X,X,X,X,X,X,XO O # h W / ^  .h.D.F.A.6._ ^ ^ D , O O O O O O O O O O O O O O O O O O O O O O O O O O O O O O ,X,X,X,X,X,X,X,X,X,X,X,X,X",
",X,X,X,X,X,X,X,X,X,XO O O # b 1.w.q.e.u.p.p.a.y.w.w.w.o.8 O O O O O O O O O O O O O O O O O O O O O O O O O O O O O O ,X,X,X,X,X,X,X,X,X,X,X,X,X",
",X,X,X,X,X,X,X,X,X,XO O O # n 6.i.u.u.u.u.u.u.u.i.i.u.@.9 O O O O O O O O O O O O O O O O O O O O O O O O O O O O O O ,X,X,X,X,X,X,X,X,X,X,X,X,X",
",X,X,X,X,X,X,X,X,X,X@ @ @ % m 5.u.u.u.u.u.u.u.u.y.t.t.+.9 O O O O O O O O O O O O O O O O O O O O O O O O O O O O O O ,X,X,X,X,X,X,X,X,X,X,X,X,X",
",X,X,X,X,X,X,X,X,X,Xf x x v ~ 9.u.u.u.u.u.i.t.;.} ] [ P 1 O O O O O O O O O O O O O O O O O O O O O O O O O O O O O O ,X,X,X,X,X,X,X,X,X,X,X,X,X",
",X,X,X,X,X,XO O X 1 ~ >.<.<.6.y.u.u.u.u.u.i.w.! q 2 3 , # O O O O O O O O O O O O O O O O O O O O O O O O O O O O O O ,X,X,X,X,X,X,X,X,X,X,X,X,X",
",X,X,X,X,X,XO O X 2 ` y.a.p.i.u.u.u.u.u.u.i.0.I & . X o O O O O O O O O O O O O O O O O O O O O O O O O O O O O O O O ,X,X,X,X,X,X,X,X,X,X,X,X,X",
",X,X,X,X,X,XO O X 2 ` t.p.i.i.i.i.i.i.u.u.i.0.P & . X X X X X X o o o o o o o o o o o o o o o o o o o o o o O O O O O ,X,X,X,X,X,X,X,X,X,X,X,X,X",
",X,X,X,X,X,XO O X 1 Q =.:.;.;.;.;.:.2.s.z.x.g.{ k p a a a a a p w 8 7 8 8 8 8 8 8 8 8 8 8 8 8 8 8 8 8 8 8 6 - + O O O ,X,X,X,X,X,X,X,X,X,X,X,X,X",
",X,X,X,X,X,X,X,X,X,Xa j k k k k j h I v.(.).^.G.b.c.c.c.c.c.v.j.,...| | | | | | | | | | | | | | | | | | ..` h # O O O ,X,X,X,X,X,X,X,X,X,X,X,X,X",
",X,X,X,X,X,X,X,X,X,XO O O O O O O X g M.*X=X*X*X*X*X*X*X*X*X=XoXS.i.u.u.u.u.u.u.u.u.u.u.u.u.u.u.u.u.u.u.i.5.Z $ o O O ,X,X,X,X,X,X,X,X,X,X,X,X,X",
",X,X,X,X,X,X,X,X,X,Xo o o o o o o X g M.*X=X*X=X-X-X-X=X=X=X=XOXS.i.u.u.i.i.i.i.i.i.i.i.i.i.i.i.i.i.i.i.p.6.Z $ o O O ,X,X,X,X,X,X,X,X,X,X,X,X,X",
",X,X,X,X,X,X,X,X,X,XO O O O O O O X g N.*X=X&X#XOXoXoXOX%X*X=XOXF.s.p.a.u.w.q.q.q.q.q.q.q.r.u.u.u.u.u.u.i.6.Z $ o O O ,X,X,X,X,X,X,X,X,X,X,X,X,X",
",X,X,X,X,X,X,X,X,X,X,X,XO O O O O X g N.*X-X+XC.:.$.%.y.`.*X*X#X(.P.L.K.u./ L P P P P P Y o.e.u.u.u.u.u.i.6.Z $ o O O ,X,X,X,X,X,X,X,X,X,X,X,X,X",
",X,X,X,X,X,X,X,X,X,X,X,X,X,X,XO O X g N.*X-X.X>.0 ; , J Y.*X*X*X%X#X#XOXi.i & = = = = = < L 0.i.u.u.u.u.i.6.Z $ o O O ,X,X,X,X,X,X,X,X,X,X,X,X,X",
",X,X,X,X,X,X,X,X,X,X,X,X,X,X,XO O X g N.*X-X.X%.> . o B U.*X*X*X*X*X=X%Xi.q . o o o o o % F 9.i.u.u.u.u.i.6.Z $ o O O ,X,X,X,X,X,X,X,X,X,X,X,X,X",
",X,X,X,X,X,X,X,X,X,X,X,X,X,X,XO O X g N.*X-X.X&., X O V U.*X*X*X*X*X=X%Xp.e X O O O O O * G 9.u.u.y.u.u.i.6.Z $ o O O ,X,X,X,X,X,X,X,X,X,X,X,X,X",
",X,X,X,X,X,X,X,X,X,X,X,X,X,X,XO O X g N.*X-X.X&., X + V U.*X*X*X*X*X=X%XM.! C Z Z Z Z Z S ! X.+.O.&.0.u.i.6.Z $ o O O ,X,X,X,X,X,X,X,X,X,X,X,X,X",
",X,X,X,X,X,X,X,X,X,X,X,X,X,X,XO O X g N.*X-X.X&., X + V U.*X*X*X*X*X*X&X{.R.I.I.I.I.I.U.G.&.i 8 9 M -.u.i.6.Z $ o O O ,X,X,X,X,X,X,X,X,X,X,X,X,X",
",X,X,X,X,X,X,X,X,X,X,X,X,X,X,XO O X g N.*X-X.X&., . O V U.*X*X*X*X*X*X*X=X-X;X;X;X;X;X;XoX1.; X X i $.i.i.6.Z $ o O O ,X,X,X,X,X,X,X,X,X,X,X,X,X",
",X,X,X,X,X,X,X,X,X,X,X,X,X,X,XO O X g N.*X-X.X%.:   X N U.*X*X*X*X*X*X*X*X*X*X*X*X*X*X=XXX<.: o o p &.p.a.7.Z $ o O O ,X,X,X,X,X,X,X,X,X,X,X,X,X",
",X,X,X,X,X,X,X,X,X,X,X,X,X,X,XO O X g N.*X-XXX3.f 9 w E R.*X*X*X*X*X*X*X*X*X*X*X*X*X*X=XXX<.: o o t  .1.2.*.B $ o O O ,X,X,X,X,X,X,X,X,X,X,X,X,X",
",X,X,X,X,X,X,X,X,X,X,X,X,X,X,XO O X g N.*X=X#XL.d.u.i.m.}.*X*X*X*X*X*X*X*X*X*X*X*X*X*X=XXX<.: o O , j m m n p ,X,X,X,X,X,X,X,X,X,X,X,X,X,X,X,X,X",
",X,X,X,X,X,X,X,X,X,X,X,X,X,X,XO O X g M.*X=X*X&X%X%X%X&X*X*X*X*X*X*X*X*X*X*X*X*X*X*X*X=XXX<.: o O O + @ @ @ ,X,X,X,X,X,X,X,X,X,X,X,X,X,X,X,X,X,X",
",X,X,X,X,X,X,X,X,X,X,X,X,X,X,XO O X g N.=X-X=X=X=X=X=X=X*X*X*X*X*X*X*X*X*X*X*X*X*X=X=X-XoX1.: o O O o o o o ,X,X,X,X,X,X,X,X,X,X,X,X,X,X,X,X,X,X",
",X,X,X,X,X,X,X,X,X,X,X,X,X,X,XO O X g n.@X#X#X$X%X&X&X&X*X*X*X*X*X*X*X*X*X*X*X*X&X$X#X#X{.,.: o O O O O O O ,X,X,X,X,X,X,X,X,X,X,X,X,X,X,X,X,X,X",
",X,X,X,X,X,X,X,X,X,X,X,X,X,X,XO O X a #.8.7.0.b.I.T.T./.+X*X*X*X*X*X*X*X*X*X*X=X{.v.8.7.4._ : o O O O O O O ,X,X,X,X,X,X,X,X,X,X,X,X,X,X,X,X,X,X",
",X,X,X,X,X,X,X,X,X,X,X,X,X,X,X,X,X,X,X4 5 4 0 ( u.g.f.V.|.=X*X*X*X*X*X*X*X*X*X-XE.Q 6 4 5 3 ,X,X,X,X,X,X,X,X,X,X,X,X,X,X,X,X,X,X,X,X,X,X,X,X,X,X",
",X,X,X,X,X,X,X,X,X,X,X,X,X,X,X,X,X,X,Xo o . % P 9.i.y.n.}.=X*X*X*X*X*X*X*X*X*X-XY.F O X o o ,X,X,X,X,X,X,X,X,X,X,X,X,X,X,X,X,X,X,X,X,X,X,X,X,X,X",
",X,X,X,X,X,X,X,X,X,X,X,X,X,X,X,X,X,X,XO O o & P 9.i.u.n.{.*X*X*X*X*X*X*X*X*X*X-XY.F + o O O ,X,X,X,X,X,X,X,X,X,X,X,X,X,X,X,X,X,X,X,X,X,X,X,X,X,X",
",X,X,X,X,X,X,X,X,X,X,X,X,X,X,X,X,X,X,XO O o % B @.&.&.7.Z.J.J.J.J.J.J.J.J.J.J.L.k.n + O O O ,X,X,X,X,X,X,X,X,X,X,X,X,X,X,X,X,X,X,X,X,X,X,X,X,X,X",
",X,X,X,X,X,X,X,X,X,X,X,X,X,X,X,X,X,X,XO O O @ 1 r u y a z v v v v v v v v v v b j < O O O O O O O O ,X,X,X,X,X,X,X,X,X,X,X,X,X,X,X,X,X,X,X,X,X,X",
",X,X,X,X,X,X,X,X,X,X,X,X,X,X,X,X,X,X,XO O O O O O O O O O o o o o O O O O O O o O O O O O O O O O O ,X,X,X,X,X,X,X,X,X,X,X,X,X,X,X,X,X,X,X,X,X,X",
",X,X,X,X,X,X,X,X,X,X,X,X,X,X,X,X,X,X,XO O O O O O O O O O O O O X X X X X X X X X o O O O O O O O O ,X,X,X,X,X,X,X,X,X,X,X,X,X,X,X,X,X,X,X,X,X,X",
",X,X,X,X,X,X,X,X,X,X,X,X,X,X,X,X,X,X,XO O O O O O O O O O O O @ ; 3 3 3 3 3 3 3 1 % O O O O O O O O ,X,X,X,X,X,X,X,X,X,X,X,X,X,X,X,X,X,X,X,X,X,X",
",X,X,X,X,X,X,X,X,X,X,X,X,X,X,X,X,X,X,XO O O O O O O O O O O o > T <.3.2.2.2.3.4.@.a + O O O O O O O ,X,X,X,X,X,X,X,X,X,X,X,X,X,X,X,X,X,X,X,X,X,X",
",X,X,X,X,X,X,X,X,X,X,X,X,X,X,X,X,X,X,XO O O O O O O O O O O o 6 7..X+XOXOXOX+X#XP.D @ O O O O O O O ,X,X,X,X,X,X,X,X,X,X,X,X,X,X,X,X,X,X,X,X,X,X",
",X,X,X,X,X,X,X,X,X,X,X,X,X,X,X,X,X,X,XO O O O O o o o o o o X 7 w.%X-X=X=X=X=X:XT.F + o O O O O O O ,X,X,X,X,X,X,X,X,X,X,X,X,X,X,X,X,X,X,X,X,X,X",
",X,X,X,X,X,X,X,X,X,X,X,X,X,X,X,X,X,X,XO O O O + @ @ @ @ @ + O 8 w.#X=X*X*X*X*X-XY.G # + + + O O O O ,X,X,X,X,X,X,X,X,X,X,X,X,X,X,X,X,X,X,X,X,X,X",
",X,X,X,X,X,X,X,X,X,X,X,X,X,X,X,X,X,X,XO O O $ d U E R L m x z H l.$X=X*X*X*X*X=X~.| c x l q @ O O O ,X,X,X,X,X,X,X,X,X,X,X,X,X,X,X,X,X,X,X,X,X,X",
",X,X,X,X,X,X,X,X,X,X,X,X,X,X,X,X,X,X,XO O o - | P.^.!.F.q.,.,.9.P.&X=X*X*X*X*X=X[.k.<.<.-.K & O O O ,X,X,X,X,X,X,X,X,X,X,X,X,X,X,X,X,X,X,X,X,X,X",
",X,X,X,X,X,X,X,X,X,X,X,X,X,X,X,X,X,X,XO O X ; %. X:X-X`.c.i.u.h.R.&X=X*X*X*X*X=X}.B.p.i.w.W = o O O ,X,X,X,X,X,X,X,X,X,X,X,X,X,X,X,X,X,X,X,X,X,X",
",X,X,X,X,X,X,X,X,X,X,X,X,X,X,X,X,X,X,XO O X ; $.|.-X*X_.x.u.y.g.R.&X=X*X*X*X*X=X}.N.i.u.q.E = o O O ,X,X,X,X,X,X,X,X,X,X,X,X,X,X,X,X,X,X,X,X,X,X",
",X,X,X,X,X,X,X,X,X,X,X,X,X,X,X,X,X,X,XO O X ; +.P.!.W.D.0.,.>.8.L.%X=X*X*X*X*X=X].j.,.,.=.J * O O O ,X,X,X,X,X,X,X,X,X,X,X,X,X,X,X,X,X,X,X,X,X,X",
",X,X,X,X,X,X,X,X,X,X,X,X,X,X,X,X,X,X,X,X,X,X,Xc S D S B k f d V g.$X=X*X*X*X*X=X!.' g d s 6 @ O O O ,X,X,X,X,X,X,X,X,X,X,X,X,X,X,X,X,X,X,X,X,X,X",
",X,X,X,X,X,X,X,X,X,X,X,X,X,X,X,X,X,X,X,X,X,X,X@ @ @ @ @ @ + O 7 q.$X=X*X*X*X*X-XT.H # + + + O O O O ,X,X,X,X,X,X,X,X,X,X,X,X,X,X,X,X,X,X,X,X,X,X",
",X,X,X,X,X,X,X,X,X,X,X,X,X,X,X,X,X,X,X,X,X,X,X,XO O O O O O o 7 w.%X;X-X-X-X-X:XR.G + O O O O O O O ,X,X,X,X,X,X,X,X,X,X,X,X,X,X,X,X,X,X,X,X,X,X",
",X,X,X,X,X,X,X,X,X,X,X,X,X,X,X,X,X,X,X,X,X,X,XO O O O O O O o 6 4.[..X X X X XXXH.A + O O O O O O O ,X,X,X,X,X,X,X,X,X,X,X,X,X,X,X,X,X,X,X,X,X,X",
",X,X,X,X,X,X,X,X,X,X,X,X,X,X,X,X,X,X,X,X,X,XO O O O O O O O O : L &.-.=.=.=.=.-.| u + O O O O O O ,X,X,X,X,X,X,X,X,X,X,X,X,X,X,X,X,X,X,X,X,X,X,X",
",X,X,X,X,X,X,X,X,X,X,X,X,X,X,X,X,X,X,XO O O O O O O O O O O O + * > > > > > > , ; $ O O O O ,X,X,X,X,X,X,X,X,X,X,X,X,X,X,X,X,X,X,X,X,X,X,X,X,X,X",
",X,X,X,X,X,X,X,X,X,X,X,X,X,X,X,X,X,X,XO O O O O O O O O O O O O o X X X X X X X X o O O O O ,X,X,X,X,X,X,X,X,X,X,X,X,X,X,X,X,X,X,X,X,X,X,X,X,X,X",
",X,X,X,X,X,X,X,X,X,X,X,X,X,X,X,X,X,X,XO O O O O O O O O O O O O O O O O O O O O O O O O O O ,X,X,X,X,X,X,X,X,X,X,X,X,X,X,X,X,X,X,X,X,X,X,X,X,X,X",
",X,X,X,X,X,X,X,X,X,X,X,X,X,X,X,X,X,X,XO O O O O O O O O O O O O O O O O O O O O O O O O O ,X,X,X,X,X,X,X,X,X,X,X,X,X,X,X,X,X,X,X,X,X,X,X,X,X,X,X",
",X,X,X,X,X,X,X,X,X,X,X,X,X,X,XO O O O O O O O O O O O O O O O O O O O O O O O O O ,X,X,X,X,X,X,X,X,X,X,X,X,X,X,X,X,X,X,X,X,X,X,X,X,X,X,X,X,X,X,X",
",X,X,X,X,X,X,X,X,X,X,X,X,X,X,XO O O O O O O O O O O O O O O O O O O O O O O O O O ,X,X,X,X,X,X,X,X,X,X,X,X,X,X,X,X,X,X,X,X,X,X,X,X,X,X,X,X,X,X,X",
",X,X,X,X,X,X,X,X,X,X,X,X,X,X,XO O O O O O O O O O O O O O O O O O O O O O O O O O ,X,X,X,X,X,X,X,X,X,X,X,X,X,X,X,X,X,X,X,X,X,X,X,X,X,X,X,X,X,X,X",
",X,X,X,X,X,X,X,X,X,X,X,X,X,X,XO O O O O O O O O O O O O O O O O O O O O O O O O O ,X,X,X,X,X,X,X,X,X,X,X,X,X,X,X,X,X,X,X,X,X,X,X,X,X,X,X,X,X,X,X",
",X,X,X,X,X,X,X,X,X,X,X,X,X,X,X,X,X,X,X,X,X,X,X,X,X,X,X,X,X,X,X,X,X,X,X,X,X,X,X,X,X,X,X,X,X,X,X,X,X,X,X,X,X,X,X,X,X,X,X,X,X,X,X,X,X,X,X,X,X,X,X,X"
};
