/* XPM */
static char *result[] = {
/* columns rows colors chars-per-pixel */
"81 80 235 2 ",
"   c #0A0B0B",
".  c #0B0C0C",
"X  c #0C0D0D",
"o  c #0D0E0E",
"O  c #0E0F0F",
"+  c #0F1010",
"@  c #101111",
"#  c #101212",
"$  c #111212",
"%  c #121313",
"&  c #131414",
"*  c #141515",
"=  c #151616",
"-  c #161717",
";  c #171818",
":  c #181919",
">  c #191A1A",
",  c #1A1B1B",
"<  c #1B1C1C",
"1  c #1C1D1D",
"2  c #1D1E1E",
"3  c #1E1F1F",
"4  c #1F2020",
"5  c #202121",
"6  c #212222",
"7  c #222323",
"8  c #232424",
"9  c gray14",
"0  c #242525",
"q  c #272828",
"w  c gray16",
"e  c #2A2A2A",
"r  c #2A2B2B",
"t  c #2B2C2C",
"y  c #2C2C2C",
"u  c #2C2D2D",
"i  c #2D2E2E",
"p  c #343535",
"a  c #353535",
"s  c #353636",
"d  c gray21",
"f  c #363737",
"g  c #373838",
"h  c gray22",
"j  c #383939",
"k  c #393A3A",
"l  c #3A3A3A",
"z  c #3A3B3B",
"x  c #3B3C3C",
"c  c gray24",
"v  c #3D3E3E",
"b  c #3E3E3E",
"n  c #3E3F3F",
"m  c #3F4040",
"M  c #414242",
"N  c #424343",
"B  c #434444",
"V  c #444444",
"C  c #444545",
"Z  c gray27",
"A  c #454646",
"S  c gray28",
"D  c #474848",
"F  c #484848",
"G  c #484949",
"H  c #494949",
"J  c #4B4B4B",
"K  c #4B4C4C",
"L  c #4C4C4C",
"P  c #4C4D4D",
"I  c #4D4E4E",
"U  c #4E4E4E",
"Y  c #4E4F4F",
"T  c gray31",
"R  c #4F5050",
"E  c #515252",
"W  c #525353",
"Q  c #535454",
"!  c gray33",
"~  c #545555",
"^  c #555555",
"/  c #555656",
"(  c #565656",
")  c #565757",
"_  c #585858",
"`  c #585959",
"'  c #5B5C5C",
"]  c #5D5D5D",
"[  c #5D5E5E",
"{  c #5E5F5F",
"}  c #5F5F5F",
"|  c #5F6060",
" . c #606060",
".. c #606161",
"X. c #616262",
"o. c #626262",
"O. c gray39",
"+. c #646464",
"@. c #646565",
"#. c #656565",
"$. c gray40",
"%. c #676767",
"&. c gray42",
"*. c #6B6C6C",
"=. c #6C6C6C",
"-. c #6C6D6D",
";. c gray43",
":. c #6E6F6F",
">. c #6F6F6F",
",. c #6F7070",
"<. c gray44",
"1. c #707171",
"2. c #717171",
"3. c #717272",
"4. c #727272",
"5. c #727373",
"6. c gray45",
"7. c #737474",
"8. c #747474",
"9. c gray46",
"0. c #777777",
"q. c gray47",
"w. c #797979",
"e. c #7B7C7C",
"r. c #7C7C7C",
"t. c #7C7D7D",
"y. c #7E7E7E",
"u. c gray50",
"i. c #808181",
"p. c #818181",
"a. c gray51",
"s. c #858686",
"d. c #868686",
"f. c #898989",
"g. c gray54",
"h. c #8B8B8B",
"j. c gray55",
"k. c #8D8D8D",
"l. c #8D8E8E",
"z. c #8E8E8E",
"x. c #8E8F8F",
"c. c gray56",
"v. c #8F9090",
"b. c #909090",
"n. c gray57",
"m. c #929292",
"M. c #939393",
"N. c gray58",
"B. c #949595",
"V. c #959595",
"C. c gray59",
"Z. c #979797",
"A. c #989898",
"S. c #999898",
"D. c gray60",
"F. c #9A9A9A",
"G. c #9B9B9B",
"H. c gray61",
"J. c #9D9D9D",
"K. c #9F9F9F",
"L. c #9FA0A0",
"P. c #A0A0A0",
"I. c #A2A2A2",
"U. c #A4A4A4",
"Y. c #A5A5A5",
"T. c gray65",
"R. c #A7A7A7",
"E. c gray66",
"W. c #A9A9A9",
"Q. c #A9AAAA",
"!. c #AAAAAA",
"~. c gray67",
"^. c #ABACAC",
"/. c #ACACAC",
"(. c #ACADAD",
"). c gray68",
"_. c #ADAEAE",
"`. c #AEAEAE",
"'. c #AFAFAF",
"]. c gray69",
"[. c #B1B1B1",
"{. c #B1B2B2",
"}. c #B2B2B2",
"|. c gray71",
" X c #B7B7B7",
".X c gray72",
"XX c #B9B9B9",
"oX c gray73",
"OX c #BBBBBB",
"+X c #BCBCBC",
"@X c #BCBDBD",
"#X c gray74",
"$X c gray",
"%X c gray75",
"&X c #BFC0C0",
"*X c #C1C1C1",
"=X c #C1C2C2",
"-X c #C3C3C3",
";X c gray77",
":X c #C5C5C5",
">X c #C6C6C6",
",X c gray78",
"<X c #CACACA",
"1X c gray80",
"2X c #CDCDCD",
"3X c gray81",
"4X c #D0D0D0",
"5X c gray82",
"6X c #D2D2D2",
"7X c LightGray",
"8X c gray83",
"9X c #D5D5D5",
"0X c #D7D7D7",
"qX c #D8D8D8",
"wX c gray85",
"eX c gray86",
"rX c gainsboro",
"tX c gray87",
"yX c gray88",
"uX c #E1E1E1",
"iX c #E2E2E2",
"pX c gray89",
"aX c #E4E4E4",
"sX c gray90",
"dX c #E6E6E6",
"fX c #E7E7E7",
"gX c gray91",
"hX c #E9E9E9",
"jX c #EAEAEA",
"kX c gray92",
"lX c #ECECEC",
"zX c gray93",
"xX c #EEEEEE",
"cX c #EFEFEF",
"vX c None",
/* pixels */
"vXvXvXvXvXvXvXvXvXvXvXvXvXvXvXvXvXvXvXvXvXvXvXvXvXvXvXvXvXvXvXvXvXvXvXvXvXvXvXvXvXvXvXvXvXvXvXvXvXvXvXvXvXvXvXvXvXvXvXvXvXvXvXvXvXvXvXvXvXvXvXvXvXvXvXvXvXvXvXvXvX",
"vXvXvXvXvXvXvXvXvXvXvXvXvXvXvXvXvXvXvXvXvXvXvXvXvXvXvXvXvXvXvXvXvXvXvXvXvXvXvXvXvXvXvXvXvXvXvXvXvXvXvXvXvXvXvXvXvXvXvXvXvXvXvXvXvXvXvXvXvXvXvXvXvXvXvXvXvXvXvXvXvX",
"vXvXvXvXvXvXvXvXvXvXvXvXvXvXvXvXvXvXvXvXvXvXvXvXvXvXvXvXvXvXvXvXvXvXvXvXvXvXvXvXvXvXvXvXvXvXvXvXvXvXvXvXvXvXvXvXvXvXvXvXvXvXvXvXvXvXvXvXvXvXvXvXvXvXvXvXvXvXvXvXvX",
"vXvXvXvXvXvXvXvXvXvXvXvXvXvXvXvXvXvXvXvXvXvXvXvXvXvXvXvXvXvXvXvXvXvXvXvXvXvXvXvXvXvXvXvXvXvXvXvXvXvXvXvXvXvXvXvXvXvXvXvXvXvXvXvXvXvXvXvXvXvXvXvXvXvXvXvXvXvXvXvXvX",
"vXvXvXvXvXvXvXvXvXvXvXvXvXvXvXvXvXvXvXvXvXvXvXvXvXvXvXvXvXvXvXvXvXvXvXvXvXvXvXvXvXvXvXvXvXvXvXvXvXvXvXvXvXvXvXvXvXvXvXvXvXvXvXvXvXvXvXvXvXvXvXvXvXvXvXvXvXvXvXvXvX",
"vXvXvXvXvXvXvXvXvXvXvXvXvXvXvXvXvXvXvXvXvXvXvXvXvXvXvXvXvXvX$ $ $ $ $ $ $ $ $ $ $ $ $ $ $ $ $ $ $ $ vXvXvXvXvXvXvXvXvXvXvXvXvXvXvXvXvXvXvXvXvXvXvXvXvXvXvXvXvXvXvX",
"vXvXvXvXvXvXvXvXvXvXvXvXvXvXvXvXvXvXvXvXvXvXvXvXvXvXvXvXvXvX$ $ $ $ $ $ $ $ $ $ $ $ $ $ $ $ $ $ $ $ vXvXvXvXvXvXvXvXvXvXvXvXvXvXvXvXvXvXvXvXvXvXvXvXvXvXvXvXvXvXvX",
"vXvXvXvXvXvXvXvXvXvXvXvXvXvXvXvXvXvXvXvXvXvXvXvXvXvXvXvXvXvX$ $ $ $ $ $ $ $ $ $ $ $ $ $ $ $ $ $ $ $ vXvXvXvXvXvXvXvXvXvXvXvXvXvXvXvXvXvXvXvXvXvXvXvXvXvXvXvXvXvXvX",
"vXvXvXvXvXvXvXvXvXvXvXvXvXvXvXvXvXvXvXvXvXvXvXvXvXvXvXvXvXvX+ + + + + + + + + + + + + + + + + + + + vXvXvXvXvXvXvXvXvXvXvXvXvXvXvXvXvXvXvXvXvXvXvXvXvXvXvXvXvXvXvX",
"vXvXvXvXvXvXvXvXvXvXvXvXvXvXvXvXvXvXvXvXvXvXvXvXvXvXvXvXvXvXp h g g g g g g g g g g g g g g g g g g e vXvXvXvXvXvXvXvXvXvXvXvXvXvXvXvXvXvXvXvXvXvXvXvXvXvXvXvXvXvX",
"vXvXvXvXvXvXvXvXvXvXvXvXvXvXvXvXvXvXvXvX$ $ $ $ $ $ $ $ $ - 0.Z.V.V.V.V.V.V.V.V.V.V.V.V.V.V.V.V.V.V.b + $ $ $ $ $ $ $ $ vXvXvXvXvXvXvXvXvXvXvXvXvXvXvXvXvXvXvXvXvX",
"vXvXvXvXvXvXvXvXvXvXvXvXvXvXvXvXvXvXvXvX$ $ $ $ $ $ $ $ $ - q.F.A.A.A.A.A.A.A.A.A.A.A.A.A.A.A.A.A.Z.n + $ $ $ $ $ $ $ $ vXvXvXvXvXvXvXvXvXvXvXvXvXvXvXvXvXvXvXvXvX",
"vXvXvXvXvXvXvXvXvXvXvXvXvXvXvXvXvXvXvXvX$ $ $ $ $ $ $ $ $ - q.F.A.A.A.A.A.A.A.A.A.A.A.A.A.A.A.A.A.Z.n + $ $ $ $ $ $ $ $ vXvXvXvXvXvXvXvXvXvXvXvXvXvXvXvXvXvXvXvXvX",
"vXvXvXvXvXvXvXvXvXvXvXvXvXvXvXvXvXvXvXvX+ + + + + + + + O * q.F.A.A.A.A.A.A.A.A.A.A.A.A.A.A.A.A.A.Z.c X + + + + + + + + vXvXvXvXvXvXvXvXvXvXvXvXvXvXvXvXvXvXvXvXvX",
"vXvXvXvXvXvXvXvXvXvXvXvXvXvXvXvXvXvXvXvXs h g g g g g g g x p.D.A.A.A.A.A.A.A.A.A.A.A.A.A.A.A.A.A.Z._ d g g g g g g g h y vXvXvXvXvXvXvXvXvXvXvXvXvXvXvXvXvXvXvXvX",
"vXvXvXvXvXvXvXvXvXvXvXvXvXvXvX$ $ $ # > r.Z.V.V.V.V.V.V.V.V.Z.A.A.A.A.A.A.A.A.A.A.A.A.A.A.A.A.A.A.A.C.V.V.V.V.V.V.V.V.C.Z + $ $ $ vXvXvXvXvXvXvXvXvXvXvXvXvXvXvXvX",
"vXvXvXvXvXvXvXvXvXvXvXvXvXvXvX$ $ $ # > y.F.A.A.A.A.A.A.A.A.A.A.A.A.A.A.A.A.A.A.A.A.A.A.A.A.A.A.A.A.A.A.A.A.A.A.A.A.A.D.A + $ $ $ vXvXvXvXvXvXvXvXvXvXvXvXvXvXvXvX",
"vXvXvXvXvXvXvXvXvXvXvXvXvXvXvX$ $ $ # > y.F.A.A.A.A.A.A.A.A.A.A.A.A.A.A.A.A.A.A.A.A.A.A.A.A.A.A.A.A.A.A.A.A.A.A.A.A.A.D.A + $ $ $ vXvXvXvXvXvXvXvXvXvXvXvXvXvXvXvX",
"vXvXvXvXvXvXvXvXvXvXvXvXvXvXvX+ + + O ; y.F.A.A.A.A.A.A.A.A.A.A.A.A.A.A.A.A.A.A.F.F.F.F.F.D.A.A.A.A.A.A.A.A.A.A.A.A.A.D.V X + + + vXvXvXvXvXvXvXvXvXvXvXvXvXvXvXvX",
"vXvXvXvXvXvXvXvXvXvXvXvXvXvXvXs h g g v s.D.A.A.A.A.A.A.A.A.A.A.A.A.A.A.A.A.A.Z.t.2.4.3.4.j.D.A.A.A.A.A.A.A.A.A.A.A.A.A.] d g g h u vXvXvXvXvXvXvXvXvXvXvXvXvXvXvX",
"vXvXvXvXvXvXvXvXvXvX$ $ $ @ < u.Z.V.V.C.Z.A.A.A.A.A.A.A.A.A.A.A.A.A.A.A.A.A.A.V.k $ * * = >.F.A.A.A.A.A.A.A.A.A.A.A.A.A.C.V.V.V.C.G + $ $ $ vXvXvXvXvXvXvXvXvXvXvX",
"vXvXvXvXvXvXvXvXvXvX$ $ $ @ < p.F.A.A.A.A.A.A.A.A.A.A.A.A.A.A.A.A.A.A.A.A.A.A.V.g + $ $ & :.F.A.A.A.A.A.A.A.A.A.A.A.A.A.A.A.A.A.D.H + $ $ $ vXvXvXvXvXvXvXvXvXvXvX",
"vXvXvXvXvXvXvXvXvXvX$ $ $ @ < p.F.A.A.A.A.A.A.A.A.A.A.A.A.A.A.A.A.A.A.A.A.A.A.V.g + $ $ & :.F.A.A.A.A.A.A.A.A.A.A.A.A.A.A.A.A.A.D.H + $ $ $ vXvXvXvXvXvXvXvXvXvXvX",
"vXvXvXvXvXvXvXvXvXvX$ $ $ @ < p.F.A.A.A.A.A.A.A.A.A.A.A.A.A.A.A.A.A.A.F.F.F.F.Z.s . o o + >.J.F.F.F.D.A.A.A.A.A.A.A.A.A.A.A.A.A.D.H + $ $ $ vXvXvXvXvXvXvXvXvXvXvX",
"vXvXvXvXvXvXvXvXvXvX$ $ $ @ < p.F.A.A.A.A.A.A.A.A.A.A.A.A.A.A.A.A.A.Z.r.2.4.4.2.` U Y Y T %.4.4.4.4.h.D.A.A.A.A.A.A.A.A.A.A.A.A.D.H + $ $ $ vXvXvXvXvXvXvXvXvXvXvX",
"vXvXvXvXvXvXvXvXvXvX$ $ $ @ < p.F.A.A.A.A.A.A.A.A.A.A.A.A.A.A.A.A.A.N.f % * & : W.fXaXaXuX~ @ * * * =.F.A.A.A.A.A.A.A.A.A.A.A.A.D.H + $ $ $ vXvXvXvXvXvXvXvXvXvXvX",
"vXvXvXvXvXvXvXvXvXvX$ $ $ @ < p.F.A.A.A.A.A.A.A.A.A.A.A.A.A.A.A.A.A.N.p + $ $ = ~.lXgXgXdXQ o $ $ % &.F.A.A.A.A.A.A.A.A.A.A.A.A.D.H + $ $ $ vXvXvXvXvXvXvXvXvXvXvX",
"vXvXvXvXvXvXvXvXvXvX$ $ $ @ < p.F.A.A.A.A.A.A.A.A.A.A.A.A.A.A.A.A.A.N.p + $ $ = ~.lXgXgXsXQ o $ $ % &.F.A.A.A.A.A.A.A.A.A.A.A.A.D.H + $ $ $ vXvXvXvXvXvXvXvXvXvXvX",
"vXvXvXvXvXvXvXvXvXvX$ $ $ @ < p.F.A.A.A.F.F.F.F.F.F.F.F.F.F.F.F.F.F.C.a + $ $ = ~.lXgXgXsXQ o $ $ % -.J.F.F.F.F.F.F.F.F.D.A.A.A.D.H + $ $ $ vXvXvXvXvXvXvXvXvXvXvX",
"vXvXvXvXvXvXvXvXvXvX$ $ $ @ < p.F.A.A.C.w.2.4.4.4.4.4.4.4.4.4.4.4.4.>.r @ $ $ = ~.lXgXgXsXQ o $ $ % E 7.4.4.4.4.4.4.4.3.f.D.A.A.D.H + $ $ $ vXvXvXvXvXvXvXvXvXvXvX",
"vXvXvXvXvXvXvXvXvXvX$ $ $ @ < p.F.A.A.b.i % * * * * * * * * * * * * * % $ $ $ = ~.lXgXgXsXQ o $ $ $ & * * * * * * * * & #.F.A.A.D.H + $ $ $ vXvXvXvXvXvXvXvXvXvXvX",
"vXvXvXvXvXvXvXvXvXvX$ $ $ @ < p.F.A.S.b.t + $ $ $ $ $ $ $ $ $ $ $ $ $ $ $ $ $ = ~.lXgXgXsXQ o $ $ $ $ $ $ $ $ $ $ $ $ @ +.F.A.A.D.H + $ $ $ vXvXvXvXvXvXvXvXvXvXvX",
"vXvXvXvXvXvXvXvXvXvX$ $ $ @ < p.F.A.S.b.t + $ $ $ $ $ $ $ $ $ $ $ $ $ $ $ $ $ = ~.lXgXgXsXQ o $ $ $ $ $ $ $ $ $ $ $ $ @ +.F.A.A.D.H + $ $ $ vXvXvXvXvXvXvXvXvXvXvX",
"vXvXvXvXvXvXvXvXvXvXo o o o : a.H.F.G.m.w X o o o o o o o o o o o o o o o o o % !.lXgXgXsXE   o o o o o o o o o o o o o +.J.F.F.G.F . o o o vXvXvXvXvXvXvXvXvXvXvX",
"vXvXvXvXvXvXvXvXvXvXK Y Y Y E *.4.4.4.,./ Y Y Y Y Y Y Y Y Y Y Y Y Y Y Y Y Y Y E @XkXgXgXdXy.L Y Y Y Y Y Y Y Y Y Y Y Y Y +.4.4.4.4.] U Y Y Y n vXvXvXvXvXvXvXvXvXvX",
"vXvXvXvXvX$ $ $ @ 9 ;XdXaXsX9Xh $ * & 5 +XdXaXaXaXaXaXaXaXaXaXaXaXaXaXaXaXaXaXaXfXgXgXgXgXsXaXaXaXaXaXaXaXaXaXaXaXaXaXsX@.@ * * % z.gXaXaXdX,.o $ $ $ vXvXvXvXvXvX",
"vXvXvXvXvX$ $ $ @ 0 ,XjXgXhXwXf O $ @ 3 %XkXgXgXgXgXgXgXgXgXgXgXgXgXgXgXgXgXgXgXgXgXgXgXgXgXgXgXgXgXgXgXgXgXgXgXgXgXgXhX@.o $ $ + c.lXgXgXkX1.o $ $ $ vXvXvXvXvXvX",
"vXvXvXvXvX$ $ $ @ 0 ,XjXgXhXqXf + $ @ 3 %XkXgXgXgXgXgXgXgXgXgXgXgXgXgXgXgXgXgXgXgXgXgXgXgXgXgXgXgXgXgXgXgXgXgXgXgXgXgXhX@.o $ $ + c.lXgXgXjX<.o $ $ $ vXvXvXvXvXvX",
"vXvXvXvXvX$ $ $ @ 0 ,XjXgXhXqXp X + O 1 $XkXgXgXgXgXgXgXgXgXkXlXlXlXkXhXgXgXgXgXgXgXgXgXgXjXlXlXlXlXhXgXgXgXgXgXgXgXgXhXO.. + + o x.lXgXgXjX<.o $ $ $ vXvXvXvXvXvX",
"vXvXvXvXvX$ $ $ @ 0 ,XjXgXhXeX) s g g N >XjXgXgXgXgXgXgXgXdXXX!.~.~.(.qXhXgXgXgXgXgXgXgXfX$X!.~.~.~.8XhXgXgXgXgXgXgXgXhXr.p g g f K.kXgXgXjX<.o $ $ $ vXvXvXvXvXvX",
"vXvXvXvXvX$ $ $ @ 0 ,XjXgXgXiXU.N.V.V.F.qXhXgXgXgXgXgXgXgXyXD % = = < {.kXgXgXgXgXgXgXgXsX) % = = - I.lXgXgXgXgXgXgXgXgX|.N.V.V.V.>XhXgXgXjX<.o $ $ $ vXvXvXvXvXvX",
"vXvXvXvXvX$ $ $ @ 0 ,XjXgXgXiXT.Z.A.A.J.wXhXgXgXgXgXgXgXgXyXV O $ @ ; ].kXgXgXgXgXgXgXgXsXQ o $ $ % P.lXgXgXgXgXgXgXgXgX XZ.A.A.A.,XhXgXgXjX<.o $ $ $ vXvXvXvXvXvX",
"vXvXvXvXvX$ $ $ @ 0 ,XjXgXgXiXT.Z.A.A.J.wXhXgXgXgXgXgXgXgXyXC O $ $ ; ].kXgXgXgXgXgXgXgXsXQ o $ $ % P.lXgXgXgXgXgXgXgXgX XZ.A.A.Z.,XhXgXgXjX<.o $ $ $ vXvXvXvXvXvX",
"vXvXvXvXvX$ $ $ @ 0 <XxXlXlXdXE.D.F.F.K.wXhXgXgXgXgXgXgXgXyXC O $ $ ; ].kXgXgXgXgXgXgXgXsXQ o $ $ % P.lXgXgXgXgXgXgXgXgX.XD.F.F.F.<XzXlXlXxX3.o $ $ $ vXvXvXvXvXvX",
"vXvXvXvXvX$ $ $ @ 8 D./.~.~.R.e.2.4.2.w.5XhXgXgXgXgXgXgXgXyXC O $ $ ; ].kXgXgXgXgXgXgXgXsXQ o $ $ % P.lXgXgXgXgXgXgXgXgXL.,.4.4.2.M./.~.~.(./ O $ $ $ vXvXvXvXvXvX",
"vXvXvXvXvXvXvXvXvXvX= = = = = * * * & 5 %XkXgXgXgXgXgXgXgXyXC O $ $ ; ].kXgXgXgXgXgXgXgXsXQ o $ $ % P.lXgXgXgXgXgXgXgXhX$.@ * * * = = = = = & $ $ $ $ vXvXvXvXvXvX",
"vXvXvXvXvXvXvXvXvXvX$ $ $ $ $ $ $ $ @ 3 %XkXgXgXgXgXgXgXgXyXC O $ $ ; ].kXgXgXgXgXgXgXgXsXQ o $ $ % P.lXgXgXgXgXgXgXgXhX@.o $ $ $ $ $ $ $ $ $ $ $ $ $ vXvXvXvXvXvX",
"vXvXvXvXvXvXvXvXvXvX$ $ $ $ $ $ $ $ @ 3 %XkXgXgXgXgXgXgXgXyXC O $ $ ; ].kXgXgXgXgXgXgXgXsXQ o $ $ % P.lXgXgXgXgXgXgXgXhX@.o $ $ $ $ $ $ $ $ $ $ $ $ $ vXvXvXvXvXvX",
"vXvXvXvXvXvXvXvXvXvX$ $ $ $ $ $ $ $ @ 3 =XxXlXlXkXhXgXgXhXyXM   o o * ].zXhXhXhXhXhXhXhXfXE   o o + K.lXgXgXgXjXlXlXlXlX$.o $ $ $ + o o o o + $ $ $ $ vXvXvXvXvXvX",
"vXvXvXvXvXvXvXvXvXvX$ $ $ $ $ $ $ $ @ , l.).~.~.`.eXhXgXgXiX6.P Y Y W '.7X5X5X5X5X5X5X5X4X0.P Y Y R |.kXgXgXgX*X!.~.~.^.P O $ $ $ s R Y Y R u @ $ $ $ vXvXvXvXvXvX",
"vXvXvXvXvXvXvXvXvXvX$ $ $ $ $ $ $ $ $ $ * = = = 4 OXkXgXgXgXsXaXaXaXiX).A.F.F.F.F.F.F.F.F.2XsXaXaXaXfXgXgXgXgXX.$ = = = & $ $ $ + k.gXaXaXdX:.o $ $ $ vXvXvXvXvXvX",
"vXvXvXvXvXvXvXvXvXvX$ $ $ $ $ $ $ $ $ $ $ $ $ @ < oXkXgXgXgXgXgXgXgXdX).Z.A.A.A.A.A.A.A.D.3XjXgXgXgXgXgXgXgXgX{ o $ $ $ $ $ $ $ + v.lXgXgXkX1.o $ $ $ vXvXvXvXvXvX",
"vXvXvXvXvXvXvXvXvXvX$ $ $ $ $ $ $ $ $ $ $ $ $ @ < oXkXgXgXgXgXgXgXgXdX).Z.A.A.A.A.A.A.A.D.3XhXgXgXgXgXgXgXgXgX{ o $ $ $ $ $ $ $ + c.lXgXgXjX<.o $ $ $ vXvXvXvXvXvX",
"vXvXvXvXvXvXvXvXvXvX$ $ $ $ $ O o o o O @ $ $ @ 1 #XxXlXlXlXlXlXlXlXhX'.D.F.F.F.F.F.F.F.G.6XzXlXlXlXlXlXlXlXkX .o $ $ $ $ $ $ $ + n.cXlXlXxX2.o $ $ $ vXvXvXvXvXvX",
"vXvXvXvXvXvXvXvXvXvX$ $ $ $ = V R Y T J 2 @ $ $ : g.).~.~.~.~.~.~.~.W.i.2.4.4.4.4.4.4.3.5.D./.~.~.~.~.~.~.~.~.G O $ $ $ $ $ $ $ @ *._.~.~./.o.o $ $ $ vXvXvXvXvXvX",
"vXvXvXvXvXvXvXvXvXvX$ $ $ @ 5 &XdXaXsX0Xl O $ $ $ * = = = = = = = = = * * * * * * * * * * = = = = = = = = = = & $ $ $ $ $ $ $ $ $ & = = = = vXvXvXvXvXvXvXvXvXvXvX",
"vXvXvXvXvXvXvXvXvXvX$ $ $ @ 6 -XkXgXhXeXz O $ $ $ $ $ $ $ $ $ $ $ $ $ $ $ $ $ $ $ $ $ $ $ $ $ $ $ $ $ $ $ $ $ $ $ $ $ $ $ $ $ $ $ $ $ $ $ $ vXvXvXvXvXvXvXvXvXvXvX",
"vXvXvXvXvXvXvXvXvXvX$ $ $ @ 6 -XjXgXhXeXz O $ $ $ $ $ $ $ $ $ $ $ $ $ $ $ $ $ $ $ $ $ $ $ $ $ $ $ $ $ $ $ $ $ $ $ $ $ $ $ $ $ $ $ $ $ $ $ $ vXvXvXvXvXvXvXvXvXvXvX",
"vXvXvXvXvXvXvXvXvXvX$ $ $ @ 6 :XxXlXlXtXj . o o o o o o o O @ $ $ $ $ + + + + + + + + + + O o o o o o o o o o @ $ $ $ $ $ $ $ $ $ $ $ $ $ $ vXvXvXvXvXvXvXvXvXvXvX",
"vXvXvXvXvXvXvXvXvXvX$ $ $ @ 5 Z./.~.~.Y...I Y Y Y Y Y Y Y P 4 @ $ $ % i j g g g g g g g h D T Y Y Y Y Y Y Y Y q @ $ $ $ $ $ $ $ $ $ $ $ $ $ vXvXvXvXvXvXvXvXvXvXvX",
"vXvXvXvXvXvXvXvXvXvXvXvXvXvXvX= = = * 7 +XdXaXaXaXaXaXaXaXrXB O $ $ = 6.Z.V.V.V.V.V.V.V.C.1XsXaXaXaXaXaXaXaXaX[ o $ $ $ vXvXvXvXvXvXvXvXvXvXvXvXvXvXvXvXvXvXvXvXvX",
"vXvXvXvXvXvXvXvXvXvXvXvXvXvXvX$ $ $ @ 3 %XkXgXgXgXgXgXgXhXyXC O $ $ = 9.F.A.A.A.A.A.A.A.D.4XjXgXgXgXgXgXgXgXgX} o $ $ $ vXvXvXvXvXvXvXvXvXvXvXvXvXvXvXvXvXvXvXvXvX",
"vXvXvXvXvXvXvXvXvXvXvXvXvXvXvX$ $ $ @ 3 %XkXgXgXgXgXgXgXgXyXC O $ $ = 9.F.A.A.A.A.A.A.A.D.3XhXgXgXgXgXgXgXgXgX{ o $ $ $ vXvXvXvXvXvXvXvXvXvXvXvXvXvXvXvXvXvXvXvXvX",
"vXvXvXvXvXvXvXvXvXvXvXvXvXvXvX$ $ $ @ 3 %XkXgXgXgXgXgXgXgXyXC O $ $ = 8.D.Z.Z.Z.Z.Z.Z.Z.A.5XzXlXlXlXlXlXlXlXkX .o $ $ $ vXvXvXvXvXvXvXvXvXvXvXvXvXvXvXvXvXvXvXvXvX",
"vXvXvXvXvXvXvXvXvXvXvXvXvXvXvX$ $ $ @ 3 %XkXgXgXgXgXgXgXgXyXC O $ $ = d.[.'.'.'.'.'.'.'.'./.~.~.~.~.~.~.~.~.~.G O $ $ $ vXvXvXvXvXvXvXvXvXvXvXvXvXvXvXvXvXvXvXvXvX",
"vXvXvXvXvXvXvXvXvXvXvXvXvXvXvX$ $ $ @ 3 %XkXgXgXgXgXgXgXgXyXC O $ $ ; '.jXdXdXdXdXdXdXfXaX( % = = = = = = = = & $ $ $ $ vXvXvXvXvXvXvXvXvXvXvXvXvXvXvXvXvXvXvXvXvX",
"vXvXvXvXvXvXvXvXvXvXvXvXvXvXvX$ $ $ @ 3 %XkXgXgXgXgXgXgXgXyXC O $ $ ; ].kXgXgXgXgXgXgXgXsXQ o $ $ $ $ $ $ $ $ $ $ $ $ $ vXvXvXvXvXvXvXvXvXvXvXvXvXvXvXvXvXvXvXvXvX",
"vXvXvXvXvXvXvXvXvXvXvXvXvXvXvX$ $ $ @ 3 %XkXgXgXgXgXgXgXgXyXC O $ $ ; ].kXgXgXgXgXgXgXgXsXQ o $ $ $ $ $ $ $ $ $ $ $ $ $ vXvXvXvXvXvXvXvXvXvXvXvXvXvXvXvXvXvXvXvXvX",
"vXvXvXvXvXvXvXvXvXvXvXvXvXvXvX$ $ $ @ 3 *XxXlXlXlXlXlXlXlXpXC O $ $ ; }.cXlXlXlXlXlXlXlXhXQ . + + + O o o o o @ $ $ $ $ vXvXvXvXvXvXvXvXvXvXvXvXvXvXvXvXvXvXvXvXvX",
"vXvXvXvXvXvXvXvXvXvXvXvXvXvXvX$ $ $ @ 3 B./.~.~.~.~.~.~.~.R.m O $ $ ; j.(.~.~.~.~.~.~.~.Q.' s g g h S T Y Y Y q @ $ $ $ vXvXvXvXvXvXvXvXvXvXvXvXvXvXvXvXvXvXvXvXvX",
"vXvXvXvXvXvXvXvXvXvXvXvXvXvXvXvXvXvXvXvX= = = = = = = = = = vXvXvXvXvX= = = = = = = = = ; ;.A.V.V.C.<XsXaXaXaX[ o $ $ $ vXvXvXvXvXvXvXvXvXvXvXvXvXvXvXvXvXvXvXvXvX",
"vXvXvXvXvXvXvXvXvXvXvXvXvXvXvXvXvXvXvXvX$ $ $ $ $ $ $ $ $ $ vXvXvXvXvX$ $ $ $ $ $ $ $ $ % :.F.A.A.D.2XjXgXgXgX} o $ $ $ vXvXvXvXvXvXvXvXvXvXvXvXvXvXvXvXvXvXvXvXvX",
"vXvXvXvXvXvXvXvXvXvXvXvXvXvXvXvXvXvXvXvX$ $ $ $ $ $ $ $ $ $ vXvXvXvXvX$ $ $ $ $ $ $ $ $ & :.F.A.A.A.2XhXgXgXgX{ o $ $ $ vXvXvXvXvXvXvXvXvXvXvXvXvXvXvXvXvXvXvXvXvX",
"vXvXvXvXvXvXvXvXvXvXvXvXvXvXvXvXvXvXvXvX$ $ $ $ $ $ $ $ $ $ vXvXvXvXvX$ $ $ $ $ $ $ $ $ & <.J.F.F.G.4XzXlXlXkX| o $ $ $ vXvXvXvXvXvXvXvXvXvXvXvXvXvXvXvXvXvXvXvXvX",
"vXvXvXvXvXvXvXvXvXvXvXvXvXvXvXvXvXvXvXvX$ $ $ $ $ $ $ $ $ $ vXvXvXvXvX$ $ $ $ $ $ $ $ $ % ! 6.4.4.4.A./.~.~.~.^ o $ $ $ vXvXvXvXvXvXvXvXvXvXvXvXvXvXvXvXvXvXvXvXvX",
"vXvXvXvXvXvXvXvXvXvXvXvXvXvXvXvXvXvXvXvXvXvXvXvXvXvXvXvXvXvXvXvXvXvXvXvXvXvXvXvX$ $ $ $ $ & * * * * = = = = = vXvXvXvXvXvXvXvXvXvXvXvXvXvXvXvXvXvXvXvXvXvXvXvXvXvX",
"vXvXvXvXvXvXvXvXvXvXvXvXvXvXvXvXvXvXvXvXvXvXvXvXvXvXvXvXvXvXvXvXvXvXvXvXvXvXvXvX$ $ $ $ $ $ $ $ $ $ $ $ $ $ $ vXvXvXvXvXvXvXvXvXvXvXvXvXvXvXvXvXvXvXvXvXvXvXvXvXvX",
"vXvXvXvXvXvXvXvXvXvXvXvXvXvXvXvXvXvXvXvXvXvXvXvXvXvXvXvXvXvXvXvXvXvXvXvXvXvXvXvX$ $ $ $ $ $ $ $ $ $ $ $ $ $ $ vXvXvXvXvXvXvXvXvXvXvXvXvXvXvXvXvXvXvXvXvXvXvXvXvXvX",
"vXvXvXvXvXvXvXvXvXvXvXvXvXvXvXvXvXvXvXvXvXvXvXvXvXvXvXvXvXvXvXvXvXvXvXvXvXvXvXvX$ $ $ $ $ $ $ $ $ $ $ $ $ $ $ vXvXvXvXvXvXvXvXvXvXvXvXvXvXvXvXvXvXvXvXvXvXvXvXvXvX",
"vXvXvXvXvXvXvXvXvXvXvXvXvXvXvXvXvXvXvXvXvXvXvXvXvXvXvXvXvXvXvXvXvXvXvXvXvXvXvXvX$ $ $ $ $ $ $ $ $ $ $ $ $ $ $ vXvXvXvXvXvXvXvXvXvXvXvXvXvXvXvXvXvXvXvXvXvXvXvXvXvX"
};
