/* XPM */
static char *result[] = {
/* columns rows colors chars-per-pixel */
"80 81 238 2 ",
"   c #0B0C0C",
".  c #0C0D0D",
"X  c #0D0E0E",
"o  c #0E0F0F",
"O  c #0E1010",
"+  c #0F1010",
"@  c #101111",
"#  c #111212",
"$  c #121313",
"%  c #131414",
"&  c #141515",
"*  c #151616",
"=  c #161616",
"-  c #161717",
";  c #171818",
":  c #181818",
">  c #181919",
",  c #191A1A",
"<  c gray10",
"1  c #1A1B1B",
"2  c #1B1C1C",
"3  c #1C1D1D",
"4  c #1D1E1E",
"5  c #1E1F1F",
"6  c #1F2020",
"7  c #202121",
"8  c #212222",
"9  c #222323",
"0  c #232424",
"q  c #242525",
"w  c #252525",
"e  c #252626",
"r  c #262727",
"t  c #272727",
"y  c #272828",
"u  c #282929",
"i  c #292A2A",
"p  c gray17",
"a  c #2B2C2C",
"s  c #2C2D2D",
"d  c #2E2F2F",
"f  c #303131",
"g  c #313131",
"h  c #313232",
"j  c #323333",
"k  c #333434",
"l  c #343535",
"z  c #363737",
"x  c #373737",
"c  c #373838",
"v  c #383939",
"b  c #393A3A",
"n  c #3A3B3B",
"m  c gray24",
"M  c #3D3E3E",
"N  c #3E3E3E",
"B  c #3E3F3F",
"V  c #3F4040",
"C  c #404141",
"Z  c #414242",
"A  c gray26",
"S  c #424343",
"D  c #434343",
"F  c #444545",
"G  c gray27",
"H  c #454646",
"J  c #464646",
"K  c #484949",
"L  c #494949",
"P  c #494A4A",
"I  c gray29",
"U  c #4C4D4D",
"Y  c gray30",
"T  c #4D4E4E",
"R  c gray31",
"E  c #515151",
"W  c #515252",
"Q  c #525353",
"!  c #535454",
"~  c gray33",
"^  c #545555",
"/  c #555555",
"(  c #565656",
")  c gray34",
"_  c #585959",
"`  c gray35",
"'  c #595A5A",
"]  c #5B5B5B",
"[  c gray36",
"{  c #5C5D5D",
"}  c #5D5D5D",
"|  c #5D5E5E",
" . c gray37",
".. c #5F5F5F",
"X. c #5F6060",
"o. c #606060",
"O. c #606161",
"+. c #626363",
"@. c #636464",
"#. c #646464",
"$. c #646565",
"%. c #656565",
"&. c #656666",
"*. c gray40",
"=. c #666767",
"-. c #676767",
";. c #676868",
":. c #686868",
">. c #686969",
",. c #696A6A",
"<. c gray42",
"1. c #6B6C6C",
"2. c gray43",
"3. c #6E6F6F",
"4. c #6F6F6F",
"5. c #6F7070",
"6. c gray44",
"7. c gray45",
"8. c gray46",
"9. c #757676",
"0. c #767676",
"q. c #767777",
"w. c #777878",
"e. c gray47",
"r. c #787979",
"t. c #797979",
"y. c #797A7A",
"u. c #7B7B7B",
"i. c gray49",
"p. c #7E7F7F",
"a. c #7F8080",
"s. c #808080",
"d. c #818181",
"f. c gray51",
"g. c #828383",
"h. c #838383",
"j. c #838484",
"k. c #848484",
"l. c #848585",
"z. c gray52",
"x. c gray53",
"c. c #888888",
"v. c #888989",
"b. c #898989",
"n. c #898A8A",
"m. c #8A8B8B",
"M. c #8B8B8B",
"N. c gray55",
"B. c #8C8D8D",
"V. c #8D8D8D",
"C. c #8D8E8E",
"Z. c #8E8E8E",
"A. c #8E8F8F",
"S. c gray56",
"D. c #8F9090",
"F. c #909090",
"G. c gray57",
"H. c #919292",
"J. c #929292",
"K. c #929393",
"L. c #939393",
"P. c gray58",
"I. c gray59",
"U. c #969797",
"Y. c #979797",
"T. c #989898",
"R. c gray60",
"E. c #9A9999",
"W. c #9A9A9A",
"Q. c #9B9B9B",
"!. c gray61",
"~. c #9D9D9D",
"^. c gray62",
"/. c #9E9F9F",
"(. c #9F9F9F",
"). c #A0A0A0",
"_. c #A0A1A1",
"`. c gray63",
"'. c #A1A2A2",
"]. c #A5A5A5",
"[. c #A5A6A6",
"{. c gray65",
"}. c gray66",
"|. c #A8A9A9",
" X c #A9A9A9",
".X c gray67",
"XX c gray71",
"oX c #B7B7B7",
"OX c gray72",
"+X c gray73",
"@X c #BABBBB",
"#X c #BCBCBC",
"$X c gray74",
"%X c gray",
"&X c #BEBFBF",
"*X c gray75",
"=X c #C0C0C0",
"-X c gray76",
";X c #C3C3C3",
":X c gray77",
">X c #C4C5C5",
",X c #C5C5C5",
"<X c #C6C6C6",
"1X c gray78",
"2X c #C8C8C8",
"3X c #CACACA",
"4X c #CBCBCB",
"5X c gray82",
"6X c gray83",
"7X c #D5D5D5",
"8X c gray84",
"9X c #D7D7D7",
"0X c #D8D8D8",
"qX c #D8D9D9",
"wX c gray85",
"eX c #DADADA",
"rX c gray86",
"tX c gainsboro",
"yX c #DDDDDD",
"uX c gray87",
"iX c #DFDFDF",
"pX c gray88",
"aX c #E2E2E2",
"sX c gray89",
"dX c #E4E4E4",
"fX c gray90",
"gX c #E6E6E6",
"hX c #E7E7E7",
"jX c gray91",
"kX c #E9E9E9",
"lX c #EAEAEA",
"zX c gray92",
"xX c #ECEBEB",
"cX c #ECECEC",
"vX c gray93",
"bX c #EEEEEE",
"nX c #EFEFEF",
"mX c None",
/* pixels */
"mXmXmXmXmXmXmXmXmXmXmXmXmXmXmXmXmXmXmXmXmXmXmXmXmXmXmXmXmXmXmXmXmXmXmXmXmXmXmXmXmXmXmXmXmXmXmXmXmXmXmXmXmXmXmXmXmXmXmXmXmXmXmXmXmXmXmXmXmXmXmXmXmXmXmXmXmXmXmXmX",
"mXmXmXmXmXmXmXmXmXmXmXmXmXmXmXmXmXmXmXmXmXmXmXmXmXmXmXmXmXmXmXmXmXmXmXmXmXmXmXmXmXmXmXmXmXmXmXmXmXmXmXmXmXmXmXmXmXmXmXmXmXmXmXmXmXmXmXmXmXmXmXmXmXmXmXmXmXmXmXmX",
"mXmXmXmXmXmXmXmXmXmXmXmXmXmXmXmXmXmXmXmXmXmXmXmXmXmXmXmXmXmXmXmXmXmXmXmXmXmXmXmXmXmXmXmXmXmXmXmXmXmXmXmXmXmXmXmXmXmXmXmXmXmXmXmXmXmXmXmXmXmXmXmXmXmXmXmXmXmXmXmX",
"mXmXmXmXmXmXmXmXmXmXmXmXmXmXmXmXmXmXmXmXmXmXmXmXmXmXmXmXmXmXmXmXmXmXmXmXmXmXmXmXmXmXmXmXmXmXmXmXmXmXmXmXmXmXmXmXmXmXmXmXmXmXmXmXmXmXmXmXmXmXmXmXmXmXmXmXmXmXmXmX",
"mXmXmXmXmXmXmXmXmXmXmXmXmXmXmXmXmXmXmXmXmXmXmXmXmXmXmXmXmXmXmXmXmXmXmXmXmXmXmXmXmXmXmXmXmXmXmXmXmXmXmXmXmXmXmXmXmXmXmXmXmXmXmXmXmXmXmXmXmXmXmXmXmXmXmXmXmXmXmXmX",
"mXmXmXmXmXmXmXmXmXmXmXmXmXmXmXmXmXmXmXmXmXmXmXmXmXmXmXmXmXmX# # # # # # # # # # # # # # # # # # # # mXmXmXmXmXmXmXmXmXmXmXmXmXmXmXmXmXmXmXmXmXmXmXmXmXmXmXmXmXmX",
"mXmXmXmXmXmXmXmXmXmXmXmXmXmXmXmXmXmXmXmXmXmXmXmXmXmXmXmXmXmX# # # # # # # # # # # # # # # # # # # # mXmXmXmXmXmXmXmXmXmXmXmXmXmXmXmXmXmXmXmXmXmXmXmXmXmXmXmXmXmX",
"mXmXmXmXmXmXmXmXmXmXmXmXmXmXmXmXmXmXmXmXmXmXmXmXmXmXmXmXmXmX# # # # # # # # # # # # # # # # # # # # mXmXmXmXmXmXmXmXmXmXmXmXmXmXmXmXmXmXmXmXmXmXmXmXmXmXmXmXmXmX",
"mXmXmXmXmXmXmXmXmXmXmXmXmXmXmXmXmXmXmXmXmXmXmXmXmXmXmXmXmXmX# # # # # # # # # # # # # # # # # # # # mXmXmXmXmXmXmXmXmXmXmXmXmXmXmXmXmXmXmXmXmXmXmXmXmXmXmXmXmXmX",
"mXmXmXmXmXmXmXmXmXmXmXmXmXmXmXmXmXmXmXmXmXmXmXmXmXmXmXmXmXmX$ $ $ $ $ $ $ $ $ $ $ $ $ $ $ $ $ $ $ $ mXmXmXmXmXmXmXmXmXmXmXmXmXmXmXmXmXmXmXmXmXmXmXmXmXmXmXmXmXmX",
"mXmXmXmXmXmXmXmXmXmXmXmXmXmXmXmXmXmXmXmX# # # # # # # # + r *.<.<.<.<.<.<.<.<.<.<.<.<.<.<.<.<.<.1.} ; # # # # # # # # # mXmXmXmXmXmXmXmXmXmXmXmXmXmXmXmXmXmXmXmX",
"mXmXmXmXmXmXmXmXmXmXmXmXmXmXmXmXmXmXmXmX# # # # # # # # + u F.Q.W.W.W.W.W.W.W.W.W.W.W.W.W.W.W.W.!.i.: # # # # # # # # # mXmXmXmXmXmXmXmXmXmXmXmXmXmXmXmXmXmXmXmX",
"mXmXmXmXmXmXmXmXmXmXmXmXmXmXmXmXmXmXmXmX# # # # # # # # + u Z.R.T.T.T.T.T.T.T.T.T.T.T.T.T.T.T.T.W.u.: # # # # # # # # # mXmXmXmXmXmXmXmXmXmXmXmXmXmXmXmXmXmXmXmX",
"mXmXmXmXmXmXmXmXmXmXmXmXmXmXmXmXmXmXmXmX# # # # # # # # + u Z.R.T.T.T.T.T.T.T.T.T.T.T.T.T.T.T.T.W.u.: # # # # # # # # # mXmXmXmXmXmXmXmXmXmXmXmXmXmXmXmXmXmXmXmX",
"mXmXmXmXmXmXmXmXmXmXmXmXmXmXmXmXmXmXmXmX# # # # # # # # + u Z.R.T.T.T.T.T.T.T.T.T.T.T.T.T.T.T.T.W.u.: # # # # # # # # # mXmXmXmXmXmXmXmXmXmXmXmXmXmXmXmXmXmXmXmX",
"mXmXmXmXmXmXmXmXmXmXmXmXmXmXmX# # # @ q +.;.-.-.-.-.-.-.=.5.P.T.T.T.T.T.T.T.T.T.T.T.T.T.T.T.T.T.R.C.,.-.-.-.-.-.-.-.:.` - # # # mXmXmXmXmXmXmXmXmXmXmXmXmXmXmXmX",
"mXmXmXmXmXmXmXmXmXmXmXmXmXmXmX# # # @ r Z.Q.W.W.W.W.W.W.W.W.T.T.T.T.T.T.T.T.T.T.T.T.T.T.T.T.T.T.T.R.W.W.W.W.W.W.W.W.!.y.- # # # # mXmXmXmXmXmXmXmXmXmXmXmXmXmXmX",
"mXmXmXmXmXmXmXmXmXmXmXmXmXmXmX# # # @ r N.R.T.T.T.T.T.T.T.T.T.T.T.T.T.T.T.T.T.T.T.T.T.T.T.T.T.T.T.T.T.T.T.T.T.T.T.T.W.e.- # # # # mXmXmXmXmXmXmXmXmXmXmXmXmXmXmX",
"mXmXmXmXmXmXmXmXmXmXmXmXmXmXmX# # # @ r N.R.T.T.T.T.T.T.T.T.T.T.T.T.T.T.T.T.T.T.T.T.T.T.T.T.T.T.T.T.T.T.T.T.T.T.T.T.W.e.- # # # # mXmXmXmXmXmXmXmXmXmXmXmXmXmXmX",
"mXmXmXmXmXmXmXmXmXmXmXmXmXmXmX@ @ @ + e V.R.R.R.R.T.T.T.T.T.T.T.T.T.T.T.T.T.T.T.T.T.T.T.T.T.T.T.T.T.T.T.T.T.T.T.T.T.W.e.= @ @ @ @ mXmXmXmXmXmXmXmXmXmXmXmXmXmXmX",
"mXmXmXmXmXmXmXmXmXmX# # # @ 0 ..#.@.#...K H J G ! H.T.T.T.T.T.T.T.T.T.T.T.T.T.T.T.T.T.T.T.T.T.T.T.T.T.T.T.T.T.T.T.T.R.N.&.@.@.$.( * # # # mXmXmXmXmXmXmXmXmXmXmX",
"mXmXmXmXmXmXmXmXmXmX# # # @ w V.Q.W.!.z.2 o + X e V.R.T.T.T.T.T.T.T.T.T.T.T.T.T.T.T.T.T.T.T.T.T.T.T.T.T.T.T.T.T.T.T.T.R.W.W.W.~.e.* # # # # mXmXmXmXmXmXmXmXmXmX",
"mXmXmXmXmXmXmXmXmXmX# # # @ q M.R.T.R.h.4 @ # @ y V.R.T.T.T.T.T.T.T.T.T.T.T.T.T.T.T.T.T.T.T.T.T.T.T.T.T.T.T.T.T.T.T.T.T.T.T.T.W.q.* # # # # mXmXmXmXmXmXmXmXmXmX",
"mXmXmXmXmXmXmXmXmXmX# # # @ q M.R.T.R.h.4 @ # @ y V.R.T.T.T.T.T.T.T.T.T.T.T.T.T.T.T.T.T.T.T.T.T.T.T.T.T.T.T.T.T.T.T.T.T.T.T.T.W.q.* # # # # mXmXmXmXmXmXmXmXmXmX",
"mXmXmXmXmXmXmXmXmXmX# # # @ w N.W.R.W.k.2 O + o r Z.W.R.R.R.T.T.T.T.T.T.T.T.T.T.T.T.T.T.T.T.T.T.T.T.T.T.T.T.T.T.T.T.T.T.T.T.T.W.q.* # # # # mXmXmXmXmXmXmXmXmXmX",
"mXmXmXmXmXmXmXmXmXmX# # # @ , F I P L ~ v.S.A.D.j.R L P K ) J.T.T.T.T.T.T.T.T.T.T.T.T.T.T.T.T.T.T.T.T.T.T.T.T.T.T.T.T.T.T.T.T.W.q.* # # # # mXmXmXmXmXmXmXmXmXmX",
"mXmXmXmXmXmXmXmXmXmX# # # # # + + + . g wXvXcXbX2X7 X + X r Z.R.T.T.T.T.T.T.T.T.T.T.T.T.T.T.T.T.T.T.T.T.T.T.T.T.T.T.T.T.T.T.T.W.q.* # # # # mXmXmXmXmXmXmXmXmXmX",
"mXmXmXmXmXmXmXmXmXmX# # # # # # # # + j 7XkXjXlX,X9 @ # + u Z.R.T.T.T.T.T.T.T.T.T.T.T.T.T.T.T.T.T.T.T.T.T.T.T.T.T.T.T.T.T.T.T.W.q.* # # # # mXmXmXmXmXmXmXmXmXmX",
"mXmXmXmXmXmXmXmXmXmX# # # # # # # # + j 7XkXjXlX,X9 @ # + u Z.R.T.T.T.T.T.T.T.T.T.T.T.T.T.T.T.T.T.T.T.T.T.T.T.T.T.T.T.T.T.T.T.W.q.* # # # # mXmXmXmXmXmXmXmXmXmX",
"mXmXmXmXmXmXmXmXmXmX# # # # # # # # + j 7XkXjXlX,X7 o + X t S.W.R.R.R.R.R.R.R.R.R.R.R.W.R.T.T.T.T.T.T.T.T.T.T.T.T.T.T.T.T.T.T.W.q.* # # # # mXmXmXmXmXmXmXmXmXmX",
"mXmXmXmXmXmXmXmXmXmXmXmXmXmX# # # # + j 7XkXjXkXqXF.c.v.n.p.W Y T T T T T T T T T T T U { P.T.T.T.T.T.T.T.T.T.T.T.T.T.T.T.T.T.W.q.* # # # # mXmXmXmXmXmXmXmXmXmX",
"mXmXmXmXmXmXmXmXmXmXmXmXmXmXmX# # # + j 7XkXjXjXkXzXcXcXbX<X6 o + + + + + + + + + + + X p G.T.T.T.T.T.T.T.T.T.T.T.T.T.T.T.T.T.W.q.* # # # # mXmXmXmXmXmXmXmXmXmX",
"mXmXmXmXmXmXmXmXmXmXmXmXmXmXmX# # # + j 7XkXjXjXjXjXjXjXlX;X8 @ # # # # # # # # # # # + s G.T.T.T.T.T.T.T.T.T.T.T.T.T.T.T.T.T.W.q.* # # # # mXmXmXmXmXmXmXmXmXmX",
"mXmXmXmXmXmXmXmXmXmXmXmXmXmXmX# # # + j 7XkXjXjXjXjXjXjXlX;X8 @ # # # # # # # # # # # + s G.T.T.T.T.T.T.T.T.T.T.T.T.T.T.T.T.T.W.q.* # # # # mXmXmXmXmXmXmXmXmXmX",
"mXmXmXmXmXmXmXmXmXmXmXmXmXmXmX# # # + j 7XkXjXjXjXzXzXzXvX,X5 X o o o o o o o o o o o . p J.W.W.W.W.W.W.W.W.W.W.W.W.W.W.W.W.W.!.w.* # # # # mXmXmXmXmXmXmXmXmXmX",
"mXmXmXmXmXmXmXmXmXmXmXmXmXmXmX# # # + j 7XkXjXkX8Xa.0.q.q.t.f.h.h.h.h.h.h.h.h.h.h.h.h.j.r.! E E E E E E E E E E E E E E E E E W K mXmXmXmXmXmXmXmXmXmXmXmXmXmXmX",
"mXmXmXmXmXmXmXmXmXmXmXmXmXmXmX# # # + j 7XkXjXlX>X6 . X   l rXvXcXcXcXcXcXcXcXcXcXcXcXbX*X2 o + + + + + + + + + + + + + + + + + + mXmXmXmXmXmXmXmXmXmXmXmXmXmXmX",
"mXmXmXmXmXmXmXmXmXmXmXmXmXmXmX# # # + j 7XkXjXlX,X9 @ # + z 0XkXjXjXjXjXjXjXjXjXjXjXjXzX#X4 @ # # # # # # # # # # # # # # # # # # mXmXmXmXmXmXmXmXmXmXmXmXmXmXmX",
"mXmXmXmXmXmXmXmXmXmXmXmXmXmXmX# # # + j 7XkXjXlX,X9 @ # + z 0XkXjXjXjXjXjXjXjXjXjXjXjXzX#X4 @ # # # # # # # # # # # # # # # # # # mXmXmXmXmXmXmXmXmXmXmXmXmXmXmX",
"mXmXmXmXmXmXmXmXmXmXmXmXmXmXmX# # # + j 7XkXjXlX,X9 @ # + z 0XkXjXjXjXjXjXjXjXjXjXjXjXzX#X2 o + + + o o o o o o o o o + # # # # # mXmXmXmXmXmXmXmXmXmXmXmXmXmXmX",
"mXmXmXmXmXmXmXmXmXmXmXmXmXmXmX# # # + j 7XkXjXlX,X9 @ # + z 0XkXjXjXjXjXjXjXjXjXjXjXjXlX3X{ ^ / ~ | u.i.i.i.i.i.i.i.p.@.* # # # # mXmXmXmXmXmXmXmXmXmXmXmXmXmXmX",
"mXmXmXmXmXmXmXmXmXmXmXmXmXmXmX# # # + j 7XkXjXlX,X9 @ # + z 0XkXjXjXjXjXjXjXjXjXjXjXjXkX0X^.W.W.R..XhXxXzXzXzXzXzXzXbXOX, @ # # # mXmXmXmXmXmXmXmXmXmXmXmXmXmXmX",
"mXmXmXmXmXmXmXmXmXmXmXmXmXmXmX# # # + j 7XkXjXlX,X9 @ # + z 0XkXjXjXjXjXjXjXjXjXjXjXjXkX0X!.T.T.Y. XdXjXjXjXjXjXjXjXzXXX, # # # # mXmXmXmXmXmXmXmXmXmXmXmXmXmXmX",
"mXmXmXmXmXmXmXmXmXmXmXmXmXmXmX# # # + j 7XkXjXlX,X9 @ # + z 0XkXjXjXjXjXjXjXjXjXjXjXjXkX0X!.T.T.Y. XdXjXjXjXjXjXjXjXzXXX, # # # # mXmXmXmXmXmXmXmXmXmXmXmXmXmXmX",
"mXmXmXmXmXmXmXmXmXmXmXmXmXmXmX# # # + j 7XkXjXlX>X6 . X   k 0XkXjXjXjXjXjXjXjXjXjXjXjXkX9XQ.I.Y.I.}.dXjXjXjXkXzXcXcXnXoX, # # # # mXmXmXmXmXmXmXmXmXmXmXmXmXmXmX",
"mXmXmXmXmXmXmXmXmXmXmXmXmXmXmX# # # + j 7XkXjXkX8Xa.0.q.9.m.pXkXjXjXjXjXjXjXjXjXjXjXjXkXiX=X%X%X$X1XgXjXjXkX5Xx.g.h.j.7., # # # mXmXmXmXmXmXmXmXmXmXmXmXmXmXmXmX",
"mXmXmXmXmXmXmXmXmXmXmXmXmXmXmX# # # + j 7XkXjXjXjXzXzXzXzXlXjXjXjXjXjXjXjXjXjXjXjXjXjXjXjXkXkXkXkXkXjXjXjXzXoX; o o o o mXmXmXmXmXmXmXmXmXmXmXmXmXmXmXmXmXmXmXmX",
"mXmXmXmXmXmXmXmXmXmXmXmXmXmXmX# # # + j 7XkXjXjXjXjXjXjXjXjXjXjXjXjXjXjXjXjXjXjXjXjXjXjXjXjXjXjXjXjXjXjXjXzXOX1 @ # # # mXmXmXmXmXmXmXmXmXmXmXmXmXmXmXmXmXmXmXmX",
"mXmXmXmXmXmXmXmXmXmXmXmXmXmXmX# # # + j 7XkXjXjXjXjXjXjXjXjXjXjXjXjXjXjXjXjXjXjXjXjXjXjXjXjXjXjXjXjXjXjXjXzXOX1 @ # # # mXmXmXmXmXmXmXmXmXmXmXmXmXmXmXmXmXmXmXmX",
"mXmXmXmXmXmXmXmXmXmXmXmXmXmXmX# # # + j wXvXcXcXzXlXkXkXkXkXjXjXjXjXjXjXjXjXjXjXjXjXjXjXkXcXcXcXcXcXcXcXcXnX@X1 @ # # # mXmXmXmXmXmXmXmXmXmXmXmXmXmXmXmXmXmXmXmX",
"mXmXmXmXmXmXmXmXmXmXmXmXmXmXmX# # # + d h.b.v.c.K.=X,X:X:X4XfXjXjXjXjXjXjXjXjXjXjXjXjXkX7XZ.v.v.v.v.v.v.v.m.2.- # # # # mXmXmXmXmXmXmXmXmXmXmXmXmXmXmXmXmXmXmXmX",
"mXmXmXmXmXmXmXmXmXmXmXmXmXmXmXmXmXmXmXmX+ + + X e N.T.Y.I.].aXjXjXjXjXjXjXjXjXjXjXjXjXzX#X1 o + + + + + + + + # # # # # mXmXmXmXmXmXmXmXmXmXmXmXmXmXmXmXmXmXmXmX",
"mXmXmXmXmXmXmXmXmXmXmXmXmXmXmXmXmXmXmXmX# # # @ y V.R.T.Y.{.aXjXjXjXjXjXjXjXjXjXjXjXjXzX#X4 @ # # # # # # # # # # # # # mXmXmXmXmXmXmXmXmXmXmXmXmXmXmXmXmXmXmXmX",
"mXmXmXmXmXmXmXmXmXmXmXmXmXmXmXmXmXmXmXmX# # # @ y V.R.T.Y.{.aXjXjXjXjXjXjXjXjXjXjXjXjXzX#X4 @ # # # # # # # # # # # # # mXmXmXmXmXmXmXmXmXmXmXmXmXmXmXmXmXmXmXmX",
"mXmXmXmXmXmXmXmXmXmXmXmXmXmXmXmXmXmXmXmX# # # @ y S.Q.W.E.}.gXcXcXcXcXcXcXcXcXcXcXcXcXnX*X4 @ # # # # # # # # # # # # # mXmXmXmXmXmXmXmXmXmXmXmXmXmXmXmXmXmXmXmX",
"mXmXmXmXmXmXmXmXmXmXmXmXmXmXmXmXmXmXmXmX# # # @ e [ o.o.X.:.M.S.A.A.A.A.A.A.A.A.A.A.A.F.8.> # # # # # # # # # # # # # # mXmXmXmXmXmXmXmXmXmXmXmXmXmXmXmXmXmXmXmX",
"mXmXmXmXmXmXmXmXmXmXmXmXmXmXmXmXmXmXmXmXmXmXmXmXmX@ @ @ @ @ + + + + + + + + + + + + + + @ # # # # # # # # # # # # # # # mXmXmXmXmXmXmXmXmXmXmXmXmXmXmXmXmXmXmXmX",
"mXmXmXmXmXmXmXmXmXmXmXmXmXmXmXmXmXmXmXmXmXmXmXmXmX# # # # # # # # # # # # # # # # # # # # # # # # # # # # # # # # # # # mXmXmXmXmXmXmXmXmXmXmXmXmXmXmXmXmXmXmXmX",
"mXmXmXmXmXmXmXmXmXmXmXmXmXmXmXmXmXmXmXmXmXmXmXmXmX# # # # # # # # # # # # # # # # # # # # # # # # # # # # # # # # # # # mXmXmXmXmXmXmXmXmXmXmXmXmXmXmXmXmXmXmXmX",
"mXmXmXmXmXmXmXmXmXmXmXmXmXmXmXmXmXmXmXmXmXmXmXmXmX# # # # @ X X X X X X X X X o # # # # @ X X X X X X X X X o # # # # # mXmXmXmXmXmXmXmXmXmXmXmXmXmXmXmXmXmXmXmX",
"mXmXmXmXmXmXmXmXmXmXmXmXmXmXmXmXmXmXmXmXmXmXmXmXmX# # # @ 6 ..&.%.%.%.%.%.%.*./ - # # @ 9 O.&.%.%.%.%.%.%.=.Q * # # # # mXmXmXmXmXmXmXmXmXmXmXmXmXmXmXmXmXmXmXmX",
"mXmXmXmXmXmXmXmXmXmXmXmXmXmXmX# # # # # # # # # # # # # + z wXlXkXkXkXkXkXkXcX*X5 @ # o M yXlXkXkXkXkXkXkXcXOX1 @ # # # # # # # # mXmXmXmXmXmXmXmXmXmXmXmXmXmXmX",
"mXmXmXmXmXmXmXmXmXmXmXmXmXmXmX# # # # # # # # # # # # # + z 0XkXjXjXjXjXjXjXzX&X5 @ # o M tXkXjXjXjXjXjXjXzXOX1 @ # # # # # # # # mXmXmXmXmXmXmXmXmXmXmXmXmXmXmX",
"mXmXmXmXmXmXmXmXmXmXmXmXmXmXmX# # # # # # # # # # # # # + z 0XkXjXjXjXjXjXjXzX&X5 @ # o M tXkXjXjXjXjXjXjXzXOX1 @ # # # # # # # # mXmXmXmXmXmXmXmXmXmXmXmXmXmXmX",
"mXmXmXmXmXmXmXmXmXmXmXmXmXmXmXX X X X X o + + + + # # # + c tXvXcXcXzXjXjXjXzX&X5 @ # o M tXkXjXjXjXjXjXjXzXOX1 @ # # @ + + + + + mXmXmXmXmXmXmXmXmXmXmXmXmXmXmX",
"mXmXmXmXmXmXmXmXmXmXmXmXmXmXmX{ X.X.X.] G A S D n * # # + i F.Q.W.R.|.sXjXjXzX&X5 @ # o M tXkXjXjXjXjXjXjXzXOX1 @ # @ 4 C S S S m mXmXmXmXmXmXmXmXmXmXmXmXmXmXmX",
"mXmXmXmXmXmXmXmXmXmX# # # + f 6XkXjXkXtX(.T.T.R.f.3 @ # # # # # # o v eXkXjXzX&X5 @ # o M tXkXjXjXjXjXjXjXzXOX1 @ # + h L.T.T.W.q.* # # # # mXmXmXmXmXmXmXmXmXmX",
"mXmXmXmXmXmXmXmXmXmX# # # + f 6XkXjXkXtX(.T.T.R.f.3 @ # # # # # # o v eXkXjXzX&X5 @ # o M tXkXjXjXjXjXjXjXzXOX1 @ # + h L.T.T.W.q.* # # # # mXmXmXmXmXmXmXmXmXmX",
"mXmXmXmXmXmXmXmXmXmX# # # + f 6XkXjXkXtX(.T.T.R.f.3 @ # # # # # # o v eXkXjXzX&X5 @ # o M tXkXjXjXjXjXjXjXzXOX1 @ # + h L.T.T.W.q.* # # # # mXmXmXmXmXmXmXmXmXmX",
"mXmXmXmXmXmXmXmXmXmX# # # + f 9XvXcXvXiX(.T.T.R.f., o + + + # # # o b yXvXcXnX-X5 @ # o N pXvXcXcXcXcXcXcXnX+X; X X   d L.T.T.W.q.* # # # # mXmXmXmXmXmXmXmXmXmX",
"mXmXmXmXmXmXmXmXmXmX# # # + d U._.).)./.R.T.T.R.n.J B B V x & # # + a U._.).'.l.< @ # + d T.).).).).).).).`.F.{ ' ' _ >.I.T.T.W.q.* # # # # mXmXmXmXmXmXmXmXmXmX",
"mXmXmXmXmXmXmXmXmXmXmXmXmXmXmX$ $ $ # y B.R.T.T.T.Y.Y.Y.R.s.2 @ # # # $ $ $ $ $ # # # # # $ $ $ $ $ $ $ $ + S uXhXhXjX6XQ.T.T.W.q.* # # # # mXmXmXmXmXmXmXmXmXmX",
"mXmXmXmXmXmXmXmXmXmXmXmXmXmXmX# # # @ r N.R.T.T.T.T.T.T.W.d.2 @ # # # # # # # # # # # # # # # # # # # # # o Z iXkXjXkX7XQ.T.T.W.q.* # # # # mXmXmXmXmXmXmXmXmXmX",
"mXmXmXmXmXmXmXmXmXmXmXmXmXmXmX# # # @ r N.R.T.T.T.T.T.T.W.d.2 @ # # # # # # # # # # # # # # # # # # # # # o Z iXkXjXkX7XQ.T.T.W.q.* # # # # mXmXmXmXmXmXmXmXmXmX",
"mXmXmXmXmXmXmXmXmXmXmXmXmXmXmX# # # @ r Z.Q.W.W.W.W.W.W.!.h.2 @ # # # # # # # # # # # # # # # # # # # # # o A aXcXcXvX0X~.W.W.!.e.* # # # # mXmXmXmXmXmXmXmXmXmX",
"mXmXmXmXmXmXmXmXmXmXmXmXmXmXmX# # # @ q >.3.2.2.2.2.2.2.4. .> # # # # # # # # # # # # # # # # # # # # # # o M `.[.].{.T.6.2.2.4.} * # # # # mXmXmXmXmXmXmXmXmXmX",
"mXmXmXmXmXmXmXmXmXmXmXmXmXmXmXmXmXmXmXmX% % % % % % % % % $ # # # # # mXmXmXmXmXmXmXmXmXmXmXmXmXmXmXmXmXmXmXmX& & & & % % % % % % mXmXmXmXmXmXmXmXmXmXmXmXmXmXmX",
"mXmXmXmXmXmXmXmXmXmXmXmXmXmXmXmXmXmXmXmX# # # # # # # # # # # # # # # mXmXmXmXmXmXmXmXmXmXmXmXmXmXmXmXmXmXmXmX# # # # # # # # # # mXmXmXmXmXmXmXmXmXmXmXmXmXmXmX",
"mXmXmXmXmXmXmXmXmXmXmXmXmXmXmXmXmXmXmXmX# # # # # # # # # # # # # # # mXmXmXmXmXmXmXmXmXmXmXmXmXmXmXmXmXmXmXmX# # # # # # # # # # mXmXmXmXmXmXmXmXmXmXmXmXmXmXmX",
"mXmXmXmXmXmXmXmXmXmXmXmXmXmXmXmXmXmXmXmX# # # # # # # # # # # # # # # mXmXmXmXmXmXmXmXmXmXmXmXmXmXmXmXmXmXmXmX# # # # # # # # # # mXmXmXmXmXmXmXmXmXmXmXmXmXmXmX",
"mXmXmXmXmXmXmXmXmXmXmXmXmXmXmXmXmXmXmXmX# # # # # # # # # # # # # # # mXmXmXmXmXmXmXmXmXmXmXmXmXmXmXmXmXmXmXmX# # # # # # # # # # mXmXmXmXmXmXmXmXmXmXmXmXmXmXmX"
};
