/* XPM */
static char *result[] = {
/* columns rows colors chars-per-pixel */
"81 80 151 2 ",
"   c #0D0E0E",
".  c #0D0F0F",
"X  c #0E0F0F",
"o  c #0F1010",
"O  c #0F1111",
"+  c #101111",
"@  c #111212",
"#  c #121313",
"$  c #141515",
"%  c #151616",
"&  c #161717",
"*  c #171818",
"=  c #1A1B1B",
"-  c #1B1C1C",
";  c #1C1D1D",
":  c #1D1D1D",
">  c #1D1E1E",
",  c #1E1F1F",
"<  c #1F2020",
"1  c #202020",
"2  c #202121",
"3  c #212222",
"4  c #222222",
"5  c #222323",
"6  c #252525",
"7  c #252626",
"8  c gray15",
"9  c #262727",
"0  c #272727",
"q  c #272828",
"w  c #282929",
"e  c gray16",
"r  c #292A2A",
"t  c #2A2A2A",
"y  c #2A2B2B",
"u  c gray17",
"i  c #2B2C2C",
"p  c #2D2D2D",
"a  c #2D2E2E",
"s  c gray18",
"d  c #2E2F2F",
"f  c #313232",
"g  c #323333",
"h  c #333434",
"j  c #353535",
"k  c #353636",
"l  c gray21",
"z  c #363737",
"x  c #373737",
"c  c #373838",
"v  c gray22",
"b  c #383939",
"n  c #393A3A",
"m  c #3A3B3B",
"M  c gray23",
"N  c #3B3C3C",
"B  c #3D3E3E",
"V  c #3E3F3F",
"C  c #3F3F3F",
"Z  c #3F4040",
"A  c #424343",
"S  c #434444",
"D  c #444444",
"F  c #444545",
"G  c gray27",
"H  c #464747",
"J  c #474848",
"K  c #767676",
"L  c gray50",
"P  c #808080",
"I  c #818181",
"U  c #818282",
"Y  c gray51",
"T  c #838383",
"R  c #838484",
"E  c #848484",
"W  c #848585",
"Q  c #878888",
"!  c #888888",
"~  c #888989",
"^  c #898989",
"/  c #8B8B8B",
"(  c gray55",
")  c #8C8D8D",
"_  c #8D8D8D",
"`  c #8E8E8E",
"'  c gray56",
"]  c #909090",
"[  c gray57",
"{  c #929292",
"}  c #939393",
"|  c #979797",
" . c #989898",
".. c gray60",
"X. c #9A9A9A",
"o. c gray62",
"O. c #9F9F9F",
"+. c gray63",
"@. c #A2A2A2",
"#. c #A4A4A4",
"$. c #A5A5A5",
"%. c gray65",
"&. c #A6A7A7",
"*. c #A9A9A9",
"=. c #AAAAAA",
"-. c #ACACAC",
";. c #B0B1B1",
":. c #B1B1B1",
">. c #B2B2B2",
",. c gray70",
"<. c #B9BABA",
"1. c #BABBBB",
"2. c #BBBBBB",
"3. c #BCBCBC",
"4. c #C1C1C1",
"5. c gray76",
"6. c #C2C3C3",
"7. c #C3C3C3",
"8. c #C3C4C4",
"9. c gray77",
"0. c #C4C5C5",
"q. c #C5C5C5",
"w. c gray78",
"e. c #C8C8C8",
"r. c #C8C9C9",
"t. c gray79",
"y. c gray81",
"u. c #CFD0D0",
"i. c #D0D0D0",
"p. c gray82",
"a. c #D1D2D2",
"s. c #D8D8D8",
"d. c gray85",
"f. c #DADADA",
"g. c gray86",
"h. c gainsboro",
"j. c #DDDDDD",
"k. c gray87",
"l. c #DFDFDF",
"z. c gray88",
"x. c #E1E1E1",
"c. c #E2E2E2",
"v. c gray89",
"b. c #E7E7E7",
"n. c gray91",
"m. c #E9E9E9",
"M. c #EAEAEA",
"N. c gray92",
"B. c #ECECEC",
"V. c gray93",
"C. c None",
/* pixels */
"C.C.C.C.C.C.C.C.C.C.C.C.C.C.C.C.C.C.C.C.C.C.C.C.C.C.C.C.C.C.@ @ @ @ @ @ @ @ @ @ @ @ @ @ @ @ @ @ @ @ C.C.C.C.C.C.C.C.C.C.C.C.C.C.C.C.C.C.C.C.C.C.C.C.C.C.C.C.C.C.C.",
"C.C.C.C.C.C.C.C.C.C.C.C.C.C.C.C.C.C.C.C.C.C.C.C.C.C.C.C.C.C.@ @ @ @ @ @ @ @ @ @ @ @ @ @ @ @ @ @ @ @ C.C.C.C.C.C.C.C.C.C.C.C.C.C.C.C.C.C.C.C.C.C.C.C.C.C.C.C.C.C.C.",
"C.C.C.C.C.C.C.C.C.C.C.C.C.C.C.C.C.C.C.C.C.C.C.C.C.C.C.C.C.C.@ @ @ @ @ @ @ @ @ @ @ @ @ @ @ @ @ @ @ @ C.C.C.C.C.C.C.C.C.C.C.C.C.C.C.C.C.C.C.C.C.C.C.C.C.C.C.C.C.C.C.",
"C.C.C.C.C.C.C.C.C.C.C.C.C.C.C.C.C.C.C.C.C.C.C.C.C.C.C.C.C.C.+ + + + + + + + + + + + + + + + + + + + C.C.C.C.C.C.C.C.C.C.C.C.C.C.C.C.C.C.C.C.C.C.C.C.C.C.C.C.C.C.C.",
"C.C.C.C.C.C.C.C.C.C.C.C.C.C.C.C.C.C.C.C.C.C.C.C.C.C.C.C.C.C.3 3 3 3 3 3 3 3 3 3 3 3 3 3 3 3 3 3 3 3 C.C.C.C.C.C.C.C.C.C.C.C.C.C.C.C.C.C.C.C.C.C.C.C.C.C.C.C.C.C.C.",
"C.C.C.C.C.C.C.C.C.C.C.C.C.C.C.C.C.C.C.C.@ @ @ @ @ @ @ @ + 8 L ^ ! ! ! ! ! ! ! ! ! ! ! ! ! ! ! ! ^ L 7 + @ @ @ @ @ @ @ @ C.C.C.C.C.C.C.C.C.C.C.C.C.C.C.C.C.C.C.C.C.",
"C.C.C.C.C.C.C.C.C.C.C.C.C.C.C.C.C.C.C.C.@ @ @ @ @ @ @ @ + 9 _ X.................................X._ 7 + @ @ @ @ @ @ @ @ C.C.C.C.C.C.C.C.C.C.C.C.C.C.C.C.C.C.C.C.C.",
"C.C.C.C.C.C.C.C.C.C.C.C.C.C.C.C.C.C.C.C.@ @ @ @ @ @ @ @ + 9 _ .. . . . . . . . . . . . . . . . ...( 7 + @ @ @ @ @ @ @ @ C.C.C.C.C.C.C.C.C.C.C.C.C.C.C.C.C.C.C.C.C.",
"C.C.C.C.C.C.C.C.C.C.C.C.C.C.C.C.C.C.C.C.+ + + + + + + + o 7 ) .. . . . . . . . . . . . . . . . ...( 6 o + + + + + + + + C.C.C.C.C.C.C.C.C.C.C.C.C.C.C.C.C.C.C.C.C.",
"C.C.C.C.C.C.C.C.C.C.C.C.C.C.C.C.C.C.C.C.3 3 3 3 3 3 3 3 2 h ` .. . . . . . . . . . . . . . . . ...` h 2 3 3 3 3 3 3 3 3 C.C.C.C.C.C.C.C.C.C.C.C.C.C.C.C.C.C.C.C.C.",
"C.C.C.C.C.C.C.C.C.C.C.C.C.C.C.@ @ @ o u Y ~ ! ! ! ! ! ! ! / |  . . . . . . . . . . . . . . . . . .| / ! ! ! ! ! ! ! ^ Y y o @ @ @ C.C.C.C.C.C.C.C.C.C.C.C.C.C.C.C.",
"C.C.C.C.C.C.C.C.C.C.C.C.C.C.C.@ @ @ o i [ X................. . . . . . . . . . . . . . . . . . . . .................X.[ i o @ @ @ C.C.C.C.C.C.C.C.C.C.C.C.C.C.C.C.",
"C.C.C.C.C.C.C.C.C.C.C.C.C.C.C.@ @ @ o i ]  . . . . . . . . . . . . . . . . . . . . . . . . . . . . . . . . . . . . ...] i o @ @ @ C.C.C.C.C.C.C.C.C.C.C.C.C.C.C.C.",
"C.C.C.C.C.C.C.C.C.C.C.C.C.C.C.+ + + X y ]  . . . . . . . . . . . . . . . . . . . . . . . . . . . . . . . . . . . . ...] y X + + + C.C.C.C.C.C.C.C.C.C.C.C.C.C.C.C.",
"C.C.C.C.C.C.C.C.C.C.C.C.C.C.C.3 3 3 < b [  . . . . . . . . . . . . . . . . . . . . . . . . . . . . . . . . . . . . . .[ v < 3 3 3 C.C.C.C.C.C.C.C.C.C.C.C.C.C.C.C.",
"C.C.C.C.C.C.C.C.C.C.@ @ @ o a T ~ ! ! / |  . . . . . . . . . . . . . . . . . . . . . . . . . . . . . . . . . . . . . .| / ! ! ~ T a o @ @ @ C.C.C.C.C.C.C.C.C.C.C.",
"C.C.C.C.C.C.C.C.C.C.@ @ @ o d } ........ . . . . . . . . . . . . . . . . . . . . . . . . . . . . . . . . . . . . . . . .........{ s o @ @ @ C.C.C.C.C.C.C.C.C.C.C.",
"C.C.C.C.C.C.C.C.C.C.@ @ @ o d {  . . . . . . . . . . . . . . . . . . . . . . . . . . . . . . . . . . . . . . . . . . . . . . . .[ s o @ @ @ C.C.C.C.C.C.C.C.C.C.C.",
"C.C.C.C.C.C.C.C.C.C.@ @ @ o d {  . . . . . . . . . . . . . . . . . . . . . . . . . . . . . . . . . . . . . . . . . . . . . . . .[ s o @ @ @ C.C.C.C.C.C.C.C.C.C.C.",
"C.C.C.C.C.C.C.C.C.C.@ @ @ o d {  . . . . . . . . . . . . . . . . . . . . . . . . . . . . . . . . . . . . . . . . . . . . . . . .[ s o @ @ @ C.C.C.C.C.C.C.C.C.C.C.",
"C.C.C.C.C.C.C.C.C.C.@ @ @ o d {  . . . . . . . . . . . . . . . . . . . . . . . . . . . . . . . . . . . . . . . . . . . . . . . .[ s o @ @ @ C.C.C.C.C.C.C.C.C.C.C.",
"C.C.C.C.C.C.C.C.C.C.@ @ @ o d {  . . . . . . . . . . . . . . . . . . . . . . . . . . . . . . . . . . . . . . . . . . . . . . . .[ s o @ @ @ C.C.C.C.C.C.C.C.C.C.C.",
"C.C.C.C.C.C.C.C.C.C.@ @ @ o d {  . . . . . . . . . . . . . . . . . . . . . . . . . . . . . . . . . . . . . . . . . . . . . . . .[ s o @ @ @ C.C.C.C.C.C.C.C.C.C.C.",
"C.C.C.C.C.C.C.C.C.C.@ @ @ o d {  . . . . . . . . . . . . . . . . . . . . . . . . . . . . . . . . . . . . . . . . . . . . . . . .[ s o @ @ @ C.C.C.C.C.C.C.C.C.C.C.",
"C.C.C.C.C.C.C.C.C.C.@ @ @ o d {  . . . . . . . . . . . . . . . . . . . . . . . . . . . . . . . . . . . . . . . . . . . . . . . .[ s o @ @ @ C.C.C.C.C.C.C.C.C.C.C.",
"C.C.C.C.C.C.C.C.C.C.@ @ @ o d {  . . . . . . . . . . . . . . . . . . . . . . . . . . . . . . . . . . . . . . . . . . . . . . . .[ s o @ @ @ C.C.C.C.C.C.C.C.C.C.C.",
"C.C.C.C.C.C.C.C.C.C.@ @ @ o d {  . . . . . . . . . . . . . . . . . . . . . . . . . . . . . . . . . . . . . . . . . . . . . . . .[ s o @ @ @ C.C.C.C.C.C.C.C.C.C.C.",
"C.C.C.C.C.C.C.C.C.C.@ @ @ o d {  . . . . . . . . . . . . . . . . . . . . . . . . . . . . . . . . . . . . . . . . . . . . . . . .[ s o @ @ @ C.C.C.C.C.C.C.C.C.C.C.",
"C.C.C.C.C.C.C.C.C.C.@ @ @ o d {  . . . . . . . . . . . . . . . . . . . . . . . . . . . . . . . . . . . . . . . . . . . . . . . .[ s o @ @ @ C.C.C.C.C.C.C.C.C.C.C.",
"C.C.C.C.C.C.C.C.C.C.@ @ @ o d {  . . . . . . . . . . . . . . . . . . . . . . . . . . . . . . . . . . . . . . . . . . . . . . . .[ s o @ @ @ C.C.C.C.C.C.C.C.C.C.C.",
"C.C.C.C.C.@ @ @ @ @ @ @ @ o d {  . . . . . . . . . . . . . . . . . . . . . . . . . . . . . . . . . . . . . . . . . . . . . . . .[ s o @ @ @ @ @ @ @ @ C.C.C.C.C.C.",
"C.C.C.C.C.@ @ @ @ @ @ @ @ o d {  . . . . . . . . . . . . . . . . . . . . . . . . . . . . . . . . . . . . . . . . . . . . . . . .[ s o @ @ @ @ @ @ @ @ C.C.C.C.C.C.",
"C.C.C.C.C.@ @ @ @ @ @ @ @ o d {  . . . . . . . . . . . . . . . . . . . . . . . . . . . . . . . . . . . . . . . . . . . . . . . .[ s o @ @ @ @ @ @ @ @ C.C.C.C.C.C.",
"C.C.C.C.C.@ @ @ @ @ o o o . a } .................. . . . . . . . . . . . . . . . . . . . . . . . . . . . . . ...................{ p X o o o @ @ @ @ @ C.C.C.C.C.C.",
"C.C.C.C.C.@ @ @ @ * r y y r C E ! ! ! ! ! ! ! ! / |  . . . . . . . . . . . . . . . . . . . . . . . . . . . .| / ! ! ! ! ! ! ! ~ R V r y y r * @ @ @ @ C.C.C.C.C.C.",
"C.C.C.C.C.@ @ @ X V e.y.y.p.*.r 2 3 3 3 3 3 3 1 l ] .. . . . . . . . . . . . . . . . . . . . . . . . . . ...' k 1 3 3 3 3 3 3 2 r =.p.y.y.w.B X @ @ @ C.C.C.C.C.C.",
"C.C.C.C.C.@ @ @ X G c.M.M.V.2.= o + + + + + + X w ` .. . . . . . . . . . . . . . . . . . . . . . . . . . ...` q X + + + + + + o - 3.V.M.M.x.D X @ @ @ C.C.C.C.C.C.",
"C.C.C.C.C.@ @ @ X F z.n.n.N.<.- + @ @ @ @ @ @ o e ` .. . . . . . . . . . . . . . . . . . . . . . . . . . ...` w O @ @ @ @ @ @ + ; 1.N.n.m.z.S X @ @ @ C.C.C.C.C.C.",
"C.C.C.C.C.@ @ @ X F c.M.M.V.2.- + @ @ @ o o o X q ' X.....................................................X.' q X o o o @ @ @ + ; 3.V.M.M.x.S X @ @ @ C.C.C.C.C.C.",
"C.C.C.C.C.@ @ @ X S r.y.y.p.%.= + @ @ & r y y r M U ^ ! ! ! ! ! ! ! ! ! ! ! ! ! ! ! ! ! ! ! ! ! ! ! ! ! ! ^ I m r y y r & @ @ + = &.p.y.y.e.A X @ @ @ C.C.C.C.C.C.",
"C.C.C.C.C.C.C.C.C.C.y y y i 7 # @ @ o z 9.y.y.p.;.a 2 3 3 3 3 3 3 3 3 3 3 3 3 3 3 3 3 3 3 3 3 3 3 3 3 3 3 2 d :.p.y.u.7.k o @ @ # 7 i y y y C.C.C.C.C.C.C.C.C.C.C.",
"C.C.C.C.C.C.C.C.C.C.o o o o + @ @ @ X N j.M.M.B.9.< o + + + + + + + + + + + + + + + + + + + + + + + + + + o 2 q.B.M.M.h.m X @ @ @ + o o o o C.C.C.C.C.C.C.C.C.C.C.",
"C.C.C.C.C.C.C.C.C.C.@ @ @ @ @ @ @ @ X N g.m.n.M.6.2 + @ @ @ @ @ @ @ @ @ @ @ @ @ @ @ @ @ @ @ @ @ @ @ @ @ @ + 3 8.M.n.m.g.m X @ @ @ @ @ @ @ @ C.C.C.C.C.C.C.C.C.C.C.",
"C.C.C.C.C.C.C.C.C.C.@ @ @ @ @ @ @ @ X N j.M.M.B.9.< X o o o o o o o o o o o o o o o o o o o o o o o o o o X < 0.B.M.M.h.m X @ @ @ @ @ @ @ @ C.C.C.C.C.C.C.C.C.C.C.",
"C.C.C.C.C.C.C.C.C.C.@ @ @ @ @ @ @ @ o z 9.y.y.p.>.z t y y y y y y y y y y y y y y y y y y y y y y y y y y t z ,.p.y.u.7.k o @ @ @ @ @ @ @ @ C.C.C.C.C.C.C.C.C.C.C.",
"C.C.C.C.C.C.C.C.C.C.@ @ @ @ @ @ @ @ @ & r y y w J 7.u.y.y.y.y.y.y.y.y.y.y.y.y.y.y.y.y.y.y.y.y.y.y.y.y.y.y.u.7.H w y y r & @ @ @ @ @ @ @ @ @ C.C.C.C.C.C.C.C.C.C.C.",
"C.C.C.C.C.C.C.C.C.C.@ @ @ @ @ @ @ @ @ @ o o o   k f.N.M.M.M.M.M.M.M.M.M.M.M.M.M.M.M.M.M.M.M.M.M.M.M.M.M.M.N.f.j   o o o @ @ @ @ @ @ @ @ @ @ C.C.C.C.C.C.C.C.C.C.C.",
"C.C.C.C.C.C.C.C.C.C.@ @ @ @ @ @ @ @ @ @ @ @ @ o x d.m.n.n.n.n.n.n.n.n.n.n.n.n.n.n.n.n.n.n.n.n.n.n.n.n.n.n.m.s.l o @ @ @ @ @ @ @ @ @ @ @ @ @ C.C.C.C.C.C.C.C.C.C.C.",
"C.C.C.C.C.C.C.C.C.C.o o o o + @ @ @ @ @ @ @ @ o c f.N.M.M.M.M.M.M.M.M.M.M.M.M.M.M.M.M.M.M.M.M.M.M.M.M.M.M.N.f.z o @ @ @ @ @ @ @ @ + o o o o C.C.C.C.C.C.C.C.C.C.C.",
"C.C.C.C.C.C.C.C.C.C.y y y i 7 # @ @ @ @ @ @ @ o g 4.i.y.y.y.y.y.y.y.y.y.y.y.y.y.y.y.y.y.y.y.y.y.y.y.y.y.y.i.4.f o @ @ @ @ @ @ @ # 7 i y y y C.C.C.C.C.C.C.C.C.C.C.",
"C.C.C.C.C.@ @ @ X S r.y.y.p.%.= + @ @ @ @ @ @ @ % e y y y y y y y y y y y y y y y y y y y y y y y y y y y y w % @ @ @ @ @ @ @ + = &.p.y.y.e.A X @ @ @ C.C.C.C.C.C.",
"C.C.C.C.C.@ @ @ X F c.M.M.V.2.- + @ @ @ @ @ @ @ @ o o o o o o o o o o o o o o o o o o o o o o o o o o o o o o @ @ @ @ @ @ @ @ + ; 3.V.M.M.x.S X @ @ @ C.C.C.C.C.C.",
"C.C.C.C.C.@ @ @ X F z.n.n.N.<.- + @ @ @ @ @ @ @ @ @ @ @ @ @ @ @ @ @ @ @ @ @ @ @ @ @ @ @ @ @ @ @ @ @ @ @ @ @ @ @ @ @ @ @ @ @ @ + ; 1.N.n.m.z.S X @ @ @ C.C.C.C.C.C.",
"C.C.C.C.C.@ @ @ X F z.n.n.N.<.- + @ @ @ o o o o o o o o o o o o o o o o o o o o o o o o o o o o o o o o o o o o o o o o @ @ @ + ; 1.N.n.m.z.S X @ @ @ C.C.C.C.C.C.",
"C.C.C.C.C.@ @ @ X F z.n.n.N.<.- + @ @ & r y y y y y y y y y y y y y y y y y y y y y y y y y y y y y y y y y y y y y y r & @ @ + ; 1.N.n.m.z.S X @ @ @ C.C.C.C.C.C.",
"C.C.C.C.C.@ @ @ X F z.n.n.N.<.- + @ o z 9.y.y.y.y.y.y.y.y.y.y.y.y.y.y.y.y.y.y.y.y.y.y.y.y.y.y.y.y.y.y.y.y.y.y.y.y.y.u.7.k o @ + ; 1.N.n.m.z.S X @ @ @ C.C.C.C.C.C.",
"C.C.C.C.C.@ @ @ X F z.n.n.N.<.- + @ X N j.M.M.M.M.M.M.M.M.M.M.M.M.M.M.M.M.M.M.M.M.M.M.M.M.M.M.M.M.M.M.M.M.M.M.M.M.M.M.h.m X @ + ; 1.N.n.m.z.S X @ @ @ C.C.C.C.C.C.",
"C.C.C.C.C.@ @ @ X F z.n.n.N.<.- + @ X N g.m.n.n.n.n.n.n.n.n.n.n.n.n.n.n.n.n.n.n.n.n.n.n.n.n.n.n.n.n.n.n.n.n.n.n.n.n.m.g.m X @ + ; 1.N.n.m.z.S X @ @ @ C.C.C.C.C.C.",
"C.C.C.C.C.@ @ @ X F c.M.M.V.2.- + @ X N j.M.M.M.m.m.m.m.m.m.n.n.n.n.n.n.n.n.n.n.n.n.n.n.n.n.n.n.n.n.m.m.m.m.m.m.M.M.M.h.m X @ + ; 3.V.M.M.x.S X @ @ @ C.C.C.C.C.C.",
"C.C.C.C.C.@ @ @ X S r.y.y.p.%.= + @ o z 9.y.y.y.a.j.l.l.k.z.b.n.n.n.n.n.n.n.n.n.n.n.n.n.n.n.n.n.n.b.z.k.l.l.j.p.y.y.u.7.k o @ + = &.p.y.y.e.A X @ @ @ C.C.C.C.C.C.",
"C.C.C.C.C.C.C.C.C.C.y y y i 7 # @ @ @ & r y y r Z ..@.+.+.-.c.n.n.n.n.n.n.n.n.n.n.n.n.n.n.n.n.n.n.c.-.+.+.@...C r y y r & @ @ @ # 7 i y y y C.C.C.C.C.C.C.C.C.C.C.",
"C.C.C.C.C.C.C.C.C.C.o o o o + @ @ @ @ @ o o o X q `  .| | #.x.n.n.n.n.n.n.n.n.n.n.n.n.n.n.n.n.n.n.x.#.| |  ._ 0 X o o o @ @ @ @ @ + o o o o C.C.C.C.C.C.C.C.C.C.C.",
"C.C.C.C.C.C.C.C.C.C.@ @ @ @ @ @ @ @ @ @ @ @ @ o e ` .. .| #.x.n.n.n.n.n.n.n.n.n.n.n.n.n.n.n.n.n.n.x.#.|  ...` w O @ @ @ @ @ @ @ @ @ @ @ @ @ C.C.C.C.C.C.C.C.C.C.C.",
"C.C.C.C.C.C.C.C.C.C.@ @ @ @ @ @ @ @ @ @ @ @ @ o r ' X... .%.v.M.M.M.M.M.M.M.M.M.M.M.M.M.M.M.M.M.M.v.$. ...X.' w o @ @ @ @ @ @ @ @ @ @ @ @ @ C.C.C.C.C.C.C.C.C.C.C.",
"C.C.C.C.C.C.C.C.C.C.@ @ @ @ @ @ @ @ @ @ @ @ @ + 9 P ^ ! Q } t.y.y.y.y.y.y.y.y.y.y.y.y.y.y.y.y.y.y.r.} Q ! ^ L 7 + @ @ @ @ @ @ @ @ @ @ @ @ @ C.C.C.C.C.C.C.C.C.C.C.",
"C.C.C.C.C.C.C.C.C.C.C.C.C.C.C.@ @ @ @ @ @ @ @ @ $ 2 3 3 3 5 t y y y y y y y y y y y y y y y y y y r 5 3 3 3 2 $ @ @ @ @ @ @ @ @ @ C.C.C.C.C.C.C.C.C.C.C.C.C.C.C.C.",
"C.C.C.C.C.C.C.C.C.C.C.C.C.C.C.@ @ @ @ @ @ @ @ @ @ + + + + + o o o o o o o o o o o o o o o o o o o o + + + + + @ @ @ @ @ @ @ @ @ @ C.C.C.C.C.C.C.C.C.C.C.C.C.C.C.C.",
"C.C.C.C.C.C.C.C.C.C.C.C.C.C.C.@ @ @ @ @ @ @ @ @ @ @ @ @ @ @ @ @ @ @ @ @ @ @ @ @ @ @ @ @ @ @ @ @ @ @ @ @ @ @ @ @ @ @ @ @ @ @ @ @ @ C.C.C.C.C.C.C.C.C.C.C.C.C.C.C.C.",
"C.C.C.C.C.C.C.C.C.C.C.C.C.C.C.@ @ @ @ @ o o o o o + + + + + @ @ @ @ @ @ @ @ @ @ @ @ @ @ @ @ @ @ @ @ + + + + + o o o o o @ @ @ @ @ C.C.C.C.C.C.C.C.C.C.C.C.C.C.C.C.",
"C.C.C.C.C.C.C.C.C.C.C.C.C.C.C.@ @ @ @ & r y y y r 4 3 3 3 , # @ @ @ @ @ @ @ @ @ @ @ @ @ @ @ @ @ @ # , 3 3 3 4 r y y y r & @ @ @ @ C.C.C.C.C.C.C.C.C.C.C.C.C.C.C.C.",
"C.C.C.C.C.C.C.C.C.C.C.C.C.C.C.@ @ @ o z 9.y.y.u.5._ ! ! ^ K - + @ @ @ @ @ @ @ @ @ @ @ @ @ @ @ @ + - K ^ ! ! _ 7.u.y.u.7.k o @ @ @ C.C.C.C.C.C.C.C.C.C.C.C.C.C.C.C.",
"C.C.C.C.C.C.C.C.C.C.C.C.C.C.C.@ @ @ X N j.M.M.N.h.O.....X.E : + @ @ @ @ @ @ @ @ @ @ @ @ @ @ @ @ + > W X.....O.h.N.M.M.h.m X @ @ @ C.C.C.C.C.C.C.C.C.C.C.C.C.C.C.C.",
"C.C.C.C.C.C.C.C.C.C.C.C.C.C.C.@ @ @ X N g.m.n.m.f.o. . ...T ; + @ @ @ @ @ @ @ @ @ @ @ @ @ @ @ @ + > E .. . .o.f.m.n.m.g.m X @ @ @ C.C.C.C.C.C.C.C.C.C.C.C.C.C.C.C.",
"C.C.C.C.C.C.C.C.C.C.C.C.C.C.C.@ @ @ X N j.M.M.N.h.O.....X.E : + @ @ @ @ @ @ @ @ @ @ @ @ @ @ @ @ + > W X.....O.h.N.M.M.h.m X @ @ @ C.C.C.C.C.C.C.C.C.C.C.C.C.C.C.C.",
"C.C.C.C.C.C.C.C.C.C.C.C.C.C.C.@ @ @ X m q.y.y.u.5._ ! ! ^ K - + @ @ @ @ @ @ @ @ @ @ @ @ @ @ @ @ + - K ^ ! ! _ 7.u.y.y.0.n X @ @ @ C.C.C.C.C.C.C.C.C.C.C.C.C.C.C.C.",
"C.C.C.C.C.C.C.C.C.C.C.C.C.C.C.C.C.C.C.C.y y y y r 4 3 3 3 , # @ @ @ @ C.C.C.C.C.C.C.C.C.C.@ @ @ @ # , 3 3 3 4 r y y y y C.C.C.C.C.C.C.C.C.C.C.C.C.C.C.C.C.C.C.C.C.",
"C.C.C.C.C.C.C.C.C.C.C.C.C.C.C.C.C.C.C.C.o o o o o + + + + + @ @ @ @ @ C.C.C.C.C.C.C.C.C.C.@ @ @ @ @ + + + + + o o o o o C.C.C.C.C.C.C.C.C.C.C.C.C.C.C.C.C.C.C.C.C.",
"C.C.C.C.C.C.C.C.C.C.C.C.C.C.C.C.C.C.C.C.@ @ @ @ @ @ @ @ @ @ @ @ @ @ @ C.C.C.C.C.C.C.C.C.C.@ @ @ @ @ @ @ @ @ @ @ @ @ @ @ C.C.C.C.C.C.C.C.C.C.C.C.C.C.C.C.C.C.C.C.C.",
"C.C.C.C.C.C.C.C.C.C.C.C.C.C.C.C.C.C.C.C.@ @ @ @ @ @ @ @ @ @ @ @ @ @ @ C.C.C.C.C.C.C.C.C.C.@ @ @ @ @ @ @ @ @ @ @ @ @ @ @ C.C.C.C.C.C.C.C.C.C.C.C.C.C.C.C.C.C.C.C.C.",
"C.C.C.C.C.C.C.C.C.C.C.C.C.C.C.C.C.C.C.C.@ @ @ @ @ @ @ @ @ @ @ @ @ @ @ C.C.C.C.C.C.C.C.C.C.@ @ @ @ @ @ @ @ @ @ @ @ @ @ @ C.C.C.C.C.C.C.C.C.C.C.C.C.C.C.C.C.C.C.C.C."
};
