/* XPM */
static char *result[] = {
/* columns rows colors chars-per-pixel */
"81 80 156 2 ",
"   c #0D0E0E",
".  c #0D0F0F",
"X  c #0E0F0F",
"o  c #0F1010",
"O  c #0F1111",
"+  c #101111",
"@  c #111212",
"#  c #121313",
"$  c #151616",
"%  c #161717",
"&  c #171818",
"*  c #1A1B1B",
"=  c #1B1C1C",
"-  c #1C1D1D",
";  c #1D1E1E",
":  c #1E1F1F",
">  c #1F2020",
",  c #202020",
"<  c #202121",
"1  c #212222",
"2  c #222222",
"3  c #222323",
"4  c #242525",
"5  c #252525",
"6  c #252626",
"7  c gray15",
"8  c #262727",
"9  c #272828",
"0  c #282929",
"q  c gray16",
"w  c #292A2A",
"e  c #2A2A2A",
"r  c #2A2B2B",
"t  c gray17",
"y  c #2B2C2C",
"u  c #2D2D2D",
"i  c #2D2E2E",
"p  c gray18",
"a  c #2E2F2F",
"s  c #313131",
"d  c #313232",
"f  c #323333",
"g  c #333434",
"h  c #353535",
"j  c #353636",
"k  c gray21",
"l  c #363737",
"z  c #373737",
"x  c #373838",
"c  c gray22",
"v  c #383939",
"b  c #393A3A",
"n  c #3A3B3B",
"m  c gray23",
"M  c #3B3C3C",
"N  c #3C3D3D",
"B  c #3D3E3E",
"V  c #3E3F3F",
"C  c #3F3F3F",
"Z  c #424343",
"A  c #434444",
"S  c #444444",
"D  c #444545",
"F  c gray27",
"G  c #464747",
"H  c #474848",
"J  c #767676",
"K  c #787979",
"L  c gray50",
"P  c #818181",
"I  c #818282",
"U  c gray51",
"Y  c #838383",
"T  c #838484",
"R  c #848484",
"E  c #848585",
"W  c #878888",
"Q  c #888888",
"!  c #888989",
"~  c #898989",
"^  c #8B8B8B",
"/  c #8B8C8C",
"(  c gray55",
")  c #8C8D8D",
"_  c #8D8D8D",
"`  c #8E8E8E",
"'  c gray56",
"]  c #909090",
"[  c gray57",
"{  c #929292",
"}  c #939393",
"|  c #979797",
" . c #989898",
".. c gray60",
"X. c #9A9A9A",
"o. c gray62",
"O. c #9F9F9F",
"+. c gray63",
"@. c #A2A2A2",
"#. c gray64",
"$. c #A4A4A4",
"%. c gray65",
"&. c #A6A7A7",
"*. c #A9A9A9",
"=. c #AAAAAA",
"-. c gray67",
";. c #B0B1B1",
":. c #B1B1B1",
">. c #B2B2B2",
",. c gray70",
"<. c #B9BABA",
"1. c #BABBBB",
"2. c #BBBBBB",
"3. c #BCBCBC",
"4. c gray",
"5. c #BFC0C0",
"6. c #C1C1C1",
"7. c #C2C3C3",
"8. c #C3C3C3",
"9. c #C3C4C4",
"0. c gray77",
"q. c #C4C5C5",
"w. c #C5C5C5",
"e. c gray78",
"r. c #C7C8C8",
"t. c #C8C8C8",
"y. c #C8C9C9",
"u. c #CECFCF",
"i. c gray81",
"p. c #CFD0D0",
"a. c #D0D0D0",
"s. c gray82",
"d. c #D2D2D2",
"f. c LightGray",
"g. c gray83",
"h. c #D5D5D5",
"j. c #D8D8D8",
"k. c gray85",
"l. c #DADADA",
"z. c gray86",
"x. c gainsboro",
"c. c #DDDDDD",
"v. c gray87",
"b. c #DFDFDF",
"n. c gray88",
"m. c #E1E1E1",
"M. c #E2E2E2",
"N. c gray90",
"B. c #E7E7E7",
"V. c gray91",
"C. c #E9E9E9",
"Z. c #EAEAEA",
"A. c gray92",
"S. c #ECECEC",
"D. c gray93",
"F. c None",
/* pixels */
"F.F.F.F.F.F.F.F.F.F.F.F.F.F.F.F.F.F.F.F.F.F.F.F.F.F.F.F.F.F.F.F.F.F.F.F.F.F.F.F.F.F.F.F.F.F.F.F.F.F.F.F.F.F.F.F.F.F.F.F.F.F.F.F.F.F.F.F.F.F.F.F.F.F.F.F.F.F.F.F.F.",
"F.F.F.F.F.F.F.F.F.F.F.F.F.F.F.F.F.F.F.F.F.F.F.F.F.F.F.F.F.F.F.F.F.F.F.F.F.F.F.F.F.F.F.F.F.F.F.F.F.F.F.F.F.F.F.F.F.F.F.F.F.F.F.F.F.F.F.F.F.F.F.F.F.F.F.F.F.F.F.F.F.",
"F.F.F.F.F.F.F.F.F.F.F.F.F.F.F.F.F.F.F.F.F.F.F.F.F.F.F.F.F.F.F.F.F.F.F.F.F.F.F.F.F.F.F.F.F.F.F.F.F.F.F.F.F.F.F.F.F.F.F.F.F.F.F.F.F.F.F.F.F.F.F.F.F.F.F.F.F.F.F.F.F.",
"F.F.F.F.F.F.F.F.F.F.F.F.F.F.F.F.F.F.F.F.F.F.F.F.F.F.F.F.F.F.F.F.F.F.F.F.F.F.F.F.F.F.F.F.F.F.F.F.F.F.F.F.F.F.F.F.F.F.F.F.F.F.F.F.F.F.F.F.F.F.F.F.F.F.F.F.F.F.F.F.F.",
"F.F.F.F.F.F.F.F.F.F.F.F.F.F.F.F.F.F.F.F.F.F.F.F.F.F.F.F.F.F.F.F.F.F.F.F.F.F.F.F.F.F.F.F.F.F.F.F.F.F.F.F.F.F.F.F.F.F.F.F.F.F.F.F.F.F.F.F.F.F.F.F.F.F.F.F.F.F.F.F.F.",
"F.F.F.F.F.F.F.F.F.F.F.F.F.F.F.F.F.F.F.F.F.F.F.F.F.F.F.F.F.F.@ @ @ @ @ @ @ @ @ @ @ @ @ @ @ @ @ @ @ @ F.F.F.F.F.F.F.F.F.F.F.F.F.F.F.F.F.F.F.F.F.F.F.F.F.F.F.F.F.F.F.",
"F.F.F.F.F.F.F.F.F.F.F.F.F.F.F.F.F.F.F.F.F.F.F.F.F.F.F.F.F.F.@ @ @ @ @ @ @ @ @ @ @ @ @ @ @ @ @ @ @ @ F.F.F.F.F.F.F.F.F.F.F.F.F.F.F.F.F.F.F.F.F.F.F.F.F.F.F.F.F.F.F.",
"F.F.F.F.F.F.F.F.F.F.F.F.F.F.F.F.F.F.F.F.F.F.F.F.F.F.F.F.F.F.@ @ @ @ @ @ @ @ @ @ @ @ @ @ @ @ @ @ @ @ F.F.F.F.F.F.F.F.F.F.F.F.F.F.F.F.F.F.F.F.F.F.F.F.F.F.F.F.F.F.F.",
"F.F.F.F.F.F.F.F.F.F.F.F.F.F.F.F.F.F.F.F.F.F.F.F.F.F.F.F.F.F.+ + + + + + + + + + + + + + + + + + + + F.F.F.F.F.F.F.F.F.F.F.F.F.F.F.F.F.F.F.F.F.F.F.F.F.F.F.F.F.F.F.",
"F.F.F.F.F.F.F.F.F.F.F.F.F.F.F.F.F.F.F.F.F.F.F.F.F.F.F.F.F.F.1 1 1 1 1 1 1 1 1 1 1 1 1 1 1 1 1 1 1 1 F.F.F.F.F.F.F.F.F.F.F.F.F.F.F.F.F.F.F.F.F.F.F.F.F.F.F.F.F.F.F.",
"F.F.F.F.F.F.F.F.F.F.F.F.F.F.F.F.F.F.F.F.@ @ @ @ @ @ @ @ + 7 L ~ Q Q Q Q Q Q Q Q Q Q Q Q Q Q Q Q ~ L 6 + @ @ @ @ @ @ @ @ F.F.F.F.F.F.F.F.F.F.F.F.F.F.F.F.F.F.F.F.F.",
"F.F.F.F.F.F.F.F.F.F.F.F.F.F.F.F.F.F.F.F.@ @ @ @ @ @ @ @ + 8 _ X.................................X._ 6 + @ @ @ @ @ @ @ @ F.F.F.F.F.F.F.F.F.F.F.F.F.F.F.F.F.F.F.F.F.",
"F.F.F.F.F.F.F.F.F.F.F.F.F.F.F.F.F.F.F.F.@ @ @ @ @ @ @ @ + 8 _ .. . . . . . . . . . . . . . . . ...( 6 + @ @ @ @ @ @ @ @ F.F.F.F.F.F.F.F.F.F.F.F.F.F.F.F.F.F.F.F.F.",
"F.F.F.F.F.F.F.F.F.F.F.F.F.F.F.F.F.F.F.F.+ + + + + + + + o 6 ) .. . . . . . . . . . . . . . . . ...( 5 o + + + + + + + + F.F.F.F.F.F.F.F.F.F.F.F.F.F.F.F.F.F.F.F.F.",
"F.F.F.F.F.F.F.F.F.F.F.F.F.F.F.F.F.F.F.F.1 1 1 1 1 1 1 1 < g ` .. . . . . . . . . . . . . . . . ...` g < 1 1 1 1 1 1 1 1 F.F.F.F.F.F.F.F.F.F.F.F.F.F.F.F.F.F.F.F.F.",
"F.F.F.F.F.F.F.F.F.F.F.F.F.F.F.@ @ @ o t U ! Q Q Q Q Q Q Q ^ |  . . . . . . . . . . . . . . . . . .| ^ Q Q Q Q Q Q Q ~ U r o @ @ @ F.F.F.F.F.F.F.F.F.F.F.F.F.F.F.F.",
"F.F.F.F.F.F.F.F.F.F.F.F.F.F.F.@ @ @ o y [ X................. . . . . . . . . . . . . . . . . . . . .................X.[ y o @ @ @ F.F.F.F.F.F.F.F.F.F.F.F.F.F.F.F.",
"F.F.F.F.F.F.F.F.F.F.F.F.F.F.F.@ @ @ o y ]  . . . . . . . . . . . . . . . . . . . . . . . . . . . . . . . . . . . . ...] y o @ @ @ F.F.F.F.F.F.F.F.F.F.F.F.F.F.F.F.",
"F.F.F.F.F.F.F.F.F.F.F.F.F.F.F.+ + + X r ]  . . . . . . . . . . . . . . . . . . . . . . . . . . . . . . . . . . . . ...] r X + + + F.F.F.F.F.F.F.F.F.F.F.F.F.F.F.F.",
"F.F.F.F.F.F.F.F.F.F.F.F.F.F.F.1 1 1 > v [  . . . . . . . . . . . . . . . . . . . . . . . . . . . . . . . . . . . . . .[ c > 1 1 1 F.F.F.F.F.F.F.F.F.F.F.F.F.F.F.F.",
"F.F.F.F.F.F.F.F.F.F.@ @ @ o i Y ! Q Q ^ |  . . . . . . . . . . . . . . . . . . . . . . . . . . . . . . . . . . . . . .| ^ Q Q ! Y i o @ @ @ F.F.F.F.F.F.F.F.F.F.F.",
"F.F.F.F.F.F.F.F.F.F.@ @ @ o a } ........ . . . . . . . . . . . . . . . . . . . . . . . . . . . . . . . . . . . . . . . .........{ p o @ @ @ F.F.F.F.F.F.F.F.F.F.F.",
"F.F.F.F.F.F.F.F.F.F.@ @ @ o a {  . . . . . . . . . . . . . . . . . . . . . . . . . . . . . . . . . . . . . . . . . . . . . . . .[ p o @ @ @ F.F.F.F.F.F.F.F.F.F.F.",
"F.F.F.F.F.F.F.F.F.F.@ @ @ o a {  . . . . . . . . . . . . . . . . . . . . . . . . . . . . . . . . . . . . . . . . . . . . . . . .[ p o @ @ @ F.F.F.F.F.F.F.F.F.F.F.",
"F.F.F.F.F.F.F.F.F.F.@ @ @ o a {  . . . . . . . . . . . . . . . . . . . . . . . . . . . . . . . . . . . . . . . . . . . . . . . .[ p o @ @ @ F.F.F.F.F.F.F.F.F.F.F.",
"F.F.F.F.F.F.F.F.F.F.@ @ @ o a {  . . . . . . . . . . . . . . . . . . . . . . . . . . . . . . . . . . . . . . . . . . . . . . . .[ p o @ @ @ F.F.F.F.F.F.F.F.F.F.F.",
"F.F.F.F.F.F.F.F.F.F.@ @ @ o a {  . . . . . . . . . . . . . . . . . . . . . . . . . . . . . . . . . . . . . . . . . . . . . . . .[ p o @ @ @ F.F.F.F.F.F.F.F.F.F.F.",
"F.F.F.F.F.F.F.F.F.F.@ @ @ o a {  . . . . . . . . . . . . . . . . . . . . . . . . . . . . . . . . . . . . . . . . . . . . . . . .[ p o @ @ @ F.F.F.F.F.F.F.F.F.F.F.",
"F.F.F.F.F.F.F.F.F.F.@ @ @ o a {  . . . . . . . . . . . . . . . . . . . . . . . . . . . . . . . . . . . . . . . . . . . . . . . .[ p o @ @ @ F.F.F.F.F.F.F.F.F.F.F.",
"F.F.F.F.F.F.F.F.F.F.@ @ @ o a {  . . . . . . . . . . . . . . . . . . . . . . . . . . . . . . . . . . . . . . . . . . . . . . . .[ p o @ @ @ F.F.F.F.F.F.F.F.F.F.F.",
"F.F.F.F.F.F.F.F.F.F.@ @ @ o a {  . . . . . . . . . . . . . . . . . . . . . . . . . . . . . . . . . . . . . . . . . . . . . . . .[ p o @ @ @ F.F.F.F.F.F.F.F.F.F.F.",
"F.F.F.F.F.F.F.F.F.F.@ @ @ o a {  . . . . . . . . . . . . . . . . . . . . . . . . . . . . . . . . . . . . . . . . . . . . . . . .[ p o @ @ @ F.F.F.F.F.F.F.F.F.F.F.",
"F.F.F.F.F.F.F.F.F.F.@ @ @ o a {  . . . . . . . . . . . . . . . . . . . . . . . . . . . . . . . . . . . . . . . . . . . . . . . .[ p o @ @ @ F.F.F.F.F.F.F.F.F.F.F.",
"F.F.F.F.F.F.F.F.F.F.@ @ @ o a {  . . . . . . . . . . . . . . . . . . . . . . . . . . . . . . . . . . . . . . . . . . . . . . . .[ p o @ @ @ F.F.F.F.F.F.F.F.F.F.F.",
"F.F.F.F.F.F.F.F.F.F.@ @ @ o a {  . . . . . . . . . . . . . . . . . . . . . . . . . . . . . . . . . . . . . . . . . . . . . . . .[ p o @ @ @ F.F.F.F.F.F.F.F.F.F.F.",
"F.F.F.F.F.@ @ @ @ @ @ @ @ o a {  . . . . . . . . . . . . . . . . . . . . . . . . . . . . . . . . . . . . . . . . . . . . . . . .[ p o @ @ @ @ @ @ @ @ F.F.F.F.F.F.",
"F.F.F.F.F.@ @ @ @ @ @ @ @ o a {  . . . . . . . . . . . . . . . . . . . . . . . . . . . . . . . . . . . . . . . . . . . . . . . .[ p o @ @ @ @ @ @ @ @ F.F.F.F.F.F.",
"F.F.F.F.F.@ @ @ @ @ @ @ @ o a {  . . . . . . . . . . . . . . . . . . . . . . . . . . . . . . . . . . . . . . . . . . . . . . . .[ p o @ @ @ @ @ @ @ @ F.F.F.F.F.F.",
"F.F.F.F.F.@ @ @ @ @ o o o . i } .................. . . . . . . . . . . . . . . . . . . . . . . . . . . . . . ...................{ u X o o o @ @ @ @ @ F.F.F.F.F.F.",
"F.F.F.F.F.@ @ @ @ & w r r w C R Q Q Q Q Q Q Q Q ^ |  . . . . . . . . . . . . . . . . . . . . . . . . . . . .| ^ Q Q Q Q Q Q Q ! T V w r r w & @ @ @ @ F.F.F.F.F.F.",
"F.F.F.F.F.@ @ @ X V t.i.i.s.*.w < 1 1 1 1 1 1 , k ] .. . . . . . . . . . . . . . . . . . . . . . . . . . ...' j , 1 1 1 1 1 1 < w =.s.i.i.e.B X @ @ @ F.F.F.F.F.F.",
"F.F.F.F.F.@ @ @ X F M.Z.Z.D.2.* o + + + + + + X 0 ` .. . . . . . . . . . . . . . . . . . . . . . . . . . ...` 9 X + + + + + + o = 3.D.Z.Z.m.S X @ @ @ F.F.F.F.F.F.",
"F.F.F.F.F.@ @ @ X D n.V.V.A.<.= + @ @ @ @ @ @ o q ` .. . . . . . . . . . . . . . . . . . . . . . . . . . ...` 0 O @ @ @ @ @ @ + - 1.A.V.C.n.A X @ @ @ F.F.F.F.F.F.",
"F.F.F.F.F.@ @ @ X D n.V.V.A.<.= + @ @ @ o o o X 9 ' X.....................................................X.' 9 X o o o @ @ @ + - 3.D.Z.Z.m.S X @ @ @ F.F.F.F.F.F.",
"F.F.F.F.F.@ @ @ X D n.V.V.A.<.= + @ @ % w r r w m I ~ Q Q Q Q Q Q Q Q Q Q Q Q Q Q Q Q Q Q Q Q Q Q Q Q Q Q ~ P n w r r w % @ @ + * &.s.i.i.e.B X @ @ @ F.F.F.F.F.F.",
"F.F.F.F.F.@ @ @ X D n.V.V.A.<.= + @ o l 0.i.i.s.;.i < 1 1 1 1 1 1 1 1 1 1 1 1 1 1 1 1 1 1 1 1 1 1 1 1 1 1 < a :.s.i.p.8.j o @ @ # 6 y r r w & @ @ @ @ F.F.F.F.F.F.",
"F.F.F.F.F.@ @ @ X D n.V.V.A.<.= + @ X M c.Z.Z.S.0.> o + + + + + + + + + + + + + + + + + + + + + + + + + + o < w.S.Z.Z.x.n X @ @ @ + o o o o @ @ @ @ @ F.F.F.F.F.F.",
"F.F.F.F.F.@ @ @ X D n.V.V.A.<.= + @ X M z.C.V.Z.7.< + @ @ @ @ @ @ @ @ @ @ @ @ @ @ @ @ @ @ @ @ @ @ @ @ @ @ + 1 9.Z.V.C.z.n X @ @ @ @ @ @ @ @ @ @ @ @ @ F.F.F.F.F.F.",
"F.F.F.F.F.@ @ @ X D M.Z.Z.D.2.= + @ X M c.Z.Z.S.0.> X o o o o o o o o o o o o o o o o o o o o o o o o o o X > q.S.Z.Z.x.n X @ @ @ + o o o o @ @ @ @ @ F.F.F.F.F.F.",
"F.F.F.F.F.@ @ @ X A y.i.i.s.%.* + @ o l 0.i.i.s.>.l e r r r r r r r r r r r r r r r r r r r r r r r r r r e l ,.s.i.p.8.j o @ @ # 6 y r r w & @ @ @ @ F.F.F.F.F.F.",
"F.F.F.F.F.F.F.F.F.F.r r r y 6 # @ @ @ % w r r 0 H 8.p.i.i.i.i.i.i.i.i.i.i.i.i.i.i.i.i.i.i.i.i.i.i.i.i.i.i.p.8.G 0 r r w % @ @ + * &.s.i.i.e.B X @ @ @ F.F.F.F.F.F.",
"F.F.F.F.F.F.F.F.F.F.o o o o + @ @ @ @ @ o o o   j l.A.Z.Z.Z.Z.Z.Z.Z.Z.Z.Z.Z.Z.Z.Z.Z.Z.Z.Z.Z.Z.Z.Z.Z.Z.Z.Z.A.l.h   o o o @ @ @ + - 3.D.Z.Z.m.S X @ @ @ F.F.F.F.F.F.",
"F.F.F.F.F.F.F.F.F.F.@ @ @ @ @ @ @ @ @ @ @ @ @ o z k.C.V.V.V.V.V.V.V.V.V.V.V.V.V.V.V.V.V.V.V.V.V.V.V.V.V.V.C.j.k o @ @ @ @ @ @ + - 1.A.V.C.n.A X @ @ @ F.F.F.F.F.F.",
"F.F.F.F.F.F.F.F.F.F.o o o o o o o o o + @ @ @ o x l.A.Z.Z.Z.Z.Z.Z.Z.Z.Z.Z.Z.Z.Z.Z.Z.Z.Z.Z.Z.Z.Z.Z.Z.Z.Z.Z.A.l.h   o o o @ @ @ + - 3.D.Z.Z.m.A X @ @ @ F.F.F.F.F.F.",
"F.F.F.F.F.F.F.F.F.F.r r r r r r r r y 6 # @ @ o f 6.a.i.i.i.i.i.i.i.i.i.i.i.i.i.i.i.i.i.i.i.i.i.i.i.i.i.i.p.8.G 0 r r w % @ @ + * &.s.i.i.t.Z X @ @ @ F.F.F.F.F.F.",
"F.F.F.F.F.@ @ @ X A y.i.i.i.i.i.i.i.s.=.- + @ @ $ q r r r r r r r r r r r r r r r r r r r r r r r r r r r e l ,.s.i.p.8.j o @ @ # 6 y r r r F.F.F.F.F.F.F.F.F.F.F.",
"F.F.F.F.F.@ @ @ X D M.Z.Z.Z.Z.Z.Z.Z.S.5.: + @ @ @ o o o o o o o o o o o o o o o o o o o o o o o o o o o o X > q.S.Z.Z.x.n X @ @ @ + o o o o F.F.F.F.F.F.F.F.F.F.F.",
"F.F.F.F.F.@ @ @ X D n.V.V.V.V.V.V.V.A.4.: + @ @ @ @ @ @ @ @ @ @ @ @ @ @ @ @ @ @ @ @ @ @ @ @ @ @ @ @ @ @ @ + 1 9.Z.V.C.z.n X @ @ @ @ @ @ @ @ F.F.F.F.F.F.F.F.F.F.F.",
"F.F.F.F.F.@ @ @ X D n.V.V.V.V.V.V.V.A.4.: + @ @ @ o o o o o o o o o o o o o o o o o o o o o o o o o o o o X > q.S.Z.Z.x.n X @ @ @ @ @ @ @ @ F.F.F.F.F.F.F.F.F.F.F.",
"F.F.F.F.F.@ @ @ X D n.V.V.V.V.V.V.V.A.4.: + @ @ $ q r r r r r r r r r r r r r r r r r r r r r r r r r r r e l ,.s.i.p.8.j o @ @ @ @ @ @ @ @ F.F.F.F.F.F.F.F.F.F.F.",
"F.F.F.F.F.@ @ @ X D n.V.V.V.V.V.V.V.A.4.: + @ o f 6.a.i.i.i.i.i.i.i.i.i.i.i.i.i.i.i.i.i.i.i.i.i.i.i.i.i.i.p.8.G 0 r r w % @ @ @ @ F.F.F.F.F.F.F.F.F.F.F.F.F.F.F.F.",
"F.F.F.F.F.@ @ @ X D n.V.V.V.V.V.V.V.A.4.: + @ o x l.A.Z.Z.Z.Z.Z.Z.Z.Z.Z.Z.Z.Z.Z.Z.Z.Z.Z.Z.Z.Z.Z.Z.Z.Z.Z.Z.A.l.h   o o o @ @ @ @ @ F.F.F.F.F.F.F.F.F.F.F.F.F.F.F.F.",
"F.F.F.F.F.@ @ @ X D n.V.V.V.V.V.V.V.A.4.: + @ o z k.C.V.V.V.V.V.V.V.V.V.V.V.V.V.V.V.V.V.V.V.V.V.V.V.V.V.V.C.j.k o @ @ @ @ @ @ @ @ F.F.F.F.F.F.F.F.F.F.F.F.F.F.F.F.",
"F.F.F.F.F.@ @ @ X D M.Z.Z.Z.Z.Z.Z.Z.S.5.: + @ o x l.A.Z.Z.Z.Z.Z.Z.Z.C.V.V.V.V.V.V.V.V.V.V.C.C.C.C.C.C.Z.Z.A.l.l o @ @ @ @ @ @ @ @ F.F.F.F.F.F.F.F.F.F.F.F.F.F.F.F.",
"F.F.F.F.F.@ @ @ X A y.i.i.i.i.i.i.i.s.=.- + @ o f 6.a.i.i.i.i.i.i.u.d.N.V.V.V.V.V.V.V.V.B.n.v.b.b.c.s.i.i.a.6.d o @ @ @ @ @ @ @ @ F.F.F.F.F.F.F.F.F.F.F.F.F.F.F.F.",
"F.F.F.F.F.F.F.F.F.F.r r r r r r r r y 6 # @ @ @ $ q r r r r r r r q D h.C.V.V.V.V.V.V.V.m.-.+.+.@.| N w r r 0 $ @ @ @ @ @ @ @ @ @ F.F.F.F.F.F.F.F.F.F.F.F.F.F.F.F.",
"F.F.F.F.F.F.F.F.F.F.o o o o o o o o o + @ @ @ @ @ o o o o o o o o   i d.C.V.V.V.V.V.V.C.n.@.| |  ./ 4 X o o o @ @ @ @ @ @ @ @ @ @ F.F.F.F.F.F.F.F.F.F.F.F.F.F.F.F.",
"F.F.F.F.F.F.F.F.F.F.@ @ @ @ @ @ @ @ @ @ @ @ @ @ @ @ @ @ @ @ @ @ @ o a f.C.V.V.V.V.V.V.C.n.#.|  ...( 6 + @ @ @ @ @ @ @ @ @ @ @ @ @ F.F.F.F.F.F.F.F.F.F.F.F.F.F.F.F.",
"F.F.F.F.F.F.F.F.F.F.@ @ @ @ @ @ @ @ @ @ @ @ @ @ @ @ @ @ @ @ @ @ @ o a g.A.Z.Z.Z.Z.Z.Z.Z.m.$. ...X._ 6 o + + + o o o o o @ @ @ @ @ F.F.F.F.F.F.F.F.F.F.F.F.F.F.F.F.",
"F.F.F.F.F.F.F.F.F.F.@ @ @ @ @ @ @ @ @ @ @ @ @ @ @ @ @ @ @ @ @ @ @ o a 4.a.i.i.i.i.i.i.i.r.{ W Q ~ L s < 1 1 2 w r r r w % @ @ @ @ F.F.F.F.F.F.F.F.F.F.F.F.F.F.F.F.",
"F.F.F.F.F.F.F.F.F.F.F.F.F.F.F.F.F.F.F.F.F.F.F.F.F.F.F.F.F.F.F.F.F.F.F.r r r r r r r r r w 3 1 1 < r K ~ Q Q _ 8.p.i.p.8.j o @ @ @ F.F.F.F.F.F.F.F.F.F.F.F.F.F.F.F.",
"F.F.F.F.F.F.F.F.F.F.F.F.F.F.F.F.F.F.F.F.F.F.F.F.F.F.F.F.F.F.F.F.F.F.F.o o o o o o o o o o + + + o - R X.....O.x.A.Z.Z.x.n X @ @ @ F.F.F.F.F.F.F.F.F.F.F.F.F.F.F.F.",
"F.F.F.F.F.F.F.F.F.F.F.F.F.F.F.F.F.F.F.F.F.F.F.F.F.F.F.F.F.F.F.F.F.F.F.@ @ @ @ @ @ @ @ @ @ @ @ @ + ; R .. . .o.l.C.V.C.z.n X @ @ @ F.F.F.F.F.F.F.F.F.F.F.F.F.F.F.F.",
"F.F.F.F.F.F.F.F.F.F.F.F.F.F.F.F.F.F.F.F.F.F.F.F.F.F.F.F.F.F.F.F.F.F.F.@ @ @ @ @ @ @ @ @ @ @ @ @ + ; E X.....O.x.A.Z.Z.x.n X @ @ @ F.F.F.F.F.F.F.F.F.F.F.F.F.F.F.F.",
"F.F.F.F.F.F.F.F.F.F.F.F.F.F.F.F.F.F.F.F.F.F.F.F.F.F.F.F.F.F.F.F.F.F.F.@ @ @ @ @ @ @ @ @ @ @ @ @ + = J ~ Q Q _ 8.p.i.i.q.b X @ @ @ F.F.F.F.F.F.F.F.F.F.F.F.F.F.F.F.",
"F.F.F.F.F.F.F.F.F.F.F.F.F.F.F.F.F.F.F.F.F.F.F.F.F.F.F.F.F.F.F.F.F.F.F.F.F.F.F.F.F.F.F.F.F.@ @ @ @ # : 1 1 1 2 w r r r r F.F.F.F.F.F.F.F.F.F.F.F.F.F.F.F.F.F.F.F.F.",
"F.F.F.F.F.F.F.F.F.F.F.F.F.F.F.F.F.F.F.F.F.F.F.F.F.F.F.F.F.F.F.F.F.F.F.F.F.F.F.F.F.F.F.F.F.@ @ @ @ @ + + + + + o o o o o F.F.F.F.F.F.F.F.F.F.F.F.F.F.F.F.F.F.F.F.F.",
"F.F.F.F.F.F.F.F.F.F.F.F.F.F.F.F.F.F.F.F.F.F.F.F.F.F.F.F.F.F.F.F.F.F.F.F.F.F.F.F.F.F.F.F.F.@ @ @ @ @ @ @ @ @ @ @ @ @ @ @ F.F.F.F.F.F.F.F.F.F.F.F.F.F.F.F.F.F.F.F.F.",
"F.F.F.F.F.F.F.F.F.F.F.F.F.F.F.F.F.F.F.F.F.F.F.F.F.F.F.F.F.F.F.F.F.F.F.F.F.F.F.F.F.F.F.F.F.@ @ @ @ @ @ @ @ @ @ @ @ @ @ @ F.F.F.F.F.F.F.F.F.F.F.F.F.F.F.F.F.F.F.F.F.",
"F.F.F.F.F.F.F.F.F.F.F.F.F.F.F.F.F.F.F.F.F.F.F.F.F.F.F.F.F.F.F.F.F.F.F.F.F.F.F.F.F.F.F.F.F.@ @ @ @ @ @ @ @ @ @ @ @ @ @ @ F.F.F.F.F.F.F.F.F.F.F.F.F.F.F.F.F.F.F.F.F."
};
