/* XPM */
static char *result[] = {
/* columns rows colors chars-per-pixel */
"67 70 186 2 ",
"   c gray5",
".  c #0E0E0E",
"X  c gray6",
"o  c #101010",
"O  c #111111",
"+  c gray7",
"@  c #131313",
"#  c gray8",
"$  c #151515",
"%  c #161616",
"&  c gray9",
"*  c #181818",
"=  c #191919",
"-  c gray10",
";  c #1B1B1B",
":  c gray11",
">  c #1D1D1D",
",  c #1E1E1E",
"<  c gray12",
"1  c #202020",
"2  c gray13",
"3  c #222222",
"4  c #232323",
"5  c gray14",
"6  c #252525",
"7  c gray15",
"8  c #272727",
"9  c #282828",
"0  c #2A2A2A",
"q  c gray17",
"w  c #2C2C2C",
"e  c #2D2D2D",
"r  c gray18",
"t  c #2F2F2F",
"y  c gray19",
"u  c #313131",
"i  c #323232",
"p  c gray20",
"a  c #343434",
"s  c #353535",
"d  c gray21",
"f  c #373737",
"g  c gray22",
"h  c #393939",
"j  c gray23",
"k  c #3C3C3C",
"l  c #3E3E3E",
"z  c #3F3F3F",
"x  c gray25",
"c  c #414141",
"v  c gray26",
"b  c #434343",
"n  c #464646",
"m  c gray28",
"M  c #484848",
"N  c #494949",
"B  c gray29",
"V  c #4B4B4B",
"C  c #4C4C4C",
"Z  c gray30",
"A  c gray31",
"S  c #505050",
"D  c #515151",
"F  c #535353",
"G  c #555555",
"H  c #565656",
"J  c gray35",
"K  c #5A5A5A",
"L  c gray36",
"P  c #5D5D5D",
"I  c gray37",
"U  c #5F5F5F",
"Y  c #606060",
"T  c #626262",
"R  c gray39",
"E  c #656565",
"W  c gray40",
"Q  c #676767",
"!  c DimGray",
"~  c #6A6A6A",
"^  c gray42",
"/  c #6C6C6C",
"(  c #6D6D6D",
")  c gray43",
"_  c gray44",
"`  c #717171",
"'  c gray45",
"]  c #747474",
"[  c gray46",
"{  c #767676",
"}  c #777777",
"|  c gray47",
" . c gray48",
".. c gray49",
"X. c gray50",
"o. c #808080",
"O. c #818181",
"+. c gray51",
"@. c #838383",
"#. c #848484",
"$. c gray52",
"%. c gray53",
"&. c #888888",
"*. c gray54",
"=. c gray55",
"-. c #8D8D8D",
";. c #8E8E8E",
":. c gray56",
">. c #909090",
",. c gray57",
"<. c #929292",
"1. c #939393",
"2. c gray58",
"3. c #959595",
"4. c gray59",
"5. c #979797",
"6. c #989898",
"7. c gray60",
"8. c #9A9A9A",
"9. c #9B9B9B",
"0. c #9D9D9D",
"q. c gray62",
"w. c #9F9F9F",
"e. c gray63",
"r. c gray64",
"t. c #A5A5A5",
"y. c gray65",
"u. c #A7A7A7",
"i. c gray66",
"p. c #A9A9A9",
"a. c #AAAAAA",
"s. c gray67",
"d. c #ACACAC",
"f. c gray68",
"g. c #AEAEAE",
"h. c #B2B2B2",
"j. c #B4B4B4",
"k. c gray71",
"l. c #B6B6B6",
"z. c gray72",
"x. c #B9B9B9",
"c. c gray73",
"v. c #BBBBBB",
"b. c #BCBCBC",
"n. c gray74",
"m. c gray",
"M. c gray75",
"N. c #C0C0C0",
"B. c #C1C1C1",
"V. c gray77",
"C. c #C5C5C5",
"Z. c #C6C6C6",
"A. c gray78",
"S. c #C8C8C8",
"D. c gray79",
"F. c #CACACA",
"G. c #CDCDCD",
"H. c #CECECE",
"J. c gray81",
"K. c #D0D0D0",
"L. c gray82",
"P. c gray83",
"I. c gray84",
"U. c #D7D7D7",
"Y. c #D8D8D8",
"T. c #DADADA",
"R. c gray86",
"E. c gainsboro",
"W. c #DDDDDD",
"Q. c #DFDFDF",
"!. c gray88",
"~. c #E1E1E1",
"^. c #E2E2E2",
"/. c gray89",
"(. c #E4E4E4",
"). c gray90",
"_. c #E6E6E6",
"`. c #E7E7E7",
"'. c gray91",
"]. c #E9E9E9",
"[. c #EAEAEA",
"{. c gray92",
"}. c #ECECEC",
"|. c gray93",
" X c #EEEEEE",
".X c None",
/* pixels */
".X.X.X.X.X.X.X.X.X.X.X.X.X.X.X.X.X.X.X.X.X.X.X.X.X.X.X.X.X.X.X.X.X.X.X.X.X.X.X.X.X.X.X.X.X.X.X.X.X.X.X.X.X.X.X.X.X.X.X.X.X.X.X.X.X.X.X",
".X.X.X.X.X.X.X.X.X.X.X.X.X.X.X.X.X+ + + + + + + + + + + + + + + + + + + + + + + + + + + + + + + + + .X.X.X.X.X.X.X.X.X.X.X.X.X.X.X.X.X",
".X.X.X.X.X.X.X.X.X.X.X.X.X.X.X.X.X+ + + + + + + + + + + + + O O O O O O O + + + + + + + + + + + + + .X.X.X.X.X.X.X.X.X.X.X.X.X.X.X.X.X",
".X.X.X.X.X.X.X.X.X.X.X.X.X.X.X.X.X+ + + + + + + + + + + + + O O O O O O O + + + + + + + + + + + + + .X.X.X.X.X.X.X.X.X.X.X.X.X.X.X.X.X",
".X.X.X.X.X.X.X.X.X.X.X.X.X.X.X.X+ + + + + + + + + + + + & u n m n n n m n u & + + + + + + + + + + + + .X.X.X.X.X.X.X.X.X.X.X.X.X.X.X.X",
".X.X.X.X.X.X.X.X.X.X.X.X.X+ + + + + + + + + + + + + + O 4 | n.M.M.M.M.M.n.| 4 O + + + + + + + + + + + + + + .X.X.X.X.X.X.X.X.X.X.X.X.X",
".X.X.X.X.X.X.X.X.X.X.X.X.X+ + + + + + + + + + + + + + O 8 <.`.[.[.[.[.[.`.<.8 O + + + + + + + + + + + + + + .X.X.X.X.X.X.X.X.X.X.X.X.X",
".X.X.X.X.X.X.X.X.X.X.X.X.X+ + + + + + + + + + + + + + O 8 <._.].'.'.'.]._.<.8 O + + + + + + + + + + + + + + .X.X.X.X.X.X.X.X.X.X.X.X.X",
".X.X.X.X.X.X.X.X.X.X.X.X.X+ + + + + + + + + + + + + + O 8 ,._.].'.'.'.]._.,.8 O + + + + + + + + + + + + + + .X.X.X.X.X.X.X.X.X.X.X.X.X",
".X.X.X.X.X.X.X.X.X.X.X.X.X+ + + + + + + + + + + + + + O 8 ,._.].'.'.'.]._.,.8 O + + + + + + + + + + + + + + .X.X.X.X.X.X.X.X.X.X.X.X.X",
".X.X.X.X.X.X.X.X.X.X.X.X.X+ + + + + + + + + + + + + + O 8 ,._.].'.'.'.]._.,.8 O + + + + + + + + + + + + + + .X.X.X.X.X.X.X.X.X.X.X.X.X",
".X.X.X.X.X.X.X.X.X.X.X.X.X+ + + + + O O O O O O O O O O 8 ,._.].].].].]._.,.8 O O O O O O O O O O + + + + + .X.X.X.X.X.X.X.X.X.X.X.X.X",
".X.X.X.X.X.X.X.X.X.X.X.X.X+ + + $ * = = = = = = = = = = e <.^.).(.(.(.).^.<.e = = = = = = = = = = * $ + + + .X.X.X.X.X.X.X.X.X.X.X.X.X",
".X.X.X.X.X.X.X.X.X.X.X.X.X+ + @ w F P L L L L L L L L L W 3.v.b.b.b.b.b.v.3.W L L L L L L L L L P F w @ + + .X.X.X.X.X.X.X.X.X.X.X.X.X",
".X.X.X.X.X.X.X.X.X.X.X.X.X+ O # z @.3.1.<.<.<.<.<.<.<.<.1.6.9.9.9.9.9.9.9.6.1.<.<.<.<.<.<.<.<.1.3.@.z # O + .X.X.X.X.X.X.X.X.X.X.X.X.X",
".X.X.X.X.X.X.X.X.X.X.X.X.X+ O @ c &.9.7.7.6.6.6.6.6.6.6.6.6.6.6.6.6.6.6.6.6.6.6.6.6.6.6.6.6.7.7.9.&.c @ O + .X.X.X.X.X.X.X.X.X.X.X.X.X",
".X.X.X.X.X.X.X.X.X.X.X.X.X+ O @ z #.5.3.4.5.6.6.6.6.6.6.6.6.6.6.6.6.6.6.6.6.6.6.6.6.6.6.6.5.4.3.5.#.z @ O + .X.X.X.X.X.X.X.X.X.X.X.X.X",
".X.X.X.X.X.X.X.X.X.X.X.X+ + + @ r J E R _ -.6.6.6.6.6.6.6.6.6.6.6.6.6.6.6.6.6.6.6.6.6.6.6.-._ R E J r @ + + + .X.X.X.X.X.X.X.X.X.X.X.X",
".X.X.X.X.X.X.X.X+ + + + + + + + & , 1 < l o.7.6.6.6.6.6.6.6.6.6.6.6.6.6.6.6.6.6.6.6.6.6.7.o.l < 1 , & + + + + + + + + .X.X.X.X.X.X.X.X",
".X.X.X.X.X.X.X.X+ + + + + + + + O o o X i ..8.6.6.6.6.6.6.6.6.6.6.6.6.6.6.6.6.6.6.6.6.6.8...i X o o O + + + + + + + + .X.X.X.X.X.X.X.X",
".X.X.X.X.X.X.X.X+ + + + + + + + + O O O p ..7.6.6.6.6.6.6.6.6.6.6.6.6.6.6.6.6.6.6.6.6.6.7...p O O O + + + + + + + + + .X.X.X.X.X.X.X.X",
".X.X.X.X.X.X.X.X+ + + + + + + @ 7 b B B G / [ [ [ [ [ [ [ [ [ [ [ [ [ [ [ [ [ [ [ [ [ [ [ / G B B b 7 @ + + + + + + + .X.X.X.X.X.X.X.X",
".X.X.X.X.X.X.X.X+ + + + + + O $ A p.B.M.8.N 0 w w w w w w w w w w w w w w w w w w w w w 0 N 8.M.B.p.A $ O + + + + + + .X.X.X.X.X.X.X.X",
".X.X.X.X.X.X.X.X+ + + + + + O $ I K. X{.j.k . o o o o o o o o o o o o o o o o o o o o o . k j.{. XK.I $ O + + + + + + .X.X.X.X.X.X.X.X",
".X.X.X.X.X.X.X.Xo o o o O + O $ P H.}.[.h.j   o O + + + + O o o o o o o o O + + + + O o   j h.[.}.H.P $ O + O o o o o .X.X.X.X.X.X.X.X",
".X.X.X.X.X.X.X.Xr u i y 4 # O $ P G.{.].c.H t u e ; + + $ 6 u i i i i i u 6 $ + + ; e u t H c.].{.G.P $ O # 4 y i u r .X.X.X.X.X.X.X.X",
".X.X.X.X.X+ o 3 { u.s.y.T ; o $ P G.{.'.Y.l.a.s.<.j @ O 2 / i.s.a.a.a.s.i./ 2 O @ j <.s.a.l.Y.'.{.G.P $ o ; T y.s.u.{ 3 o + .X.X.X.X.X",
".X.X.X.X+ + o 3 ;.!.].!.O., o $ P G.{.'.`._._.'.V.V @ o 8 >.(.`._._._.`.(.>.8 o @ V V.'._._.`.'.{.G.P $ o , O.!.].!.;.3 o + + .X.X.X.X",
".X.X.X.X+ + o 3 ;.^.{.^.+., X # L G.{.'.'.'.'.[.Z.C @ o 8 <._.].'.'.'.]._.<.8 o @ C Z.[.'.'.'.'.{.G.L # X , +.^.{.^.;.3 o + + .X.X.X.X",
".X.X.X.X+ + o 3 ;.~.[.^.*.r 1 6 Q K.{.'.'.'.'.[.C.C @ o 8 ,._.].'.'.'.]._.,.8 o @ C C.[.'.'.'.'.{.K.Q 6 1 r *.^.[.~.;.3 o + + .X.X.X.X",
".X.X.X.X+ + o 3 ;.~.[.).x.=.$.%.i.E.[.'.'.'.'.[.C.C @ o 8 ,._.].'.'.'.]._.,.8 o @ C C.[.'.'.'.'.[.E.i.%.$.=.x.).[.~.;.3 o + + .X.X.X.X",
".X.X.X.X+ + o 3 ;.~.].'.)./././.).`.'.'.'.'.'.[.C.C @ o 8 ,._.].'.'.'.]._.,.8 o @ C C.[.'.'.'.'.'.`.)./././.).'.].~.;.3 o + + .X.X.X.X",
".X.X.X.X+ + o 3 ;.^.[.].].[.[.[.].'.'.'.'.'.'.[.C.V + X 7 ,._.].'.'.'.]._.,.7 X + V C.[.'.'.'.'.'.'.].[.[.[.].].[.^.;.3 o + + .X.X.X.X",
".X.X.X.X+ + o 3 =.W.)./././././.).`.'.'.'.'.'.[.A.S * % w 1._.].'.'.'.]._.1.w % * S A.[.'.'.'.'.'.`.)./././././.).W.=.3 o + + .X.X.X.X",
".X.X.X.X.X+ o 2 ~ -.>.>.>.>.:.,.g.W.].'.'.'.'.].P.-.^ ~ } k.`.].'.'.'.].`.k.} ~ ^ -.P.].'.'.'.'.].W.g.,.:.>.>.>.>.-.~ 2 o + .X.X.X.X.X",
".X.X.X.X.X.X.X.X4 5 5 5 5 5 3 8 ! K.{.'.'.'.'.'.).R.I.I.Y.~.'.'.'.'.'.'.'.~.Y.I.I.R.).'.'.'.'.'.{.K.! 8 3 5 5 5 5 5 4 .X.X.X.X.X.X.X.X",
".X.X.X.X.X.X.X.XO O O O O O o # P H.}.].'.'.'.'.'.'.].].].].'.'.'.'.'.'.'.].].].].'.'.'.'.'.'.].}.H.P # o O O O O O O .X.X.X.X.X.X.X.X",
".X.X.X.X.X.X.X.X+ + + + + + O $ P J.|.[.].'.'.'.'.'.'.'.'.'.].].].].].].].'.'.'.'.'.'.'.'.'.].[.|.J.P $ O + + + + + + .X.X.X.X.X.X.X.X",
".X.X.X.X.X.X.X.X.X+ + + + + O # m 5.d.a.x.R.'.'.'.'.'.'._.T.L.L.L.L.L.L.L.T._.'.'.'.'.'.'.R.x.a.d.5.m # O + + + + + .X.X.X.X.X.X.X.X.X",
".X.X.X.X.X.X.X.X.X.X.X.X+ + + + < i f d R V.].'.'.'.'.'.^.N.y.t.y.y.y.t.y.N.^.'.'.'.'.'.].V.R d f i < + + + + .X.X.X.X.X.X.X.X.X.X.X.X",
".X.X.X.X.X.X.X.X.X.X.X.X.X+ + + + O O o m n.[.'.'.'.'.'.~.z.6.5.6.6.6.5.6.z.~.'.'.'.'.'.[.n.m o O O + + + + .X.X.X.X.X.X.X.X.X.X.X.X.X",
".X.X.X.X.X.X.X.X.X.X.X.X.X+ + + + + + o M m.{.].'.'.'.].~.x.7.6.7.7.7.6.7.x.~.].'.'.'.].{.m.M o + + + + + + .X.X.X.X.X.X.X.X.X.X.X.X.X",
".X.X.X.X.X.X.X.X.X.X.X.X+ + + + + + + O x r.D.S.S.S.S.S.B.w.#.@.@.@.@.@.#.w.B.S.S.S.S.S.D.r.x O + + + + + + + .X.X.X.X.X.X.X.X.X.X.X.X",
".X.X.X.X.X.X.X.X.X+ + + + + + + + + + + 2 b S A A A A A Z v h g g g g g h v Z A A A A A S b 2 + + + + + + + + + + + .X.X.X.X.X.X.X.X.X",
".X.X.X.X.X.X.X.X+ + + + + + + + + + + + + + O O O O O O O + + + + + + + + + O O O O O O O + + + + + + + + + + + + + + .X.X.X.X.X.X.X.X",
".X.X.X.X.X.X.X.X+ + + + O o o o o o o o O + O O O O O O O + + + + + + + + + O O O O O O O + O o o o o o o o O + + + + .X.X.X.X.X.X.X.X",
".X.X.X.X.X.X.X.X+ + + + * > , , , , , , ; # + + + + + + + + + + + + + + + + + + + + + + + # ; , , , , , , > * + + + + .X.X.X.X.X.X.X.X",
".X.X.X.X.X+ + + + + + $ f K U U U U U U C 2 O + + + + + + + + + + + + + + + + + + + + + O 2 C U U U U U U K f $ + + + + + + .X.X.X.X.X",
".X.X.X.X+ + + + + + O % S -.3.3.3.3.3.3.] w O + + + + + + + + + + + + + + + + + + + + + O w ] 3.3.3.3.3.3.-.S % O + + + + + + .X.X.X.X",
".X.X.X.X+ + + + O O o # D >.7.7.7.8.8.9.| w o O O O O O O O o o o o o o o O O O O O O O o w | 9.8.8.7.7.7.>.D # o O O + + + + .X.X.X.X",
".X.X.X.X+ + + @ % * * : H <.9.8.6.3.2.3.[ t $ % & & & & & & * * * * * * * & & & & & & % $ t [ 3.2.3.6.8.9.<.H : * * % @ + + + .X.X.X.X",
".X.X.X.X+ + O - M ^ ) _ <.l.v.x.8.~ P I J A V C C C V V A Y ( ( ( ( ( ( ( Y A V V C C C V A J I P ~ 8.x.v.l.<._ ) ^ M - O + + .X.X.X.X",
".X.X.X.X+ + o 2 #.K.Y.U.R.~./.Q.0.s - > h { ;.-.-.-.-.=.2.x.I.U.I.I.I.U.I.x.2.=.-.-.-.-.;.{ h > - s 0.Q./.~.R.U.Y.K.#.2 o + + .X.X.X.X",
".X.X.X.X+ + o 3 >.(.}.[.].].[._.q.q   o p X.9.8.7.7.7.7.e.F.[.{.{.{.{.{.[.F.e.7.7.7.7.8.9.X.p o   q q._.[.].].[.}.(.>.3 o + + .X.X.X.X",
".X.X.X.X+ + o 3 :.^.[.'.'.'.].).0.e X + a ..6.5.5.5.5.4.w.Z.).`._._._.`.).Z.w.4.5.5.5.5.6...a + X e 0.).].'.'.'.[.^.:.3 o + + .X.X.X.X",
".X.X.X.X.X+ X 9 q./.].'.'.'.].).0.e X + q Y ] ] ] ] ] '  .4.f.g.g.g.g.g.f.4. .' ] ] ] ] ] Y q + X e 0.).].'.'.'.]./.q.9 X + .X.X.X.X.X",
".X.X.X.X.X.X.X.XP.`.'.'.'.'.].).0.e X + & 2 6 6 6 6 6 6 7 q y t t t t t y q 7 6 6 6 6 6 6 2 & + X e 0.).].'.'.'.'.`.P..X.X.X.X.X.X.X.X",
".X.X.X.X.X.X.X.X'.'.'.'.'.'.].).q.e X + + + + + + + + + + + + + + + + + + + + + + + + + + + + + X e q.).].'.'.'.'.'.'..X.X.X.X.X.X.X.X",
".X.X.X.X.X.X.X.X'.'.'.'.'.].{._.q.e X + + + + + + + + + + + + + + + + + + + + + + + + + + + + + X e q._.{.].'.'.'.'.'..X.X.X.X.X.X.X.X",
".X.X.X.X.X.X.X.X.X'.'.`.P.C.V.N.$.9 o + + + + + + + + + + + + + + + + + + + + + + + + + + + + + o 9 $.N.V.C.P.`.'.'..X.X.X.X.X.X.X.X.X",
".X.X.X.X.X.X.X.X.X.X.X.X` A Z C g = O + + + + + + + + + + + + + + + + + + + + + + + + + + + + + O = g C Z A ` .X.X.X.X.X.X.X.X.X.X.X.X",
".X.X.X.X.X.X.X.X.X.X.X.X.XO + O + + + + + + + + + + + + + + + + + + + + + + + + + + + + + + + + + + + O + O .X.X.X.X.X.X.X.X.X.X.X.X.X",
".X.X.X.X.X.X.X.X.X.X.X.X.XO + O + + + + + + + + + + + + + + + + + + + + + + + + + + + + + + + + + + + O + O .X.X.X.X.X.X.X.X.X.X.X.X.X",
".X.X.X.X.X.X.X.X.X.X.X.X.X+ + + + + + + + + + + + + + + + + + + + + + + + + + + + + + + + + + + + + + + + + .X.X.X.X.X.X.X.X.X.X.X.X.X",
".X.X.X.X.X.X.X.X.X.X.X.X.X+ + + + + + + + + + + + + + + + + .X.X.X.X.X.X.X+ + + + + + + + + + + + + + + + + .X.X.X.X.X.X.X.X.X.X.X.X.X",
".X.X.X.X.X.X.X.X.X.X.X.X.X+ + + + + + + + + + + + + + + + .X.X.X.X.X.X.X.X.X+ + + + + + + + + + + + + + + + .X.X.X.X.X.X.X.X.X.X.X.X.X",
".X.X.X.X.X.X.X.X.X.X.X.X.X+ + + + + + + + + + + + + + + + .X.X.X.X.X.X.X.X.X+ + + + + + + + + + + + + + + + .X.X.X.X.X.X.X.X.X.X.X.X.X",
".X.X.X.X.X.X.X.X.X.X.X.X.X+ + + + + + + + + + + + + + + + .X.X.X.X.X.X.X.X.X+ + + + + + + + + + + + + + + + .X.X.X.X.X.X.X.X.X.X.X.X.X",
".X.X.X.X.X.X.X.X.X.X.X.X.X.X+ + + + + + + + + + + + + + .X.X.X.X.X.X.X.X.X.X.X+ + + + + + + + + + + + + + .X.X.X.X.X.X.X.X.X.X.X.X.X.X",
".X.X.X.X.X.X.X.X.X.X.X.X.X.X.X.X.X.X.X.X.X.X.X.X.X.X.X.X.X.X.X.X.X.X.X.X.X.X.X.X.X.X.X.X.X.X.X.X.X.X.X.X.X.X.X.X.X.X.X.X.X.X.X.X.X.X.X"
};
