/* XPM */
static char *result[] = {
/* columns rows colors chars-per-pixel */
"71 70 194 2 ",
"   c #0E0E0E",
".  c gray6",
"X  c #101010",
"o  c #111111",
"O  c gray7",
"+  c #131313",
"@  c gray8",
"#  c #151515",
"$  c #161616",
"%  c gray9",
"&  c #181818",
"*  c gray10",
"=  c gray11",
"-  c #1D1D1D",
";  c #1E1E1E",
":  c gray12",
">  c #202020",
",  c gray13",
"<  c #222222",
"1  c #232323",
"2  c gray14",
"3  c #252525",
"4  c gray15",
"5  c #272727",
"6  c #282828",
"7  c gray16",
"8  c #2A2A2A",
"9  c gray17",
"0  c #2C2C2C",
"q  c #2D2D2D",
"w  c gray18",
"e  c #2F2F2F",
"r  c gray19",
"t  c #323232",
"y  c gray20",
"u  c #343434",
"i  c #353535",
"p  c gray21",
"a  c #373737",
"s  c gray22",
"d  c #393939",
"f  c #3A3A3A",
"g  c gray23",
"h  c #3C3C3C",
"j  c gray24",
"k  c #3F3F3F",
"l  c gray25",
"z  c gray26",
"x  c #434343",
"c  c #444444",
"v  c gray27",
"b  c #464646",
"n  c gray28",
"m  c #484848",
"M  c #494949",
"N  c gray29",
"B  c #4B4B4B",
"V  c #4C4C4C",
"C  c gray30",
"Z  c #4E4E4E",
"A  c gray31",
"S  c #505050",
"D  c #515151",
"F  c gray32",
"G  c #535353",
"H  c #555555",
"J  c #565656",
"K  c gray34",
"L  c #585858",
"P  c gray35",
"I  c #5B5B5B",
"U  c gray36",
"Y  c #5D5D5D",
"T  c #5F5F5F",
"R  c #606060",
"E  c gray38",
"W  c gray39",
"Q  c #646464",
"!  c #656565",
"~  c gray40",
"^  c #676767",
"/  c DimGray",
"(  c #6A6A6A",
")  c gray42",
"_  c #6C6C6C",
"`  c #6D6D6D",
"'  c #6F6F6F",
"]  c gray44",
"[  c #717171",
"{  c #727272",
"}  c gray46",
"|  c #767676",
" . c #777777",
".. c gray47",
"X. c #797979",
"o. c gray48",
"O. c #7B7B7B",
"+. c #7C7C7C",
"@. c gray49",
"#. c #7E7E7E",
"$. c gray50",
"%. c #808080",
"&. c #818181",
"*. c gray51",
"=. c #838383",
"-. c #848484",
";. c #868686",
":. c gray53",
">. c #898989",
",. c gray54",
"<. c gray55",
"1. c #8D8D8D",
"2. c #8E8E8E",
"3. c gray56",
"4. c #909090",
"5. c gray57",
"6. c #929292",
"7. c #939393",
"8. c gray58",
"9. c #959595",
"0. c gray59",
"q. c #979797",
"w. c #989898",
"e. c gray60",
"r. c #9A9A9A",
"t. c #9B9B9B",
"y. c gray61",
"u. c #9D9D9D",
"i. c gray62",
"p. c #9F9F9F",
"a. c gray63",
"s. c #A2A2A2",
"d. c gray64",
"f. c #A4A4A4",
"g. c #A5A5A5",
"h. c #A9A9A9",
"j. c gray67",
"k. c #ACACAC",
"l. c #AFAFAF",
"z. c gray69",
"x. c #B1B1B1",
"c. c #B2B2B2",
"v. c gray70",
"b. c #B4B4B4",
"n. c #B7B7B7",
"m. c gray72",
"M. c #B9B9B9",
"N. c gray73",
"B. c #BBBBBB",
"V. c #BCBCBC",
"C. c gray74",
"Z. c gray75",
"A. c #C0C0C0",
"S. c #C1C1C1",
"D. c #C3C3C3",
"F. c gray77",
"G. c #C6C6C6",
"H. c gray78",
"J. c #C8C8C8",
"K. c gray79",
"L. c #CACACA",
"P. c #CBCBCB",
"I. c #CECECE",
"U. c gray81",
"Y. c #D0D0D0",
"T. c #D2D2D2",
"R. c gray83",
"E. c #D5D5D5",
"W. c gray84",
"Q. c #D7D7D7",
"!. c #D8D8D8",
"~. c gray85",
"^. c #DADADA",
"/. c gray86",
"(. c gainsboro",
"). c #DDDDDD",
"_. c gray87",
"`. c #DFDFDF",
"'. c gray88",
"]. c #E1E1E1",
"[. c #E2E2E2",
"{. c gray89",
"}. c #E4E4E4",
"|. c gray90",
" X c #E6E6E6",
".X c #E7E7E7",
"XX c gray91",
"oX c #E9E9E9",
"OX c #EAEAEA",
"+X c gray92",
"@X c #ECECEC",
"#X c gray93",
"$X c #EEEEEE",
"%X c None",
/* pixels */
"%X%X%X%X%X%X%X%X%X%X%X%X%X%X%X%X%XO O O O O O O O O O O O O O O O O O O O O O O O O O O O O O O O O O O O %X%X%X%X%X%X%X%X%X%X%X%X%X%X%X%X%X%X",
"%X%X%X%X%X%X%X%X%X%X%X%X%X%X%X%X%XO O O O O O O O O O O O O O O O O O O O O O O O O O O O O O O o o o o o %X%X%X%X%X%X%X%X%X%X%X%X%X%X%X%X%X%X",
"%X%X%X%X%X%X%X%X%X%X%X%X%X%X%X%X%XO O O O O O O O O O O O O O O O O O O O O O O O O O O O O O + $ % % % % %X%X%X%X%X%X%X%X%X%X%X%X%X%X%X%X%X%X",
"%X%X%X%X%X%X%X%X%X%X%X%X%X%X%X%XO O O O O O O O O O O O O O O O O O O O O O O O O O O O O O o < S ! ~ W Z %X%X%X%X%X%X%X%X%X%X%X%X%X%X%X%X%X%X",
"%X%X%X%X%X%X%X%X%X%X%X%X%XO O O O O O O O O O O O O O O O O O O O O O O O O O O O O O O O O X a a.T.R.K...- X O O %X%X%X%X%X%X%X%X%X%X%X%X%X%X",
"%X%X%X%X%X%X%X%X%X%X%X%X%XO O O O O O O O O O O O O O O O O O O O O O O O O O O O O O O O O . h b.+X$X`.$.; X O O %X%X%X%X%X%X%X%X%X%X%X%X%X%X",
"%X%X%X%X%X%X%X%X%X%X%X%X%XO O O O O O O O O O O O O O O O O O O O O O O O O O O O O O O O O . h c.oX+X).#.; X O O %X%X%X%X%X%X%X%X%X%X%X%X%X%X",
"%X%X%X%X%X%X%X%X%X%X%X%X%XO O O O O O O O O O O O O O O O O O O O O O O O O O O O O O O O O . h c.XX+X).#.; X O O %X%X%X%X%X%X%X%X%X%X%X%X%X%X",
"%X%X%X%X%X%X%X%X%X%X%X%X%XO O O O O O O O O O O O O O O O O O O O O O O O O O O O O O O O O . h c.XX+X).#.; X O O %X%X%X%X%X%X%X%X%X%X%X%X%X%X",
"%X%X%X%X%X%X%X%X%X%X%X%X%XO O O O O O O O O O O O O O O O O O O O O O O O O O O O O O O O O X h c.XX+X).#.; X O O %X%X%X%X%X%X%X%X%X%X%X%X%X%X",
"%X%X%X%X%X%X%X%X%X%X%X%X%XO O O O O O O O O O O O O O O O O O O O O O O O O O O O O O O o o . g c.oX+X_.#.- . o o %X%X%X%X%X%X%X%X%X%X%X%X%X%X",
"%X%X%X%X%X%X%X%X%X%X%X%X%XO O O O O O O O O O O O O O O O O O O O O O O O O O O O O O @ $ $ @ k x.|.XX/.$.< @ % $ %X%X%X%X%X%X%X%X%X%X%X%X%X%X",
"%X%X%X%X%X%X%X%X%X%X%X%X%XO O O O O O O O O O O O O O O O O O O O O O O O O O O O O @ 0 D J H ) f.Z.A.N.<.U H J Z 4 + O %X%X%X%X%X%X%X%X%X%X%X",
"%X%X%X%X%X%X%X%X%X%X%X%X%XO O O O O O O O O O O O O O O O O O O O O O O O O O O O O $ c :.5.4.6.e.u.u.y.q.5.4.3.} 7 + O O %X%X%X%X%X%X%X%X%X%X",
"%X%X%X%X%X%X%X%X%X%X%X%X%XO O O O O O O O O O O O O O O O O O O O O O O O O O O O O % n 3.e.w.w.w.w.w.w.w.w.w.q.o.7 + O O %X%X%X%X%X%X%X%X%X%X",
"%X%X%X%X%X%X%X%X%X%X%X%X%XO O O O O O O O O O O O O O O O O O O O O O O O O O O O O % n 2.w.w.w.w.w.w.w.w.w.w.q.o.7 O O O %X%X%X%X%X%X%X%X%X%X",
"%X%X%X%X%X%X%X%X%X%X%X%X%XO O O O O O O O O O O O O O O O O O O O O O O O O O O O O $ f ] ..| @.4.w.w.w.w.w.w.q.*.v y y t 9 %X%X%X%X%X%X%X%X%X",
"%X%X%X%X%X%X%X%X%X%X%X%X%XO O O O O O O O O O O O O O O O O O O O O O O O O O O O O + - 0 w q x @.w.w.w.w.w.w.w.6.&.+.@.} b $ o O O %X%X%X%X%X",
"%X%X%X%X%X%X%X%X%X%X%X%X%XO O O O O O O O O O O O O O O O O O O O O O O O O O O O O O o X X . 9 } q.w.w.w.w.w.w.w.r.r.y.2.V $ o O O %X%X%X%X%X",
"%X%X%X%X%X%X%X%X%X%X%X%X%XO O O O O o o o o o o o o o o o o o o o o o o o o o o o o o o X X . 9 } q.w.w.w.e.e.e.e.e.e.r.1.V $ o O O %X%X%X%X%X",
"%X%X%X%X%X%X%X%X%X%X%X%X%XO O O # * - - - - - - - - - - - - - - - - - - - - ; , 1 1 1 1 1 1 , g $.i.i.i.0.2.1.1.1.1.1.2.-.M $ o O O %X%X%X%X%X",
"%X%X%X%X%X%X%X%X%X%X%X%X%XO O O 1 C E R R R R R R R R R R R R R R R R R R T ^ $.1.2.2.2.2.2.1.e.m.G.J.A.>.D M N N N N B M p %X%X%X%X%X%X%X%X%X",
"%X%X%X%X%X%X%X%X%X%X%X%X%XO O O w } 0.9.9.9.9.9.9.9.9.9.9.9.9.9.9.9.9.9.9.7.p.K.[.{.{.{.{.{.[.{.|. XXX/.$., + # # # # # # %X%X%X%X%X%X%X%X%X%X",
"%X%X%X%X%X%X%X%X%X%X%X%X%XO O O e ..r.e.e.e.e.e.e.e.e.e.e.e.e.e.e.e.e.e.w.q.f.U.XXoXoXoXoXOXoXoXoXoX+X).#.; . o o o o o o %X%X%X%X%X%X%X%X%X%X",
"%X%X%X%X%X%X%X%X%X%X%X%X%XO O O e ..r.w.w.w.w.w.w.w.w.w.w.w.w.w.w.w.w.w.q.0.d.I..XXXXXXXXXoXoXXXXXXX+X).#.; X O O O O O O %X%X%X%X%X%X%X%X%X%X",
"%X%X%X%X%X%X%X%X%X%X%X%X%XO O O e ..r.w.w.w.w.w.e.,.[ / / / / / / ( =.j.b.v.B.Q..XXX|.P.d.u.u.k.E.XX+X).#.; X O O O O O O %X%X%X%X%X%X%X%X%X%X",
"%X%X%X%X%X%X%X%X%X%X%X%X%XO O O e ..r.w.w.w.w.w.e.| a 1 2 2 2 2 1 4 Q H._.).`.|.XXXX[.p.h q 0 G M.XX+X).#.; X O O %X%X%X%X%X%X%X%X%X%X%X%X%X%X",
"%X%X%X%X%X%X%X%X%X%X%X%X%XO O O e ..r.w.w.w.w.e.e.] 6 o O O O O o + Y U.oXXXXXXXXXXX[.8., X   g c.XX+X).#.; X O O %X%X%X%X%X%X%X%X%X%X%X%X%X%X",
"%X%X%X%X%X%X%X%X%X%X%X%X%XO O O e ..r.w.w.w.w.e.r.[ 6 X o o o o X + U U.oXXXXXXXXXXX[.8., X . g c.XX+X).#.; X O O %X%X%X%X%X%X%X%X%X%X%X%X%X%X",
"%X%X%X%X%X%X%X%X%X%X%X%X%XO O O e ..r.w.q.2.:.;.:._ j w w w w w w r ] T.oXXXXXXXXXXX[.8., o X h c.XX+X).#.; X O O %X%X%X%X%X%X%X%X%X%X%X%X%X%X",
"%X%X%X%X%X%X%X%X%X%X%X%X%XO O O e ..r.e.7.( c l l U 2.i.i.i.i.i.u.p.m.`.XXXXXXXXXXXX[.8., o X h c.XX+X).#.; X O O %X%X%X%X%X%X%X%X%X%X%X%X%X%X",
"%X%X%X%X%X%X%X%X%X%X%X%X%XO O O e ..r.e.4.D % o X D F.oXoXoXoXoXoXoXXXXXXXXXXXXXXXXX[.8., o X h c.XX+X).#.; X O O %X%X%X%X%X%X%X%X%X%X%X%X%X%X",
"%X%X%X%X%X%X%X%X%X%X%X%X%XO O O e ..r.e.4.D % X . D F.oXoXoXoXoXoXoXXXXXXXXXXXXXXXXX[.8.> X . g c.XX+X).#.; X O O %X%X%X%X%X%X%X%X%X%X%X%X%X%X",
"%X%X%X%X%X%X%X%X%X%X%X%X%XO O O e | 0.9.<.A & X X D F.oXXXXXXXXXXXXXXXXXXXXXXXXXXXXX].0.5 $ # l v.XX+X).#.; X O O %X%X%X%X%X%X%X%X%X%X%X%X%X%X",
"%X%X%X%X%X%X%X%X%X%X%X%X%XO O O 9 G R R I p $ o X D F.oXXXXXXXXXXXXXXXXXXXXXXXXXXXXX}.n.| _ ) -.J.XX+X).#.; X O O %X%X%X%X%X%X%X%X%X%X%X%X%X%X",
"%X%X%X%X%X%X%X%X%X%X%X%X%X%X%X%X%X= - - = % O o X D F.oXXXXXXXXXXXXXXXXXXXXXXXXXXXXX.X].!.Q.Q.^.{.XX+X).#.; X O O %X%X%X%X%X%X%X%X%X%X%X%X%X%X",
"%X%X%X%X%X%X%X%X%X%X%X%X%X%X%X%X%Xo o o o O O o X D F.oXoXXXXXXXXXXXXXXXXXXXXXXXXXXXXXXXoXOXoXoXXXXX+X_.#.; X O O %X%X%X%X%X%X%X%X%X%X%X%X%X%X",
"%X%X%X%X%X%X%X%X%X%X%X%X%X%X%X%X%XO O O O O O o X D G.@X+X+XoXXXXXXXXXXXXXXXXXXXXXXXXXXXoXOXOXOX+X+X#X'.$.; X O O %X%X%X%X%X%X%X%X%X%X%X%X%X%X",
"%X%X%X%X%X%X%X%X%X%X%X%X%X%X%X%X%XO O O O O O o X V f.V.B.Z.E.XXXXXXXXXXXXXXXXXXXXXX.X].!.!.!.T.D.V.V.b.{ - X O O %X%X%X%X%X%X%X%X%X%X%X%X%X%X",
"%X%X%X%X%X%X%X%X%X%X%X%X%X%X%X%X%X%X%X%X%X%X%X%X%X%Xc b v J g..XoXXXXXXXXXXXXXXXXXXX XY.z.j.k.w.R n b b h %X%X%X%X%X%X%X%X%X%X%X%X%X%X%X%X%X%X",
"%X%X%X%X%X%X%X%X%X%X%X%X%X%X%X%X%X%X%X%X%X%X%X%X%X%XO O o 5 3. XoXXXXXXXXXXXXXXXXXXX XJ.i.w.e.#.u O O O O %X%X%X%X%X%X%X%X%X%X%X%X%X%X%X%X%X%X",
"%X%X%X%X%X%X%X%X%X%X%X%X%X%X%X%X%X%X%X%X%X%X%X%X%X%Xo o o 4 3..XoXXXXXXXXXXXXXXXXXXX XK.i.w.e.@.u O o o o %X%X%X%X%X%X%X%X%X%X%X%X%X%X%X%X%X%X",
"%X%X%X%X%X%X%X%X%X%X%X%X%X%X%X%X%X%X%X%X%X%X%X%X%X%XO O O 3 :.~.).(.(.(.(.(.(.(.(.(.~.C.0.4.5. .t O O O O %X%X%X%X%X%X%X%X%X%X%X%X%X%X%X%X%X%X",
"%X%X%X%X%X%X%X%X%X%X%X%X%X%X%X%X%X%X%X%X%X%X%X%X%XO O O O - D #.$.$.$.$.$.$.$.$.$.$.@.' P J K M 2 O O O O %X%X%X%X%X%X%X%X%X%X%X%X%X%X%X%X%X%X",
"%X%X%X%X%X%X%X%X%X%X%X%X%X%X%X%X%X%X%X%X%XO O O O O O O O + $ & & & & & & & & & & & & & % $ $ $ + O O O O %X%X%X%X%X%X%X%X%X%X%X%X%X%X%X%X%X%X",
"%X%X%X%X%X%X%X%X%X%X%X%X%X%X%X%X%X%X%X%X%XO O O O O O O O O o X X X X X X X X o o o o o o o o O O O O O O %X%X%X%X%X%X%X%X%X%X%X%X%X%X%X%X%X%X",
"%X%X%X%X%X%X%X%X%X%X%X%X%X%X%X%X%X%X%X%X%XO O O O O O O O O O O O O O O O O O O O O O O O O O O O O O O O %X%X%X%X%X%X%X%X%X%X%X%X%X%X%X%X%X%X",
"%X%X%X%X%X%X%X%X%X%X%X%X%X%X%X%X%X%X%X%X%XO O O O O O O O & i C Z Z Z Z Z Z v 3 + O O O O O O O O O O O O %X%X%X%X%X%X%X%X%X%X%X%X%X%X%X%X%X%X",
"%X%X%X%X%X%X%X%X%X%X%X%X%X%X%X%X%X%X%X%X%XO O O O O O O O 1 X.S.F.D.D.D.F.G.h.B @ o O O O O O O O O O O O %X%X%X%X%X%X%X%X%X%X%X%X%X%X%X%X%X%X",
"%X%X%X%X%X%X%X%X%X%X%X%X%X%X%X%X%X%X%X%X%XO O O O O O O o 4 4..XOXoXoXoXoX@XK.K @ o O O O O O O O O O O O %X%X%X%X%X%X%X%X%X%X%X%X%X%X%X%X%X%X",
"%X%X%X%X%X%X%X%X%X%X%X%X%X%X%X%X%X%X%X%X%XO O O O O X X . 3 3..XoXXXXXXXXX+XJ.H O . X . . . . X o O O O O %X%X%X%X%X%X%X%X%X%X%X%X%X%X%X%X%X%X",
"%X%X%X%X%X%X%X%X%X%X%X%X%X%X%X%X%X%X%X%X%XO O O O $ ; > > u 9. XoXXXXXXXXX+XL.R < : > 1 6 6 7 2 & O O O O %X%X%X%X%X%X%X%X%X%X%X%X%X%X%X%X%X%X",
"%X%X%X%X%X%X%X%X%X%X%X%X%X%X%X%X%X%X%X%X%XO O O o 8 J Q Q [ x..XoXXXXXXXXX+XE.2.! W ~  .5.9.0.O.u O O O O %X%X%X%X%X%X%X%X%X%X%X%X%X%X%X%X%X%X",
"%X%X%X%X%X%X%X%X%X%X%X%X%X%X%X%X%X%X%X%X%XO O O o d #.9.9.u.G.XXoXXXXXXXXXOX(.l.9.8.q.b.).{.|.N.n O O O O %X%X%X%X%X%X%X%X%X%X%X%X%X%X%X%X%X%X",
"%X%X%X%X%X%X%X%X%X%X%X%X%X%X%X%X%X%X%X%X%XO O O o f *.e.e.a.H.XXoXXXXXXXXXOX(.c.e.w.t.M.}.OX@XZ.m O O O O %X%X%X%X%X%X%X%X%X%X%X%X%X%X%X%X%X%X",
"%X%X%X%X%X%X%X%X%X%X%X%X%X%X%X%X%X%X%X%X%XO O O o d $.9.9.u.G.XXoXXXXXXXXXOX(.z.0.8.w.b._.}. XB.m O O O %X%X%X%X%X%X%X%X%X%X%X%X%X%X%X%X%X%X%X",
"%X%X%X%X%X%X%X%X%X%X%X%X%X%X%X%X%X%X%X%X%XO O O o 0 U _ )  .b..XoXXXXXXXXXOXW.8._ ( ` %.y.a.s.1.z O O O %X%X%X%X%X%X%X%X%X%X%X%X%X%X%X%X%X%X%X",
"%X%X%X%X%X%X%X%X%X%X%X%X%X%X%X%X%X%X%X%X%XO O O O $ - : : y 8. XoXXXXXXXXX+XL.T , ; > < 4 6 6 5 %X%X%X%X%X%X%X%X%X%X%X%X%X%X%X%X%X%X%X%X%X%X%X",
"%X%X%X%X%X%X%X%X%X%X%X%X%X%X%X%X%X%X%X%X%XO O O O O O o o 4 3. XoXXXXXXXXX+XJ.J @ X o o O O O O %X%X%X%X%X%X%X%X%X%X%X%X%X%X%X%X%X%X%X%X%X%X%X",
"%X%X%X%X%X%X%X%X%X%X%X%X%X%X%X%X%X%X%X%X%XO O O O O O O O 5 4.oX@X+X+X+X+X#XL.L @ o O O O O O O %X%X%X%X%X%X%X%X%X%X%X%X%X%X%X%X%X%X%X%X%X%X%X",
"%X%X%X%X%X%X%X%X%X%X%X%X%X%X%X%X%X%X%X%X%X%XO O O O O O O 2 O.F.H.G.G.G.G.K.j.V @ o O O O O O O %X%X%X%X%X%X%X%X%X%X%X%X%X%X%X%X%X%X%X%X%X%X%X",
"%X%X%X%X%X%X%X%X%X%X%X%X%X%X%X%X%X%X%X%X%X%X%X%X%XO O O O & s D F F F F F G m 5 + O O O O O O O O O O O %X%X%X%X%X%X%X%X%X%X%X%X%X%X%X%X%X%X%X",
"%X%X%X%X%X%X%X%X%X%X%X%X%X%X%X%X%X%X%X%X%X%X%X%X%X%XO O O O + + + + + + + + + + O O O O O O O O O O O O O %X%X%X%X%X%X%X%X%X%X%X%X%X%X%X%X%X%X",
"%X%X%X%X%X%X%X%X%X%X%X%X%X%X%X%X%X%X%X%X%X%X%X%X%X%XO O O O O O o o o o o o O O O O O O O O O O O O O O O %X%X%X%X%X%X%X%X%X%X%X%X%X%X%X%X%X%X",
"%X%X%X%X%X%X%X%X%X%X%X%X%X%X%X%X%X%X%X%X%X%X%X%X%X%XO O O O O O O O O O O O O O O O O O O O O O O O O O O %X%X%X%X%X%X%X%X%X%X%X%X%X%X%X%X%X%X",
"%X%X%X%X%X%X%X%X%X%X%X%X%X%X%X%X%X%X%X%X%X%X%X%X%X%X%XO O O O O O O O O O O O O O O O O O O O O O O O O O %X%X%X%X%X%X%X%X%X%X%X%X%X%X%X%X%X%X",
"%X%X%X%X%X%X%X%X%X%X%X%X%X%X%X%X%X%X%X%X%X%X%X%X%X%X%X%X%X%XO O O O O O O O O O O O O O O O O O O O O O O O O O O %X%X%X%X%X%X%X%X%X%X%X%X%X%X",
"%X%X%X%X%X%X%X%X%X%X%X%X%X%X%X%X%X%X%X%X%X%X%X%X%X%X%X%X%X%XO O O O O O O O O O O O O O O O O O O O O O O O O O O %X%X%X%X%X%X%X%X%X%X%X%X%X%X",
"%X%X%X%X%X%X%X%X%X%X%X%X%X%X%X%X%X%X%X%X%X%X%X%X%X%X%X%X%X%XO O O O O O O O O O O O O O O O O O O O O O O O O O O %X%X%X%X%X%X%X%X%X%X%X%X%X%X",
"%X%X%X%X%X%X%X%X%X%X%X%X%X%X%X%X%X%X%X%X%X%X%X%X%X%X%X%X%X%XO O O O O O O O O O O O O O O O O O O O O O O O O O O %X%X%X%X%X%X%X%X%X%X%X%X%X%X"
};
