/* XPM */
static char *result[] = {
/* columns rows colors chars-per-pixel */
"72 70 145 2 ",
"   c gray6",
".  c #101010",
"X  c #111111",
"o  c gray7",
"O  c #131313",
"+  c gray8",
"@  c #151515",
"#  c #161616",
"$  c gray9",
"%  c #181818",
"&  c #191919",
"*  c gray10",
"=  c #1B1B1B",
"-  c gray11",
";  c #1D1D1D",
":  c gray12",
">  c #202020",
",  c gray13",
"<  c #222222",
"1  c #232323",
"2  c gray14",
"3  c #252525",
"4  c gray15",
"5  c #272727",
"6  c #282828",
"7  c gray16",
"8  c #2A2A2A",
"9  c gray17",
"0  c #2C2C2C",
"q  c #2D2D2D",
"w  c gray18",
"e  c gray19",
"r  c gray20",
"t  c #353535",
"y  c gray21",
"u  c #373737",
"i  c gray22",
"p  c #393939",
"a  c gray24",
"s  c #3E3E3E",
"d  c #3F3F3F",
"f  c #414141",
"g  c gray26",
"h  c #444444",
"j  c #484848",
"k  c #494949",
"l  c gray29",
"z  c #4B4B4B",
"x  c #4C4C4C",
"c  c gray30",
"v  c gray31",
"b  c #515151",
"n  c #535353",
"m  c gray33",
"M  c #555555",
"N  c #565656",
"B  c #5A5A5A",
"V  c gray36",
"C  c #606060",
"Z  c gray39",
"A  c #646464",
"S  c DimGray",
"D  c #6A6A6A",
"F  c gray42",
"G  c #6C6C6C",
"H  c gray43",
"J  c #6F6F6F",
"K  c #717171",
"L  c gray46",
"P  c #767676",
"I  c gray47",
"U  c gray48",
"Y  c gray51",
"T  c #848484",
"R  c #868686",
"E  c #888888",
"W  c #898989",
"Q  c gray56",
"!  c #909090",
"~  c gray57",
"^  c #929292",
"/  c #939393",
"(  c gray58",
")  c #959595",
"_  c gray59",
"`  c #979797",
"'  c #989898",
"]  c gray60",
"[  c #9A9A9A",
"{  c #9B9B9B",
"}  c #9D9D9D",
"|  c gray62",
" . c #9F9F9F",
".. c #A0A0A0",
"X. c gray63",
"o. c #A2A2A2",
"O. c gray64",
"+. c #A9A9A9",
"@. c #ACACAC",
"#. c #AEAEAE",
"$. c gray69",
"%. c gray70",
"&. c gray71",
"*. c #B7B7B7",
"=. c gray72",
"-. c #B9B9B9",
";. c gray73",
":. c #BCBCBC",
">. c gray74",
",. c #C0C0C0",
"<. c #C1C1C1",
"1. c #C3C3C3",
"2. c gray77",
"3. c #C5C5C5",
"4. c gray78",
"5. c #C8C8C8",
"6. c gray79",
"7. c gray80",
"8. c #D0D0D0",
"9. c #D2D2D2",
"0. c gray83",
"q. c gray84",
"w. c #D7D7D7",
"e. c #D8D8D8",
"r. c gray85",
"t. c #DADADA",
"y. c gray86",
"u. c gainsboro",
"i. c #DDDDDD",
"p. c gray87",
"a. c #DFDFDF",
"s. c gray88",
"d. c #E2E2E2",
"f. c gray89",
"g. c #E4E4E4",
"h. c gray90",
"j. c #E6E6E6",
"k. c #E7E7E7",
"l. c gray91",
"z. c #E9E9E9",
"x. c #EAEAEA",
"c. c gray92",
"v. c #ECECEC",
"b. c gray93",
"n. c None",
/* pixels */
"n.n.n.n.n.n.n.n.n.n.n.n.n.n.n.n.n.n.o o o o o o o o o o o o o o o o o o o o o o o o o o o o o o o o o o o n.n.n.n.n.n.n.n.n.n.n.n.n.n.n.n.n.n.n.",
"n.n.n.n.n.n.n.n.n.n.n.n.n.n.n.n.n.n.o o o o o o o o o o o o o o o o o o o o o o o o o o o o o o o o o o o n.n.n.n.n.n.n.n.n.n.n.n.n.n.n.n.n.n.n.",
"n.n.n.n.n.n.n.n.n.n.n.n.n.n.n.n.n.n.o o o o o o o o o o o o o o o o o o o o o o o o o o o o o o o o o o o n.n.n.n.n.n.n.n.n.n.n.n.n.n.n.n.n.n.n.",
"n.n.n.n.n.n.n.n.n.n.n.n.n.n.n.n.n.n.o o o o o o o o o o o o o o o o o o o o o o o o o o o o o o o o o o o n.n.n.n.n.n.n.n.n.n.n.n.n.n.n.n.n.n.n.",
"n.n.n.n.n.n.n.n.n.n.n.n.n.n.o o o o o o o o o o o o o o o o o o o o o o o o o o o o o o o o o o o o o o o o o o o n.n.n.n.n.n.n.n.n.n.n.n.n.n.n.",
"n.n.n.n.n.n.n.n.n.n.n.n.n.o o o o o o o o o o o o o o o o o o o o o o o o o o o o o o o o o o o o o o o o o o o o n.n.n.n.n.n.n.n.n.n.n.n.n.n.n.",
"n.n.n.n.n.n.n.n.n.n.n.n.n.o o o o o o o o o o o o o o o o o o o o o o o o o o o o o o o o o o o o o o o o o o o o n.n.n.n.n.n.n.n.n.n.n.n.n.n.n.",
"n.n.n.n.n.n.n.n.n.n.n.n.n.o o o o o o o o o o o o o o o o o o o o o o o o o o o o o o o o o o o o o o o o o o o o n.n.n.n.n.n.n.n.n.n.n.n.n.n.n.",
"n.n.n.n.n.n.n.n.n.n.n.n.n.o o o o o o o o o o o o o o o o o o o o o o o o o o o o o o o o o o o o o o o o o o o o n.n.n.n.n.n.n.n.n.n.n.n.n.n.n.",
"n.n.n.n.n.n.n.n.n.n.n.n.n.o o o o o o o o o o o o o o o o o o o o o o o o o o o o o o o o o o o o o o o o o o o o n.n.n.n.n.n.n.n.n.n.n.n.n.n.n.",
"n.n.n.n.n.n.n.n.n.n.n.n.n.o o o o o o o o o o o o o o o o o o o o o o o o o o o o o o o o o o o o o o o o o o o o n.n.n.n.n.n.n.n.n.n.n.n.n.n.n.",
"n.n.n.n.n.n.n.n.n.n.n.n.n.o o o o o o o o o o o o o o o o o o o o o o o o o o o o o o o o o o o o o o o o o o o o n.n.n.n.n.n.n.n.n.n.n.n.n.n.n.",
"n.n.n.n.n.n.n.n.n.n.n.n.n.o o o o o o o o o o o o o o o o o o o o o o o o o o o o o o o o o o o o o o o o o o o o n.n.n.n.n.n.n.n.n.n.n.n.n.n.n.",
"n.n.n.n.n.n.n.n.n.n.n.n.n.o o o o o o o o o o o o o o o o o o o o o o o o o o o o o o o o o o o o o o o o o o o o n.n.n.n.n.n.n.n.n.n.n.n.n.n.n.",
"n.n.n.n.n.n.n.n.n.n.n.n.n.o o o o o o o o o o o o o o o o o o o o o o o o o o o o o o o o o o o o o o o o o o o o n.n.n.n.n.n.n.n.n.n.n.n.n.n.n.",
"n.n.n.n.n.n.n.n.n.n.n.n.n.o o o o o o o o o o o o o o o o o o o o o o o o o o o o o o o o o o o o o o o o o o o o n.n.n.n.n.n.n.n.n.n.n.n.n.n.n.",
"n.n.n.n.n.n.n.n.n.n.n.n.n.o o o o o o o o o o o o o o o o o o o o o o o o o o o o o o o o o o o o o o o o o o o o n.n.n.n.n.n.n.n.n.n.n.n.n.n.n.",
"n.n.n.n.n.n.n.n.n.n.o n.o o o o o o o o o o o o o o o o o o o o o o o o o o o o o o o o o o o o o o o o o o o o o o o o n.n.n.n.n.n.n.n.n.n.n.n.",
"n.n.n.n.n.n.n.n.n.o o o o o o o o o o o o o o o o o o o o o o o o o o o o o o o o o o o o o o o o o o o o o o o o o o o o o n.n.n.n.n.n.n.n.n.n.",
"n.n.n.n.n.n.n.n.n.o o o o o o o o o o o o o o o o o o o o o o o o o o o o o o o o o o o o o o o o o o o o o o o o o o o o o n.n.n.n.n.n.n.n.n.n.",
"n.n.n.n.n.n.n.n.n.o o o o o o o o o o o o o o o o o o o o o o o o o o o o o o o o o o o o o o o o o o o o o o o o o o o o o n.n.n.n.n.n.n.n.n.n.",
"n.n.n.n.n.n.n.n.n.o o o o o o o o o o o o o o o o o o o o o o o o o o o o o o o o o o o o o o o o o o o o o o o o o o o o o n.n.n.n.n.n.n.n.n.n.",
"n.n.n.n.n.n.n.n.n.o o o o o o o o o o o o o o o o o o o o o o o o o o o o o o o o o o o o o o o o o o o o o o o o o o o o o n.n.n.n.n.n.n.n.n.n.",
"n.n.n.n.n.n.n.n.n.o o o o o o o o o o o o o o o o o o o o o o o o o o o o o o o o o o o o o o o o o o o o o o o o o o o o o n.n.n.n.n.n.n.n.n.n.",
"n.n.n.n.n.n.n.n.n.. . . X o o o o o X . . X X X X X X X X X X X X X X X X X X X X X X X X X X X X . . X X o o o o X . . . . n.n.n.n.n.n.n.n.n.n.",
"n.n.n.n.n.n.n.n.n.7 7 7 5 * o o O - 5 7 7 5 1 , , , , , , , , , , , , , , , , , , , , , , , , < 3 7 7 7 1 $ o o + , 7 7 7 6 n.n.n.n.n.n.n.n.n.n.",
"n.n.n.n.n.o o O x ~ o.X.! d @ X # c ( o...) I D F F F F F F F F F F F F F F F F F F F F F F D H R | X...U 0 X o : G } X.| I 7   o o n.n.n.n.n.n.",
"n.n.n.n.o o o O M 3.k.h.7.m # X % S 9.k.h.0.+.) _ _ _ _ _ _ _ _ _ _ _ _ _ _ _ _ _ _ _ _ _ _ ) [ >.s.j.g.@.u . X 2 ' a.j.s.` 8   o o n.n.n.n.n.n.",
"n.n.n.n.o o o O M 5.v.x.8.m @   $ F q.v.z.e.@.` ' ' ' ' ' ' ' ' ' ' ' ' ' ' ' ' ' ' ' ' ' ' ` } ,.h.x.l.#.u   . 1 [ g.x.g.] 8   o o n.n.n.n.n.n.",
"n.n.n.n.o o o O M 5.c.z.8.B ; $ : J q.c.l.e.#.[ [ [ [ [ [ [ [ [ [ [ [ [ [ [ [ [ [ [ [ [ [ [ ]  .<.h.x.l.$.s $ % 9 } f.z.g.] 8   o o n.n.n.n.n.n.",
"n.n.n.n.o o o O M 5.c.z.t./ H D J  .i.z.l.a.3.-.-.-.-.-.-.-.-.-.-.-.-.-.-.-.-.-.-.-.-.-.-.-.-.:.8.j.z.l.4.Y D F P ;.g.z.g.] 8   o o n.n.n.n.n.n.",
"n.n.n.n.o o o O M 5.c.l.j.u.e.e.e.p.j.l.l.k.g.d.d.d.d.d.d.d.d.d.d.d.d.d.d.d.d.d.d.d.d.d.d.d.d.d.h.l.l.l.g.t.w.w.r.d.k.z.g.] 8   o o n.n.n.n.n.n.",
"n.n.n.n.o o o O M 5.c.l.l.z.x.x.x.z.l.l.l.l.z.z.z.z.z.z.z.z.z.z.z.z.z.z.z.z.z.z.z.z.z.z.z.z.z.z.l.l.l.l.l.z.x.x.x.l.l.x.g.] 8   o o n.n.n.n.n.n.",
"n.n.n.n.o o o O N 6.v.x.z.z.z.z.z.z.l.l.l.l.l.l.l.l.l.l.l.l.l.l.l.l.l.l.l.l.l.l.l.l.l.l.l.l.l.l.l.l.l.l.l.z.z.z.z.z.z.c.h.] 8   o o n.n.n.n.n.n.",
"n.n.n.n.n.o o O v O.-.=.=.=.=.*.-.7.g.l.l.l.l.l.l.l.l.l.l.l.l.l.l.l.l.l.l.l.l.l.l.l.l.l.l.l.l.l.l.l.l.l.y.<.=.=.=.=.=.=.&.T 8   o o n.n.n.n.n.n.",
"n.n.n.n.n.n.n.n.n.f g g g g g f j E t.x.l.l.l.l.l.l.l.l.l.l.l.l.l.l.l.l.l.l.l.l.l.l.l.l.l.l.l.l.l.l.l.l.:.C f g g g g g g a n.n.n.n.n.n.n.n.n.n.",
"n.n.n.n.n.n.n.n.n.X X X X X X   $ F q.c.l.l.l.l.l.l.l.l.l.l.l.l.l.l.l.l.l.l.l.l.l.l.l.l.l.l.l.l.l.l.l.l.#.u   . X X X X X X n.n.n.n.n.n.n.n.n.n.",
"n.n.n.n.n.n.n.n.n.o o o o o o . % G e.b.x.x.x.x.x.x.x.x.x.x.x.x.x.x.x.x.x.x.x.x.x.x.x.x.x.x.x.x.x.x.c.x.$.i . o o o o o o o n.n.n.n.n.n.n.n.n.n.",
"n.n.n.n.n.n.n.n.n.o o o o o o X % A 4.t.w.e.e.e.e.e.e.e.e.e.e.e.e.e.e.e.e.e.e.e.e.e.e.e.e.e.e.e.e.e.e.w.o.t . o o o o o o o n.n.n.n.n.n.n.n.n.n.",
"n.n.n.n.n.n.n.n.n.n.n.n.n.o o o @ u Z G F F F F F F F F F F F F F F F F F F F F F F F F F F F F F F F F n < X o o o n.n.n.n.n.n.n.n.n.n.n.n.n.n.",
"n.n.n.n.n.n.n.n.n.n.n.n.n.o o o o @ % % % % % % % % % % % % % % % % % % % % % % % % % % % % % % % % % % $ O o o o n.n.n.n.n.n.n.n.n.n.n.n.n.n.n.",
"n.n.n.n.n.n.n.n.n.n.n.n.n.o o o o o X X X X X X X X X X X X X X X X X X X X X X X X X X X X X X X X X X X o o o o n.n.n.n.n.n.n.n.n.n.n.n.n.n.n.",
"n.n.n.n.n.n.n.n.n.n.n.n.n.o o o o o o o o o o o o o o o o o o o o o o o o o o o o o o o o o o o o o o o o o o o o n.n.n.n.n.n.n.n.n.n.n.n.n.n.n.",
"n.n.n.n.n.n.n.n.n.n.n.n.n.o o o o o o o o o o o o o o o o o o o o o o o o o o o o o o o o o o o o o o o o o o o o o n.n.n.n.n.n.n.n.n.n.n.n.n.n.",
"n.n.n.n.n.n.n.n.n.o o o o o o o o o o o o o o o o o o o o o o o o o o o o o o o o o o o o o o o o o o o o o o o o o o o o o n.n.n.n.n.n.n.n.n.n.",
"n.n.n.n.n.n.n.n.n.o o o o o o o o o o o o o o o o o o o o o o o o o o o o o o o o o o o o o o o o o o o o o o o o o o o o o n.n.n.n.n.n.n.n.n.n.",
"n.n.n.n.n.n.n.n.n.o o o o o o o o o o o o o o o o o o o o o o o o o o o o o o o o o o o o o o o o o o o o o o o o o o o o o n.n.n.n.n.n.n.n.n.n.",
"n.n.n.n.n.n.n.n.n.o o o o o o o o o o o o o o o o o o o o o o o o o o o o o o o o o o o o o o o o o o o o o o o o o o o o o n.n.n.n.n.n.n.n.n.n.",
"n.n.n.n.n.o o o o o o o o o o o o o o o o o o o o o o o o o o o o o o o o o o o o o o o o o o o o o o o o o o o o o o o o o o o o o n.n.n.n.n.n.",
"n.n.n.n.o o o o o o o o o o o o o o o o o o o o o o o o o o o o o o o o o o o o o o o o o o o o o o o o o o o o o o o o o o o o o o n.n.n.n.n.n.",
"n.n.n.n.o o o o o o o o o o o o o o o o o o X X X X X X X X X X X X X X X X X X X X X X X X X X o o o o o o o o o o o o o o o o o o n.n.n.n.n.n.",
"n.n.n.n.o o o o o o o o o o o o o o o o o + $ & & & & & & & & & & & & & & & & & & & & & & & & & # o o o o o o o o o o o o o o o o o n.n.n.n.n.n.",
"n.n.n.n.o o o o o o o o o o o o o o o o o > h N N N N N N N N N N N N N N N N N N N N N N N N b r @ o o o o o o o o o o o o o o o o n.n.n.n.n.n.",
"n.n.n.n.o o o o o o o o o o o o o o o o X 9 K ~ ~ ~ ~ ~ ~ ~ ~ ~ ~ ~ ~ ~ ~ ~ ~ ~ ~ ~ ~ ~ ~ ~ ^ W b % X o o o o o o o o o o o o o o o n.n.n.n.n.n.",
"n.n.n.n.o o o o o o o o o o o o o o o o X w I [ ] ] ] ] ] ] ] ] ] ] ] ] ] ] ] ] ] ] ] ] ] ] [ ~ M & X o o o o o o o o o o o o o o o n.n.n.n.n.n.",
"n.n.n.n.o o o o O + + + + O o o o o o o X q P ` ` ` ` ` ` ` ` ` ` ` ` ` ` ` ` ` ` ` ` ` ` ` ' Q m % X o o o o o o + + + + + o o o o n.n.n.n.n.n.",
"n.n.n.n.n.o o o 6 h l l h 2 O o o o o o o 4 V P L L L L L L L L L L L L L L L L L L L L L L P J h $ X o o o o o $ y j l k p = X o o n.n.n.n.n.n.",
"n.n.n.n.n.n.n.n.n.1.6.6.%.z @ o o o o o o # , 5 4 4 4 4 4 4 4 4 4 4 4 4 4 4 4 4 4 4 4 4 4 4 5 3 - O o o o o o X < R 2.6.4.-.n.n.n.n.n.n.n.n.n.n.",
"n.n.n.n.n.n.n.n.n.l.l.z.8.M # o o o o o o o o o o o o o o o o o o o o o o o o o o o o o o o o o o o o o o o o X 2 { f.l.l.l.n.n.n.n.n.n.n.n.n.n.",
"n.n.n.n.n.n.n.n.n.l.l.z.8.N # o o o o o o o o o o o o o o o o o o o o o o o o o o o o o o o o o o o o o o o o X 2 { g.l.l.l.n.n.n.n.n.n.n.n.n.n.",
"n.n.n.n.n.n.n.n.n.l.l.z.7.v @ o o o o o o o o o o o o o o o o o o o o o o o o o o o o o o o o o o o o o o o o o < / f.l.l.l.n.n.n.n.n.n.n.n.n.n.",
"n.n.n.n.n.n.n.n.n.n.n.n.n.e O o o o o o o o o o o o o o o o o o o o o o o o o o o o o o o o o o o o o o o o o o & Z n.n.n.n.n.n.n.n.n.n.n.n.n.n.",
"n.n.n.n.n.n.n.n.n.n.n.n.n.O o o o o o o o o o o o o o o o o o o o o o o o o o o o o o o o o o o o o o o o o o o o n.n.n.n.n.n.n.n.n.n.n.n.n.n.n.",
"n.n.n.n.n.n.n.n.n.n.n.n.n.o o o o o o o o o o o o o o o o o o o o o o o o o o o o o o o o o o o o o o o o o o o o n.n.n.n.n.n.n.n.n.n.n.n.n.n.n.",
"n.n.n.n.n.n.n.n.n.n.n.n.n.o o o o o o o o o o o o o o o o o o o o o o o o o o o o o o o o o o o o o o o o o o o o n.n.n.n.n.n.n.n.n.n.n.n.n.n.n.",
"n.n.n.n.n.n.n.n.n.n.n.n.n.o o o o o o o o o o o o o o o o o o o o o o o o o o o o o o o o o o o o o o o o o o o o n.n.n.n.n.n.n.n.n.n.n.n.n.n.n.",
"n.n.n.n.n.n.n.n.n.n.n.n.n.o o o o o o o o o o o o o o o o o o n.n.n.n.n.n.n.n.n.o o o o o o o o o o o o o o o o o n.n.n.n.n.n.n.n.n.n.n.n.n.n.n.",
"n.n.n.n.n.n.n.n.n.n.n.n.n.o o o o o o o o o o o o o o o o o o n.n.n.n.n.n.n.n.n.o o o o o o o o o o o o o o o o o n.n.n.n.n.n.n.n.n.n.n.n.n.n.n.",
"n.n.n.n.n.n.n.n.n.n.n.n.n.o o o o o o o o o o o o o o o o o o n.n.n.n.n.n.n.n.n.o o o o o o o o o o o o o o o o o n.n.n.n.n.n.n.n.n.n.n.n.n.n.n.",
"n.n.n.n.n.n.n.n.n.n.n.n.n.o o o o o o o o o o o o o o o o o o n.n.n.n.n.n.n.n.n.o o o o o o o o o o o o o o o o o n.n.n.n.n.n.n.n.n.n.n.n.n.n.n."
};
