/* XPM */
static char *result[] = {
/* columns rows colors chars-per-pixel */
"80 81 247 2 ",
"   c #0A0B0B",
".  c #0B0C0C",
"X  c #0C0D0D",
"o  c #0D0E0E",
"O  c #0D0F0F",
"+  c #0E0F0F",
"@  c #0F1010",
"#  c #101111",
"$  c #111212",
"%  c #121313",
"&  c #131414",
"*  c #141515",
"=  c #151616",
"-  c #161717",
";  c #171818",
":  c #181919",
">  c #191A1A",
",  c #1B1B1B",
"<  c #1B1C1C",
"1  c gray11",
"2  c #1C1D1D",
"3  c #1D1D1D",
"4  c #1D1E1E",
"5  c #1E1F1F",
"6  c #1F2020",
"7  c #202121",
"8  c #212222",
"9  c #232424",
"0  c #242525",
"q  c #252626",
"w  c #262727",
"e  c #282929",
"r  c gray16",
"t  c #292A2A",
"y  c #2A2B2B",
"u  c #2B2C2C",
"i  c #2C2D2D",
"p  c #2D2E2E",
"a  c #2E2F2F",
"s  c #2F3030",
"d  c #303131",
"f  c #313232",
"g  c #333434",
"h  c #343434",
"j  c #343535",
"k  c #353636",
"l  c gray21",
"z  c #363737",
"x  c #373838",
"c  c gray22",
"v  c #383939",
"b  c #393A3A",
"n  c #3A3B3B",
"m  c gray23",
"M  c #3B3C3C",
"N  c #3C3D3D",
"B  c #3E3E3E",
"V  c #3E3F3F",
"C  c #3F3F3F",
"Z  c #3F4040",
"A  c gray25",
"S  c #404141",
"D  c #444545",
"F  c #464646",
"G  c #464747",
"H  c gray28",
"J  c #474848",
"K  c #484848",
"L  c #484949",
"P  c #494949",
"I  c #494A4A",
"U  c gray29",
"Y  c #4A4B4B",
"T  c #4C4C4C",
"R  c #4C4D4D",
"E  c gray30",
"W  c #4E4E4E",
"Q  c #4E4F4F",
"!  c gray31",
"~  c #4F5050",
"^  c #505050",
"/  c #505151",
"(  c #515252",
")  c #525353",
"_  c #535454",
"`  c #545555",
"'  c #555656",
"]  c #565757",
"[  c gray34",
"{  c #575858",
"}  c #585959",
"|  c #595A5A",
" . c #5A5B5B",
".. c #5B5B5B",
"X. c #5B5C5C",
"o. c gray36",
"O. c #5C5D5D",
"+. c #5D5E5E",
"@. c gray37",
"#. c gray38",
"$. c gray39",
"%. c #646464",
"&. c #646565",
"*. c #656565",
"=. c gray40",
"-. c #666767",
";. c #676767",
":. c #686868",
">. c #696A6A",
",. c #6A6A6A",
"<. c #6A6B6B",
"1. c gray42",
"2. c #6B6C6C",
"3. c #6D6D6D",
"4. c #6F7070",
"5. c gray44",
"6. c #707171",
"7. c #717171",
"8. c #717272",
"9. c #727272",
"0. c #727373",
"q. c gray45",
"w. c #737474",
"e. c #747575",
"r. c gray46",
"t. c #757676",
"y. c #767676",
"u. c #767777",
"i. c #777777",
"p. c #777878",
"a. c gray47",
"s. c #797979",
"d. c gray48",
"f. c #7C7D7D",
"g. c #7E7E7E",
"h. c gray50",
"j. c #808080",
"k. c #818181",
"l. c #818282",
"z. c gray51",
"x. c #828383",
"c. c #838383",
"v. c #838484",
"b. c #848484",
"n. c gray52",
"m. c #868686",
"M. c gray53",
"N. c #878888",
"B. c #888888",
"V. c #888989",
"C. c #898989",
"Z. c #898A8A",
"A. c gray54",
"S. c #8B8C8C",
"D. c #8E8E8E",
"F. c gray56",
"G. c #8F9090",
"H. c #909090",
"J. c #909191",
"K. c gray57",
"L. c #919292",
"P. c #929292",
"I. c #939393",
"U. c #939494",
"Y. c gray58",
"T. c #959595",
"R. c gray59",
"E. c #969797",
"W. c #979797",
"Q. c #989898",
"!. c #999898",
"~. c gray60",
"^. c #9A9A9A",
"/. c #9B9A9A",
"(. c #9B9B9B",
"). c gray61",
"_. c #9D9D9D",
"`. c #9D9E9E",
"'. c #9E9F9F",
"]. c #A0A0A0",
"[. c #A0A1A1",
"{. c #A2A2A2",
"}. c gray64",
"|. c #A5A5A5",
" X c #A5A6A6",
".X c gray65",
"XX c #A7A7A7",
"oX c #A9A9A9",
"OX c #AAAAAA",
"+X c #AAABAB",
"@X c gray67",
"#X c #ABACAC",
"$X c #ACACAC",
"%X c #ACADAD",
"&X c gray68",
"*X c #ADAEAE",
"=X c #AEAEAE",
"-X c #AFAFAF",
";X c gray69",
":X c #B1B1B1",
">X c #B2B2B2",
",X c gray70",
"<X c #B4B4B4",
"1X c #B4B5B5",
"2X c gray71",
"3X c #B5B6B6",
"4X c #B6B6B6",
"5X c #B7B7B7",
"6X c #B7B8B8",
"7X c gray72",
"8X c #B9B9B9",
"9X c gray73",
"0X c #BBBBBB",
"qX c #BCBCBC",
"wX c gray",
"eX c gray75",
"rX c #C1C1C1",
"tX c gray77",
"yX c #C5C5C5",
"uX c gray78",
"iX c #CDCDCD",
"pX c #D0D0D0",
"aX c gray82",
"sX c #D2D2D2",
"dX c LightGray",
"fX c gray83",
"gX c #D5D5D5",
"hX c #DADADA",
"jX c gray88",
"kX c #E1E1E1",
"lX c #E2E2E2",
"zX c gray89",
"xX c #E4E4E4",
"cX c gray90",
"vX c #E6E6E6",
"bX c #E7E7E7",
"nX c gray91",
"mX c #E9E9E9",
"MX c #EAEAEA",
"NX c gray92",
"BX c #ECEBEB",
"VX c #ECECEC",
"CX c gray93",
"ZX c #EEEEEE",
"AX c #EFEFEF",
"SX c #F0EFEF",
"DX c None",
/* pixels */
"DXDXDXDXDXDXDXDXDXDXDXDXDXDXDXDXDXDXDXDXDXDXDXDXDXDXDXDXDXDX$ $ $ $ $ $ $ $ $ $ $ $ $ $ $ $ $ $ $ $ DXDXDXDXDXDXDXDXDXDXDXDXDXDXDXDXDXDXDXDXDXDXDXDXDXDXDXDXDXDX",
"DXDXDXDXDXDXDXDXDXDXDXDXDXDXDXDXDXDXDXDXDXDXDXDXDXDXDXDXDXDX$ $ $ $ $ $ $ $ $ $ $ $ $ $ $ $ $ $ $ $ DXDXDXDXDXDXDXDXDXDXDXDXDXDXDXDXDXDXDXDXDXDXDXDXDXDXDXDXDXDX",
"DXDXDXDXDXDXDXDXDXDXDXDXDXDXDXDXDXDXDXDXDXDXDXDXDXDXDXDXDXDX$ $ $ $ $ $ $ $ $ $ $ $ $ $ $ $ $ $ $ $ DXDXDXDXDXDXDXDXDXDXDXDXDXDXDXDXDXDXDXDXDXDXDXDXDXDXDXDXDXDX",
"DXDXDXDXDXDXDXDXDXDXDXDXDXDXDXDXDXDXDXDXDXDXDXDXDXDXDXDXDXDX# # # # # # # # # # # # # # # # # # # # DXDXDXDXDXDXDXDXDXDXDXDXDXDXDXDXDXDXDXDXDXDXDXDXDXDXDXDXDXDX",
"DXDXDXDXDXDXDXDXDXDXDXDXDXDXDXDXDXDXDXDXDXDXDXDXDXDXDXDXDXDX6 6 6 6 6 6 6 6 6 6 6 6 6 6 6 6 6 6 6 5 DXDXDXDXDXDXDXDXDXDXDXDXDXDXDXDXDXDXDXDXDXDXDXDXDXDXDXDXDXDX",
"DXDXDXDXDXDXDXDXDXDXDXDXDXDXDXDXDXDXDXDX$ $ $ $ $ $ $ $ @ z b.m.m.m.m.m.m.m.m.m.m.m.m.m.m.m.m.m.N.:.* $ $ $ $ $ $ $ $ $ DXDXDXDXDXDXDXDXDXDXDXDXDXDXDXDXDXDXDXDX",
"DXDXDXDXDXDXDXDXDXDXDXDXDXDXDXDXDXDXDXDX$ $ $ $ $ $ $ $ @ c W.~.~.~.~.~.~.~.~.~.~.~.~.~.~.~.~.~.(.9.* $ $ $ $ $ $ $ $ $ DXDXDXDXDXDXDXDXDXDXDXDXDXDXDXDXDXDXDXDX",
"DXDXDXDXDXDXDXDXDXDXDXDXDXDXDXDXDXDXDXDX$ $ $ $ $ $ $ $ @ x T.Q.Q.Q.Q.Q.Q.Q.Q.Q.Q.Q.Q.Q.Q.Q.Q.Q.^.9.* $ $ $ $ $ $ $ $ $ DXDXDXDXDXDXDXDXDXDXDXDXDXDXDXDXDXDXDXDX",
"DXDXDXDXDXDXDXDXDXDXDXDXDXDXDXDXDXDXDXDX# # # # # # # # + x T.Q.Q.Q.Q.Q.Q.Q.Q.Q.Q.Q.Q.Q.Q.Q.Q.Q.^.8.& # # # # # # # # # DXDXDXDXDXDXDXDXDXDXDXDXDXDXDXDXDXDXDXDX",
"DXDXDXDXDXDXDXDXDXDXDXDXDXDXDXDXDXDXDXDX4 4 4 4 4 4 4 4 < A R.Q.Q.Q.Q.Q.Q.Q.Q.Q.Q.Q.Q.Q.Q.Q.Q.Q.^.r.6 3 4 4 4 4 4 4 4 2 DXDXDXDXDXDXDXDXDXDXDXDXDXDXDXDXDXDXDXDX",
"DXDXDXDXDXDXDXDXDXDXDXDXDXDXDX$ $ $ @ l l.v.c.c.c.c.c.c.c.C.Q.Q.Q.Q.Q.Q.Q.Q.Q.Q.Q.Q.Q.Q.Q.Q.Q.Q.Q.P.b.c.c.c.c.c.c.c.n.-.* $ $ $ $ DXDXDXDXDXDXDXDXDXDXDXDXDXDXDX",
"DXDXDXDXDXDXDXDXDXDXDXDXDXDXDX$ $ $ @ c W.^.~.~.~.~.~.~.~.~.Q.Q.Q.Q.Q.Q.Q.Q.Q.Q.Q.Q.Q.Q.Q.Q.Q.Q.Q.Q.~.~.~.~.~.~.~.~.).9.* $ $ $ $ DXDXDXDXDXDXDXDXDXDXDXDXDXDXDX",
"DXDXDXDXDXDXDXDXDXDXDXDXDXDXDX$ $ $ @ x T.Q.Q.Q.Q.Q.Q.Q.Q.Q.Q.Q.Q.Q.Q.Q.Q.Q.Q.Q.Q.Q.Q.Q.Q.Q.Q.Q.Q.Q.Q.Q.Q.Q.Q.Q.Q.Q.^.9.* $ $ $ $ DXDXDXDXDXDXDXDXDXDXDXDXDXDXDX",
"DXDXDXDXDXDXDXDXDXDXDXDXDXDXDX# # # + x T.Q.Q.Q.Q.Q.Q.Q.Q.Q.Q.Q.Q.Q.Q.~.~.~.~.Q.Q.Q.Q.Q.Q.Q.Q.Q.Q.Q.Q.Q.Q.Q.Q.Q.Q.Q.^.8.& # # # # DXDXDXDXDXDXDXDXDXDXDXDXDXDXDX",
"DXDXDXDXDXDXDXDXDXDXDXDXDXDXDX< < < > V R.Q.Q.Q.Q.Q.Q.Q.Q.Q.Q.Q.Q.Q.T.D.D.D.D.K.Q.Q.Q.Q.Q.Q.Q.Q.Q.Q.Q.Q.Q.Q.Q.Q.Q.Q.^.e.4 < < < , DXDXDXDXDXDXDXDXDXDXDXDXDXDXDX",
"DXDXDXDXDXDXDXDXDXDX$ $ $ @ k h.k.k.j.M.Q.Q.Q.Q.Q.Q.Q.Q.Q.Q.Q.Q.Q.^.a.y e e w L R.Q.Q.Q.Q.Q.Q.Q.Q.Q.Q.Q.Q.Q.Q.Q.Q.Q.Q.K.k.k.k.z.*.* $ $ $ $ DXDXDXDXDXDXDXDXDXDX",
"DXDXDXDXDXDXDXDXDXDX$ $ $ @ c W.^.^.^.~.Q.Q.Q.Q.Q.Q.Q.Q.Q.Q.Q.Q.Q.^.7.% @ @ o z T.Q.Q.Q.Q.Q.Q.Q.Q.Q.Q.Q.Q.Q.Q.Q.Q.Q.Q.Q.~.^.^.).0.* $ $ $ $ DXDXDXDXDXDXDXDXDXDX",
"DXDXDXDXDXDXDXDXDXDX$ $ $ @ x T.Q.Q.Q.Q.Q.Q.Q.Q.Q.Q.Q.Q.Q.Q.Q.Q.Q.^.9.* $ $ @ x T.Q.Q.Q.Q.Q.Q.Q.Q.Q.Q.Q.Q.Q.Q.Q.Q.Q.Q.Q.Q.Q.Q.^.9.* $ $ $ $ DXDXDXDXDXDXDXDXDXDX",
"DXDXDXDXDXDXDXDXDXDX$ $ $ @ x T.Q.Q.Q.Q.Q.Q.Q.Q.Q.Q.Q.Q.Q.Q.Q.!.!.(.9.& # # + x R.~.!.~.Q.Q.Q.Q.Q.Q.Q.Q.Q.Q.Q.Q.Q.Q.Q.Q.Q.Q.Q.^.9.* $ $ $ $ DXDXDXDXDXDXDXDXDXDX",
"DXDXDXDXDXDXDXDXDXDX$ $ $ @ x T.Q.Q.Q.Q.Q.Q.Q.Q.Q.Q.Q.Q.Q.R.H.H.H.P.4.7 5 5 2 V D.H.H.H.P.Q.Q.Q.Q.Q.Q.Q.Q.Q.Q.Q.Q.Q.Q.Q.Q.Q.Q.^.9.* $ $ $ $ DXDXDXDXDXDXDXDXDXDX",
"DXDXDXDXDXDXDXDXDXDX$ $ $ @ x T.Q.Q.Q.Q.Q.Q.Q.Q.Q.Q.Q.Q.^.s.p u u r ' qXeXeXrXT.a u u t Y R.Q.Q.Q.Q.Q.Q.Q.Q.Q.Q.Q.Q.Q.Q.Q.Q.Q.^.9.* $ $ $ $ DXDXDXDXDXDXDXDXDXDX",
"DXDXDXDXDXDXDXDXDXDX$ $ $ @ x T.Q.Q.Q.Q.Q.Q.Q.Q.Q.Q.Q.Q.^.7.% @ @ X Q vXNXNXZX$X* @ @ o z T.Q.Q.Q.Q.Q.Q.Q.Q.Q.Q.Q.Q.Q.Q.Q.Q.Q.^.9.* $ $ $ $ DXDXDXDXDXDXDXDXDXDX",
"DXDXDXDXDXDXDXDXDXDX$ $ $ @ x T.Q.Q.Q.Q.Q.Q.Q.Q.Q.Q.Q.Q.^.9.* $ $ o Q xXnXnXVX@X= $ $ @ x T.Q.Q.Q.Q.Q.Q.Q.Q.Q.Q.Q.Q.Q.Q.Q.Q.Q.^.9.* $ $ $ $ DXDXDXDXDXDXDXDXDXDX",
"DXDXDXDXDXDXDXDXDXDX$ $ $ @ x T.Q.Q.Q.Q.Q.Q.Q.Q.Q.Q.Q.Q.(.9.* $ $ o Q xXnXnXVX@X= $ $ @ c R.~.Q.Q.Q.Q.Q.Q.Q.Q.Q.Q.Q.Q.Q.Q.Q.Q.^.9.* $ $ $ $ DXDXDXDXDXDXDXDXDXDX",
"DXDXDXDXDXDXDXDXDXDX$ $ $ @ x T.Q.Q.Q.R.P.L.L.L.L.L.L.L.Y.3.* $ $ o Q xXnXnXVX@X= $ $ @ l F.P.L.L.L.L.L.L.L.L.L.L.L.K.I.Q.Q.Q.^.9.* $ $ $ $ DXDXDXDXDXDXDXDXDXDX",
"DXDXDXDXDXDXDXDXDXDX$ $ $ @ x T.Q.Q.^.d.d a a a a a a a a w % $ $ o Q xXnXnXVX@X= $ $ $ > p a a a a a a a a a a a a i R R.Q.Q.^.9.* $ $ $ $ DXDXDXDXDXDXDXDXDXDX",
"DXDXDXDXDXDXDXDXDXDX$ $ $ @ x T.Q.Q.^.7.% @ @ @ @ @ @ @ @ # $ $ $ o Q xXnXnXVX@X= $ $ $ # @ @ @ @ @ @ @ @ @ @ @ @ @ o z T.Q.Q.^.9.* $ $ $ $ DXDXDXDXDXDXDXDXDXDX",
"DXDXDXDXDXDXDXDXDXDX$ $ $ @ x T.Q.Q.^.9.* $ $ $ $ $ $ $ $ $ $ $ $ o Q xXnXnXVX@X= $ $ $ $ $ $ $ $ $ $ $ $ $ $ $ $ $ @ x T.Q.Q.^.9.* $ $ $ $ DXDXDXDXDXDXDXDXDXDX",
"DXDXDXDXDXDXDXDXDXDX$ $ $ + x R.Q.Q.(.9.& # $ $ $ $ $ $ $ $ $ $ $ o Q xXnXnXVX@X= # $ $ $ $ $ $ $ $ $ $ $ $ $ $ $ $ + x R.Q.Q.(.9.& # $ $ $ DXDXDXDXDXDXDXDXDXDX",
"DXDXDXDXDXDXDXDXDXDX> > > ; N J.I.I.T.5.1 > > > > > > > > > > > > - ` xXnXnXNX&X4 > > > > > > > > > > > > > > > > > ; N J.I.I.T.5.1 > > > > DXDXDXDXDXDXDXDXDXDX",
"DXDXDXDXDX$ $ $ o I ,X3X2X6XG.h f f s [ ,X3X2X2X2X2X2X2X2X2X2X2X2X1XtXbXnXnXmXhX4X2X2X2X2X2X2X2X2X2X2X2X2X2X2X2X2X2X6XG.h f f s [ ,X3X2X5XF.= $ $ $ $ DXDXDXDXDX",
"DXDXDXDXDX$ $ $ o ! bXNXNXAX%X& @ @ . W bXNXNXNXNXNXNXNXNXNXNXNXNXNXMXnXnXnXnXmXNXNXNXNXNXNXNXNXNXNXNXNXNXNXNXNXNXNXAX%X& @ @ . W bXNXNXAX%X= $ $ $ $ DXDXDXDXDX",
"DXDXDXDXDX$ $ $ o Q xXnXnXVX@X= $ $ o Q xXnXnXnXnXnXnXnXnXnXnXnXnXnXnXnXnXnXnXnXnXnXnXnXnXnXnXnXnXnXnXnXnXnXnXnXnXnXVX@X= $ $ o Q xXnXnXVX@X= $ $ $ $ DXDXDXDXDX",
"DXDXDXDXDX$ $ $ o Q xXnXnXVX@X= $ $ o Q xXnXnXnXnXnXnXnXnXnXnXnXnXnXnXnXnXnXnXnXnXnXnXnXnXnXnXnXnXnXnXnXnXnXnXnXnXnXVX@X= $ $ o Q xXnXnXVX@X= $ $ $ $ DXDXDXDXDX",
"DXDXDXDXDX$ $ $ o Q xXnXnXNX$X> = = $ ( xXnXnXnXnXnXnXnXnXvXlXlXlXlXxXnXnXnXnXnXnXnXnXnXvXlXlXlXlXxXnXnXnXnXnXnXnXnXNX$X> = = $ ( xXnXnXVX@X= $ $ $ $ DXDXDXDXDX",
"DXDXDXDXDX$ $ $ o Q xXnXnXMXuXi.r.r.q.R.vXnXnXnXnXnXnXnXNX0XR P I G u.cXnXnXnXnXnXnXnXNX0XR P I G u.cXnXnXnXnXnXnXnXMXuXi.r.r.q.R.vXnXnXVX@X= $ $ $ $ DXDXDXDXDX",
"DXDXDXDXDX$ $ $ o Q xXnXnXmXsX).^.^.~.;XvXnXnXnXnXnXnXnXVXOX% o +   R xXnXnXnXnXnXnXnXVXOX% o +   R xXnXnXnXnXnXnXnXmXsX).^.^.~.;XvXnXnXVX@X= $ $ $ $ DXDXDXDXDX",
"DXDXDXDXDX$ $ $ o Q xXnXnXmXaX^.Q.Q.W.-XvXnXnXnXnXnXnXnXVX@X= $ $ o Q xXnXnXnXnXnXnXnXVX@X= $ $ o Q xXnXnXnXnXnXnXnXmXaX^.Q.Q.W.-XvXnXnXVX@X= $ $ $ $ DXDXDXDXDX",
"DXDXDXDXDX$ $ $ o Q xXnXnXMXaX^.Q.Q.W.-XvXnXnXnXnXnXnXnXVX@X= $ $ o Q xXnXnXnXnXnXnXnXVX@X= $ $ o Q xXnXnXnXnXnXnXnXmXaX^.Q.Q.W.-XbXnXnXVX@X= $ $ $ $ DXDXDXDXDX",
"DXDXDXDXDX$ $ $ o Q jXxXxXcXiXW.T.T.Y.&XvXnXnXnXnXnXnXnXVX@X= $ $ o Q xXnXnXnXnXnXnXnXVX@X= $ $ o Q xXnXnXnXnXnXnXnXmXpXW.T.T.Y.$XlXxXxXbXoX= $ $ $ $ DXDXDXDXDX",
"DXDXDXDXDXDXDXDXDXDXW Q Q Q K c x x j ,.cXnXnXnXnXnXnXnXVX@X= $ $ o Q xXnXnXnXnXnXnXnXVX@X= $ $ o Q xXnXnXnXnXnXnXnXNX4Xm x x x B W Q Q Q L DXDXDXDXDXDXDXDXDXDX",
"DXDXDXDXDXDXDXDXDXDXo o o o + @ @ @ . E xXnXnXnXnXnXnXnXVX@X= $ $ o Q xXnXnXnXnXnXnXnXVX@X= $ $ o Q xXnXnXnXnXnXnXnXVXOX& @ @ @ + O o o o o DXDXDXDXDXDXDXDXDXDX",
"DXDXDXDXDXDXDXDXDXDX$ $ $ $ $ $ $ $ o Q xXnXnXnXnXnXnXnXVX@X= $ $ o Q xXnXnXnXnXnXnXnXVX@X= $ $ o Q xXnXnXnXnXnXnXnXVX@X= $ $ $ $ $ $ $ $ $ DXDXDXDXDXDXDXDXDXDX",
"DXDXDXDXDXDXDXDXDXDX$ $ $ $ $ $ $ $ o Q xXnXnXnXnXnXnXnXVX@X= $ $ o Q xXnXnXnXnXnXnXnXVX@X= $ $ o Q xXnXnXnXnXnXnXnXVX@X= $ $ $ $ $ $ $ $ $ DXDXDXDXDXDXDXDXDXDX",
"DXDXDXDXDXDXDXDXDXDX$ $ $ $ $ $ $ $ O W kXvXcXcXvXnXnXnXBX#X: & * # / zXbXbXbXbXbXbXbXMX@X: & * # / xXnXnXnXbXcXcXcXmXoX= $ $ $ $ $ $ $ $ $ DXDXDXDXDXDXDXDXDXDX",
"DXDXDXDXDXDXDXDXDXDX$ $ $ $ $ $ $ $ # 0 ) _ _ ( g.cXnXnXmXgXXX.X.X XoX;X:X:X:X:X:X:X:X:X=X.X.X.X|.8XbXnXnXMXwX] _ _ ` S % $ $ $ $ $ $ $ $ $ DXDXDXDXDXDXDXDXDXDX",
"DXDXDXDXDXDXDXDXDXDX$ $ $ $ $ $ $ $ $ # o o o   T xXnXnXnXmXVXVXVXCXdXQ.W.W.W.W.W.W.W.T.-XMXVXVXVXNXnXnXnXVXOX% o o o + $ $ $ $ $ $ $ $ $ $ DXDXDXDXDXDXDXDXDXDX",
"DXDXDXDXDXDXDXDXDXDX$ $ $ $ $ $ $ $ $ $ $ $ $ o Q xXnXnXnXnXnXnXnXmXaX^.Q.Q.Q.Q.Q.Q.Q.W.-XvXnXnXnXnXnXnXnXVX@X= $ $ $ $ $ $ $ $ $ $ $ $ $ $ DXDXDXDXDXDXDXDXDXDX",
"DXDXDXDXDXDXDXDXDXDX$ $ $ $ $ $ $ $ $ $ $ $ $ o Q xXnXnXnXnXnXnXnXmXaX^.Q.Q.Q.Q.Q.Q.Q.W.-XvXnXnXnXnXnXnXnXVX@X= $ $ $ $ $ $ $ $ $ $ $ $ $ $ DXDXDXDXDXDXDXDXDXDX",
"DXDXDXDXDXDXDXDXDXDX% % % % % % % % % % $ $ $ o Q zXbXbXbXbXbXbXbXnXpX~.W.W.W.W.W.W.W.R.=XcXbXbXbXbXbXbXbXMXOX= $ $ $ $ % % % % % % % % % % DXDXDXDXDXDXDXDXDXDX",
"DXDXDXDXDX$ $ $ o H '.[.].].].].].].}.p.* $ $ # q { | | | | | | | | ( C V V V V V V V B F } | | | | | | |  .D % $ $ @ n `.[.].].].].].].{.x.= $ $ $ DXDXDXDXDXDX",
"DXDXDXDXDX$ $ $ o ! bXVXVXVXVXVXVXVXAX*X= $ $ $ # o o o o o o o o o + @ @ @ @ @ @ @ @ @ + o o o o o o o o o + $ $ $ o ~ nXVXVXVXVXVXVXVXSX&X= $ $ $ $ DXDXDXDXDX",
"DXDXDXDXDX$ $ $ o Q xXnXnXnXnXnXnXnXVX@X= $ $ $ $ $ $ $ $ $ $ $ $ $ $ $ $ $ $ $ $ $ $ $ $ $ $ $ $ $ $ $ $ $ $ $ $ $ o Q xXnXnXnXnXnXnXnXVX@X= $ $ $ $ DXDXDXDXDX",
"DXDXDXDXDX$ $ $ o Q xXnXnXnXnXnXnXnXVX@X= $ $ $ $ $ $ $ $ $ $ $ $ $ $ $ $ $ $ $ $ $ $ $ $ $ $ $ $ $ $ $ $ $ $ $ $ $ o Q xXnXnXnXnXnXnXnXVX@X= $ $ $ $ DXDXDXDXDX",
"DXDXDXDXDX$ $ $ o Q xXnXnXnXnXnXnXnXVX@X= $ $ $ $ $ $ $ $ $ $ $ $ $ $ $ $ $ $ $ $ $ $ $ $ $ $ $ $ $ $ $ $ $ $ $ $ $ o Q xXnXnXnXnXnXnXnXVX@X= $ $ $ $ DXDXDXDXDX",
"DXDXDXDXDX$ $ $ o Q xXnXnXnXnXnXnXnXVX@X= $ $ @ v Q.(.(.(.(.(.(.(._.w.* $ $ $ $ $ $ $ @ v Q.(.(.(.(.(.(.(._.w.* $ $ o Q xXnXnXnXnXnXnXnXVX@X= $ $ $ $ DXDXDXDXDX",
"DXDXDXDXDX$ $ $ o Q xXnXnXnXnXnXnXnXVX@X= $ $ o ~ nXVXVXVXVXVXVXVXSX=X= $ $ $ $ $ $ $ o ~ nXVXVXVXVXVXVXVXSX=X= $ $ o Q xXnXnXnXnXnXnXnXVX@X= $ $ $ $ DXDXDXDXDX",
"DXDXDXDXDX$ $ $ o Q xXnXnXnXnXnXnXnXVX@X= $ $ o Q xXnXnXnXnXnXnXnXVX@X= $ $ $ $ $ $ $ o Q xXnXnXnXnXnXnXnXVX@X= $ $ o Q xXnXnXnXnXnXnXnXVX@X= $ $ $ $ DXDXDXDXDX",
"DXDXDXDXDX$ $ $ o Q xXnXnXnXnXnXnXnXVX@X= $ $ o Q xXnXnXnXnXnXnXnXVX@X= $ $ $ $ $ $ $ o Q xXnXnXnXnXnXnXnXVX@X= $ $ o Q xXnXnXnXnXnXnXnXVX@X= $ $ $ $ DXDXDXDXDX",
"DXDXDXDXDX$ $ $ o Q cXmXmXmXmXmXmXmXVX#X= $ $ o Q xXmXnXnXnXnXnXnXVX+X* # # # # # # # o W xXnXnXnXnXnXnXnXVX@X= $ $ o ! cXmXmXmXmXmXmXmXVX@X= $ $ $ $ DXDXDXDXDX",
"DXDXDXDXDXDXDXDXDXM %.&.&.&.&.&.&.&.=.R & $ $ + S <X5X5X4XyXbXnXnXmXpXE.T.T.T.T.T.T.T.U.&XvXnXnXmXhX7X5X5X9XB.* $ $ # t $.&.&.&.&.&.&.&.*.| DXDXDXDXDXDXDXDXDXDX",
"DXDXDXDXDXDXDXDXDXDXo o o o o o o o o + $ $ $ @ x Y.W.W.T.=XvXnXnXnXmXVXVXVXVXVXVXVXVXVXNXnXnXnXmXaXQ.R.W.~.6.* $ $ $ # o o o o o o o o o o DXDXDXDXDXDXDXDXDXDX",
"DXDXDXDXDXDXDXDXDXDX$ $ $ $ $ $ $ $ $ $ $ $ $ @ x T.Q.Q.W.-XvXnXnXnXnXnXnXnXnXnXnXnXnXnXnXnXnXnXmXaX^.Q.Q.^.9.* $ $ $ $ $ $ $ $ $ $ $ $ $ $ DXDXDXDXDXDXDXDXDXDX",
"DXDXDXDXDXDXDXDXDXDX$ $ $ $ $ $ $ $ $ $ $ $ $ @ x T.Q.Q.W.-XvXnXnXnXnXnXnXnXnXnXnXnXnXnXnXnXnXnXmXaX^.Q.Q.^.9.* $ $ $ $ $ $ $ $ $ $ $ $ $ $ DXDXDXDXDXDXDXDXDXDX",
"DXDXDXDXDXDXDXDXDXDX$ $ $ $ $ $ $ $ $ $ $ $ $ @ c R.~.~.Q.;XnXMXMXMXMXMXMXMXMXMXMXMXMXMXMXMXMXMXNXdX(.~.~.(.0.* $ $ $ $ $ $ $ $ $ $ $ $ $ $ DXDXDXDXDXDXDXDXDXDX",
"DXDXDXDXDXDXDXDXDXDXDXDXDXDX$ $ $ $ $ $ $ $ $ # 8 K I P L ) >.<.<.<.<.<.<.<.<.<.<.<.<.<.<.<.<.<.1.#.U P P U b % $ $ $ $ $ $ $ $ $ DXDXDXDXDXDXDXDXDXDXDXDXDXDXDX",
"DXDXDXDXDXDXDXDXDXDXDXDXDXDXDX$ $ $ $ $ $ $ $ $ # @ @ @ @ + o o o o o o o o o o o o o o o o o o o + @ @ @ @ @ $ $ $ $ $ $ $ $ $ $ DXDXDXDXDXDXDXDXDXDXDXDXDXDXDX",
"DXDXDXDXDXDXDXDXDXDXDXDXDXDXDX$ $ $ $ $ $ $ $ $ $ $ $ $ $ $ $ $ $ $ $ $ $ $ $ $ $ $ $ $ $ $ $ $ $ $ $ $ $ $ $ $ $ $ $ $ $ $ $ $ $ DXDXDXDXDXDXDXDXDXDXDXDXDXDXDX",
"DXDXDXDXDXDXDXDXDXDXDXDXDXDXDX$ $ $ $ $ $ $ $ $ $ $ $ $ $ $ $ $ $ $ $ $ $ $ $ $ $ $ $ $ $ $ $ $ $ $ $ $ $ $ $ $ $ $ $ $ $ $ $ $ $ DXDXDXDXDXDXDXDXDXDXDXDXDXDXDX",
"DXDXDXDXDXDXDXDXDXDXDXDXDXDXDX$ $ $ $ # @ @ @ @ @ # # # # # $ $ $ $ $ $ $ $ $ $ $ $ $ $ $ $ $ $ $ $ # # # # @ @ @ @ @ @ $ $ $ $ $ DXDXDXDXDXDXDXDXDXDXDXDXDXDXDX",
"DXDXDXDXDXDXDXDXDXDXDXDXDXDXDX$ $ $ @ g M.Z.Z.A.f.+.O.O.@.J % $ $ $ $ $ $ $ $ $ $ $ $ $ $ $ $ $ # w ..O.O.o.>.V.Z.Z.S.;.& $ $ $ $ DXDXDXDXDXDXDXDXDXDXDXDXDXDXDX",
"DXDXDXDXDXDXDXDXDXDXDXDXDXDXDX$ $ $ o ~ bXVXVXCXgX).^.^._.q.* $ $ $ $ $ $ $ $ $ $ $ $ $ $ $ $ $ @ v Q./.^.~.>XMXVXVXAX*X= $ $ $ $ DXDXDXDXDXDXDXDXDXDXDXDXDXDXDX",
"DXDXDXDXDXDXDXDXDXDXDXDXDXDXDX$ $ $ o Q xXnXnXmXaX^.Q.Q.^.9.* $ $ $ $ $ $ $ $ $ $ $ $ $ $ $ $ $ @ x T.Q.Q.W.-XvXnXnXVX@X= $ $ $ $ DXDXDXDXDXDXDXDXDXDXDXDXDXDXDX",
"DXDXDXDXDXDXDXDXDXDXDXDXDXDXDX$ $ $ o Q xXnXnXmXaX^.Q.Q.^.9.* $ $ $ $ $ $ $ $ $ $ $ $ $ $ $ $ $ @ x T.Q.Q.W.-XvXnXnXVX@X= $ $ $ $ DXDXDXDXDXDXDXDXDXDXDXDXDXDXDX",
"DXDXDXDXDXDXDXDXDXDXDXDXDXDXDX$ $ $ o ! bXNXNXVXfX(.^.^.).q.* $ $ $ $ $ $ $ $ $ $ $ $ $ $ $ $ $ @ v W.^.^.Q.:XmXNXNXZX$X= $ $ $ $ DXDXDXDXDXDXDXDXDXDXDXDXDXDXDX",
"DXDXDXDXDXDXDXDXDXDXDXDXDXDXDXDXDXDXDXZ r.y.y.i.2.( / / ( V % $ $ $ $ DXDXDXDXDXDXDXDXDX$ $ $ $ # 9 ~ / / ^ X.t.y.y.i.-.DXDXDXDXDXDXDXDXDXDXDXDXDXDXDXDXDXDXDXDX",
"DXDXDXDXDXDXDXDXDXDXDXDXDXDXDXDXDXDXDXDXo o o o + @ @ @ @ @ $ $ $ $ $ DXDXDXDXDXDXDXDXDXDX$ $ $ $ # @ @ @ @ + o o o o o DXDXDXDXDXDXDXDXDXDXDXDXDXDXDXDXDXDXDXDX",
"DXDXDXDXDXDXDXDXDXDXDXDXDXDXDXDXDXDXDXDX$ $ $ $ $ $ $ $ $ $ $ $ $ $ $ DXDXDXDXDXDXDXDXDXDX$ $ $ $ $ $ $ $ $ $ $ $ $ $ $ DXDXDXDXDXDXDXDXDXDXDXDXDXDXDXDXDXDXDXDX",
"DXDXDXDXDXDXDXDXDXDXDXDXDXDXDXDXDXDXDXDX$ $ $ $ $ $ $ $ $ $ $ $ $ $ $ DXDXDXDXDXDXDXDXDXDX$ $ $ $ $ $ $ $ $ $ $ $ $ $ $ DXDXDXDXDXDXDXDXDXDXDXDXDXDXDXDXDXDXDXDX",
"DXDXDXDXDXDXDXDXDXDXDXDXDXDXDXDXDXDXDXDX$ $ $ $ $ $ $ $ $ $ $ $ $ $ $ DXDXDXDXDXDXDXDXDXDX$ $ $ $ $ $ $ $ $ $ $ $ $ $ $ DXDXDXDXDXDXDXDXDXDXDXDXDXDXDXDXDXDXDXDX",
"DXDXDXDXDXDXDXDXDXDXDXDXDXDXDXDXDXDXDXDX$ $ $ $ $ $ $ $ $ $ $ $ $ $ DXDXDXDXDXDXDXDXDXDXDX$ $ $ $ $ $ $ $ $ $ $ $ $ $ DXDXDXDXDXDXDXDXDXDXDXDXDXDXDXDXDXDXDXDXDX"
};
