/* XPM */
static char *result[] = {
/* columns rows colors chars-per-pixel */
"81 80 193 2 ",
"   c #0B0C0C",
".  c #0C0D0D",
"X  c #0C0E0E",
"o  c #0D0E0E",
"O  c #0E0F0F",
"+  c #0F1010",
"@  c #101111",
"#  c #111212",
"$  c #121313",
"%  c #131414",
"&  c #141515",
"*  c #151616",
"=  c #161717",
"-  c #181919",
";  c #191A1A",
":  c #1B1B1B",
">  c #1B1C1C",
",  c #1C1D1D",
"<  c #1D1E1E",
"1  c #1E1F1F",
"2  c #1F2020",
"3  c #202121",
"4  c #212222",
"5  c #222323",
"6  c #232323",
"7  c #232424",
"8  c gray14",
"9  c #242525",
"0  c #252626",
"q  c #262727",
"w  c #272828",
"e  c #282929",
"r  c gray16",
"t  c #292A2A",
"y  c #2A2B2B",
"u  c gray17",
"i  c #2B2C2C",
"p  c #2C2D2D",
"a  c #2D2E2E",
"s  c gray18",
"d  c #2E2F2F",
"f  c #2F2F2F",
"g  c #2F3030",
"h  c #303131",
"j  c #313232",
"k  c #323232",
"l  c #323333",
"z  c #333434",
"x  c #343434",
"c  c #343535",
"v  c #353636",
"b  c gray21",
"n  c #363737",
"m  c #373737",
"M  c #373838",
"N  c gray22",
"B  c #383939",
"V  c #393A3A",
"C  c #3A3A3A",
"Z  c #3A3B3B",
"A  c #3B3C3C",
"S  c #3C3D3D",
"D  c #434343",
"F  c #454646",
"G  c #464747",
"H  c #474848",
"J  c #494A4A",
"K  c gray29",
"L  c #4B4B4B",
"P  c #4B4C4C",
"I  c gray30",
"U  c #4D4E4E",
"Y  c #4E4E4E",
"T  c #4E4F4F",
"R  c gray31",
"E  c #4F5050",
"W  c #505151",
"Q  c #525353",
"!  c gray33",
"~  c #545555",
"^  c #565757",
"/  c #595A5A",
"(  c #666767",
")  c #686868",
"_  c gray42",
"`  c #6C6D6D",
"'  c #6D6D6D",
"]  c gray43",
"[  c #6F6F6F",
"{  c #717171",
"}  c #717272",
"|  c #727272",
" . c #757676",
".. c #777878",
"X. c gray47",
"o. c #7A7B7B",
"O. c #7C7C7C",
"+. c #7E7E7E",
"@. c gray50",
"#. c #868686",
"$. c #868787",
"%. c #878888",
"&. c #888888",
"*. c gray54",
"=. c gray55",
"-. c #8D8D8D",
";. c #8E8E8E",
":. c gray56",
">. c #909090",
",. c gray57",
"<. c #919292",
"1. c #929292",
"2. c #939393",
"3. c gray58",
"4. c #959595",
"5. c gray59",
"6. c #979797",
"7. c #989898",
"8. c gray60",
"9. c #9A9A9A",
"0. c #9B9B9B",
"q. c gray61",
"w. c #9C9D9D",
"e. c #9D9D9D",
"r. c #9D9E9E",
"t. c gray62",
"y. c #9F9F9F",
"u. c #9FA0A0",
"i. c #A0A0A0",
"p. c gray63",
"a. c #A2A2A2",
"s. c #A2A3A3",
"d. c gray64",
"f. c #A4A4A4",
"g. c gray65",
"h. c #A7A7A7",
"j. c #AAAAAA",
"k. c #AAABAB",
"l. c gray67",
"z. c #ABACAC",
"x. c #ACACAC",
"c. c #AEAEAE",
"v. c #AFAFAF",
"b. c #B1B2B2",
"n. c gray70",
"m. c #B4B4B4",
"M. c gray71",
"N. c #B6B6B6",
"B. c #BFC0C0",
"V. c gray76",
"C. c #C2C3C3",
"Z. c #C3C3C3",
"A. c #C3C4C4",
"S. c gray77",
"D. c gray78",
"F. c #C7C8C8",
"G. c #C8C8C8",
"H. c gray79",
"J. c #CACACA",
"K. c #CBCBCB",
"L. c #CDCDCD",
"P. c #CECECE",
"I. c gray81",
"U. c gray82",
"Y. c #D2D2D2",
"T. c #D4D5D5",
"R. c #D5D5D5",
"E. c gray84",
"W. c #D7D7D7",
"Q. c #D8D8D8",
"!. c gray85",
"~. c gray86",
"^. c gainsboro",
"/. c #DDDDDD",
"(. c gray87",
"). c #DFDFDF",
"_. c gray88",
"`. c #E1E1E1",
"'. c #E2E2E2",
"]. c gray89",
"[. c #E4E4E4",
"{. c #E4E5E5",
"}. c gray90",
"|. c #E6E6E6",
" X c #E7E7E7",
".X c gray91",
"XX c #E9E9E9",
"oX c #EAEAEA",
"OX c gray92",
"+X c #ECECEC",
"@X c gray93",
"#X c #EEEEEE",
"$X c None",
/* pixels */
"$X$X$X$X$X$X$X$X$X$X$X$X$X$X$X$X$X$X$X$X$X$X$X$X$X$X$X$X$X$X# # # # # # # # # # # # # # # # # # # # $X$X$X$X$X$X$X$X$X$X$X$X$X$X$X$X$X$X$X$X$X$X$X$X$X$X$X$X$X$X$X",
"$X$X$X$X$X$X$X$X$X$X$X$X$X$X$X$X$X$X$X$X$X$X$X$X$X$X$X$X$X$X# # # # # # # # # # # # # # # # # # # # $X$X$X$X$X$X$X$X$X$X$X$X$X$X$X$X$X$X$X$X$X$X$X$X$X$X$X$X$X$X$X",
"$X$X$X$X$X$X$X$X$X$X$X$X$X$X$X$X$X$X$X$X$X$X$X$X$X$X$X$X$X$X# # # # # # # # # # # # # # # # # # # # $X$X$X$X$X$X$X$X$X$X$X$X$X$X$X$X$X$X$X$X$X$X$X$X$X$X$X$X$X$X$X",
"$X$X$X$X$X$X$X$X$X$X$X$X$X$X$X$X$X$X$X$X$X$X$X$X$X$X$X$X$X$X+ + + + + + + + + + + + + + + + + + + + $X$X$X$X$X$X$X$X$X$X$X$X$X$X$X$X$X$X$X$X$X$X$X$X$X$X$X$X$X$X$X",
"$X$X$X$X$X$X$X$X$X$X$X$X$X$X$X$X$X$X$X$X$X$X$X$X$X$X$X$X$X$Xn N M M M M M M M M M M M M M M M M N n $X$X$X$X$X$X$X$X$X$X$X$X$X$X$X$X$X$X$X$X$X$X$X$X$X$X$X$X$X$X$X",
"$X$X$X$X$X$X$X$X$X$X$X$X$X$X$X$X$X$X$X$X# # # # # # # # @ q *.5.4.4.4.4.4.4.4.4.4.4.4.4.4.4.4.4.5.*.0 @ # # # # # # # # $X$X$X$X$X$X$X$X$X$X$X$X$X$X$X$X$X$X$X$X$X",
"$X$X$X$X$X$X$X$X$X$X$X$X$X$X$X$X$X$X$X$X# # # # # # # # @ q -.8.7.7.7.7.7.7.7.7.7.7.7.7.7.7.7.7.8.=.0 @ # # # # # # # # $X$X$X$X$X$X$X$X$X$X$X$X$X$X$X$X$X$X$X$X$X",
"$X$X$X$X$X$X$X$X$X$X$X$X$X$X$X$X$X$X$X$X# # # # # # # # @ q -.8.7.7.7.7.7.7.7.7.7.7.7.7.7.7.7.7.8.=.0 @ # # # # # # # # $X$X$X$X$X$X$X$X$X$X$X$X$X$X$X$X$X$X$X$X$X",
"$X$X$X$X$X$X$X$X$X$X$X$X$X$X$X$X$X$X$X$X+ + + + + + + + o 9 =.8.7.7.7.7.7.7.7.7.7.7.7.7.7.7.7.7.8.=.8 o + + + + + + + + $X$X$X$X$X$X$X$X$X$X$X$X$X$X$X$X$X$X$X$X$X",
"$X$X$X$X$X$X$X$X$X$X$X$X$X$X$X$X$X$X$X$XM N M M M M M M n G >.8.7.7.7.7.7.7.7.7.7.7.7.7.7.7.7.7.8.>.G m M M M M M M N m $X$X$X$X$X$X$X$X$X$X$X$X$X$X$X$X$X$X$X$X$X",
"$X$X$X$X$X$X$X$X$X$X$X$X$X$X$X# # # + i ;.5.4.4.4.4.4.4.4.5.7.7.7.7.7.7.7.7.7.7.7.7.7.7.7.7.7.7.7.7.5.4.4.4.4.4.4.4.5.-.u + # # # $X$X$X$X$X$X$X$X$X$X$X$X$X$X$X$X",
"$X$X$X$X$X$X$X$X$X$X$X$X$X$X$X# # # + i >.8.7.7.7.7.7.7.7.7.7.7.7.7.7.7.7.7.7.7.7.7.7.7.7.7.7.7.7.7.7.7.7.7.7.7.7.7.8.>.i + # # # $X$X$X$X$X$X$X$X$X$X$X$X$X$X$X$X",
"$X$X$X$X$X$X$X$X$X$X$X$X$X$X$X# # # + i >.7.7.7.7.7.7.7.7.7.7.7.7.7.7.7.7.7.7.7.7.7.7.7.7.7.7.7.7.7.7.7.7.7.7.7.7.7.8.>.i + # # # $X$X$X$X$X$X$X$X$X$X$X$X$X$X$X$X",
"$X$X$X$X$X$X$X$X$X$X$X$X$X$X$X+ + + o y 1.0.9.9.9.7.7.7.7.7.7.7.7.7.7.7.7.7.7.7.7.7.7.7.7.7.7.7.7.7.7.7.7.7.7.7.7.7.8.>.t o + + + $X$X$X$X$X$X$X$X$X$X$X$X$X$X$X$X",
"$X$X$X$X$X$X$X$X$X$X$X$X$X$X$XM N M m D ] | | { X.4.7.7.7.7.7.7.7.7.7.7.7.7.7.7.7.7.7.7.7.7.7.7.7.7.7.7.7.7.7.7.7.7.7.1.K n M N M $X$X$X$X$X$X$X$X$X$X$X$X$X$X$X$X",
"$X$X$X$X$X$X$X$X$X$X# # # + d :.5.4.6.O.> % & $ i :.8.7.7.7.7.7.7.7.7.7.7.7.7.7.7.7.7.7.7.7.7.7.7.7.7.7.7.7.7.7.7.7.7.7.5.4.4.5.:.a + # # # $X$X$X$X$X$X$X$X$X$X$X",
"$X$X$X$X$X$X$X$X$X$X# # # + d 1.8.7.9.+.; @ # + e ;.8.7.7.7.7.7.7.7.7.7.7.7.7.7.7.7.7.7.7.7.7.7.7.7.7.7.7.7.7.7.7.7.7.7.7.7.7.8.<.s + # # # $X$X$X$X$X$X$X$X$X$X$X",
"$X$X$X$X$X$X$X$X$X$X# # # + d 1.7.7.9.+.; # # + r ;.8.7.7.7.7.7.7.7.7.7.7.7.7.7.7.7.7.7.7.7.7.7.7.7.7.7.7.7.7.7.7.7.7.7.7.7.7.7.,.s + # # # $X$X$X$X$X$X$X$X$X$X$X",
"$X$X$X$X$X$X$X$X$X$X# # # + f 3.0.9.q.@.= o o . q >.0.9.9.9.7.7.7.7.7.7.7.7.7.7.7.7.7.7.7.7.7.7.7.7.7.7.7.7.7.7.7.7.7.7.7.7.7.7.,.s + # # # $X$X$X$X$X$X$X$X$X$X$X",
"$X$X$X$X$X$X$X$X$X$X# # # @ q ' | | | _ W T T T ~ [ | | { ..4.7.7.7.7.7.7.7.7.7.7.7.7.7.7.7.7.7.7.7.7.7.7.7.7.7.7.7.7.7.7.7.7.7.,.s + # # # $X$X$X$X$X$X$X$X$X$X$X",
"$X$X$X$X$X$X$X$X$X$X# # # # $ & & & # S Q.}.[.|.B.5 % & $ e -.8.7.7.7.7.7.7.7.7.7.7.7.7.7.7.7.7.7.7.7.7.7.7.7.7.7.7.7.7.7.7.7.7.,.s + # # # $X$X$X$X$X$X$X$X$X$X$X",
"$X$X$X$X$X$X$X$X$X$X# # # # # # # # O A ^.XX.XOXZ.3 @ # + q -.8.7.7.7.7.7.7.7.7.7.7.7.7.7.7.7.7.7.7.7.7.7.7.7.7.7.7.7.7.7.7.7.7.,.s + # # # $X$X$X$X$X$X$X$X$X$X$X",
"$X$X$X$X$X$X$X$X$X$X# # # # # # # # O A ~.XX.XoXC.3 @ # @ q -.8.7.7.7.7.7.7.7.7.7.7.7.7.7.7.7.7.7.7.7.7.7.7.7.7.7.7.7.7.7.7.7.7.,.s + # # # $X$X$X$X$X$X$X$X$X$X$X",
"$X$X$X$X$X$X$X$X$X$X# # # # # # # # O A ~.XX.XoXV.< X o . 7 ;.0.9.9.9.9.9.9.9.9.9.9.9.9.9.7.7.7.7.7.7.7.7.7.7.7.7.7.7.7.7.7.7.7.,.s + # # # $X$X$X$X$X$X$X$X$X$X$X",
"$X$X$X$X$X$X$X$X$X$X# # # # # # # # O A ~.XX.XoXL./ Y T T ! [ | | | | | | | | | | | | }  .2.7.7.7.7.7.7.7.7.7.7.7.7.7.7.7.7.7.7.,.s + # # # $X$X$X$X$X$X$X$X$X$X$X",
"$X$X$X$X$X$X$X$X$X$X$X$X$X$X$X# # # O A ~.XX.X.X X[.[.[.|.A.0 % & & & & & & & & & & & % 4 $.8.7.7.7.7.7.7.7.7.7.7.7.7.7.7.7.7.7.,.s + # # # $X$X$X$X$X$X$X$X$X$X$X",
"$X$X$X$X$X$X$X$X$X$X$X$X$X$X$X# # # O A ~.XX.X.X.X.X.X.XoXD.7 @ # # # # # # # # # # # @ 2 #.8.7.7.7.7.7.7.7.7.7.7.7.7.7.7.7.7.7.,.s + # # # $X$X$X$X$X$X$X$X$X$X$X",
"$X$X$X$X$X$X$X$X$X$X$X$X$X$X$X# # # O A ~.XX.X.X.X.X.X.XoXD.7 @ # # # # # # # # # # # @ 2 #.8.7.7.7.7.7.7.7.7.7.7.7.7.7.7.7.7.7.,.s + # # # $X$X$X$X$X$X$X$X$X$X$X",
"$X$X$X$X$X$X$X$X$X$X$X$X$X$X$X# # # O A ~.XX.X.XXXOX+X+X#XH.3 . o o o o o o o o o o o o , %.0.9.9.9.9.9.9.9.9.9.9.9.9.9.9.9.9.0.2.s + # # # $X$X$X$X$X$X$X$X$X$X$X",
"$X$X$X$X$X$X$X$X$X$X$X$X$X$X$X# # # O A ~.XX.XXX/.v.k.l.x.w.^ Y T T T T T T T T T T T T Q ' | | | | | | | | | | | | | | | | | | ] i + # # # $X$X$X$X$X$X$X$X$X$X$X",
"$X$X$X$X$X$X$X$X$X$X$X$X$X$X$X# # # O A ~.XX.XoXZ.9 & * % v Y.}.[.[.[.[.[.[.[.[.[.[.[.}.P.g $ & & & & & & & & & & & & & & & & & & $X$X$X$X$X$X$X$X$X$X$X$X$X$X$X$X",
"$X$X$X$X$X$X$X$X$X$X$X$X$X$X$X# # # O A ~.XX.XoXC.3 @ # + l E.XX.X.X.X.X.X.X.X.X.X.X.XoXY.s + # # # # # # # # # # # # # # # # # # $X$X$X$X$X$X$X$X$X$X$X$X$X$X$X$X",
"$X$X$X$X$X$X$X$X$X$X$X$X$X$X$X# # # O A ~.XX.XoXC.3 @ # + l E.XX.X.X.X.X.X.X.X.X.X.X.XXXY.s + # # # # # # # # # # # # # # # # # # $X$X$X$X$X$X$X$X$X$X$X$X$X$X$X$X",
"$X$X$X$X$X$X$X$X$X$X$X$X$X$X$X# # # O A ~.XX.XoXC.3 @ # + l E.XX.X.X.X.X.X.X.X.X.X.X.XXXY.p o + + + O o o o o o o o o O @ # # # # $X$X$X$X$X$X$X$X$X$X$X$X$X$X$X$X",
"$X$X$X$X$X$X$X$X$X$X$X$X$X$X$X# # # O A ~.XX.XoXC.3 @ # + l E.XX.X.X.X.X.X.X.X.X.X.X.XXXE.E n M M V P R T T T T T T R L < @ # # # $X$X$X$X$X$X$X$X$X$X$X$X$X$X$X$X",
"$X$X$X$X$X$X$X$X$X$X$X$X$X$X$X# # # O A ~.XX.XoXC.3 @ # + l E.XX.X.X.X.X.X.X.X.X.X.X.XXX).i.4.4.4.q.Q.}.[.[.[.[.[.[.}.W.V O # # # $X$X$X$X$X$X$X$X$X$X$X$X$X$X$X$X",
"$X$X$X$X$X$X$X$X$X$X$X$X$X$X$X# # # O A ~.XX.XoXC.3 @ # + l E.XX.X.X.X.X.X.X.X.X.X.X.XXX_.d.6.7.7.y.^.XX.X.X.X.X.X.XXX~.Z O # # # $X$X$X$X$X$X$X$X$X$X$X$X$X$X$X$X",
"$X$X$X$X$X$X$X$X$X$X$X$X$X$X$X# # # O A ~.XX.XoXC.3 @ # + l E.XX.X.X.X.X.X.X.X.X.X.X.XXX_.d.6.7.7.y.^.XX.X.X.X.X.X.XXX~.Z O # # # $X$X$X$X$X$X$X$X$X$X$X$X$X$X$X$X",
"$X$X$X$X$X$X$X$X$X$X$X$X$X$X$X# # # O A ~.XX.XoXV.< X o   g R.XX.X.X.X.X.X.X.X.X.X.X.XXX_.a.5.6.5.t.^.XX.X.X.XOX+X+X+X(.Z O # # # $X$X$X$X$X$X$X$X$X$X$X$X$X$X$X$X",
"$X$X$X$X$X$X$X$X$X$X$X$X$X$X$X# # # O A ~.XX.XoXL./ Y T I ( ~.XX.X.X.X.X.X.X.X.X.X.X.X.X'.N.c.v.c.m.).XX.X.X].M.j.l.l.f.M O # # # $X$X$X$X$X$X$X$X$X$X$X$X$X$X$X$X",
"$X$X$X$X$X$X$X$X$X$X$X$X$X$X$X# # # O A ~.XX.X.X X[.[.[.[.[..X.X.X.X.X.X.X.X.X.X.X.X.X.X.X X|.|.|. X.X.X.XXXQ.V % * * * $X$X$X$X$X$X$X$X$X$X$X$X$X$X$X$X$X$X$X$X$X",
"$X$X$X$X$X$X$X$X$X$X$X$X$X$X$X# # # O A ~.XX.X.X.X.X.X.X.X.X.X.X.X.X.X.X.X.X.X.X.X.X.X.X.X.X.X.X.X.X.X.X.XXXQ.v O # # # $X$X$X$X$X$X$X$X$X$X$X$X$X$X$X$X$X$X$X$X$X",
"$X$X$X$X$X$X$X$X$X$X$X$X$X$X$X# # # O A ~.XX.X.X.X.X.X.X.X.X.X.X.X.X.X.X.X.X.X.X.X.X.X.X.X.X.X.X.X.X.X.X.XXXQ.b + # # # $X$X$X$X$X$X$X$X$X$X$X$X$X$X$X$X$X$X$X$X$X",
"$X$X$X$X$X$X$X$X$X$X$X$X$X$X$X# # # O A ).+X+X+XOXXXXXXXXXXX.X.X.X.X.X.X.X.X.X.X.X.X.X.X.XOX+X+X+X+X+X+X+X@X~.n + # # # $X$X$X$X$X$X$X$X$X$X$X$X$X$X$X$X$X$X$X$X$X",
"$X$X$X$X$X$X$X$X$X$X$X$X$X$X$X# # # O B f.l.l.k.b.P.U.U.U.R.|..X.X.X.X.X.X.X.X.X.X.X.X.X'.n.j.l.l.l.l.l.l.z.s.z + # # # $X$X$X$X$X$X$X$X$X$X$X$X$X$X$X$X$X$X$X$X$X",
"$X$X$X$X$X$X$X$X$X$X$X$X$X$X$X$X$X$X$X$X* * * & p >.9.9.8.g.`..X.X.X.X.X.X.X.X.X.X.X.XXXY.j % * * * * * * * * $X$X$X$X$X$X$X$X$X$X$X$X$X$X$X$X$X$X$X$X$X$X$X$X$X$X",
"$X$X$X$X$X$X$X$X$X$X$X$X$X$X$X$X$X$X$X$X# # # + e ;.8.7.6.f.`..X.X.X.X.X.X.X.X.X.X.X.XXXY.a + # # # # # # # # $X$X$X$X$X$X$X$X$X$X$X$X$X$X$X$X$X$X$X$X$X$X$X$X$X$X",
"$X$X$X$X$X$X$X$X$X$X$X$X$X$X$X$X$X$X$X$X# # # + r ;.8.7.6.f.`..X.X.X.X.X.X.X.X.X.X.X.XXXY.s + # # # # # # # # $X$X$X$X$X$X$X$X$X$X$X$X$X$X$X$X$X$X$X$X$X$X$X$X$X$X",
"$X$X$X$X$X$X$X$X$X$X$X$X$X$X$X$X$X$X$X$X# # # + r >.0.9.8.h.}.+X+X+X+X+X+X+X+X+X+X+X+X@XR.d + # # # O o o o o $X$X$X$X$X$X$X$X$X$X$X$X$X$X$X$X$X$X$X$X$X$X$X$X$X$X",
"$X$X$X$X$X$X$X$X$X$X$X$X$X$X$X$X$X$X$X$X# # # + w ` | | { o.g.l.l.l.l.l.l.l.l.l.l.l.l.x.0.0 @ # # = F E T T U $X$X$X$X$X$X$X$X$X$X$X$X$X$X$X$X$X$X$X$X$X$X$X$X$X$X",
"$X$X$X$X$X$X$X$X$X$X$X$X$X$X$X$X$X$X$X$X$X$X$X$X$X& & & & & * * * * * * * * * * * * * * * $ # # @ 8 S.|.[.}.T.b + # # # $X$X$X$X$X$X$X$X$X$X$X$X$X$X$X$X$X$X$X$X$X",
"$X$X$X$X$X$X$X$X$X$X$X$X$X$X$X$X$X$X$X$X$X$X$X$X$X# # # # # # # # # # # # # # # # # # # # # # # @ 9 G.oX.XXXQ.n + # # # $X$X$X$X$X$X$X$X$X$X$X$X$X$X$X$X$X$X$X$X$X",
"$X$X$X$X$X$X$X$X$X$X$X$X$X$X$X$X$X$X$X$X$X$X$X$X$X# # # # # # # # # # # # # # # # # # # # # # # @ 9 F.oX.XXXQ.b + # # # $X$X$X$X$X$X$X$X$X$X$X$X$X$X$X$X$X$X$X$X$X",
"$X$X$X$X$X$X$X$X$X$X$X$X$X$X$X$X$X$X$X$X$X$X$X$X$X# # # # # # # # # # # # # # # O o o o o o o o . 4 J.#X+X@X~.n + # # # $X$X$X$X$X$X$X$X$X$X$X$X$X$X$X$X$X$X$X$X$X",
"$X$X$X$X$X$X$X$X$X$X$X$X$X$X$X$X$X$X$X$X$X$X$X$X$X# # # # # # # # # # # # # # - H R T T T T T T Y ^ e.x.l.z.u.i + # # # $X$X$X$X$X$X$X$X$X$X$X$X$X$X$X$X$X$X$X$X$X",
"$X$X$X$X$X$X$X$X$X$X$X$X$X$X$X$X$X$X$X$X$X$X$X$X$X$X$X$X$X$X# # # # # # # # + y K.}.[.[.[.[.[.[.}.Y.c % * * * $ # # # # $X$X$X$X$X$X$X$X$X$X$X$X$X$X$X$X$X$X$X$X$X",
"$X$X$X$X$X$X$X$X$X$X$X$X$X$X$X$X$X$X$X$X$X$X$X$X$X$X$X$X$X$X# # # # # # # # + i I.oX.X.X.X.X.X.XXXR.j + # # # # # # # # $X$X$X$X$X$X$X$X$X$X$X$X$X$X$X$X$X$X$X$X$X",
"$X$X$X$X$X$X$X$X$X$X$X$X$X$X$X$X$X$X$X$X$X$X$X$X$X$X$X$X$X$X# # # # # # # # + i I.oX.X.X.X.X.X.XXXR.k + # # # # # # # # $X$X$X$X$X$X$X$X$X$X$X$X$X$X$X$X$X$X$X$X$X",
"$X$X$X$X$X$X$X$X$X$X$X$X$X$X$X$X$X$X$X$X$X$X$X$X$X$X$X$X$X$X# # # # # # # # + i I.oX.X.X.X.X.X.XXXR.k + # # # # # # # # $X$X$X$X$X$X$X$X$X$X$X$X$X$X$X$X$X$X$X$X$X",
"$X$X$X$X$X$X$X$X$X$X$X$X$X$X$X$X$X$X$X$X$X$X$X$X$X$X$X$X$X$X# # # # # # # # + i I.oX.X.X.X.X.X.XXXR.k + # # # # # # # # $X$X$X$X$X$X$X$X$X$X$X$X$X$X$X$X$X$X$X$X$X",
"$X$X$X$X$X$X$X$X$X$X$X$X$X$X$X$X$X$X$X$X$X$X$X$X$X$X$X$X$X$X# # # # # # # # + i I.oX.X.X.X.X.X.XXXR.k + # # # # # # # # $X$X$X$X$X$X$X$X$X$X$X$X$X$X$X$X$X$X$X$X$X",
"$X$X$X$X$X$X$X$X$X$X$X$X$X$X$X$X$X$X$X$X$X$X$X$X$X$X$X$X$X$X# # # # # # # # + i I.oX.X.X.X.X.X.XXXR.k + # # # # # # # # $X$X$X$X$X$X$X$X$X$X$X$X$X$X$X$X$X$X$X$X$X",
"$X$X$X$X$X$X$X$X$X$X$X$X$X$X$X$X$X$X$X$X$X$X$X$X$X$X$X$X$X$X# # # # # # # # + i I.oX.X.X.X.X.X.XXXR.k + # # # # # # # # $X$X$X$X$X$X$X$X$X$X$X$X$X$X$X$X$X$X$X$X$X",
"$X$X$X$X$X$X$X$X$X$X$X$X$X$X$X$X$X$X$X$X$X$X$X$X$X$X$X$X$X$X# # # # # # # # + i Y.@X+X+X+X+X+X+X@XQ.l + # # # # # # # # $X$X$X$X$X$X$X$X$X$X$X$X$X$X$X$X$X$X$X$X$X",
"$X$X$X$X$X$X$X$X$X$X$X$X$X$X$X$X$X$X$X$X$X$X$X$X$X$X$X$X$X$X# # # # # # # # @ 7 8.x.l.l.l.l.l.l.x.r.e + # # # # # # # # $X$X$X$X$X$X$X$X$X$X$X$X$X$X$X$X$X$X$X$X$X",
"$X$X$X$X$X$X$X$X$X$X$X$X$X$X$X$X$X$X$X$X$X$X$X$X$X# # # # # # # # # # # # # # $ * * * * * * * * * * $ # # # # # # # # # $X$X$X$X$X$X$X$X$X$X$X$X$X$X$X$X$X$X$X$X$X",
"$X$X$X$X$X$X$X$X$X$X$X$X$X$X$X$X$X$X$X$X$X$X$X$X$X# # # # # # # # # # # # # # # # # # # # # # # # # # # # # # # # # # # $X$X$X$X$X$X$X$X$X$X$X$X$X$X$X$X$X$X$X$X$X",
"$X$X$X$X$X$X$X$X$X$X$X$X$X$X$X$X$X$X$X$X$X$X$X$X$X# # # # # # # # # # # # # # # # # # # # # # # # # # # # # # # # # # # $X$X$X$X$X$X$X$X$X$X$X$X$X$X$X$X$X$X$X$X$X",
"$X$X$X$X$X$X$X$X$X$X$X$X$X$X$X$X$X$X$X$X$X$X$X$X$X# # # # @ O o o o O + + + + + + + + + + # # # # # # # # # # # # # # # $X$X$X$X$X$X$X$X$X$X$X$X$X$X$X$X$X$X$X$X$X",
"$X$X$X$X$X$X$X$X$X$X$X$X$X$X$X$X$X$X$X$X$X$X$X$X$X# # # @ : J R T T P C M M M M M M M N x = # # # # # # # # # # # # # # $X$X$X$X$X$X$X$X$X$X$X$X$X$X$X$X$X$X$X$X$X",
"$X$X$X$X$X$X$X$X$X$X$X$X$X$X$X$X$X$X$X$X$X$X$X$X$X# # # + l Y.}.[.{.!.e.4.4.4.4.4.4.4.5.&.6 @ # # # # # # # # $X$X$X$X$X$X$X$X$X$X$X$X$X$X$X$X$X$X$X$X$X$X$X$X$X$X",
"$X$X$X$X$X$X$X$X$X$X$X$X$X$X$X$X$X$X$X$X$X$X$X$X$X# # # + l E.XX.XXX/.i.7.7.7.7.7.7.7.8.*.7 @ # # # # # # # # $X$X$X$X$X$X$X$X$X$X$X$X$X$X$X$X$X$X$X$X$X$X$X$X$X$X",
"$X$X$X$X$X$X$X$X$X$X$X$X$X$X$X$X$X$X$X$X$X$X$X$X$X# # # + l E.XX.XXX/.i.6.7.7.7.7.7.7.8.*.7 @ # # # # # # # # $X$X$X$X$X$X$X$X$X$X$X$X$X$X$X$X$X$X$X$X$X$X$X$X$X$X",
"$X$X$X$X$X$X$X$X$X$X$X$X$X$X$X$X$X$X$X$X$X$X$X$X$X# # # + l !.@X+X+X_.a.9.9.9.9.9.9.9.0.=.7 @ # # # # # # # # $X$X$X$X$X$X$X$X$X$X$X$X$X$X$X$X$X$X$X$X$X$X$X$X$X$X",
"$X$X$X$X$X$X$X$X$X$X$X$X$X$X$X$X$X$X$X$X$X$X$X$X$X# # # + h p.z.l.z.d...{ | | | | | | | ) 1 @ # # # # # # # # $X$X$X$X$X$X$X$X$X$X$X$X$X$X$X$X$X$X$X$X$X$X$X$X$X$X",
"$X$X$X$X$X$X$X$X$X$X$X$X$X$X$X$X$X$X$X$X$X$X$X$X$X$X$X$X$X$X* * * * * & & & & & & & & & % # # # # # $X$X$X$X$X$X$X$X$X$X$X$X$X$X$X$X$X$X$X$X$X$X$X$X$X$X$X$X$X$X$X",
"$X$X$X$X$X$X$X$X$X$X$X$X$X$X$X$X$X$X$X$X$X$X$X$X$X$X$X$X$X$X# # # # # # # # # # # # # # # # # # # # $X$X$X$X$X$X$X$X$X$X$X$X$X$X$X$X$X$X$X$X$X$X$X$X$X$X$X$X$X$X$X",
"$X$X$X$X$X$X$X$X$X$X$X$X$X$X$X$X$X$X$X$X$X$X$X$X$X$X$X$X$X$X# # # # # # # # # # # # # # # # # # # # $X$X$X$X$X$X$X$X$X$X$X$X$X$X$X$X$X$X$X$X$X$X$X$X$X$X$X$X$X$X$X",
"$X$X$X$X$X$X$X$X$X$X$X$X$X$X$X$X$X$X$X$X$X$X$X$X$X$X$X$X$X$X# # # # # # # # # # # # # # # # # # # # $X$X$X$X$X$X$X$X$X$X$X$X$X$X$X$X$X$X$X$X$X$X$X$X$X$X$X$X$X$X$X",
"$X$X$X$X$X$X$X$X$X$X$X$X$X$X$X$X$X$X$X$X$X$X$X$X$X$X$X$X$X$X# # # # # # # # # # # # # # # # # # # # $X$X$X$X$X$X$X$X$X$X$X$X$X$X$X$X$X$X$X$X$X$X$X$X$X$X$X$X$X$X$X"
};
