/* XPM */
static char *result[] = {
/* columns rows colors chars-per-pixel */
"80 80 232 2 ",
"   c #0B0C0C",
".  c #0C0D0D",
"X  c #0D0E0E",
"o  c #0E0F0F",
"O  c #0F1010",
"+  c #101111",
"@  c #111212",
"#  c #121313",
"$  c #131414",
"%  c #141515",
"&  c #151616",
"*  c #161616",
"=  c #161717",
"-  c #171818",
";  c #181818",
":  c #181919",
">  c #191A1A",
",  c gray10",
"<  c #1A1B1B",
"1  c #1B1C1C",
"2  c #1C1D1D",
"3  c #1D1D1D",
"4  c #1D1E1E",
"5  c #1E1F1F",
"6  c #1F2020",
"7  c #202020",
"8  c #202121",
"9  c gray13",
"0  c #212222",
"q  c #222222",
"w  c #222323",
"e  c #232424",
"r  c gray14",
"t  c #242525",
"y  c #252525",
"u  c #252626",
"i  c gray15",
"p  c #262727",
"a  c #272727",
"s  c #272828",
"d  c #282929",
"f  c gray16",
"g  c #292A2A",
"h  c #2A2B2B",
"j  c #2B2C2C",
"k  c #2C2D2D",
"l  c #2D2D2D",
"z  c #2D2E2E",
"x  c #2E2F2F",
"c  c #2F2F2F",
"v  c #2F3030",
"b  c gray19",
"n  c #303131",
"m  c #313232",
"M  c #323232",
"N  c #323333",
"B  c gray20",
"V  c #333434",
"C  c #343434",
"Z  c #343535",
"A  c #353636",
"S  c #363737",
"D  c #373838",
"F  c gray22",
"G  c #383939",
"H  c #393A3A",
"J  c gray23",
"K  c #3B3C3C",
"L  c #3C3D3D",
"P  c gray24",
"I  c #3D3E3E",
"U  c #3E3E3E",
"Y  c #3F4040",
"T  c gray25",
"R  c #404141",
"E  c #414242",
"W  c gray26",
"Q  c #424343",
"!  c #444545",
"~  c #454646",
"^  c #484848",
"/  c #4A4B4B",
"(  c #4E4E4E",
")  c #4F5050",
"_  c #585959",
"`  c #5F6060",
"'  c #606161",
"]  c #656666",
"[  c #676767",
"{  c #6C6C6C",
"}  c #6D6D6D",
"|  c gray43",
" . c #717171",
".. c #747474",
"X. c #747575",
"o. c #757676",
"O. c #767777",
"+. c #777777",
"@. c #777878",
"#. c gray47",
"$. c #797979",
"%. c #797A7A",
"&. c gray48",
"*. c #7A7B7B",
"=. c #7B7B7B",
"-. c #7C7C7C",
";. c #7C7D7D",
":. c gray49",
">. c gray50",
",. c #7F8080",
"<. c #808080",
"1. c #818181",
"2. c gray51",
"3. c #838383",
"4. c #848484",
"5. c #848585",
"6. c gray52",
"7. c #868686",
"8. c gray53",
"9. c #888888",
"0. c #888989",
"q. c #898989",
"w. c gray54",
"e. c #8B8B8B",
"r. c gray55",
"t. c #8D8D8D",
"y. c #8E8E8E",
"u. c gray56",
"i. c #909090",
"p. c gray57",
"a. c #919292",
"s. c #929292",
"d. c #939393",
"f. c gray58",
"g. c #959595",
"h. c gray59",
"j. c #979797",
"k. c #989898",
"l. c gray60",
"z. c #9A9A9A",
"x. c #9B9B9B",
"c. c gray61",
"v. c #9D9D9D",
"b. c gray62",
"n. c #9E9F9F",
"m. c #A0A0A0",
"M. c gray63",
"N. c #A2A2A2",
"B. c #A4A4A4",
"V. c #A5A5A5",
"C. c gray65",
"Z. c #A7A7A7",
"A. c #A9A9A9",
"S. c gray67",
"D. c #ABACAC",
"F. c #ACACAC",
"G. c #AFB0B0",
"H. c #B2B2B2",
"J. c gray70",
"K. c #B3B4B4",
"L. c #B4B4B4",
"P. c gray71",
"I. c #B5B6B6",
"U. c #B6B6B6",
"Y. c #B6B7B7",
"T. c #B7B7B7",
"R. c #B9B9B9",
"E. c #B9BABA",
"W. c gray73",
"Q. c #BABBBB",
"!. c #BBBBBB",
"~. c #BBBCBC",
"^. c #BCBCBC",
"/. c #BCBDBD",
"(. c gray",
"). c #BEBFBF",
"_. c #C0C0C0",
"`. c #C1C1C1",
"'. c #C1C2C2",
"]. c gray76",
"[. c #C2C3C3",
"{. c #C3C3C3",
"}. c gray77",
"|. c #C5C5C5",
" X c #C6C6C6",
".X c gray78",
"XX c gray79",
"oX c #CACACA",
"OX c #CBCBCB",
"+X c #CBCCCC",
"@X c gray80",
"#X c #CDCDCD",
"$X c #CECECE",
"%X c gray81",
"&X c #D0D0D0",
"*X c gray82",
"=X c #D2D2D2",
"-X c LightGray",
";X c gray83",
":X c #D5D5D5",
">X c #D5D6D6",
",X c gray84",
"<X c #D6D7D7",
"1X c #D7D7D7",
"2X c #D8D8D8",
"3X c gray85",
"4X c #DADADA",
"5X c gray86",
"6X c gainsboro",
"7X c #DCDDDD",
"8X c #DDDDDD",
"9X c gray87",
"0X c #DFDFDF",
"qX c gray88",
"wX c #E0E1E1",
"eX c #E1E1E1",
"rX c #E2E2E2",
"tX c gray89",
"yX c #E4E4E4",
"uX c gray90",
"iX c #E6E6E6",
"pX c #E7E7E7",
"aX c gray91",
"sX c #E9E9E9",
"dX c #EAEAEA",
"fX c #EBEAEA",
"gX c gray92",
"hX c #ECEBEB",
"jX c #ECECEC",
"kX c gray93",
"lX c #EEEEEE",
"zX c None",
/* pixels */
"zXzXzXzXzXzXzXzXzXzXzXzXzXzXzXzXzXzXzXzXzXzXzXzXzXzXzXzXzXzXzXzXzXzXzXzXzXzXzXzXzXzXzXzXzXzXzXzXzXzXzXzXzXzXzXzXzXzXzXzXzXzXzXzXzXzXzXzXzXzXzXzXzXzXzXzXzXzXzXzX",
"zXzXzXzXzXzXzXzXzXzXzXzXzXzXzXzXzXzXzXzXzXzXzXzXzXzXzXzXzXzXzXzXzXzXzXzXzXzXzXzXzXzXzXzXzXzXzXzXzXzXzXzXzXzXzXzXzXzXzXzXzXzXzXzXzXzXzXzXzXzXzXzXzXzXzXzXzXzXzXzX",
"zXzXzXzXzXzXzXzXzXzXzXzXzXzXzXzXzXzXzXzXzXzXzXzXzXzXzXzXzXzXzXzXzXzXzXzXzXzXzXzXzXzXzXzXzXzXzXzXzXzXzXzXzXzXzXzXzXzXzXzXzXzXzXzXzXzXzXzXzXzXzXzXzXzXzXzXzXzXzXzX",
"zXzXzXzXzXzXzXzXzXzXzXzXzXzXzXzXzXzXzXzXzXzXzXzXzXzXzXzXzXzXzXzXzXzXzXzXzXzXzXzXzXzXzXzXzXzXzXzXzXzXzXzXzXzXzXzXzXzXzXzXzXzXzXzXzXzXzXzXzXzXzXzXzXzXzXzXzXzXzXzX",
"zXzXzXzXzXzXzXzXzXzXzXzXzXzXzXzXzXzXzXzXzXzXzXzXzXzXzXzXzXzXzXzXzXzXzXzXzXzXzXzXzXzXzXzXzXzXzXzXzXzXzXzXzXzXzXzXzXzXzXzXzXzXzXzXzXzXzXzXzXzXzXzXzXzXzXzXzXzXzXzX",
"zXzXzXzXzXzXzXzXzXzXzXzXzXzXzXzXzXzXzXzXzXzXzXzXzXzXzXzXzXzX@ @ @ @ @ @ @ @ @ @ @ @ @ @ @ @ @ @ @ @ zXzXzXzXzXzXzXzXzXzXzXzXzXzXzXzXzXzXzXzXzXzXzXzXzXzXzXzXzXzX",
"zXzXzXzXzXzXzXzXzXzXzXzXzXzXzXzXzXzXzXzXzXzXzXzXzXzXzXzXzXzX@ @ @ @ @ @ @ @ @ @ @ @ @ @ @ @ @ @ @ @ zXzXzXzXzXzXzXzXzXzXzXzXzXzXzXzXzXzXzXzXzXzXzXzXzXzXzXzXzXzX",
"zXzXzXzXzXzXzXzXzXzXzXzXzXzXzXzXzXzXzXzXzXzXzXzXzXzXzXzXzXzX@ @ @ @ @ @ @ @ @ @ @ @ @ @ @ @ @ @ @ @ zXzXzXzXzXzXzXzXzXzXzXzXzXzXzXzXzXzXzXzXzXzXzXzXzXzXzXzXzXzX",
"zXzXzXzXzXzXzXzXzXzXzXzXzXzXzXzXzXzXzXzXzXzXzXzXzXzXzXzXzXzXO O O O O O O O O O O O O O O O O O O O zXzXzXzXzXzXzXzXzXzXzXzXzXzXzXzXzXzXzXzXzXzXzXzXzXzXzXzXzXzX",
"zXzXzXzXzXzXzXzXzXzXzXzXzXzXzXzXzXzXzXzXzXzXzXzXzXzXzXzXzXzXC Z Z Z Z Z Z Z Z Z Z Z Z Z Z Z Z Z Z N zXzXzXzXzXzXzXzXzXzXzXzXzXzXzXzXzXzXzXzXzXzXzXzXzXzXzXzXzXzX",
"zXzXzXzXzXzXzXzXzXzXzXzXzXzXzXzXzXzXzXzX@ @ @ @ @ @ @ @ O d e.g.f.f.f.f.f.f.f.f.f.f.f.f.f.f.f.f.h.$.; @ @ @ @ @ @ @ @ @ zXzXzXzXzXzXzXzXzXzXzXzXzXzXzXzXzXzXzXzX",
"zXzXzXzXzXzXzXzXzXzXzXzXzXzXzXzXzXzXzXzX@ @ @ @ @ @ @ @ O d y.l.k.k.k.k.k.k.k.k.k.k.k.k.k.k.k.k.z.=.; @ @ @ @ @ @ @ @ @ zXzXzXzXzXzXzXzXzXzXzXzXzXzXzXzXzXzXzXzX",
"zXzXzXzXzXzXzXzXzXzXzXzXzXzXzXzXzXzXzXzX@ @ @ @ @ @ @ @ O d y.l.k.k.k.k.k.k.k.k.k.k.k.k.k.k.k.k.z.=.; @ @ @ @ @ @ @ @ @ zXzXzXzXzXzXzXzXzXzXzXzXzXzXzXzXzXzXzXzX",
"zXzXzXzXzXzXzXzXzXzXzXzXzXzXzXzXzXzXzXzXO O O O O O O O X a y.l.k.k.k.k.k.k.k.k.k.k.k.k.k.k.k.k.z.=.= O O O O O O O O O zXzXzXzXzXzXzXzXzXzXzXzXzXzXzXzXzXzXzXzX",
"zXzXzXzXzXzXzXzXzXzXzXzXzXzXzXzXzXzXzXzXN B B B B B B B M ! p.k.k.k.k.k.k.k.k.k.k.k.k.k.k.k.k.k.l.2.F N B B B B B B V n zXzXzXzXzXzXzXzXzXzXzXzXzXzXzXzXzXzXzXzX",
"zXzXzXzXzXzXzXzXzXzXzXzXzXzXzX@ @ @ + i q.f.f.f.f.f.f.f.f.f.k.k.k.k.k.k.k.k.k.k.k.k.k.k.k.k.k.k.k.j.f.f.f.f.f.f.f.f.g.o.= @ @ @ @ zXzXzXzXzXzXzXzXzXzXzXzXzXzXzX",
"zXzXzXzXzXzXzXzXzXzXzXzXzXzXzX@ @ @ + p t.l.k.k.k.k.k.k.k.k.k.k.k.k.k.k.k.k.k.k.k.k.k.k.k.k.k.k.k.k.k.k.k.k.k.k.k.k.z.#.= @ @ @ @ zXzXzXzXzXzXzXzXzXzXzXzXzXzXzX",
"zXzXzXzXzXzXzXzXzXzXzXzXzXzXzX@ @ @ + p r.l.k.k.k.k.k.k.k.k.k.k.k.k.k.k.k.k.k.k.k.k.k.k.k.k.k.k.k.k.k.k.k.k.k.k.k.k.z.#.= @ @ @ @ zXzXzXzXzXzXzXzXzXzXzXzXzXzXzX",
"zXzXzXzXzXzXzXzXzXzXzXzXzXzXzXO O O o t r.l.k.k.k.k.k.k.k.k.k.k.k.k.k.k.k.k.k.k.k.k.k.k.k.k.k.k.k.k.k.k.k.k.k.z.z.z.c.$.% O O O O zXzXzXzXzXzXzXzXzXzXzXzXzXzXzX",
"zXzXzXzXzXzXzXzXzXzXzXzXzXzXzXn m m n E u.l.k.k.k.k.k.k.k.k.k.k.k.k.k.k.k.k.k.k.k.k.k.k.k.k.k.k.k.k.k.k.k.k.p.%.#.#.$.[ Z m m m v zXzXzXzXzXzXzXzXzXzXzXzXzXzXzX",
"zXzXzXzXzXzXzXzXzXzX@ @ @ + t 8.f.d.d.f.k.k.k.k.k.k.k.k.k.k.k.k.k.k.k.k.k.k.k.k.k.k.k.k.k.k.k.k.k.k.k.k.k.z.=.2 = = % C y.d.d.g...& @ @ @ @ zXzXzXzXzXzXzXzXzXzX",
"zXzXzXzXzXzXzXzXzXzX@ @ @ + t r.l.k.k.k.k.k.k.k.k.k.k.k.k.k.k.k.k.k.k.k.k.k.k.k.k.k.k.k.k.k.k.k.k.k.k.k.k.z.%.= + @ O m d.l.k.z.+.& @ @ @ @ zXzXzXzXzXzXzXzXzXzX",
"zXzXzXzXzXzXzXzXzXzX@ @ @ + t e.l.k.k.k.k.k.k.k.k.k.k.k.k.k.k.k.k.k.k.k.k.k.k.k.k.k.k.k.k.k.k.k.k.k.k.k.k.z.&.- @ @ O m d.k.k.z.O.& @ @ @ @ zXzXzXzXzXzXzXzXzXzX",
"zXzXzXzXzXzXzXzXzXzX@ @ @ + t e.l.k.k.k.k.k.k.k.k.k.k.k.k.k.k.k.k.k.k.k.k.k.k.k.k.k.k.k.k.k.k.k.k.k.z.z.z.c.*.% o o . v g.z.z.c.#.* @ @ @ @ zXzXzXzXzXzXzXzXzXzX",
"zXzXzXzXzXzXzXzXzXzX@ @ @ + t e.l.k.k.k.k.k.k.k.k.k.k.k.k.k.k.k.k.k.k.k.k.k.k.k.k.k.k.k.k.k.k.k.k.p.=.%.%.&.} ! W W E ) @.&.%.=.` % @ @ @ @ zXzXzXzXzXzXzXzXzXzX",
"zXzXzXzXzXzXzXzXzXzX@ @ @ + t e.l.k.k.k.k.k.k.k.k.k.k.k.k.k.k.k.k.k.k.k.k.k.k.k.k.k.k.k.k.k.k.k.z.-.4 = - % ! ,X0X0XrXG.5 = - - & @ @ @ @ @ zXzXzXzXzXzXzXzXzXzX",
"zXzXzXzXzXzXzXzXzXzX@ @ @ + t e.l.k.k.k.k.k.k.k.k.k.k.k.k.k.k.k.k.k.k.k.k.k.k.k.k.k.k.k.k.k.k.k.z.=.- + @ o E 0XsXsXjXI.> + @ @ @ @ @ @ @ @ zXzXzXzXzXzXzXzXzXzX",
"zXzXzXzXzXzXzXzXzXzX@ @ @ + t e.l.k.k.k.k.k.k.k.k.k.k.k.k.k.k.k.k.k.k.k.k.k.k.k.k.k.k.k.k.k.k.k.z.=.; @ @ o E 0XsXaXgXP.> @ @ @ @ @ @ @ @ @ zXzXzXzXzXzXzXzXzXzX",
"zXzXzXzXzXzXzXzXzXzX@ @ @ + t e.l.k.k.k.k.k.k.k.k.k.k.k.k.k.k.k.k.k.k.z.z.z.z.z.z.z.z.z.z.z.z.z.c.-.& o o   Y 0XsXaXgXP.> @ @ @ @ @ @ @ @ @ zXzXzXzXzXzXzXzXzXzX",
"zXzXzXzXzXzXzXzXzXzX@ @ @ + t e.l.k.k.k.k.k.k.k.k.k.k.k.k.k.k.k.k.k.d.:.=.=.=.=.=.=.=.=.=.=.=.=.-.| Q Y Y I ] eXaXaXgXP.> @ @ @ @ @ @ @ @ @ zXzXzXzXzXzXzXzXzXzX",
"zXzXzXzXzXzXzXzXzXzX@ @ @ + t e.l.k.k.k.k.k.k.k.k.k.k.k.k.k.k.k.k.z.1.8 - - - - - - - - - - - - & Q ;X9X9X9XqXaXaXaXgXP.> @ @ @ @ zXzXzXzXzXzXzXzXzXzXzXzXzXzXzX",
"zXzXzXzXzXzXzXzXzXzX@ @ @ + t e.l.k.k.k.k.k.k.k.k.k.k.k.k.k.k.k.k.z.>., + @ @ @ @ @ @ @ @ @ @ @ o Y 9XsXsXsXaXaXaXaXgXP.> @ @ @ @ zXzXzXzXzXzXzXzXzXzXzXzXzXzXzX",
"zXzXzXzXzXzXzXzXzXzX@ @ @ + t e.l.k.k.k.k.k.k.k.k.k.k.k.k.k.k.k.k.z.,.< + @ @ @ @ @ @ @ @ @ @ @ o Y 9XsXaXaXaXaXaXaXgXP.> @ @ @ @ zXzXzXzXzXzXzXzXzXzXzXzXzXzXzX",
"zXzXzXzXzXzXzXzXzXzX@ @ @ + t t.x.z.z.z.z.z.z.z.z.z.z.z.z.z.z.z.z.x.<.- o o o o o o o o o o o o   U qXgXgXgXdXaXaXaXgXP.> @ @ @ @ zXzXzXzXzXzXzXzXzXzXzXzXzXzXzX",
"zXzXzXzXzXzXzXzXzXzX@ @ @ + t X.:.;.;.;.;.;.;.;.;.;.;.;.;.;.;.;.;.:. .E P I I I I I I I I I I I K _ U./.^.~. XiXaXaXgXP.> @ @ @ @ zXzXzXzXzXzXzXzXzXzXzXzXzXzXzX",
"zXzXzXzXzXzXzXzXzXzXzXzXzXzXzX: : : : : : : : : : : : : : : : : : = L &X8X7X7X7X7X7X7X7X7X7X7X7X0XK.p 2 3 < / 0XsXaXgXP.> @ @ @ @ zXzXzXzXzXzXzXzXzXzXzXzXzXzXzX",
"zXzXzXzXzXzXzXzXzXzXzXzXzXzXzX@ @ @ @ @ @ @ @ @ @ @ @ @ @ @ @ @ @ o G 4XdXsXsXsXsXsXsXsXsXsXsXsXjXQ.1 + + X E 0XsXaXgXP.> @ @ @ @ zXzXzXzXzXzXzXzXzXzXzXzXzXzXzX",
"zXzXzXzXzXzXzXzXzXzXzXzXzXzXzX@ @ @ @ @ @ @ @ @ @ @ @ @ @ @ @ @ @ o G 4XsXaXaXaXaXaXaXaXaXaXaXaXgXW.1 + @ o E 0XsXaXgXP.> @ @ @ @ zXzXzXzXzXzXzXzXzXzXzXzXzXzXzX",
"zXzXzXzXzXzXzXzXzXzXzXzXzXzXzX@ @ @ @ @ O o o o o o o o o O O O O X D 4XsXaXaXaXaXaXaXaXaXaXaXaXgXW.1 + @ o E 0XsXaXgXP.> @ @ @ @ zXzXzXzXzXzXzXzXzXzXzXzXzXzXzX",
"zXzXzXzXzXzXzXzXzXzXzXzXzXzXzX@ @ @ @ - D K J J J J J J K G k j j g ( 6XsXaXaXaXaXaXaXaXaXaXaXaXgXW.1 + @ o E 0XsXaXgXP.> @ @ @ @ zXzXzXzXzXzXzXzXzXzXzXzXzXzXzX",
"zXzXzXzXzXzXzXzXzXzXzXzXzXzXzX@ @ @ O n oX6X5X5X5X5X5X5X6X$Xg.i.i.u.m.rXaXaXaXaXaXaXaXaXaXaXaXaXgXW.1 + @ o E 0XsXaXgXP.> @ @ @ @ zXzXzXzXzXzXzXzXzXzXzXzXzXzXzX",
"zXzXzXzXzXzXzXzXzXzXzXzXzXzXzX@ @ @ O N ,XdXsXsXsXsXsXsXdX5Xb.k.k.k.Z.tXaXaXaXaXaXaXaXaXaXaXaXaXgXW.1 + @ o E 0XsXaXgXP.> @ @ @ @ zXzXzXzXzXzXzXzXzXzXzXzXzXzXzX",
"zXzXzXzXzXzXzXzXzXzXzXzXzXzXzX@ @ @ O N :XsXaXaXaXaXaXaXsX4Xb.k.k.j.Z.tXaXaXaXaXaXaXaXaXaXaXaXaXgXW.1 + @ o E 0XsXaXgXP.> @ @ @ @ zXzXzXzXzXzXzXzXzXzXzXzXzXzXzX",
"zXzXzXzXzXzXzXzXzXzXzXzXzXzXzX@ @ @ O N 2XjXgXgXdXaXaXaXsX4Xv.j.j.h.C.tXaXaXaXaXaXaXaXaXaXaXaXaXgXE.> o o   T 0XsXaXgXP.> @ @ @ @ zXzXzXzXzXzXzXzXzXzXzXzXzXzXzX",
"zXzXzXzXzXzXzXzXzXzXzXzXzXzXzX@ @ @ O m L.'.`._..XuXaXaXsX8XS.C.Z.C.J.yXaXaXaXaXaXaXaXaXaXaXaXaXdX[.E G G S ' wXaXaXgXP.> @ @ @ @ zXzXzXzXzXzXzXzXzXzXzXzXzXzXzX",
"zXzXzXzXzXzXzXzXzXzXzXzXzXzXzXzXzXzXzXzX6 6 6 4 R 2XsXaXaXpXtXtXtXtXyXaXaXaXaXaXaXaXaXaXaXaXaXaXaXuX5X4X4X4X8XpXaXaXgXP.> @ @ @ @ zXzXzXzXzXzXzXzXzXzXzXzXzXzXzX",
"zXzXzXzXzXzXzXzXzXzXzXzXzXzXzXzXzXzXzXzX+ + + o V 1XsXaXaXaXaXaXaXaXaXaXaXaXaXaXaXaXaXaXaXaXaXaXaXaXsXsXsXsXsXaXaXaXgXP.> @ @ @ @ zXzXzXzXzXzXzXzXzXzXzXzXzXzXzX",
"zXzXzXzXzXzXzXzXzXzXzXzXzXzXzXzXzXzXzXzX@ @ @ O Z 1XsXaXaXaXaXaXaXaXaXaXaXaXaXaXaXaXaXaXaXaXaXaXaXaXaXaXaXaXaXaXaXaXgXP.> @ @ @ @ zXzXzXzXzXzXzXzXzXzXzXzXzXzXzX",
"zXzXzXzXzXzXzXzXzXzXzXzXzXzXzXzXzXzXzXzX@ @ @ O Z 3XhXdXdXdXdXdXdXdXdXaXaXaXaXaXaXaXaXaXaXaXaXaXaXaXsXsXsXsXsXdXdXdXlXY.> @ @ @ @ zXzXzXzXzXzXzXzXzXzXzXzXzXzXzX",
"zXzXzXzXzXzXzXzXzXzXzXzXzXzXzXzXzXzXzXzX@ @ @ O x P.}.{.{.{.{.{.{.[.oXiXaXaXaXaXaXaXaXaXaXaXaXaXaXuX5X4X4X4X:X}.{.{.|.n.> @ @ @ @ zXzXzXzXzXzXzXzXzXzXzXzXzXzXzX",
"zXzXzXzXzXzXzXzXzXzXzXzXzXzXzXzXzXzXzXzX@ @ @ @ % 6 0 9 9 9 9 9 9 5 ~ 5XsXaXaXaXaXaXaXaXaXaXaXaXsX2XM.b.b.m.2.p 8 9 9 8 zXzXzXzXzXzXzXzXzXzXzXzXzXzXzXzXzXzXzXzX",
"zXzXzXzXzXzXzXzXzXzXzXzXzXzXzXzXzXzXzXzX@ @ @ @ @ + + + + + + + + X F 4XsXaXaXaXaXaXaXaXaXaXaXaXsX1Xc.j.k.z.$.= + + + + zXzXzXzXzXzXzXzXzXzXzXzXzXzXzXzXzXzXzXzX",
"zXzXzXzXzXzXzXzXzXzXzXzXzXzXzXzXzXzXzXzX@ @ @ @ @ @ @ @ @ @ @ @ @ o G 4XsXaXaXaXaXaXaXaXaXaXaXaXsX1Xc.k.k.z.&.- @ @ @ @ zXzXzXzXzXzXzXzXzXzXzXzXzXzXzXzXzXzXzXzX",
"zXzXzXzXzXzXzXzXzXzXzXzXzXzXzXzXzXzXzXzX@ @ @ @ @ @ @ @ @ @ @ @ @ o H 6XgXdXdXdXdXdXdXdXdXdXdXdXgX3Xv.l.l.x.*.- @ @ @ @ zXzXzXzXzXzXzXzXzXzXzXzXzXzXzXzXzXzXzXzX",
"zXzXzXzXzXzXzXzXzXzXzXzXzXzXzXzXzXzXzXzX@ @ @ @ @ @ @ @ @ @ @ @ @ O N R. X|.|.|.|.|.|.|.|.|.|.|. XT.6.2.2.3.{ - @ @ @ @ zXzXzXzXzXzXzXzXzXzXzXzXzXzXzXzXzXzXzXzX",
"zXzXzXzXzXzXzXzXzXzXzXzXzXzXzXzXzXzXzXzX@ @ @ @ @ @ @ @ @ @ @ @ @ @ % 0 w w w w w w w w w w w w w 0 2 2 2 2 1 zXzXzXzXzXzXzXzXzXzXzXzXzXzXzXzXzXzXzXzXzXzXzXzXzX",
"zXzXzXzXzXzXzXzXzXzXzXzXzXzXzXzXzXzXzXzX@ @ @ @ @ @ @ @ @ @ @ @ @ @ @ + + + + + + + + + + + + + + + + + + + + zXzXzXzXzXzXzXzXzXzXzXzXzXzXzXzXzXzXzXzXzXzXzXzXzX",
"zXzXzXzXzXzXzXzXzXzXzXzXzXzXzXzXzXzXzXzX@ @ @ @ @ @ @ @ @ @ @ @ @ @ @ @ @ @ @ @ @ @ @ @ @ @ @ @ @ @ @ @ @ @ @ zXzXzXzXzXzXzXzXzXzXzXzXzXzXzXzXzXzXzXzXzXzXzXzXzX",
"zXzXzXzXzXzXzXzXzXzXzXzXzXzXzXzXzXzXzXzX@ @ @ @ @ O O O O O O O O O O @ @ @ @ @ O O O O O O O O O O @ @ @ @ @ zXzXzXzXzXzXzXzXzXzXzXzXzXzXzXzXzXzXzXzXzXzXzXzXzX",
"zXzXzXzXzXzXzXzXzXzXzXzXzXzXzXzXzXzXzXzX@ @ @ @ = v N N N N N N N N k $ @ @ @ - n N N N N N N N N j $ @ @ @ @ zXzXzXzXzXzXzXzXzXzXzXzXzXzXzXzXzXzXzXzXzXzXzXzXzX",
"zXzXzXzXzXzXzXzXzXzXzXzXzXzXzX@ @ @ @ @ @ @ @ O m  X<X>X>X>X>X>X>X2XH.5 + @ O D oX,X>X>X>X>X>X>X2XD.< + @ @ @ @ @ @ @ @ @ @ @ @ @ zXzXzXzXzXzXzXzXzXzXzXzXzXzXzX",
"zXzXzXzXzXzXzXzXzXzXzXzXzXzXzX@ @ @ @ @ @ @ @ O Z 2XdXsXsXsXsXsXsXjX].6 + @ o K 6XdXsXsXsXsXsXsXjX!.1 + @ @ @ @ @ @ @ @ @ @ @ @ @ zXzXzXzXzXzXzXzXzXzXzXzXzXzXzX",
"zXzXzXzXzXzXzXzXzXzXzXzXzXzXzX@ @ @ @ @ @ @ @ O Z 1XsXaXaXaXaXaXaXgX`.6 + @ o J 5XsXaXaXaXaXaXaXgXW.1 + @ @ @ @ @ @ @ @ @ @ @ @ @ zXzXzXzXzXzXzXzXzXzXzXzXzXzXzX",
"zXzXzXzXzXzXzXzXzXzXzXzXzXzXzX+ + + + + @ @ @ O Z 1XsXaXaXaXaXaXaXgX`.6 + @ o J 5XsXaXaXaXdXdXdXkX~.1 + @ @ @ + + + + + O O O O O zXzXzXzXzXzXzXzXzXzXzXzXzXzXzX",
"zXzXzXzXzXzXzXzXzXzXzXzXzXzXzXt t t u 0 $ @ @ O Z 1XsXaXaXaXaXaXaXgX`.6 + @ o J 5XsXaXaXrXOXXXXX+XN.< + @ @ & r y t t s b n n n c zXzXzXzXzXzXzXzXzXzXzXzXzXzXzX",
"zXzXzXzXzXzXzXzXzXzX@ @ @ + t 1.r.e.t.$.2 + @ O Z 1XsXaXaXaXaXaXaXgX`.6 + @ o J 5XsXaXfX_.n t u u 0 # @ @ O l 7.r.e.w.v.*X;X;X1XZ.: @ @ @ @ zXzXzXzXzXzXzXzXzXzX",
"zXzXzXzXzXzXzXzXzXzX@ @ @ + t r.z.l.z.4.4 + @ O Z 1XsXaXaXaXaXaXaXgX`.6 + @ o J 5XsXaXgX^.1 O + + + @ @ @ O b d.l.l.k.F.iXsXsXkXK.: @ @ @ @ zXzXzXzXzXzXzXzXzXzX",
"zXzXzXzXzXzXzXzXzXzX@ @ @ + t e.l.k.l.3.4 + @ O Z 1XsXaXaXaXaXaXaXgX`.6 + @ o J 5XsXaXgX^.4 + @ @ @ @ @ @ O v s.k.k.j.S.uXaXaXgXJ.: @ @ @ @ zXzXzXzXzXzXzXzXzXzX",
"zXzXzXzXzXzXzXzXzXzX@ @ @ + t e.l.k.l.3.1 o O X V 3XgXdXdXdXdXdXdXjX].6 + @ o K 8XgXdXkX(.4 + @ @ @ + + + o c s.k.k.j.S.pXdXdXkXL.: @ @ @ @ zXzXzXzXzXzXzXzXzXzX",
"zXzXzXzXzXzXzXzXzXzX@ @ @ + t e.l.k.l.9.D z x k ^ ).@XOXOXOXOXOXOX#XA.4 + @ O A _.@XOX#XV.1 + @ @ & w e e q U d.k.k.j.B.XXOXOX#XN.: @ @ @ @ zXzXzXzXzXzXzXzXzXzX",
"zXzXzXzXzXzXzXzXzXzX@ @ @ + t e.l.k.j.M.#X-X=X;XU.Z p s s s s s s s e # @ @ @ & u s s s w # @ @ O j 5.e.w.w.t.j.k.k.z.:.j a s s p zXzXzXzXzXzXzXzXzXzXzXzXzXzXzX",
"zXzXzXzXzXzXzXzXzXzX@ @ @ + t e.l.k.j.B.rXdXsXjX X0 O + + + + + + + + @ @ @ @ @ + + + + + @ @ @ O x s.l.l.l.l.k.k.k.z.#.& O + + + zXzXzXzXzXzXzXzXzXzXzXzXzXzXzX",
"zXzXzXzXzXzXzXzXzXzX@ @ @ + t e.l.k.j.B.eXaXaXdX|.w + @ @ @ @ @ @ @ @ @ @ @ @ @ @ @ @ @ @ @ @ @ O x a.k.k.k.k.k.k.k.z.#.= @ @ @ @ zXzXzXzXzXzXzXzXzXzXzXzXzXzXzX",
"zXzXzXzXzXzXzXzXzXzX@ @ @ + t r.z.l.k.V.tXdXdXjX Xw + @ @ @ @ @ @ @ @ @ @ @ @ @ @ @ @ @ @ @ @ @ O x d.z.l.l.l.l.l.l.x.$.= @ @ @ @ zXzXzXzXzXzXzXzXzXzXzXzXzXzXzX",
"zXzXzXzXzXzXzXzXzXzX@ @ @ + t :.9.8.7.s..X#X#X%XH.w + @ @ @ @ @ @ @ @ @ @ @ @ @ @ @ @ @ @ @ @ @ O h 1.8.8.8.8.8.8.8.0.| = @ @ @ @ zXzXzXzXzXzXzXzXzXzXzXzXzXzXzX",
"zXzXzXzXzXzXzXzXzXzXzXzXzXzXzX7 8 8 8 0 d f f f d zXzXzXzXzXzXzXzXzXzXzXzXzXzXzXzXzXzXzXzX@ @ @ @ % 6 8 8 8 8 8 8 8 8 6 zXzXzXzXzXzXzXzXzXzXzXzXzXzXzXzXzXzXzXzX",
"zXzXzXzXzXzXzXzXzXzXzXzXzXzXzX+ + + + + + O O O O zXzXzXzXzXzXzXzXzXzXzXzXzXzXzXzXzXzXzXzX@ @ @ @ @ + + + + + + + + + + zXzXzXzXzXzXzXzXzXzXzXzXzXzXzXzXzXzXzXzX",
"zXzXzXzXzXzXzXzXzXzXzXzXzXzXzX@ @ @ @ @ @ @ @ @ @ zXzXzXzXzXzXzXzXzXzXzXzXzXzXzXzXzXzXzXzX@ @ @ @ @ @ @ @ @ @ @ @ @ @ @ zXzXzXzXzXzXzXzXzXzXzXzXzXzXzXzXzXzXzXzX",
"zXzXzXzXzXzXzXzXzXzXzXzXzXzXzX@ @ @ @ @ @ @ @ @ @ zXzXzXzXzXzXzXzXzXzXzXzXzXzXzXzXzXzXzXzX@ @ @ @ @ @ @ @ @ @ @ @ @ @ @ zXzXzXzXzXzXzXzXzXzXzXzXzXzXzXzXzXzXzXzX",
"zXzXzXzXzXzXzXzXzXzXzXzXzXzXzX@ @ @ @ @ @ @ @ @ @ zXzXzXzXzXzXzXzXzXzXzXzXzXzXzXzXzXzXzXzX@ @ @ @ @ @ @ @ @ @ @ @ @ @ @ zXzXzXzXzXzXzXzXzXzXzXzXzXzXzXzXzXzXzXzX"
};
