/* XPM */
static char *result[] = {
/* columns rows colors chars-per-pixel */
"81 81 155 2 ",
"   c #090A0A",
".  c #0A0B0B",
"X  c #0B0C0C",
"o  c #0C0D0D",
"O  c #0D0E0E",
"+  c #0E0F0F",
"@  c #0E1010",
"#  c #0F1010",
"$  c #0F1111",
"%  c #101111",
"&  c #111212",
"*  c #121313",
"=  c #131414",
"-  c #141515",
";  c #292A2A",
":  c gray20",
">  c #393A3A",
",  c #3B3C3C",
"<  c #3E3F3F",
"1  c #3F4040",
"2  c #414242",
"3  c #424343",
"4  c #444545",
"5  c gray27",
"6  c #454646",
"7  c #464646",
"8  c gray28",
"9  c #484949",
"0  c #494A4A",
"q  c #4B4C4C",
"w  c #4C4D4D",
"e  c #4D4E4E",
"r  c #4F5050",
"t  c #505050",
"y  c #505151",
"u  c #515151",
"i  c #555656",
"p  c #565757",
"a  c #585858",
"s  c #585959",
"d  c #595A5A",
"f  c #5A5A5A",
"g  c #5A5B5B",
"h  c #5B5B5B",
"j  c gray36",
"k  c #5C5D5D",
"l  c #5D5D5D",
"z  c #5D5E5E",
"x  c gray37",
"c  c #5F5F5F",
"v  c #606060",
"b  c gray38",
"n  c #626363",
"m  c #636464",
"M  c #646565",
"N  c #666767",
"B  c #676767",
"V  c #676868",
"C  c #686868",
"Z  c #686969",
"A  c DimGray",
"S  c #6A6A6A",
"D  c #6A6B6B",
"F  c gray42",
"G  c #6B6C6C",
"H  c #6C6C6C",
"J  c #6C6D6D",
"K  c #6D6D6D",
"L  c gray43",
"P  c #6E6F6F",
"I  c #6F6F6F",
"U  c gray44",
"Y  c #707171",
"T  c #717171",
"R  c #717272",
"E  c #727272",
"W  c #737474",
"Q  c #747474",
"!  c gray46",
"~  c #767676",
"^  c #7B7B7B",
"/  c #7B7C7C",
"(  c #7C7C7C",
")  c gray49",
"_  c #7D7E7E",
"`  c #7E7E7E",
"'  c #7E7F7F",
"]  c #818282",
"[  c gray51",
"{  c #838383",
"}  c #838484",
"|  c #848484",
" . c #848585",
".. c gray52",
"X. c gray53",
"o. c #888888",
"O. c #888989",
"+. c #898989",
"@. c #898A8A",
"#. c gray54",
"$. c #8A8B8B",
"%. c #8B8B8B",
"&. c #8D8D8D",
"*. c #8E8F8F",
"=. c gray56",
"-. c #8F9090",
";. c #909090",
":. c gray57",
">. c #949595",
",. c #959595",
"<. c #959696",
"1. c gray59",
"2. c #969797",
"3. c #979797",
"4. c #989898",
"5. c gray60",
"6. c #9A9A9A",
"7. c #9B9B9B",
"8. c gray61",
"9. c #9C9D9D",
"0. c #9D9D9D",
"q. c #A2A3A3",
"w. c #A4A4A4",
"e. c #A5A5A5",
"r. c gray65",
"t. c #A7A7A7",
"y. c gray66",
"u. c #A9AAAA",
"i. c #B4B4B4",
"p. c gray72",
"a. c #BBBBBB",
"s. c #BCBCBC",
"d. c gray74",
"f. c gray",
"g. c gray75",
"h. c #C0C0C0",
"j. c #C1C1C1",
"k. c gray76",
"l. c #C3C3C3",
"z. c gray77",
"x. c #C8C8C8",
"c. c #D2D2D2",
"v. c #D5D5D5",
"b. c #D7D7D7",
"n. c #E7E7E7",
"m. c gray91",
"M. c #E9E9E9",
"N. c #EAEAEA",
"B. c gray92",
"V. c #ECECEC",
"C. c gray93",
"Z. c #EEEEEE",
"A. c #EFEFEF",
"S. c gray94",
"D. c None",
/* pixels */
"D.D.D.D.D.D.D.D.D.D.D.D.D.D.D.D.D.D.D.D.D.D.D.D.D.D.D.D.D.D.D.& & & & & & & & & & & & & & & & & & & D.D.D.D.D.D.D.D.D.D.D.D.D.D.D.D.D.D.D.D.D.D.D.D.D.D.D.D.D.D.D.",
"D.D.D.D.D.D.D.D.D.D.D.D.D.D.D.D.D.D.D.D.D.D.D.D.D.D.D.D.D.D.& & & & & & & & & & & & & & & & & & & & & D.D.D.D.D.D.D.D.D.D.D.D.D.D.D.D.D.D.D.D.D.D.D.D.D.D.D.D.D.D.",
"D.D.D.D.D.D.D.D.D.D.D.D.D.D.D.D.D.D.D.D.D.D.D.D.D.D.D.D.D.D.& & & & & & & & & & & & & & & & & & & & & D.D.D.D.D.D.D.D.D.D.D.D.D.D.D.D.D.D.D.D.D.D.D.D.D.D.D.D.D.D.",
"D.D.D.D.D.D.D.D.D.D.D.D.D.D.D.D.D.D.D.D.D.D.D.D.D.D.D.D.D.D.& & & & & & & & & & & & & & & & & & & & & D.D.D.D.D.D.D.D.D.D.D.D.D.D.D.D.D.D.D.D.D.D.D.D.D.D.D.D.D.D.",
"D.D.D.D.D.D.D.D.D.D.D.D.D.D.D.D.D.D.D.D.D.D.D.D.D.D.D.D.D.D.= = = = = = = = = = = = = = = = = = = = = D.D.D.D.D.D.D.D.D.D.D.D.D.D.D.D.D.D.D.D.D.D.D.D.D.D.D.D.D.D.",
"D.D.D.D.D.D.D.D.D.D.D.D.D.D.D.D.D.D.D.D.D.& & & & & & & & $ e I L L L L L L L L L L L L L L L L L I e $ & & & & & & & & D.D.D.D.D.D.D.D.D.D.D.D.D.D.D.D.D.D.D.D.D.",
"D.D.D.D.D.D.D.D.D.D.D.D.D.D.D.D.D.D.D.D.& & & & & & & & & % l 0.6.6.6.6.6.6.6.6.6.6.6.6.6.6.6.6.6.0.l % & & & & & & & & & D.D.D.D.D.D.D.D.D.D.D.D.D.D.D.D.D.D.D.D.",
"D.D.D.D.D.D.D.D.D.D.D.D.D.D.D.D.D.D.D.D.& & & & & & & & & % j 6.4.4.4.4.4.4.4.4.4.4.4.4.4.4.4.4.4.6.j % & & & & & & & & & D.D.D.D.D.D.D.D.D.D.D.D.D.D.D.D.D.D.D.D.",
"D.D.D.D.D.D.D.D.D.D.D.D.D.D.D.D.D.D.D.D.& & & & & & & & & # j 6.4.4.4.4.4.4.4.4.4.4.4.4.4.4.4.4.4.6.j # & & & & & & & & & D.D.D.D.D.D.D.D.D.D.D.D.D.D.D.D.D.D.D.D.",
"D.D.D.D.D.D.D.D.D.D.D.D.D.D.D.D.D.D.D.D.* * * * * * * * * % k 6.4.4.4.4.4.4.4.4.4.4.4.4.4.4.4.4.4.6.k % * * * * * * * * * D.D.D.D.D.D.D.D.D.D.D.D.D.D.D.D.D.D.D.D.",
"D.D.D.D.D.D.D.D.D.D.D.D.D.D.D.D.& & & % t H F F F F F F F S | 5.4.4.4.4.4.4.4.4.4.4.4.4.4.4.4.4.4.5.| S F F F F F F F H t % & & & D.D.D.D.D.D.D.D.D.D.D.D.D.D.D.D.",
"D.D.D.D.D.D.D.D.D.D.D.D.D.D.D.& & & & % M 0.6.6.6.6.6.6.6.6.5.4.4.4.4.4.4.4.4.4.4.4.4.4.4.4.4.4.4.4.5.6.6.6.6.6.6.6.6.0.M % & & & & D.D.D.D.D.D.D.D.D.D.D.D.D.D.D.",
"D.D.D.D.D.D.D.D.D.D.D.D.D.D.D.& & & & % m 6.4.4.4.4.4.4.4.4.4.4.4.4.4.4.4.4.4.4.4.4.4.4.4.4.4.4.4.4.4.4.4.4.4.4.4.4.4.6.m % & & & & D.D.D.D.D.D.D.D.D.D.D.D.D.D.D.",
"D.D.D.D.D.D.D.D.D.D.D.D.D.D.D.& & & & % m 6.4.4.4.4.4.4.4.4.4.4.4.4.4.4.4.4.4.4.4.4.4.4.4.4.4.4.4.4.4.4.4.4.4.4.4.4.4.6.m % & & & & D.D.D.D.D.D.D.D.D.D.D.D.D.D.D.",
"D.D.D.D.D.D.D.D.D.D.D.D.D.D.D.& & & & % m 6.4.4.4.4.4.4.4.4.4.4.4.4.4.4.4.4.4.4.4.4.4.4.4.4.4.4.4.4.4.4.4.4.4.4.4.4.4.6.m % & & & & D.D.D.D.D.D.D.D.D.D.D.D.D.D.D.",
"D.D.D.D.D.D.D.D.D.D.D.& & & & y C B B B ..5.4.4.4.4.4.4.4.4.4.4.4.4.4.4.4.4.4.4.4.4.4.4.4.4.4.4.4.4.4.4.4.4.6.Q 2 3 3 2 y V B B C y & & & & D.D.D.D.D.D.D.D.D.D.D.",
"D.D.D.D.D.D.D.D.D.D.& & & & & C 0.6.6.6.5.4.4.4.4.4.4.4.4.4.4.4.4.4.4.4.4.4.4.4.4.4.4.4.4.4.4.4.4.4.4.4.4.4.6.c O # # o 6 7.6.6.0.C & & & & & D.D.D.D.D.D.D.D.D.D.",
"D.D.D.D.D.D.D.D.D.D.& & & & & B 6.4.4.4.4.4.4.4.4.4.4.4.4.4.4.4.4.4.4.4.4.4.4.4.4.4.4.4.4.4.4.4.4.4.4.4.4.4.6.v % & & # 7 5.4.4.6.B & & & & & D.D.D.D.D.D.D.D.D.D.",
"D.D.D.D.D.D.D.D.D.D.& & & & & B 6.4.4.4.4.4.4.4.4.4.4.4.4.4.4.4.4.4.4.4.4.4.4.4.4.4.4.4.4.4.4.4.4.4.4.4.4.4.6.v % & & # 7 5.4.4.6.B & & & & & D.D.D.D.D.D.D.D.D.D.",
"D.D.D.D.D.D.D.D.D.D.& & & & & B 6.4.4.4.4.4.4.4.4.4.4.4.4.4.4.4.4.4.4.4.4.4.4.4.4.4.4.4.4.4.4.4.4.4.4.5.5.5.7.v # % % + 6 5.5.5.7.V & & & & & D.D.D.D.D.D.D.D.D.D.",
"D.D.D.D.D.D.D.D.D.D.& & & & & B 6.4.4.4.4.4.4.4.4.4.4.4.4.4.4.4.4.4.4.4.4.4.4.4.4.4.4.4.4.4.4.4.4.5.W 5 7 7 4 N ,.>.>.1.~ 6 7 7 8 : & & & & & D.D.D.D.D.D.D.D.D.D.",
"D.D.D.D.D.D.D.D.D.D.& & & & & B 6.4.4.4.4.4.4.4.4.4.4.4.4.4.4.4.4.4.4.4.4.4.4.4.4.4.4.4.4.4.4.4.4.6.h O # # X F Z.V.V.S.1.+ # # @ # & & & & & D.D.D.D.D.D.D.D.D.D.",
"D.D.D.D.D.D.D.D.D.D.& & & & & B 6.4.4.4.4.4.4.4.4.4.4.4.4.4.4.4.4.4.4.4.4.4.4.4.4.4.4.4.4.4.4.4.4.6.j % & & O F N.m.m.V.>.% & & & & & & & & & D.D.D.D.D.D.D.D.D.D.",
"D.D.D.D.D.D.D.D.D.D.& & & & & B 6.4.4.4.4.4.4.4.4.4.4.4.4.4.4.4.4.4.4.4.4.4.4.4.4.4.4.4.4.4.4.4.4.6.j % & & O F N.m.m.V.>.% & & & & & & & & & D.D.D.D.D.D.D.D.D.D.",
"D.D.D.D.D.D.D.D.D.D.& & & & & B 6.4.4.4.4.4.4.4.4.4.4.4.4.4.4.4.4.4.4.5.5.5.5.5.5.5.5.5.5.5.5.5.5.7.j + # # X S N.m.m.V.>.% & & & & & & & & & D.D.D.D.D.D.D.D.D.D.",
"D.D.D.D.D.D.D.D.D.D.& & & & & B 6.4.4.4.4.4.4.4.4.4.4.4.4.4.4.4.4.4.5.P 9 0 0 0 0 0 0 0 0 0 0 0 0 9 C -.*.*.&.i.M.m.m.V.>.% & & & & D.D.D.D.D.D.D.D.D.D.D.D.D.D.D.",
"D.D.D.D.D.D.D.D.D.D.& & & & & B 6.4.4.4.4.4.4.4.4.4.4.4.4.4.4.4.4.4.6.r o # # # # # # # # # # # # X T Z.V.V.V.N.m.m.m.V.>.% & & & & D.D.D.D.D.D.D.D.D.D.D.D.D.D.D.",
"D.D.D.D.D.D.D.D.D.D.& & & & & B 6.4.4.4.4.4.4.4.4.4.4.4.4.4.4.4.4.4.6.u # & & & & & & & & & & & & O T N.m.m.m.m.m.m.m.V.>.% & & & & D.D.D.D.D.D.D.D.D.D.D.D.D.D.D.",
"D.D.D.D.D.D.D.D.D.D.& & & & & B 6.4.4.4.4.4.4.4.4.4.4.4.4.4.4.4.4.4.6.u # & & & & & & & & & & & & O T N.m.m.m.m.m.m.m.V.>.% & & & & D.D.D.D.D.D.D.D.D.D.D.D.D.D.D.",
"D.D.D.D.D.D.D.D.D.D.& & & & & C 8.5.5.5.5.5.5.5.5.5.5.5.5.5.5.5.5.5.7.y o # # # # # # # # # # # # X Y C.N.N.N.M.m.m.m.V.>.% & & & & D.D.D.D.D.D.D.D.D.D.D.D.D.D.D.",
"D.D.D.D.D.D.D.D.D.D.D.D.D.D.D.2 e e e e e e e e e e e e e e e e e e w J @.O.O.O.O.O.O.O.O.O.O.O.O.+.` Y T T P q.M.m.m.V.>.% & & & & D.D.D.D.D.D.D.D.D.D.D.D.D.D.D.",
"D.D.D.D.D.D.D.D.D.D.D.D.D.D.D.# # # # # # # # # # # # # # # # # # # o } A.V.V.V.V.V.V.V.V.V.V.V.V.S.+.X O O   Z N.m.m.V.>.% & & & & D.D.D.D.D.D.D.D.D.D.D.D.D.D.D.",
"D.D.D.D.D.D.D.D.D.D.D.D.D.D.D.& & & & & & & & & & & & & & & & & & & + { V.m.m.m.m.m.m.m.m.m.m.m.m.V.O.# & & O F N.m.m.V.>.% & & & & D.D.D.D.D.D.D.D.D.D.D.D.D.D.D.",
"D.D.D.D.D.D.D.D.D.D.D.D.D.D.D.& & & & & & & & & & & & & & & & & & & + { V.m.m.m.m.m.m.m.m.m.m.m.m.V.O.# & & O F N.m.m.V.>.% & & & & D.D.D.D.D.D.D.D.D.D.D.D.D.D.D.",
"D.D.D.D.D.D.D.D.D.D.D.D.D.D.D.& & & & & # + + + + + + + + + # # # # o [ V.m.m.m.m.m.m.m.m.m.m.m.m.V.O.# & & O F N.m.m.V.>.% & & & & D.D.D.D.D.D.D.D.D.D.D.D.D.D.D.",
"D.D.D.D.D.D.D.D.D.D.D.D.D.D.D.& & & & % p ..{ { { { { { { { G a s s p w.N.m.m.m.m.m.m.m.m.m.m.m.m.V.O.# & & O F N.m.m.V.>.% & & & & D.D.D.D.D.D.D.D.D.D.D.D.D.D.D.",
"D.D.D.D.D.D.D.D.D.D.D.D.D.D.D.& & & & % 2.S.V.V.V.V.V.V.V.V.f.5.6.6.5.l.M.m.m.m.m.m.m.m.m.m.m.m.m.V.O.# & & O F N.m.m.V.>.% & & & & D.D.D.D.D.D.D.D.D.D.D.D.D.D.D.",
"D.D.D.D.D.D.D.D.D.D.D.D.D.D.D.& & & & % >.V.m.m.m.m.m.m.m.M.s.3.4.4.3.k.M.m.m.m.m.m.m.m.m.m.m.m.m.V.O.# & & O F N.m.m.V.>.% & & & & D.D.D.D.D.D.D.D.D.D.D.D.D.D.D.",
"D.D.D.D.D.D.D.D.D.D.D.D.D.D.D.& & & & % >.V.m.m.m.m.m.m.m.M.s.3.4.4.3.k.M.m.m.m.m.m.m.m.m.m.m.m.m.V.O.# & & O F N.m.m.V.>.% & & & & D.D.D.D.D.D.D.D.D.D.D.D.D.D.D.",
"D.D.D.D.D.D.D.D.D.D.D.D.D.D.D.& & & & % <.A.B.B.B.M.m.m.m.M.a.,.3.3.1.k.M.m.m.m.m.m.m.m.m.m.m.m.m.V.X.X + + . A N.m.m.V.>.% & & & & D.D.D.D.D.D.D.D.D.D.D.D.D.D.D.",
"D.D.D.D.D.D.D.D.D.D.D.D.D.D.D.D.& & & D.n _ ) ) ( a.N.m.m.m.c.g.h.h.g.v.M.m.m.m.m.m.m.m.m.m.m.m.m.N.p./ ) ) ^ u.M.m.m.V.>.% & & & & D.D.D.D.D.D.D.D.D.D.D.D.D.D.D.",
"D.D.D.D.D.D.D.D.D.D.D.D.D.D.D.D.D.D.D.D.+ + + + o &.V.m.m.m.M.M.M.M.M.M.m.m.m.m.m.m.m.m.m.m.m.m.m.m.M.B.B.B.B.N.m.m.m.V.>.% & & & & D.D.D.D.D.D.D.D.D.D.D.D.D.D.D.",
"D.D.D.D.D.D.D.D.D.D.D.D.D.D.D.D.D.D.D.D.& & & & # *.V.m.m.m.m.m.m.m.m.m.m.m.m.m.m.m.m.m.m.m.m.m.m.m.m.m.m.m.m.m.m.m.m.V.>.% & & & & D.D.D.D.D.D.D.D.D.D.D.D.D.D.D.",
"D.D.D.D.D.D.D.D.D.D.D.D.D.D.D.D.D.D.D.D.& & & & # *.V.m.m.m.m.m.m.m.m.m.m.m.m.m.m.m.m.m.m.m.m.m.m.m.m.m.m.m.m.m.m.m.m.V.>.% & & & & D.D.D.D.D.D.D.D.D.D.D.D.D.D.D.",
"D.D.D.D.D.D.D.D.D.D.D.D.D.D.D.D.D.D.D.D.& & & & # ;.S.V.V.V.V.V.V.V.V.N.m.m.m.m.m.m.m.m.m.m.m.m.m.m.M.M.M.M.M.N.V.V.V.S.1.% & & & & D.D.D.D.D.D.D.D.D.D.D.D.D.D.D.",
"D.D.D.D.D.D.D.D.D.D.D.D.D.D.D.D.D.D.D.D.D.& & & # m | { { { { { { { ] p.N.m.m.m.m.m.m.m.m.m.m.m.m.M.b.k.k.k.l.y.[ { { | N % & & & D.D.D.D.D.D.D.D.D.D.D.D.D.D.D.D.",
"D.D.D.D.D.D.D.D.D.D.D.D.D.D.D.D.D.D.D.D.D.D.D.D.D.+ + + + + + + + + X ] V.m.m.m.m.m.m.m.m.m.m.m.m.M.z.1.3.3.5.x O + + + + D.D.D.D.D.D.D.D.D.D.D.D.D.D.D.D.D.D.D.D.",
"D.D.D.D.D.D.D.D.D.D.D.D.D.D.D.D.D.D.D.D.D.D.D.D.D.& & & & & & & & & + { V.m.m.m.m.m.m.m.m.m.m.m.m.M.z.3.4.4.6.v % & & & & D.D.D.D.D.D.D.D.D.D.D.D.D.D.D.D.D.D.D.D.",
"D.D.D.D.D.D.D.D.D.D.D.D.D.D.D.D.D.D.D.D.D.D.D.D.D.& & & & & & & & & + { V.m.m.m.m.m.m.m.m.m.m.m.m.M.z.3.4.4.6.v % & & & & D.D.D.D.D.D.D.D.D.D.D.D.D.D.D.D.D.D.D.D.",
"D.D.D.D.D.D.D.D.D.D.D.D.D.D.D.D.D.D.D.D.D.D.D.D.D.O O O O O # & & & +  .A.V.V.V.V.V.V.V.V.V.V.V.V.C.x.5.6.6.0.b % & & & & D.D.D.D.D.D.D.D.D.D.D.D.D.D.D.D.D.D.D.D.",
"D.D.D.D.D.D.D.D.D.D.D.D.D.D.D.D.D.D.D.D.D.D.D.D.D.f R T T E , # & & # y $.O.O.O.O.O.O.O.O.O.O.O.O.@.! j j j l 8 % & & & D.D.D.D.D.D.D.D.D.D.D.D.D.D.D.D.D.D.D.D.D.",
"D.D.D.D.D.D.D.D.D.D.D.D.D.D.D.D.D.D.D.D.& & & & # -.Z.N.N.C.E O & & & % # # # # # # # # # # # # # # # % % % % $ D.D.D.D.D.D.D.D.D.D.D.D.D.D.D.D.D.D.D.D.D.D.D.D.D.",
"D.D.D.D.D.D.D.D.D.D.D.D.D.D.D.D.D.D.D.D.& & & & # *.V.m.m.N.T O & & & & & & & & & & & & & & & & & & & & & & & & D.D.D.D.D.D.D.D.D.D.D.D.D.D.D.D.D.D.D.D.D.D.D.D.D.",
"D.D.D.D.D.D.D.D.D.D.D.D.D.D.D.D.D.D.D.D.& & & & # *.V.m.m.N.T O & & & & & & & & & & & & & & & & & & & & & & & & D.D.D.D.D.D.D.D.D.D.D.D.D.D.D.D.D.D.D.D.D.D.D.D.D.",
"D.D.D.D.D.D.D.D.D.D.D.D.D.D.D.D.D.D.D.D.& & & & # :.S.V.V.Z.Y   O O O O O O O O # & & & & & & & & & & & & & & & D.D.D.D.D.D.D.D.D.D.D.D.D.D.D.D.D.D.D.D.D.D.D.D.D.",
"D.D.D.D.D.D.D.D.D.D.D.D.D.D.D.D.D.D.D.D.& & & & % g :.*.*.=.^ D F F F F F F F J < % & & & & & & & & & & & & & D.D.D.D.D.D.D.D.D.D.D.D.D.D.D.D.D.D.D.D.D.D.D.D.D.D.",
"D.D.D.D.D.D.D.D.D.D.D.D.D.D.D.D.D.D.D.D.& & & & & % # # # O +.Z.N.N.N.N.N.N.N.C._ + & & & & & & & & & D.D.D.D.D.D.D.D.D.D.D.D.D.D.D.D.D.D.D.D.D.D.D.D.D.D.D.D.D.D.",
"D.D.D.D.D.D.D.D.D.D.D.D.D.D.D.D.D.D.D.D.& & & & & & & & & # O.V.m.m.m.m.m.m.m.B.) + & & & & & & & & & D.D.D.D.D.D.D.D.D.D.D.D.D.D.D.D.D.D.D.D.D.D.D.D.D.D.D.D.D.D.",
"D.D.D.D.D.D.D.D.D.D.D.D.D.D.D.D.D.D.D.D.& & & & & & & & & # O.V.m.m.m.m.m.m.m.B.) + & & & & & & & & & D.D.D.D.D.D.D.D.D.D.D.D.D.D.D.D.D.D.D.D.D.D.D.D.D.D.D.D.D.D.",
"D.D.D.D.D.D.D.D.D.D.D.D.D.D.D.D.D.D.D.D.& & & & & & & & & # O.V.m.m.m.m.m.m.m.B.) + & & & & & & & & & D.D.D.D.D.D.D.D.D.D.D.D.D.D.D.D.D.D.D.D.D.D.D.D.D.D.D.D.D.D.",
"D.D.D.D.D.D.D.D.D.D.D.D.D.D.D.D.D.D.D.D.& & & & & & & & & # O.V.m.m.m.m.m.m.m.B.) + & & & & & & & & & D.D.D.D.D.D.D.D.D.D.D.D.D.D.D.D.D.D.D.D.D.D.D.D.D.D.D.D.D.D.",
"D.D.D.D.D.D.D.D.D.D.D.D.D.D.D.D.D.D.D.D.& & & & & & & & & # O.V.m.m.m.m.m.m.m.B.) + & & & & & & & & & D.D.D.D.D.D.D.D.D.D.D.D.D.D.D.D.D.D.D.D.D.D.D.D.D.D.D.D.D.D.",
"D.D.D.D.D.D.D.D.D.D.D.D.D.D.D.D.D.D.D.D.& & & & & & & & & # O.V.m.m.m.m.m.m.m.B.) + & & & & & & & & & D.D.D.D.D.D.D.D.D.D.D.D.D.D.D.D.D.D.D.D.D.D.D.D.D.D.D.D.D.D.",
"D.D.D.D.D.D.D.D.D.D.D.D.D.D.D.D.D.D.D.D.& & & & & & & & & # O.V.m.m.m.m.m.m.m.B.) + & & & & & & & & & D.D.D.D.D.D.D.D.D.D.D.D.D.D.D.D.D.D.D.D.D.D.D.D.D.D.D.D.D.D.",
"D.D.D.D.D.D.D.D.D.D.D.D.D.D.D.D.D.D.D.D.& & & & & & & & & # %.S.V.V.V.V.V.V.V.A.' + & & & & & & & & & D.D.D.D.D.D.D.D.D.D.D.D.D.D.D.D.D.D.D.D.D.D.D.D.D.D.D.D.D.D.",
"D.D.D.D.D.D.D.D.D.D.D.D.D.D.D.D.D.D.D.D.& & & & & & & & & # z 9.6.6.6.6.6.6.6.8.i # & & & & & & & & & D.D.D.D.D.D.D.D.D.D.D.D.D.D.D.D.D.D.D.D.D.D.D.D.D.D.D.D.D.D.",
"D.D.D.D.D.D.D.D.D.D.D.D.D.D.D.D.D.D.D.D.& & & & & & & & & & & & & & & & & & & & & & & & & & & & & & & & & & & & D.D.D.D.D.D.D.D.D.D.D.D.D.D.D.D.D.D.D.D.D.D.D.D.D.",
"D.D.D.D.D.D.D.D.D.D.D.D.D.D.D.D.D.D.D.D.& & & & & & & & & & & & & & & & & & & & & & & & & & & & & & & & & & & & D.D.D.D.D.D.D.D.D.D.D.D.D.D.D.D.D.D.D.D.D.D.D.D.D.",
"D.D.D.D.D.D.D.D.D.D.D.D.D.D.D.D.D.D.D.D.& & & & & & & & & & & & & & & & & & & & & & & & & & & & & & & & & & & & D.D.D.D.D.D.D.D.D.D.D.D.D.D.D.D.D.D.D.D.D.D.D.D.D.",
"D.D.D.D.D.D.D.D.D.D.D.D.D.D.D.D.D.D.D.D.& & & & & & & & & & & & & & & % # # # # # # # # # + O O O O # & & & & & D.D.D.D.D.D.D.D.D.D.D.D.D.D.D.D.D.D.D.D.D.D.D.D.D.",
"D.D.D.D.D.D.D.D.D.D.D.D.D.D.D.D.D.D.D.D.D.& & & & & & & & & & & & & % ; 1 < < < < < < < < q f d d h > % & & & & D.D.D.D.D.D.D.D.D.D.D.D.D.D.D.D.D.D.D.D.D.D.D.D.D.",
"D.D.D.D.D.D.D.D.D.D.D.D.D.D.D.D.D.D.D.D.D.D.D.D.D.& & & & & & & & & # a 5.3.3.3.3.3.3.3.1.d.m.n.n.B.o.# & & & & D.D.D.D.D.D.D.D.D.D.D.D.D.D.D.D.D.D.D.D.D.D.D.D.D.",
"D.D.D.D.D.D.D.D.D.D.D.D.D.D.D.D.D.D.D.D.D.D.D.D.D.& & & & & & & & & # s 6.4.4.4.4.4.4.4.3.f.M.m.m.V.+.# & & & & D.D.D.D.D.D.D.D.D.D.D.D.D.D.D.D.D.D.D.D.D.D.D.D.D.",
"D.D.D.D.D.D.D.D.D.D.D.D.D.D.D.D.D.D.D.D.D.D.D.D.D.& & & & & & & & & # s 6.4.4.4.4.4.4.4.3.f.M.m.m.V.O.# & & & & D.D.D.D.D.D.D.D.D.D.D.D.D.D.D.D.D.D.D.D.D.D.D.D.D.",
"D.D.D.D.D.D.D.D.D.D.D.D.D.D.D.D.D.D.D.D.D.D.D.D.D.& & & & & & & & & # f 0.6.6.6.6.6.6.6.5.j.C.V.V.S.#.# & & & & D.D.D.D.D.D.D.D.D.D.D.D.D.D.D.D.D.D.D.D.D.D.D.D.D.",
"D.D.D.D.D.D.D.D.D.D.D.D.D.D.D.D.D.D.D.D.D.D.D.D.D.D.& & & & & & & & % 3 U L L L L L L L K o.r.e.e.t.T # & & & D.D.D.D.D.D.D.D.D.D.D.D.D.D.D.D.D.D.D.D.D.D.D.D.D.D.",
"D.D.D.D.D.D.D.D.D.D.D.D.D.D.D.D.D.D.D.D.D.D.D.D.D.D.D.D.D.D.& & & & & * = = = = = = = = = = - - - - - D.D.D.D.D.D.D.D.D.D.D.D.D.D.D.D.D.D.D.D.D.D.D.D.D.D.D.D.D.D.",
"D.D.D.D.D.D.D.D.D.D.D.D.D.D.D.D.D.D.D.D.D.D.D.D.D.D.D.D.D.D.& & & & & & & & & & & & & & & & & & & & & D.D.D.D.D.D.D.D.D.D.D.D.D.D.D.D.D.D.D.D.D.D.D.D.D.D.D.D.D.D.",
"D.D.D.D.D.D.D.D.D.D.D.D.D.D.D.D.D.D.D.D.D.D.D.D.D.D.D.D.D.D.& & & & & & & & & & & & & & & & & & & & & D.D.D.D.D.D.D.D.D.D.D.D.D.D.D.D.D.D.D.D.D.D.D.D.D.D.D.D.D.D.",
"D.D.D.D.D.D.D.D.D.D.D.D.D.D.D.D.D.D.D.D.D.D.D.D.D.D.D.D.D.D.& & & & & & & & & & & & & & & & & & & & & D.D.D.D.D.D.D.D.D.D.D.D.D.D.D.D.D.D.D.D.D.D.D.D.D.D.D.D.D.D.",
"D.D.D.D.D.D.D.D.D.D.D.D.D.D.D.D.D.D.D.D.D.D.D.D.D.D.D.D.D.D.D.& & & & & & & & & & & & & & & & & & & D.D.D.D.D.D.D.D.D.D.D.D.D.D.D.D.D.D.D.D.D.D.D.D.D.D.D.D.D.D.D."
};
