/* XPM */
static char *result[] = {
/* columns rows colors chars-per-pixel */
"81 80 177 2 ",
"   c #0A0B0B",
".  c #0C0D0D",
"X  c #0D0E0E",
"o  c #0E0F0F",
"O  c #0F1010",
"+  c #101111",
"@  c #111212",
"#  c #121313",
"$  c #131414",
"%  c #141515",
"&  c #151616",
"*  c #161616",
"=  c #161717",
"-  c #171818",
";  c #181818",
":  c #181919",
">  c #191A1A",
",  c #1A1B1B",
"<  c #1B1C1C",
"1  c #1C1D1D",
"2  c #1D1E1E",
"3  c #212222",
"4  c #222323",
"5  c #232424",
"6  c #242525",
"7  c #252525",
"8  c #252626",
"9  c #262727",
"0  c #2C2D2D",
"q  c #2D2D2D",
"w  c #2F2F2F",
"e  c #2F3030",
"r  c gray19",
"t  c #333434",
"y  c #343434",
"u  c #343535",
"i  c gray23",
"p  c #3B3C3C",
"a  c #3C3D3D",
"s  c gray24",
"d  c #3D3E3E",
"f  c #3E3E3E",
"g  c #3F4040",
"h  c #404141",
"j  c #414141",
"k  c #414242",
"l  c gray26",
"z  c #424343",
"x  c #444545",
"c  c #454646",
"v  c #494A4A",
"b  c #4A4B4B",
"n  c gray30",
"m  c #4D4E4E",
"M  c #4E4E4E",
"N  c #4E4F4F",
"B  c #4F5050",
"V  c #505151",
"C  c #585858",
"Z  c #585959",
"A  c #5B5C5C",
"S  c gray36",
"D  c #5C5D5D",
"F  c #5F5F5F",
"G  c #5F6060",
"H  c #606060",
"J  c #606161",
"K  c gray38",
"L  c #616262",
"P  c #626262",
"I  c #626363",
"U  c gray39",
"Y  c #636464",
"T  c #646464",
"R  c #656565",
"E  c #656666",
"W  c #666767",
"Q  c #676767",
"!  c #676868",
"~  c #6A6B6B",
"^  c gray42",
"/  c #6B6C6C",
"(  c #6C6D6D",
")  c #6F7070",
"_  c #717171",
"`  c #727272",
"'  c #727373",
"]  c #737474",
"[  c #747474",
"{  c #747575",
"}  c gray46",
"|  c #757676",
" . c #767676",
".. c #787979",
"X. c #7C7C7C",
"o. c gray49",
"O. c #7E7E7E",
"+. c gray50",
"@. c #828383",
"#. c #838383",
"$. c #838484",
"%. c #868686",
"&. c #868787",
"*. c #898989",
"=. c gray54",
"-. c #8B8B8B",
";. c gray55",
":. c #8D8D8D",
">. c #8D8E8E",
",. c #8E8E8E",
"<. c #8E8F8F",
"1. c gray56",
"2. c #909191",
"3. c gray57",
"4. c #929292",
"5. c #939393",
"6. c gray58",
"7. c #949595",
"8. c #959595",
"9. c gray59",
"0. c #969797",
"q. c #979797",
"w. c #989898",
"e. c gray60",
"r. c #9A9A9A",
"t. c #9B9B9B",
"y. c #9B9C9C",
"u. c gray61",
"i. c #9D9C9C",
"p. c #9D9D9D",
"a. c #A0A0A0",
"s. c gray63",
"d. c #A1A2A2",
"f. c #ADAEAE",
"g. c #AEAEAE",
"h. c gray69",
"j. c #B1B1B1",
"k. c #B2B2B2",
"l. c gray70",
"z. c #B3B4B4",
"x. c gray71",
"c. c #B5B6B6",
"v. c #B6B6B6",
"b. c gray72",
"n. c #B9B9B9",
"m. c gray73",
"M. c #BABBBB",
"N. c #BBBBBB",
"B. c #BCBCBC",
"V. c gray74",
"C. c gray75",
"Z. c gray76",
"A. c #C3C3C3",
"S. c #C5C5C5",
"D. c gray81",
"F. c gray83",
"G. c #D5D5D5",
"H. c gray86",
"J. c gainsboro",
"K. c gray87",
"L. c #DFDFDF",
"P. c gray88",
"I. c #E1E1E1",
"U. c #E2E2E2",
"Y. c gray89",
"T. c #E4E4E4",
"R. c #E6E6E6",
"E. c gray91",
"W. c #E9E9E9",
"Q. c #EAEAEA",
"!. c gray92",
"~. c #ECECEC",
"^. c #EDECEC",
"/. c gray93",
"(. c #EFEFEF",
"). c #F0EFEF",
"_. c None",
/* pixels */
"_._._._._._._._._._._._._._._._._._._._._._._._._._._._._._._._._._._._._._._._._._._._._._._._._._._._._._._._._._._._._._._._._._._._._._._._._._._._._._._._._.",
"_._._._._._._._._._._._._._._._._._._._._._._._._._._._._._._._._._._._._._._._._._._._._._._._._._._._._._._._._._._._._._._._._._._._._._._._._._._._._._._._._.",
"_._._._._._._._._._._._._._._._._._._._._._._._._._._._._._._._._._._._._._._._._._._._._._._._._._._._._._._._._._._._._._._._._._._._._._._._._._._._._._._._._.",
"_._._._._._._._._._._._._._._._._._._._._._._._._._._._._._._._._._._._._._._._._._._._._._._._._._._._._._._._._._._._._._._._._._._._._._._._._._._._._._._._._.",
"_._._._._._._._._._._._._._._._._._._._._._._._._._._._._._._._._._._._._._._._._._._._._._._._._._._._._._._._._._._._._._._._._._._._._._._._._._._._._._._._._.",
"_._._._._._._._._._._._._._._._._._._._._._._._._._._._._._._.@ @ @ @ @ @ @ @ @ @ @ @ @ @ @ @ @ @ @ _._._._._._._._._._._._._._._._._._._._._._._._._._._._._._._.",
"_._._._._._._._._._._._._._._._._._._._._._._._._._._._._._.@ @ @ @ @ @ @ @ @ @ @ @ @ @ @ @ @ @ @ @ @ _._._._._._._._._._._._._._._._._._._._._._._._._._._._._._.",
"_._._._._._._._._._._._._._._._._._._._._._._._._._._._._._.@ @ @ @ @ @ @ @ @ @ @ @ @ @ @ @ @ @ @ @ @ _._._._._._._._._._._._._._._._._._._._._._._._._._._._._._.",
"_._._._._._._._._._._._._._._._._._._._._._._._._._._._._._.+ + + + + + + + + + + + + + + + + + + + + _._._._._._._._._._._._._._._._._._._._._._._._._._._._._._.",
"_._._._._._._._._._._._._._._._._._._._._._._._._._._._._._.3 5 5 5 5 5 5 5 5 5 5 5 5 5 5 5 5 5 5 5 3 _._._._._._._._._._._._._._._._._._._._._._._._._._._._._._.",
"_._._._._._._._._._._._._._._._._._._._.@ @ @ @ @ @ @ @ @ + C ;.=.=.=.=.=.=.=.=.=.=.=.=.=.=.=.=.=.;.C + @ @ @ @ @ @ @ @ @ _._._._._._._._._._._._._._._._._._._._.",
"_._._._._._._._._._._._._._._._._._._._.@ @ @ @ @ @ @ @ @ + D t.e.e.e.e.e.e.e.e.e.e.e.e.e.e.e.e.e.t.D + @ @ @ @ @ @ @ @ @ _._._._._._._._._._._._._._._._._._._._.",
"_._._._._._._._._._._._._._._._._._._._.@ @ @ @ @ @ @ @ @ + S r.w.w.w.w.w.w.w.w.w.w.w.w.w.w.w.w.w.r.S + @ @ @ @ @ @ @ @ @ _._._._._._._._._._._._._._._._._._._._.",
"_._._._._._._._._._._._._._._._._._._._.+ + + + + + + + + o A r.w.w.w.w.w.w.w.w.w.w.w.w.w.w.w.w.w.r.A o + + + + + + + + + _._._._._._._._._._._._._._._._._._._._.",
"_._._._._._._._._._._._._._._._._._._._.5 7 6 6 6 6 6 6 6 5 R r.w.w.w.w.w.w.w.w.w.w.w.w.w.w.w.w.w.r.R 5 6 6 6 6 6 6 6 7 5 _._._._._._._._._._._._._._._._._._._._.",
"_._._._._._._._._._._._._._._.@ @ @ @ + F :.-.-.-.-.-.-.-.-.4.w.w.w.w.w.w.w.w.w.w.w.w.w.w.w.w.w.w.w.4.-.-.-.-.-.-.-.-.:.F + @ @ @ @ _._._._._._._._._._._._._._._.",
"_._._._._._._._._._._._._._._.@ @ @ @ + T t.e.e.e.e.e.e.e.e.w.w.w.w.w.w.w.w.w.w.w.w.w.w.w.w.w.w.w.w.w.e.e.e.e.e.e.e.e.t.T + @ @ @ @ _._._._._._._._._._._._._._._.",
"_._._._._._._._._._._._._._._.@ @ @ @ + Y r.w.w.w.w.w.w.w.w.w.w.w.w.w.w.w.w.w.w.w.w.w.w.w.w.w.w.w.w.w.w.w.w.w.w.w.w.w.r.Y + @ @ @ @ _._._._._._._._._._._._._._._.",
"_._._._._._._._._._._._._._._.+ + + + O U r.w.w.w.w.w.w.w.w.w.w.w.w.w.w.w.w.w.w.w.w.w.w.w.w.w.w.w.w.w.w.w.w.w.w.w.w.w.r.U O + + + + _._._._._._._._._._._._._._._.",
"_._._._._._._._._._._._._._._.6 9 9 9 8 / r.w.w.w.w.w.w.w.w.w.w.w.w.w.w.w.w.w.w.w.w.w.w.w.w.w.w.w.w.w.w.w.w.w.w.w.w.w.r./ 8 9 9 9 6 _._._._._._._._._._._._._._._.",
"_._._._._._._._._._.@ @ @ @ @ I ,.;.;.;.5.w.w.w.w.w.w.w.w.w.w.w.w.w.w.w.w.w.w.w.w.w.w.w.w.w.w.w.w.w.w.w.w.w.w.w.w.w.w.w.5.;.;.;.,.I @ @ @ @ @ _._._._._._._._._._.",
"_._._._._._._._._._.@ @ @ @ @ ! t.e.e.e.w.w.w.w.w.w.w.w.w.w.w.w.w.w.w.w.w.w.w.w.w.w.w.w.w.w.w.w.w.w.w.w.w.w.w.w.w.w.w.w.w.e.e.e.t.! @ @ @ @ @ _._._._._._._._._._.",
"_._._._._._._._._._.@ @ @ @ @ Q r.w.w.w.w.w.w.w.w.w.w.w.w.w.w.w.w.w.w.w.w.w.w.w.w.w.w.w.w.w.w.w.w.w.w.w.w.w.w.w.w.w.w.w.w.w.w.w.r.Q @ @ @ @ @ _._._._._._._._._._.",
"_._._._._._._._._._.@ @ @ @ @ Q r.w.w.w.w.w.w.w.w.w.w.w.w.w.w.w.w.w.w.w.w.w.w.w.w.w.w.w.w.w.w.w.w.w.w.w.w.w.w.w.w.w.w.w.w.w.w.w.r.Q @ @ @ @ @ _._._._._._._._._._.",
"_._._._._._._._._._.@ @ @ @ @ Q r.w.w.w.w.w.w.w.w.w.w.w.w.w.w.w.w.w.w.w.w.w.w.w.w.w.w.w.w.w.w.w.w.w.w.w.w.w.w.w.w.w.w.w.w.w.w.w.r.Q @ @ @ @ @ _._._._._._._._._._.",
"_._._._._._._._._._.@ @ @ @ @ Q r.w.w.w.w.w.w.w.w.w.w.w.w.w.w.w.w.w.w.w.w.w.w.w.w.w.w.w.w.w.w.w.w.w.w.w.w.w.w.w.w.w.w.w.w.w.w.w.r.Q @ @ @ @ @ _._._._._._._._._._.",
"_._._._._._._._._._.@ @ @ @ @ Q r.w.w.w.w.w.w.w.w.w.w.w.w.w.w.w.w.w.w.w.w.w.w.w.w.w.w.w.w.w.w.w.w.w.w.w.w.w.w.w.w.w.w.w.w.w.w.w.r.Q @ @ @ @ @ _._._._._._._._._._.",
"_._._._._._._._._._.@ @ @ @ @ Q r.w.w.w.w.w.w.w.w.w.w.w.w.w.w.w.w.w.w.w.w.w.w.w.w.w.w.w.w.w.w.w.w.w.w.w.w.w.w.w.w.w.w.w.w.w.w.w.r.Q @ @ @ @ @ _._._._._._._._._._.",
"_._._._._._._._._._.@ @ @ @ @ Q r.w.w.w.w.w.w.w.w.w.w.w.w.w.w.w.w.w.w.w.w.w.w.w.w.w.w.w.w.w.w.w.w.w.w.w.w.w.w.w.w.w.w.w.w.w.w.w.r.Q @ @ @ @ @ _._._._._._._._._._.",
"_._._._._._._._._._.@ @ @ @ @ Q r.w.w.w.w.w.w.w.w.w.w.w.w.w.w.w.w.w.w.w.w.w.w.w.w.w.w.w.w.w.w.w.w.w.w.w.w.w.w.w.w.w.w.w.w.w.w.w.r.Q @ @ @ @ @ _._._._._._._._._._.",
"_._._._._._._._._._.@ @ @ @ @ Q r.w.w.w.w.w.w.w.w.w.w.w.w.w.w.w.w.w.w.w.w.w.w.w.w.w.w.w.w.w.w.w.w.w.w.w.w.w.w.w.w.w.w.w.w.w.w.w.r.Q @ @ @ @ @ _._._._._._._._._._.",
"_._._._._._._._._._.@ @ @ @ @ Q r.w.w.w.w.w.w.w.w.w.w.w.w.w.w.w.w.w.w.w.w.w.w.w.w.w.w.w.w.w.w.w.w.w.w.w.w.w.w.w.w.w.w.w.w.w.w.w.r.Q @ @ @ @ @ _._._._._._._._._._.",
"_._._._._._._._._._.@ @ @ @ @ Q r.w.w.w.w.w.w.w.w.w.w.w.w.w.w.w.w.w.w.w.w.w.w.w.w.w.w.w.w.w.w.w.w.w.w.w.w.w.w.w.w.w.w.w.w.w.w.w.r.Q @ @ @ @ @ _._._._._._._._._._.",
"_._._._._._._._._._.@ @ @ @ @ Q r.w.w.w.w.w.w.w.w.w.w.w.w.w.w.w.w.w.w.w.w.w.w.w.w.w.w.w.w.w.w.w.w.w.w.w.w.w.w.w.w.w.w.w.w.w.w.w.r.Q @ @ @ @ @ _._._._._._._._._._.",
"_._._._._._._._._._.@ @ @ @ @ Q r.w.w.w.w.w.w.w.w.w.w.w.w.w.w.w.w.w.w.w.w.w.w.w.w.w.w.w.w.w.w.w.w.w.w.w.w.w.w.w.w.w.w.w.w.w.w.w.r.Q @ @ @ @ @ _._._._._._._._._._.",
"_._._._._.@ @ @ @ @ @ @ @ @ @ Q r.w.w.w.w.w.w.w.w.w.w.w.w.w.w.w.w.w.w.w.w.w.w.w.w.w.w.w.w.w.w.w.w.w.w.w.w.w.w.w.w.w.w.w.w.w.w.w.r.Q @ @ @ @ @ @ @ @ @ @ _._._._._.",
"_._._._._.@ @ @ @ @ @ @ @ @ @ Q r.w.w.w.w.w.w.w.w.w.w.w.w.w.w.w.w.w.w.w.w.w.w.w.w.w.w.w.w.w.w.w.w.w.w.w.w.w.w.w.w.w.w.w.w.w.w.w.r.Q @ @ @ @ @ @ @ @ @ @ _._._._._.",
"_._._._._.@ @ @ @ @ @ @ @ @ @ Q r.w.w.w.w.w.w.w.w.w.w.w.w.w.w.w.w.w.w.w.w.w.w.w.w.w.w.w.w.w.w.w.w.w.w.w.w.w.w.w.w.w.w.w.w.w.w.w.r.Q @ @ @ @ @ @ @ @ @ @ _._._._._.",
"_._._._._.@ @ @ @ @ O o o o o Q u.r.r.r.r.r.r.r.r.e.w.w.w.w.w.w.w.w.w.w.w.w.w.w.w.w.w.w.w.w.w.w.w.w.w.w.w.w.w.e.r.r.r.r.r.r.r.r.u.Q o o o o O @ @ @ @ @ _._._._._.",
"_._._._._.@ @ @ @ @ q p i i i E +.O.O.O.O.O.O.O.O.:.w.w.w.w.w.w.w.w.w.w.w.w.w.w.w.w.w.w.w.w.w.w.w.w.w.w.w.w.w.:.O.O.O.O.O.O.O.O.+.E i i i p q @ @ @ @ @ _._._._._.",
"_._._._._.@ @ @ @ # q.L.H.H.H.H * > > > > > > > : Y r.w.w.w.w.w.w.w.w.w.w.w.w.w.w.w.w.w.w.w.w.w.w.w.w.w.w.w.r.Y : > > > > > > > * H H.H.H.L.q.# @ @ @ @ _._._._._.",
"_._._._._.@ @ @ @ # a./.W.W.W.G X @ @ @ @ @ @ @ O H r.w.w.w.w.w.w.w.w.w.w.w.w.w.w.w.w.w.w.w.w.w.w.w.w.w.w.w.r.H O @ @ @ @ @ @ @ X G W.W.W./.a.# @ @ @ @ _._._._._.",
"_._._._._.@ @ @ @ # a.~.E.E.E.G X @ @ @ @ @ @ @ + H r.w.w.w.w.w.w.w.w.w.w.w.w.w.w.w.w.w.w.w.w.w.w.w.w.w.w.w.r.H + @ @ @ @ @ @ @ X G E.E.E.~.a.# @ @ @ @ _._._._._.",
"_._._._._.@ @ @ @ # d.(.!.!.!.J X @ @ @ O o o o X H u.r.r.r.r.r.r.r.r.r.r.r.r.r.r.r.r.r.r.r.r.r.r.r.r.r.r.r.u.H X o o o O @ @ @ X G E.E.E.~.a.# @ @ @ @ _._._._._.",
"_._._._._.@ @ @ @ # #.C.B.B.B.B o @ @ @ 0 f d d a P O.o.o.o.o.o.o.o.o.o.o.o.o.o.o.o.o.o.o.o.o.o.o.o.o.o.o.o.O.P a d d f 0 @ @ @ X G E.E.E.~.a.# @ @ @ @ _._._._._.",
"_._._._._.@ @ @ @ @ > 2 2 2 2 & @ @ @ + >.P.J.J.K.~ & : : : : : : : : : : : : : : : : : : : : : : : : : : : & ~ K.J.J.P.>.+ @ @ X G E.E.E.~.a.# @ @ @ @ _._._._._.",
"_._._._._.@ @ @ @ @ @ + + + + @ @ @ @ + 8./.W.W.Q.^ X @ @ @ @ @ @ @ @ @ @ @ @ @ @ @ @ @ @ @ @ @ @ @ @ @ @ @ X ^ Q.W.W./.8.+ @ @ X G E.E.E.~.a.# @ @ @ @ _._._._._.",
"_._._._._.@ @ @ @ @ @ @ @ @ @ @ @ @ @ + 7.~.E.E.Q.^ X @ @ @ @ @ @ @ @ @ @ @ @ @ @ @ @ @ @ @ @ @ @ @ @ @ @ @ X ^ Q.E.E.~.7.+ @ @ X G E.E.E.~.a.# @ @ @ @ _._._._._.",
"_._._._._.@ @ @ @ @ O o o o o + @ @ @ + 9.(.!.!./.~   o o o o o o o o o o o o o o o o o o o o o o o o o o o   ~ /.!.!.(.9.+ @ @ X J !.!.!.(.s.# @ @ @ @ _._._._._.",
"_._._._._.@ @ @ @ @ r h g g g 4 + @ @ + ..V.m.m.N.' d g g g g g g g g g g g g g g g g g g g g g g g g g g g d ' N.m.m.V...+ @ @ o N m.m.m.B.=.# @ @ @ @ _._._._._.",
"_._._._._.@ @ @ @ # e.I.K.K.K.A X @ @ @ - 1 < < , :.I.K.K.K.K.K.K.K.K.K.K.K.K.K.K.K.K.K.K.K.K.K.K.K.K.K.K.K.I.:., < < 1 - @ @ @ @ & < < < < < _._._._._._._._._._.",
"_._._._._.@ @ @ @ # a.^.W.W.W.G X @ @ @ @ + + + O 1./.W.W.W.W.W.W.W.W.W.W.W.W.W.W.W.W.W.W.W.W.W.W.W.W.W.W.W./.1.O + + + @ @ @ @ @ @ + + + + + _._._._._._._._._._.",
"_._._._._.@ @ @ @ # a.~.E.E.E.G X @ @ @ @ @ @ @ O <.~.E.E.E.E.E.E.E.E.E.E.E.E.E.E.E.E.E.E.E.E.E.E.E.E.E.E.E.~.<.O @ @ @ @ @ @ @ @ @ @ @ @ @ @ _._._._._._._._._._.",
"_._._._._.@ @ @ @ # s.(.!.!.!.J X @ @ @ O o o o . 1.(.!.!.!.!.!.!.!.!.!.!.!.!.!.!.!.!.!.!.!.!.!.!.!.!.!.!.!.(.2.O @ @ @ + o o o o o o o o o o _._._._._._._._._._.",
"_._._._._.@ @ @ @ # *.m.b.b.b.m o @ @ @ w z k k j &.m.b.b.b.b.b.b.b.b.b.b.b.b.b.b.b.b.b.b.b.b.b.b.b.b.b.b.b.M.' + @ @ + 6 l k k k k k k k l s _._._._._._._._._._.",
"_._._._._._._._._._., , , , , % @ @ @ + 1.Y.L.L.P.( - , , , , , , , , , , , , , , , , , , , , , , , , , , , , = @ @ @ X L P.L.L.L.L.L.L.L.U.y.# @ @ @ @ _._._._._.",
"_._._._._._._._._._.+ + + + + @ @ @ @ + 8.^.W.W.Q.~ X + + + + + + + + + + + + + + + + + + + + + + + + + + + + @ @ @ @ X E Q.W.W.W.W.W.W.W.~.a.# @ @ @ @ _._._._._.",
"_._._._._._._._._._.@ @ @ @ @ @ @ @ @ + 7.~.E.E.Q.^ X @ @ @ @ @ @ @ @ @ @ @ @ @ @ @ @ @ @ @ @ @ @ @ @ @ @ @ @ @ @ @ @ X R W.E.E.E.E.E.E.E.~.a.# @ @ @ @ _._._._._.",
"_._._._._._._._._._.@ @ @ @ @ @ @ @ @ + 0.(.!.!./.~   o o o o o o o o o o o o o o o o o o o o o o o o o o o o O @ @ @ X R W.E.E.E.E.E.E.E.~.a.# @ @ @ @ _._._._._.",
"_._._._._._._._._._.@ @ @ @ @ @ @ @ @ + | b.x.x.v.] z x x x x x x x x x x x x x x x x x x x x x x x x x x x c e @ @ @ X R W.E.E.E.E.E.E.E.~.a.# @ @ @ @ _._._._._.",
"_._._._._._._._._._._._._._._.@ @ @ @ @ = > > > ; :.Y.P.P.P.P.P.P.P.P.P.P.P.P.P.P.P.P.P.P.P.P.P.P.P.P.P.P.P.T.=.O @ @ X R W.E.E.E.E.E.E.E.~.a.# @ @ @ @ _._._._._.",
"_._._._._._._._._._._._._._._.@ @ @ @ @ @ + @ @ O 1.~.E.E.E.E.E.E.E.E.E.E.E.E.E.E.E.E.E.E.E.E.E.E.E.E.E.E.E.~.1.O @ @ X R W.E.E.E.E.E.E.E.~.a.# @ @ @ @ _._._._._.",
"_._._._._._._._._._._._._._._.@ @ @ @ @ @ @ @ @ O <.~.E.E.E.E.E.E.E.E.E.E.E.E.E.E.E.E.E.E.E.E.E.E.E.E.E.E.E.~.<.O @ @ X R W.E.E.E.E.E.E.E.~.a.# @ @ @ @ _._._._._.",
"_._._._._._._._._._._._._._._.@ @ @ @ @ @ @ @ @ O 2.(.!.!.!.Q.W.W.W.W.W.E.E.E.E.E.E.E.E.E.Q.!.!.!.!.!.!.!.!.(.2.O @ @ X W ~.!.!.!.!.!.!.!.(.s.# @ @ @ @ _._._._._.",
"_._._._._._._._._._._._._._._.@ @ @ @ @ @ @ @ @ + ) c.l.l.k.S.G.F.F.F.L.E.E.E.E.E.E.E.E.W.D.k.l.l.l.l.l.l.l.c.) + @ @ o V z.l.l.l.l.l.l.l.x.%.# @ @ @ @ _._._._._.",
"_._._._._._._._._._._._._._._.@ @ @ @ @ @ @ @ @ @ & : : : - K p.t.t.r.A.W.E.E.E.E.E.E.E.!.%.& : : : : : : : : & @ @ @ @ % : : : : : : : : : : _._._._._._._._._._.",
"_._._._._._._._._._._._._._._.@ @ @ @ @ @ @ @ @ @ @ @ @ @ O S r.w.w.q.Z.W.E.E.E.E.E.E.E.~.@.o @ @ @ @ @ @ @ @ @ @ @ @ @ @ @ @ @ @ @ @ @ @ @ @ _._._._._._._._._._.",
"_._._._._._._._._._._._._._._.@ @ @ @ @ @ @ @ @ @ @ @ @ @ + S r.w.w.q.Z.W.E.E.E.E.E.E.E.~.#.o @ @ @ @ @ @ @ @ @ @ @ @ @ @ @ @ @ @ @ @ @ @ @ @ _._._._._._._._._._.",
"_._._._._._._._._._._._._._._.@ @ @ @ @ O o o o o o O O O X D i.r.r.e.S./.!.!.!.!.!.!.!.(.$.o @ @ @ @ @ @ @ @ @ @ @ @ @ @ @ @ @ @ @ @ @ @ @ @ _._._._._._._._._._.",
"_._._._._._._._._._._._._._._.@ @ @ @ @ t b v v v d y u u t Z  .} } [ 6.j.h.h.h.h.h.h.h.k._ o @ @ @ @ @ @ @ @ @ @ @ @ @ @ @ @ @ @ @ @ @ @ @ _._._._._._._._._._._.",
"_._._._._._._._._._._._._._._.@ @ @ @ + 3.R.U.U.Y.x.5.6.6.9.m $ & & & = - - - - - - - - - - _._._._._._._._._._._._._._._._._._._._._._._._._._._._._._._._._._._.",
"_._._._._._._._._._._._._._._.@ @ @ @ + 7.~.E.E.W.m.q.w.w.r.n o @ @ @ @ @ @ @ @ @ @ @ @ @ @ _._._._._._._._._._._._._._._._._._._._._._._._._._._._._._._._._._._.",
"_._._._._._._._._._._._._._._.@ @ @ @ + 7.~.E.E.W.n.q.w.w.e.m O @ @ @ @ @ @ @ @ @ @ @ @ @ @ _._._._._._._._._._._._._._._._._._._._._._._._._._._._._._._._._._._.",
"_._._._._._._._._._._._._._._.@ @ @ @ + 9.).!.!.~.B.e.r.r.u.M O @ @ @ @ @ @ @ @ @ @ @ @ @ @ _._._._._._._._._._._._._._._._._._._._._._._._._._._._._._._._._._._.",
"_._._._._._._._._._._._._._._._.@ @ @ + X.h.f.f.g.;.` ] ] { s O @ @ @ @ @ @ @ @ @ @ @ @ @ _._._._._._._._._._._._._._._._._._._._._._._._._._._._._._._._._._._._.",
"_._._._._._._._._._._._._._._._._._._._.= = = = = & % % % % # @ @ @ @ _._._._._._._._._._._._._._._._._._._._._._._._._._._._._._._._._._._._._._._._._._._._._._.",
"_._._._._._._._._._._._._._._._._._._._.@ @ @ @ @ @ @ @ @ @ @ @ @ @ @ _._._._._._._._._._._._._._._._._._._._._._._._._._._._._._._._._._._._._._._._._._._._._._.",
"_._._._._._._._._._._._._._._._._._._._.@ @ @ @ @ @ @ @ @ @ @ @ @ @ @ _._._._._._._._._._._._._._._._._._._._._._._._._._._._._._._._._._._._._._._._._._._._._._.",
"_._._._._._._._._._._._._._._._._._._._.@ @ @ @ @ @ @ @ @ @ @ @ @ @ @ _._._._._._._._._._._._._._._._._._._._._._._._._._._._._._._._._._._._._._._._._._._._._._.",
"_._._._._._._._._._._._._._._._._._._._._.@ @ @ @ @ @ @ @ @ @ @ @ @ @ _._._._._._._._._._._._._._._._._._._._._._._._._._._._._._._._._._._._._._._._._._._._._._."
};
