/* XPM */
static char *_158_1a372c59307e03a4b0cd267e6062c59c07a9367d9de8d5e1a24c5bfa76e09b7e[] = {
/* columns rows colors chars-per-pixel */
"96 96 28 1 ",
"  c #002901",
". c #003801",
"X c #033E01",
"o c #110023",
"O c #1A1223",
"+ c #1A1224",
"@ c #22162A",
"# c #0DAF09",
"$ c #19AF0A",
"% c #1AAF0A",
"& c #23AF0A",
"* c #2DC30C",
"= c #34C30C",
"- c #30CB0D",
"; c #46D60E",
": c #C0FF55",
"> c #C4FF5E",
", c #DBFF5E",
"< c #D5FF65",
"1 c #DEFF66",
"2 c #D8FF6D",
"3 c #E1FF6E",
"4 c #E9FF6F",
"5 c #EAFF80",
"6 c #EAFF81",
"7 c #F6FF89",
"8 c #FFFF92",
"9 c #FFFF94",
/* pixels */
"&&&&&&222222&&&&&&333333======444444------111111------111111======444444&&&&&&333333&&&&&&>>>>>>",
"&&&&&&222222&&&&&&333333======444444------111111------111111======444444&&&&&&333333&&&&&&>>>>>>",
"&&&&&&222222&&&&&&333333======444444------111111------111111======444444&&&&&&333333&&&&&&>>>>>>",
"&&&&&&222222&&&&&&333333======444444------111111------111111======444444&&&&&&333333&&&&&&>>>>>>",
"&&&&&&222222&&&&&&333333======444444------111111------111111======444444&&&&&&333333&&&&&&>>>>>>",
"<<<<<<======333333      444444      333333======<<<<<<======333333      444444      333333******",
"<<<<<<======333333      444444      333333======<<<<<<======333333      444444      333333******",
"<<<<<<======333333      444444      333333======<<<<<<======333333      444444      333333******",
"<<<<<<======333333      444444      333333======<<<<<<======333333      444444      333333******",
"<<<<<<======333333      444444      333333======<<<<<<======333333      444444      333333******",
"<<<<<<======333333      444444      333333======<<<<<<======333333      444444      333333******",
";;;;;;XXXXXX======333333&&&&&&333333======XXXXXX;;;;;;XXXXXX======333333&&&&&&333333======......",
";;;;;;XXXXXX======333333&&&&&&333333======XXXXXX;;;;;;XXXXXX======333333&&&&&&333333======......",
";;;;;;XXXXXX======333333&&&&&&333333======XXXXXX;;;;;;XXXXXX======333333&&&&&&333333======......",
";;;;;;XXXXXX======333333&&&&&&333333======XXXXXX;;;;;;XXXXXX======333333&&&&&&333333======......",
";;;;;;XXXXXX======333333&&&&&&333333======XXXXXX;;;;;;XXXXXX======333333&&&&&&333333======......",
";;;;;;XXXXXX======333333&&&&&&333333======XXXXXX;;;;;;XXXXXX======333333&&&&&&333333======......",
"<<<<<<======222222&&&&&&222222&&&&&&222222======<<<<<<======222222&&&&&&222222&&&&&&222222******",
"<<<<<<======222222&&&&&&222222&&&&&&222222======<<<<<<======222222&&&&&&222222&&&&&&222222******",
"<<<<<<======222222&&&&&&222222&&&&&&222222======<<<<<<======222222&&&&&&222222&&&&&&222222******",
"<<<<<<======222222&&&&&&222222&&&&&&222222======<<<<<<======222222&&&&&&222222&&&&&&222222******",
"<<<<<<======222222&&&&&&222222&&&&&&222222======<<<<<<======222222&&&&&&222222&&&&&&222222******",
"<<<<<<======222222&&&&&&222222&&&&&&222222======<<<<<<======222222&&&&&&222222&&&&&&222222******",
"&&&&&&222222&&&&&&222222&&&&&&222222&&&&&&222222&&&&&&222222&&&&&&222222&&&&&&222222&&&&&&>>>>>>",
"&&&&&&222222&&&&&&222222&&&&&&222222&&&&&&222222&&&&&&222222&&&&&&222222&&&&&&222222&&&&&&>>>>>>",
"&&&&&&222222&&&&&&222222&&&&&&222222&&&&&&222222&&&&&&222222&&&&&&222222&&&&&&222222&&&&&&>>>>>>",
"&&&&&&222222&&&&&&222222&&&&&&222222&&&&&&222222&&&&&&222222&&&&&&222222&&&&&&222222&&&&&&>>>>>>",
"&&&&&&222222&&&&&&222222&&&&&&222222&&&&&&222222&&&&&&222222&&&&&&222222&&&&&&222222&&&&&&>>>>>>",
"&&&&&&222222&&&&&&222222&&&&&&222222&&&&&&222222&&&&&&222222&&&&&&222222&&&&&&222222&&&&&&>>>>>>",
"<<<<<<&&&&&&222222&&&&&&222222&&&&&&222222&&&&&&<<<<<<&&&&&&222222&&&&&&222222&&&&&&222222$$$$$$",
"<<<<<<&&&&&&222222&&&&&&222222&&&&&&222222&&&&&&<<<<<<&&&&&&222222&&&&&&222222&&&&&&222222$$$$$$",
"<<<<<<&&&&&&222222&&&&&&222222&&&&&&222222&&&&&&<<<<<<&&&&&&222222&&&&&&222222&&&&&&222222$$$$$$",
"<<<<<<&&&&&&222222&&&&&&222222&&&&&&222222&&&&&&<<<<<<&&&&&&222222&&&&&&222222&&&&&&222222$$$$$$",
"<<<<<<&&&&&&222222&&&&&&222222&&&&&&222222&&&&&&<<<<<<&&&&&&222222&&&&&&222222&&&&&&222222$$$$$$",
"<<<<<<&&&&&&222222&&&&&&222222&&&&&&222222&&&&&&<<<<<<&&&&&&222222&&&&&&222222&&&&&&222222$$$$$$",
"&&&&&&222222&&&&&&222222&&&&&&222222&&&&&&222222&&&&&&222222&&&&&&222222&&&&&&222222&&&&&&>>>>>>",
"&&&&&&222222&&&&&&222222&&&&&&222222&&&&&&222222&&&&&&222222&&&&&&222222&&&&&&222222&&&&&&>>>>>>",
"&&&&&&222222&&&&&&222222&&&&&&222222&&&&&&222222&&&&&&222222&&&&&&222222&&&&&&222222&&&&&&>>>>>>",
"&&&&&&222222&&&&&&222222&&&&&&222222&&&&&&222222&&&&&&222222&&&&&&222222&&&&&&222222&&&&&&>>>>>>",
"&&&&&&222222&&&&&&222222&&&&&&222222&&&&&&222222&&&&&&222222&&&&&&222222&&&&&&222222&&&&&&>>>>>>",
"&&&&&&222222&&&&&&222222&&&&&&222222&&&&&&222222&&&&&&222222&&&&&&222222&&&&&&222222&&&&&&>>>>>>",
"<<<<<<&&&&&&222222&&&&&&222222&&&&&&222222&&&&&&<<<<<<&&&&&&222222&&&&&&222222&&&&&&222222$$$$$$",
"<<<<<<&&&&&&222222&&&&&&222222&&&&&&222222&&&&&&<<<<<<&&&&&&222222&&&&&&222222&&&&&&222222$$$$$$",
"<<<<<<&&&&&&222222&&&&&&222222&&&&&&222222&&&&&&<<<<<<&&&&&&222222&&&&&&222222&&&&&&222222$$$$$$",
"<<<<<<&&&&&&222222&&&&&&222222&&&&&&222222&&&&&&<<<<<<&&&&&&222222&&&&&&222222&&&&&&222222$$$$$$",
"<<<<<<&&&&&&222222&&&&&&222222&&&&&&222222&&&&&&<<<<<<&&&&&&222222&&&&&&222222&&&&&&222222$$$$$$",
"<<<<<<&&&&&&222222&&&&&&222222&&&&&&222222&&&&&&<<<<<<&&&&&&222222&&&&&&222222&&&&&&222222$$$$$$",
"&&&&&&222222&&&&&&333333&&&&&&333333&&&&&&222222&&&&&&222222&&&&&&333333&&&&&&333333&&&&&&>>>>>>",
"&&&&&&222222&&&&&&333333&&&&&&333333&&&&&&222222&&&&&&222222&&&&&&333333&&&&&&333333&&&&&&>>>>>>",
"&&&&&&222222&&&&&&333333&&&&&&333333&&&&&&222222&&&&&&222222&&&&&&333333&&&&&&333333&&&&&&>>>>>>",
"&&&&&&222222&&&&&&333333&&&&&&333333&&&&&&222222&&&&&&222222&&&&&&333333&&&&&&333333&&&&&&>>>>>>",
"&&&&&&222222&&&&&&333333&&&&&&333333&&&&&&222222&&&&&&222222&&&&&&333333&&&&&&333333&&&&&&>>>>>>",
"&&&&&&222222&&&&&&333333&&&&&&333333&&&&&&222222&&&&&&222222&&&&&&333333&&&&&&333333&&&&&&>>>>>>",
"<<<<<<======333333      444444      333333======<<<<<<======333333      444444      333333******",
"<<<<<<======333333      444444      333333======<<<<<<======333333      444444      333333******",
"<<<<<<======333333      444444      333333======<<<<<<======333333      444444      333333******",
"<<<<<<======333333      444444      333333======<<<<<<======333333      444444      333333******",
"<<<<<<======333333      444444      333333======<<<<<<======333333      444444      333333******",
"<<<<<<======333333      444444      333333======<<<<<<======333333      444444      333333******",
";;;;;;XXXXXX======333333&&&&&&333333======XXXXXX;;;;;;XXXXXX======333333&&&&&&333333======......",
";;;;;;XXXXXX======333333&&&&&&333333======XXXXXX;;;;;;XXXXXX======333333&&&&&&333333======......",
";;;;;;XXXXXX======333333&&&&&&333333======XXXXXX;;;;;;XXXXXX======333333&&&&&&333333======......",
";;;;;;XXXXXX======333333&&&&&&333333======XXXXXX;;;;;;XXXXXX======333333&&&&&&333333======......",
";;;;;;XXXXXX======333333&&&&&&333333======XXXXXX;;;;;;XXXXXX======333333&&&&&&333333======......",
";;;;;;XXXXXX======333333&&&&&&333333======XXXXXX;;;;;;XXXXXX======333333&&&&&&333333======......",
"<<<<<<======222222&&&&&&222222&&&&&&222222======<<<<<<======222222&&&&&&222222&&&&&&222222******",
"<<<<<<======222222&&&&&&222222&&&&&&222222======<<<<<<======222222&&&&&&222222&&&&&&222222******",
"<<<<<<======222222&&&&&&222222&&&&&&222222======<<<<<<======222222&&&&&&222222&&&&&&222222******",
"<<<<<<======222222&&&&&&222222&&&&&&222222======<<<<<<======222222&&&&&&222222&&&&&&222222******",
"<<<<<<======222222&&&&&&222222&&&&&&222222======<<<<<<======222222&&&&&&222222&&&&&&222222******",
"<<<<<<======222222&&&&&&222222&&&&&&222222======<<<<<<======222222&&&&&&222222&&&&&&222222******",
"&&&&&&222222&&&&&&222222&&&&&&222222&&&&&&222222&&&&&&222222&&&&&&222222&&&&&&222222&&&&&&>>>>>>",
"&&&&&&222222&&&&&&222222&&&&&&222222&&&&&&222222&&&&&&222222&&&&&&222222&&&&&&222222&&&&&&>>>>>>",
"&&&&&&222222&&&&&&222222&&&&&&222222&&&&&&222222&&&&&&222222&&&&&&222222&&&&&&222222&&&&&&>>>>>>",
"&&&&&&222222&&&&&&222222&&&&&&222222&&&&&&222222&&&&&&222222&&&&&&222222&&&&&&222222&&&&&&>>>>>>",
"&&&&&&222222&&&&&&222222&&&&&&222222&&&&&&222222&&&&&&222222&&&&&&222222&&&&&&222222&&&&&&>>>>>>",
"&&&&&&222222&&&&&&222222&&&&&&222222&&&&&&222222&&&&&&222222&&&&&&222222&&&&&&222222&&&&&&>>>>>>",
"<<<<<<&&&&&&222222&&&&&&222222&&&&&&222222&&&&&&<<<<<<&&&&&&222222&&&&&&222222&&&&&&222222$$$$$$",
"<<<<<<&&&&&&222222&&&&&&222222&&&&&&222222&&&&&&<<<<<<&&&&&&222222&&&&&&222222&&&&&&222222$$$$$$",
"<<<<<<&&&&&&222222&&&&&&222222&&&&&&222222&&&&&&<<<<<<&&&&&&222222&&&&&&222222&&&&&&222222$$$$$$",
"<<<<<<&&&&&&222222&&&&&&222222&&&&&&222222&&&&&&<<<<<<&&&&&&222222&&&&&&222222&&&&&&222222$$$$$$",
"<<<<<<&&&&&&222222&&&&&&222222&&&&&&222222&&&&&&<<<<<<&&&&&&222222&&&&&&222222&&&&&&222222$$$$$$",
"<<<<<<&&&&&&222222&&&&&&222222&&&&&&222222&&&&&&<<<<<<&&&&&&222222&&&&&&222222&&&&&&222222$$$$$$",
"&&&&&&222222&&&&&&222222&&&&&&222222&&&&&&222222&&&&&&222222&&&&&&222222&&&&&&222222&&&&&&>>>>>>",
"&&&&&&222222&&&&&&222222&&&&&&222222&&&&&&222222&&&&&&222222&&&&&&222222&&&&&&222222&&&&&&>>>>>>",
"&&&&&&222222&&&&&&222222&&&&&&222222&&&&&&222222&&&&&&222222&&&&&&222222&&&&&&222222&&&&&&>>>>>>",
"&&&&&&222222&&&&&&222222&&&&&&222222&&&&&&222222&&&&&&222222&&&&&&222222&&&&&&222222&&&&&&>>>>>>",
"&&&&&&222222&&&&&&222222&&&&&&222222&&&&&&222222&&&&&&222222&&&&&&222222&&&&&&222222&&&&&&>>>>>>",
"&&&&&&222222&&&&&&222222&&&&&&222222&&&&&&222222&&&&&&222222&&&&&&222222&&&&&&222222&&&&&&>>>>>>",
"::::::%%%%%%>>>>>>$$$$$$>>>>>>------111111------,,,,,,------>>>>>>$$$$$$>>>>>>$$$$$$>>>>>>######",
"::::::%%%%%%>>>>>>$$$$$$>>>>>>------111111------,,,,,,------>>>>>>$$$$$$>>>>>>$$$$$$>>>>>>######",
"::::::%%%%%%>>>>>>$$$$$$>>>>>>------111111------,,,,,,------>>>>>>$$$$$$>>>>>>$$$$$$>>>>>>######",
"::::::%%%%%%>>>>>>$$$$$$>>>>>>------111111------,,,,,,------>>>>>>$$$$$$>>>>>>$$$$$$>>>>>>######",
"::::::%%%%%%>>>>>>$$$$$$>>>>>>------111111------,,,,,,------>>>>>>$$$$$$>>>>>>$$$$$$>>>>>>######",
"::::::%%%%%%>>>>>>$$$$$$>>>>>>------111111------,,,,,,------>>>>>>$$$$$$>>>>>>$$$$$$>>>>>>######",
"666666777777555555888888999999ooooooOOOOOO@@@@@@++++++oooooo999999888888555555777777555555777777"
};
