/* XPM */
static char *_0317_5e89306ccb49ceb5d602f6c35b64f92e7c3386eda637b696ed5cc5a836edf979[] = {
/* columns rows colors chars-per-pixel */
"96 96 81 1 ",
"  c #14121E",
". c #002901",
"X c #033E01",
"o c #0C0029",
"O c #160B24",
"+ c #19062C",
"@ c #140031",
"# c #1B0032",
"$ c #251D2E",
"% c #23033B",
"& c #271735",
"* c #28103B",
"= c #29123C",
"- c #2F1B3D",
"; c #252525",
": c #2D2137",
"> c #36243E",
", c #342B38",
"< c #323232",
"1 c #004802",
"2 c #004D02",
"3 c #034F02",
"4 c #0B4802",
"5 c #005502",
"6 c #0C5A03",
"7 c #036103",
"8 c #006703",
"9 c #0E6D04",
"0 c #136403",
"q c #1D6904",
"w c #037404",
"e c #1A7004",
"r c #167805",
"t c #117F05",
"y c #250042",
"u c #2A0642",
"i c #2B0943",
"p c #270048",
"a c #2D0049",
"s c #311444",
"d c #381E44",
"f c #3A184B",
"g c #058706",
"h c #19AF0A",
"j c #1AAF0A",
"k c #23AF0A",
"l c #2EB50A",
"z c #34C30C",
"x c #30CB0D",
"c c #3ED60E",
"v c #3FE70F",
"b c #46D60E",
"n c #47D80F",
"m c #43DE0F",
"M c #58ED11",
"N c #55F511",
"B c #50FB11",
"V c #5FFA12",
"C c #59FF12",
"Z c #62FF12",
"A c #65FF12",
"S c #67FF14",
"D c #6AFE17",
"F c #C4FF5E",
"G c #CCFF5F",
"H c #EAFF5B",
"J c #D6FF60",
"K c #DEFF66",
"L c #D8FF6D",
"P c #E4FF61",
"I c #E7FF67",
"U c #EDFF62",
"Y c #E1FF6E",
"T c #E9FF6F",
"R c #EAFF80",
"E c #F2FF86",
"W c #F6FF89",
"Q c #FFFF92",
"! c #FFFF94",
"~ c #FFFF9A",
"^ c #FFFF9E",
/* pixels */
"LkkkkkkLLLLLLkkkkkkKKKKKKmmmmmmUUUUUU++++++::::::++++++HHHHHHmmmmmmIIIIIIkkkkkkLLLLLLkkkkkkLLLLL",
"LkkkkkkLLLLLLkkkkkkKKKKKKmmmmmmUUUUUU++++++::::::++++++HHHHHHmmmmmmIIIIIIkkkkkkLLLLLLkkkkkkLLLLL",
"LkkkkkkLLLLLLkkkkkkKKKKKKmmmmmmUUUUUU++++++::::::++++++HHHHHHmmmmmmIIIIIIkkkkkkLLLLLLkkkkkkLLLLL",
"LkkkkkkLLLLLLkkkkkkKKKKKKmmmmmmUUUUUU++++++::::::++++++HHHHHHmmmmmmIIIIIIkkkkkkLLLLLLkkkkkkLLLLL",
"LkkkkkkLLLLLLkkkkkkKKKKKKmmmmmmUUUUUU++++++::::::++++++HHHHHHmmmmmmIIIIIIkkkkkkLLLLLLkkkkkkLLLLL",
"kLLLLLLzzzzzzPPPPPP@@@@@@::::::@@@@@@PPPPPPxxxxxxPPPPPPoooooo::::::######PPPPPPkkkkkkLLLLLLkkkkk",
"kLLLLLLzzzzzzPPPPPP@@@@@@::::::@@@@@@PPPPPPxxxxxxPPPPPPoooooo::::::######PPPPPPkkkkkkLLLLLLkkkkk",
"kLLLLLLzzzzzzPPPPPP@@@@@@::::::@@@@@@PPPPPPxxxxxxPPPPPPoooooo::::::######PPPPPPkkkkkkLLLLLLkkkkk",
"kLLLLLLzzzzzzPPPPPP@@@@@@::::::@@@@@@PPPPPPxxxxxxPPPPPPoooooo::::::######PPPPPPkkkkkkLLLLLLkkkkk",
"kLLLLLLzzzzzzPPPPPP@@@@@@::::::@@@@@@PPPPPPxxxxxxPPPPPPoooooo::::::######PPPPPPkkkkkkLLLLLLkkkkk",
"kLLLLLLzzzzzzPPPPPP@@@@@@::::::@@@@@@PPPPPPxxxxxxPPPPPPoooooo::::::######PPPPPPkkkkkkLLLLLLkkkkk",
"Lzzzzzz333333%%%%%%CCCCCCyyyyyyNNNNNNllllllLLLLLLkkkkkkPPPPPP******wwwwww######KKKKKKkkkkkkLLLLL",
"Lzzzzzz333333%%%%%%CCCCCCyyyyyyNNNNNNllllllLLLLLLkkkkkkPPPPPP******wwwwww######KKKKKKkkkkkkLLLLL",
"Lzzzzzz333333%%%%%%CCCCCCyyyyyyNNNNNNllllllLLLLLLkkkkkkPPPPPP******wwwwww######KKKKKKkkkkkkLLLLL",
"Lzzzzzz333333%%%%%%CCCCCCyyyyyyNNNNNNllllllLLLLLLkkkkkkPPPPPP******wwwwww######KKKKKKkkkkkkLLLLL",
"Lzzzzzz333333%%%%%%CCCCCCyyyyyyNNNNNNllllllLLLLLLkkkkkkPPPPPP******wwwwww######KKKKKKkkkkkkLLLLL",
"Lzzzzzz333333%%%%%%CCCCCCyyyyyyNNNNNNllllllLLLLLLkkkkkkPPPPPP******wwwwww######KKKKKKkkkkkkLLLLL",
"kLLLLLLBBBBBByyyyyyNNNNNNMMMMMMnnnnnnLLLLLLkkkkkkLLLLLLbbbbbb333333AAAAAAiiiiiivvvvvvLLLLLLkkkkk",
"kLLLLLLBBBBBByyyyyyNNNNNNMMMMMMnnnnnnLLLLLLkkkkkkLLLLLLbbbbbb333333AAAAAAiiiiiivvvvvvLLLLLLkkkkk",
"kLLLLLLBBBBBByyyyyyNNNNNNMMMMMMnnnnnnLLLLLLkkkkkkLLLLLLbbbbbb333333AAAAAAiiiiiivvvvvvLLLLLLkkkkk",
"kLLLLLLBBBBBByyyyyyNNNNNNMMMMMMnnnnnnLLLLLLkkkkkkLLLLLLbbbbbb333333AAAAAAiiiiiivvvvvvLLLLLLkkkkk",
"kLLLLLLBBBBBByyyyyyNNNNNNMMMMMMnnnnnnLLLLLLkkkkkkLLLLLLbbbbbb333333AAAAAAiiiiiivvvvvvLLLLLLkkkkk",
"kLLLLLLBBBBBByyyyyyNNNNNNMMMMMMnnnnnnLLLLLLkkkkkkLLLLLLbbbbbb333333AAAAAAiiiiiivvvvvvLLLLLLkkkkk",
"LxxxxxxyyyyyyZZZZZZppppppwwwwwwppppppmmmmmmKKKKKKbbbbbb333333SSSSSSaaaaaattttttiiiiiixxxxxxLLLLL",
"LxxxxxxyyyyyyZZZZZZppppppwwwwwwppppppmmmmmmKKKKKKbbbbbb333333SSSSSSaaaaaattttttiiiiiixxxxxxLLLLL",
"LxxxxxxyyyyyyZZZZZZppppppwwwwwwppppppmmmmmmKKKKKKbbbbbb333333SSSSSSaaaaaattttttiiiiiixxxxxxLLLLL",
"LxxxxxxyyyyyyZZZZZZppppppwwwwwwppppppmmmmmmKKKKKKbbbbbb333333SSSSSSaaaaaattttttiiiiiixxxxxxLLLLL",
"LxxxxxxyyyyyyZZZZZZppppppwwwwwwppppppmmmmmmKKKKKKbbbbbb333333SSSSSSaaaaaattttttiiiiiixxxxxxLLLLL",
"LxxxxxxyyyyyyZZZZZZppppppwwwwwwppppppmmmmmmKKKKKKbbbbbb333333SSSSSSaaaaaattttttiiiiiixxxxxxLLLLL",
"kKKKKKK&&&&&&777777AAAAAAppppppAAAAAA333333uuuuuu777777ffffff999999eeeeeerrrrrr&&&&&&IIIIIIkkkkk",
"kKKKKKK&&&&&&777777AAAAAAppppppAAAAAA333333uuuuuu777777ffffff999999eeeeeerrrrrr&&&&&&IIIIIIkkkkk",
"kKKKKKK&&&&&&777777AAAAAAppppppAAAAAA333333uuuuuu777777ffffff999999eeeeeerrrrrr&&&&&&IIIIIIkkkkk",
"kKKKKKK&&&&&&777777AAAAAAppppppAAAAAA333333uuuuuu777777ffffff999999eeeeeerrrrrr&&&&&&IIIIIIkkkkk",
"kKKKKKK&&&&&&777777AAAAAAppppppAAAAAA333333uuuuuu777777ffffff999999eeeeeerrrrrr&&&&&&IIIIIIkkkkk",
"kKKKKKK&&&&&&777777AAAAAAppppppAAAAAA333333uuuuuu777777ffffff999999eeeeeerrrrrr&&&&&&IIIIIIkkkkk",
"Yvvvvvv======dddddd333333SSSSSSXXXXXXDDDDDD777777DDDDDDwwwwwwffffffttttttdddddd,,,,,,555555YYYYY",
"Yvvvvvv======dddddd333333SSSSSSXXXXXXDDDDDD777777DDDDDDwwwwwwffffffttttttdddddd,,,,,,555555YYYYY",
"Yvvvvvv======dddddd333333SSSSSSXXXXXXDDDDDD777777DDDDDDwwwwwwffffffttttttdddddd,,,,,,555555YYYYY",
"Yvvvvvv======dddddd333333SSSSSSXXXXXXDDDDDD777777DDDDDDwwwwwwffffffttttttdddddd,,,,,,555555YYYYY",
"Yvvvvvv======dddddd333333SSSSSSXXXXXXDDDDDD777777DDDDDDwwwwwwffffffttttttdddddd,,,,,,555555YYYYY",
"Yvvvvvv======dddddd333333SSSSSSXXXXXXDDDDDD777777DDDDDDwwwwwwffffffttttttdddddd,,,,,,555555YYYYY",
"vyyyyyyZZZZZZ666666DDDDDD444444DDDDDD777777ffffffwwwwwwffffffggggggffffffgggggg>>>>>>------xxxxx",
"vyyyyyyZZZZZZ666666DDDDDD444444DDDDDD777777ffffffwwwwwwffffffggggggffffffgggggg>>>>>>------xxxxx",
"vyyyyyyZZZZZZ666666DDDDDD444444DDDDDD777777ffffffwwwwwwffffffggggggffffffgggggg>>>>>>------xxxxx",
"vyyyyyyZZZZZZ666666DDDDDD444444DDDDDD777777ffffffwwwwwwffffffggggggffffffgggggg>>>>>>------xxxxx",
"vyyyyyyZZZZZZ666666DDDDDD444444DDDDDD777777ffffffwwwwwwffffffggggggffffffgggggg>>>>>>------xxxxx",
"vyyyyyyZZZZZZ666666DDDDDD444444DDDDDD777777ffffffwwwwwwffffffggggggffffffgggggg>>>>>>------xxxxx",
"P$$$$$$ssssssrrrrrr000000qqqqqq000000ffffffttttttffffffggggggffffffggggggfffffftttttt&&&&&&KKKKK",
"P$$$$$$ssssssrrrrrr000000qqqqqq000000ffffffttttttffffffggggggffffffggggggfffffftttttt&&&&&&KKKKK",
"P$$$$$$ssssssrrrrrr000000qqqqqq000000ffffffttttttffffffggggggffffffggggggfffffftttttt&&&&&&KKKKK",
"P$$$$$$ssssssrrrrrr000000qqqqqq000000ffffffttttttffffffggggggffffffggggggfffffftttttt&&&&&&KKKKK",
"P$$$$$$ssssssrrrrrr000000qqqqqq000000ffffffttttttffffffggggggffffffggggggfffffftttttt&&&&&&KKKKK",
"P$$$$$$ssssssrrrrrr000000qqqqqq000000ffffffttttttffffffggggggffffffggggggfffffftttttt&&&&&&KKKKK",
"vssssssgggggg>>>>>>ddddddrrrrrrqqqqqqrrrrrrqqqqqqttttttffffffggggggffffffttttttrrrrrriiiiiixxxxx",
"vssssssgggggg>>>>>>ddddddrrrrrrqqqqqqrrrrrrqqqqqqttttttffffffggggggffffffttttttrrrrrriiiiiixxxxx",
"vssssssgggggg>>>>>>ddddddrrrrrrqqqqqqrrrrrrqqqqqqttttttffffffggggggffffffttttttrrrrrriiiiiixxxxx",
"vssssssgggggg>>>>>>ddddddrrrrrrqqqqqqrrrrrrqqqqqqttttttffffffggggggffffffttttttrrrrrriiiiiixxxxx",
"vssssssgggggg>>>>>>ddddddrrrrrrqqqqqqrrrrrrqqqqqqttttttffffffggggggffffffttttttrrrrrriiiiiixxxxx",
"vssssssgggggg>>>>>>ddddddrrrrrrqqqqqqrrrrrrqqqqqqttttttffffffggggggffffffttttttrrrrrriiiiiixxxxx",
"Y555555>>>>>>>>>>>>ggggggffffffttttttddddddttttttffffffggggggddddddggggggdddddd------vvvvvvLLLLL",
"Y555555>>>>>>>>>>>>ggggggffffffttttttddddddttttttffffffggggggddddddggggggdddddd------vvvvvvLLLLL",
"Y555555>>>>>>>>>>>>ggggggffffffttttttddddddttttttffffffggggggddddddggggggdddddd------vvvvvvLLLLL",
"Y555555>>>>>>>>>>>>ggggggffffffttttttddddddttttttffffffggggggddddddggggggdddddd------vvvvvvLLLLL",
"Y555555>>>>>>>>>>>>ggggggffffffttttttddddddttttttffffffggggggddddddggggggdddddd------vvvvvvLLLLL",
"Y555555>>>>>>>>>>>>ggggggffffffttttttddddddttttttffffffggggggddddddggggggdddddd------vvvvvvLLLLL",
"kIIIIII######ggggggddddddggggggdddddd<<<<<<>>>>>>gggggg>>>>>><<<<<<>>>>>>gggggg******KKKKKKkkkkk",
"kIIIIII######ggggggddddddggggggdddddd<<<<<<>>>>>>gggggg>>>>>><<<<<<>>>>>>gggggg******KKKKKKkkkkk",
"kIIIIII######ggggggddddddggggggdddddd<<<<<<>>>>>>gggggg>>>>>><<<<<<>>>>>>gggggg******KKKKKKkkkkk",
"kIIIIII######ggggggddddddggggggdddddd<<<<<<>>>>>>gggggg>>>>>><<<<<<>>>>>>gggggg******KKKKKKkkkkk",
"kIIIIII######ggggggddddddggggggdddddd<<<<<<>>>>>>gggggg>>>>>><<<<<<>>>>>>gggggg******KKKKKKkkkkk",
"kIIIIII######ggggggddddddggggggdddddd<<<<<<>>>>>>gggggg>>>>>><<<<<<>>>>>>gggggg******KKKKKKkkkkk",
"LkkkkkkPPPPPP******<<<<<<>>>>>>gggggg,,,,,,,,,,,,>>>>>><<<<<<<<<<<<<<<<<<dddddd777777zzzzzzLLLLL",
"LkkkkkkPPPPPP******<<<<<<>>>>>>gggggg,,,,,,,,,,,,>>>>>><<<<<<<<<<<<<<<<<<dddddd777777zzzzzzLLLLL",
"LkkkkkkPPPPPP******<<<<<<>>>>>>gggggg,,,,,,,,,,,,>>>>>><<<<<<<<<<<<<<<<<<dddddd777777zzzzzzLLLLL",
"LkkkkkkPPPPPP******<<<<<<>>>>>>gggggg,,,,,,,,,,,,>>>>>><<<<<<<<<<<<<<<<<<dddddd777777zzzzzzLLLLL",
"LkkkkkkPPPPPP******<<<<<<>>>>>>gggggg,,,,,,,,,,,,>>>>>><<<<<<<<<<<<<<<<<<dddddd777777zzzzzzLLLLL",
"LkkkkkkPPPPPP******<<<<<<>>>>>>gggggg,,,,,,,,,,,,>>>>>><<<<<<<<<<<<<<<<<<dddddd777777zzzzzzLLLLL",
"kLLLLLLzzzzzz777777>>>>>>,,,,,,,,,,,,>>>>>>999999999999>>>>>><<<<<<>>>>>>999999bbbbbbYYYYYYkkkkk",
"kLLLLLLzzzzzz777777>>>>>>,,,,,,,,,,,,>>>>>>999999999999>>>>>><<<<<<>>>>>>999999bbbbbbYYYYYYkkkkk",
"kLLLLLLzzzzzz777777>>>>>>,,,,,,,,,,,,>>>>>>999999999999>>>>>><<<<<<>>>>>>999999bbbbbbYYYYYYkkkkk",
"kLLLLLLzzzzzz777777>>>>>>,,,,,,,,,,,,>>>>>>999999999999>>>>>><<<<<<>>>>>>999999bbbbbbYYYYYYkkkkk",
"kLLLLLLzzzzzz777777>>>>>>,,,,,,,,,,,,>>>>>>999999999999>>>>>><<<<<<>>>>>>999999bbbbbbYYYYYYkkkkk",
"kLLLLLLzzzzzz777777>>>>>>,,,,,,,,,,,,>>>>>>999999999999>>>>>><<<<<<>>>>>>999999bbbbbbYYYYYYkkkkk",
"YkkkkkkLLLLLLbbbbbb666666rrrrrrddddddwwwwwwVVVVVVVVVVVVwwwwwwddddddrrrrrr111111TTTTTT......YYYYY",
"YkkkkkkLLLLLLbbbbbb666666rrrrrrddddddwwwwwwVVVVVVVVVVVVwwwwwwddddddrrrrrr111111TTTTTT......YYYYY",
"YkkkkkkLLLLLLbbbbbb666666rrrrrrddddddwwwwwwVVVVVVVVVVVVwwwwwwddddddrrrrrr111111TTTTTT......YYYYY",
"YkkkkkkLLLLLLbbbbbb666666rrrrrrddddddwwwwwwVVVVVVVVVVVVwwwwwwddddddrrrrrr111111TTTTTT......YYYYY",
"YkkkkkkLLLLLLbbbbbb666666rrrrrrddddddwwwwwwVVVVVVVVVVVVwwwwwwddddddrrrrrr111111TTTTTT......YYYYY",
"YkkkkkkLLLLLLbbbbbb666666rrrrrrddddddwwwwwwVVVVVVVVVVVVwwwwwwddddddrrrrrr111111TTTTTT......YYYYY",
"kFFFFFFhhhhhhFFFFFFcccccc222222tttttt>>>>>>::::::::::::>>>>>>888888111111JJJJJJhhhhhhGGGGGGjjjjj",
"kFFFFFFhhhhhhFFFFFFcccccc222222tttttt>>>>>>::::::::::::>>>>>>888888111111JJJJJJhhhhhhGGGGGGjjjjj",
"kFFFFFFhhhhhhFFFFFFcccccc222222tttttt>>>>>>::::::::::::>>>>>>888888111111JJJJJJhhhhhhGGGGGGjjjjj",
"kFFFFFFhhhhhhFFFFFFcccccc222222tttttt>>>>>>::::::::::::>>>>>>888888111111JJJJJJhhhhhhGGGGGGjjjjj",
"kFFFFFFhhhhhhFFFFFFcccccc222222tttttt>>>>>>::::::::::::>>>>>>888888111111JJJJJJhhhhhhGGGGGGjjjjj",
"kFFFFFFhhhhhhFFFFFFcccccc222222tttttt>>>>>>::::::::::::>>>>>>888888111111JJJJJJhhhhhhGGGGGGjjjjj",
"FEEEEEEWWWWWWRRRRRRQQQQQQ^^^^^^OOOOOO;;;;;;;;;;;;;;;;;;      ^^^^^^!!!!!!RRRRRRWWWWWWRRRRRR~~~~~"
};
